<?xml version="1.0" encoding="UTF-8" standalone="no"?>
<!DOCTYPE svg PUBLIC "-//W3C//DTD SVG 1.1//EN"
"http://www.w3.org/Graphics/SVG/1.1/DTD/svg11.dtd">
<svg viewBox="0 0 541 866" version="1.1" xmlns="http://www.w3.org/2000/svg" xmlns:xlink="http://www.w3.org/1999/xlink">
<defs>
<style type="text/css"><![CDATA[
.g0_242{
fill: #0066B3;
}
.g1_242{
fill: #00000C;
}
.g2_242{
fill: #231F20;
}
]]></style>
</defs>
<path d="M28.7,80.4H329.5v29.9H28.7V80.4m300.8,0H376v29.9H329.5V80.4m46.5,0H490.9v29.9H376V80.4Z" class="g0_242"/>
<path d="M329.8,109.9h-.3V80.7h.3v29.2m-.3,0h-.4V80.7h.4v29.2Z" class="g1_242"/>
<path d="M28.4,80.7V80H329.5v.7v-.3H28.7v.3h-.3Z" class="g2_242"/>
<path d="M329.1,80.7H28.7v-.3H329.5v.3h-.4m.4,0v-.3v.3Z" class="g1_242"/>
<path d="M329.5,80.7v0h-.4h.4Z" class="g1_242"/>
<path d="M28.7,109.9h-.3V80.7h.3v29.2Z" class="g2_242"/>
<path d="M28.7,109.9h.4V80.7h-.4v29.2Z" class="g1_242"/>
<path d="M28.7,80.7h-.3h.3Z" class="g2_242"/>
<path d="M28.7,80.7h.4h-.4Z" class="g1_242"/>
<path d="M491.3,80.7h-.4v-.3H376v.3v-.3H329.5V80H491.3v.7Z" class="g2_242"/>
<path d="M375.6,80.7H329.5v-.3H376v.3h-.4m.7,0H376v-.3H490.9v.3H376.3Z" class="g1_242"/>
<path d="M329.5,80.7h.3h-.3Z" class="g1_242"/>
<path d="M376.3,109.9H376V80.7h.3v29.2m-.3,0h-.4V80.7h.4v29.2Z" class="g1_242"/>
<path d="M376,80.7v0h.3h-.7h.4Z" class="g1_242"/>
<path d="M491.3,109.9h-.4V80.7h.4v29.2Z" class="g2_242"/>
<path d="M490.9,109.9h-.3V80.7h.3v29.2Z" class="g1_242"/>
<path d="M490.9,80.7v0h.4h-.4Z" class="g2_242"/>
<path d="M490.6,80.7h.3h-.3Z" class="g1_242"/>
<path d="M29.1,209.1h-.7V110.6h.7v98.5Z" class="g2_242"/>
<path d="M28.4,294.3h.7V209.7h-.7v84.6Z" class="g2_242"/>
<path d="M29.1,324.2h-.7V295h.7v29.2Z" class="g2_242"/>
<path d="M28.4,451h.7V324.9h-.7V451Z" class="g2_242"/>
<path d="M29.1,577.8h-.7V451.7h.7V577.8Z" class="g2_242"/>
<path d="M28.4,663.1h.7V578.5h-.7v84.6Z" class="g2_242"/>
<path d="M329.1,663.8H28.4v-.7H329.5v.7h-.4Z" class="g2_242"/>
<path d="M29.1,762.2h-.7V663.8h.7v98.4Z" class="g2_242"/>
<path d="M29.1,663.8h-.7h.7Z" class="g2_242"/>
<path d="M491.3,663.8H329.5v-.7H491.3v.7Z" class="g2_242"/>
<path d="M491.3,110.6v0H28.4v-.7h.3v.4H329.5v-.4v.4H376v-.4v.4H490.9v-.4h.4v.7Z" class="g2_242"/>
<path d="M490.9,110.3H376v-.4H490.9v.4m-114.9,0H329.5v-.4H376v.4m-46.5,0H28.7v-.4H329.5v.4Z" class="g1_242"/>
<path d="M29.1,110.6h-.7h.7Z" class="g2_242"/>
<path d="M329.8,209.1h-.7V110.6h.7v98.5Z" class="g2_242"/>
<path d="M329.8,110.6h-.7h.7Z" class="g2_242"/>
<path d="M376,209.1v0h-.4V110.6h.7v98.5H376Z" class="g2_242"/>
<path d="M376.3,110.6h-.7h.7Z" class="g2_242"/>
<path d="M491.3,209.1h-.7V110.6h.7v98.5Z" class="g2_242"/>
<path d="M491.3,110.6h-.7h.7Z" class="g2_242"/>
<path d="M329.5,209.7H28.4v-.6H376v.6H329.5Z" class="g2_242"/>
<path d="M29.1,209.1h-.7h.7Z" class="g2_242"/>
<path d="M329.8,209.1h-.7h.7Z" class="g2_242"/>
<path d="M376,209.1h-.4h.4Z" class="g2_242"/>
<path d="M329.1,294.3h.7V209.7h-.7v84.6Z" class="g2_242"/>
<path d="M491.3,209.7H376v-.6H491.3v.6Z" class="g2_242"/>
<path d="M376,209.1h.3H376Z" class="g2_242"/>
<path d="M491.3,209.1h-.7h.7Z" class="g2_242"/>
<path d="M375.6,294.3h.7V209.7h-.7v84.6Z" class="g2_242"/>
<path d="M490.6,294.3h.7V209.7h-.7v84.6Z" class="g2_242"/>
<path d="M375.6,295H28.4v-.7H376v.7h-.4Z" class="g2_242"/>
<path d="M29.1,295h-.7h.7Z" class="g2_242"/>
<path d="M329.8,324.2h-.7V295h.7v29.2Z" class="g2_242"/>
<path d="M329.8,295h-.7h.7Z" class="g2_242"/>
<path d="M491.3,295H376v-.7H491.3v.7Z" class="g2_242"/>
<path d="M376,324.2v0h-.4V295h.7v29.2H376Z" class="g2_242"/>
<path d="M375.6,295h.7h-.7Z" class="g2_242"/>
<path d="M491.3,324.2h-.7V295h.7v29.2Z" class="g2_242"/>
<path d="M491.3,295h-.7h.7Z" class="g2_242"/>
<path d="M376,324.9H28.4v-.7H376v.7Z" class="g2_242"/>
<path d="M29.1,324.2h-.7h.7Z" class="g2_242"/>
<path d="M329.8,324.2h-.7h.7Z" class="g2_242"/>
<path d="M376,324.2h-.4h.4Z" class="g2_242"/>
<path d="M329.1,451h.7V324.9h-.7V451Z" class="g2_242"/>
<path d="M491.3,324.9H376v-.7H491.3v.7Z" class="g2_242"/>
<path d="M376,324.2h.3H376Z" class="g2_242"/>
<path d="M491.3,324.2h-.7h.7Z" class="g2_242"/>
<path d="M375.6,451h.7V324.9h-.7V451Z" class="g2_242"/>
<path d="M490.6,451h.7V324.9h-.7V451Z" class="g2_242"/>
<path d="M375.6,451.7H28.4V451H376v.7h-.4Z" class="g2_242"/>
<path d="M29.1,451.7h-.7h.7Z" class="g2_242"/>
<path d="M329.8,577.8h-.7V451.7h.7V577.8Z" class="g2_242"/>
<path d="M329.8,451.7h-.7h.7Z" class="g2_242"/>
<path d="M491.3,451.7H376V451H491.3v.7Z" class="g2_242"/>
<path d="M376,577.8v0h-.4V451.7h.7V577.8H376Z" class="g2_242"/>
<path d="M375.6,451.7h.7h-.7Z" class="g2_242"/>
<path d="M491.3,577.8h-.7V451.7h.7V577.8Z" class="g2_242"/>
<path d="M491.3,451.7h-.7h.7Z" class="g2_242"/>
<path d="M376,578.5H28.4v-.7H376v.7Z" class="g2_242"/>
<path d="M29.1,577.8h-.7h.7Z" class="g2_242"/>
<path d="M329.8,577.8h-.7h.7Z" class="g2_242"/>
<path d="M376,577.8h-.4h.4Z" class="g2_242"/>
<path d="M329.1,663.1h.7V578.5h-.7v84.6Z" class="g2_242"/>
<path d="M491.3,578.5H376v-.7H491.3v.7Z" class="g2_242"/>
<path d="M376,577.8h.3H376Z" class="g2_242"/>
<path d="M491.3,577.8h-.7h.7Z" class="g2_242"/>
<path d="M375.6,663.1h.7V578.5h-.7v84.6Z" class="g2_242"/>
<path d="M490.6,663.1h.7V578.5h-.7v84.6Z" class="g2_242"/>
<path d="M329.8,762.2h-.7V663.8h.7v98.4Z" class="g2_242"/>
<path d="M329.1,663.8h.7h-.7Z" class="g2_242"/>
<path d="M376.3,762.2h-.7V663.8h.7v98.4Z" class="g2_242"/>
<path d="M376.3,663.8h-.7h.7Z" class="g2_242"/>
<path d="M491.3,762.2h-.7V663.8h.7v98.4Z" class="g2_242"/>
<path d="M491.3,663.8h-.7h.7Z" class="g2_242"/>
<path d="M491.3,762.9H28.4v-.7H491.3v.7Z" class="g2_242"/>
<path d="M29.1,762.2h-.7h.7Z" class="g2_242"/>
<path d="M329.8,762.2h-.7h.7Z" class="g2_242"/>
<path d="M376.3,762.2h-.7h.7Z" class="g2_242"/>
<path d="M491.3,762.2h-.7h.7Z" class="g2_242"/>
</svg>