<?xml version="1.0" encoding="UTF-8" standalone="no"?>
<!DOCTYPE svg PUBLIC "-//W3C//DTD SVG 1.1//EN"
"http://www.w3.org/Graphics/SVG/1.1/DTD/svg11.dtd">
<svg viewBox="0 0 541 866" version="1.1" xmlns="http://www.w3.org/2000/svg" xmlns:xlink="http://www.w3.org/1999/xlink">
<defs>
<style type="text/css"><![CDATA[
.g0_253{
fill: #0066B3;
}
.g1_253{
fill: #231F20;
}
.g2_253{
fill: #00000C;
}
]]></style>
</defs>
<path d="M50.4,80.4H351.1v29.9H50.4V80.4m300.7,0h46.5v29.9H351.1V80.4m46.5,0h115v29.9h-115V80.4Z" class="g0_253"/>
<path d="M512.9,769.3h-.7V518.7h.7V769.3Z" class="g1_253"/>
<path d="M351.5,109.9h-.4V80.7h.4v29.2m-.4,0h-.3V80.7h.3v29.2Z" class="g2_253"/>
<path d="M50.1,80.7V80h301v.7v-.3H50.4v.3h-.3Z" class="g1_253"/>
<path d="M350.8,80.7H50.4v-.3H351.1v.3h-.3m.3,0v-.3v.3Z" class="g2_253"/>
<path d="M351.1,80.7v0h-.3h.3Z" class="g2_253"/>
<path d="M50.4,109.9h-.3V80.7h.3v29.2Z" class="g1_253"/>
<path d="M50.4,109.9h.3V80.7h-.3v29.2Z" class="g2_253"/>
<path d="M50.4,80.7h-.3h.3Z" class="g1_253"/>
<path d="M50.4,80.7h.3h-.3Z" class="g2_253"/>
<path d="M512.9,80.7v0h-.3v-.3h-115v.3v-.3H351.1V80H512.9v.7Z" class="g1_253"/>
<path d="M512.2,80.7H397.6v-.3h115v.3h-.4m-114.9,0H351.1v-.3h46.5v.3h-.3Z" class="g2_253"/>
<path d="M351.1,80.7h.4h-.4Z" class="g2_253"/>
<path d="M398,109.9h-.4V80.7h.4v29.2m-.4,0h-.3V80.7h.3v29.2Z" class="g2_253"/>
<path d="M398,80.7h-.4h.4m-.4,0h-.3h.3Z" class="g2_253"/>
<path d="M512.9,109.9h-.3V80.7h.3v29.2Z" class="g1_253"/>
<path d="M512.6,109.9h-.4V80.7h.4v29.2Z" class="g2_253"/>
<path d="M512.9,80.7h-.3h.3Z" class="g1_253"/>
<path d="M512.2,80.7h.4h-.4Z" class="g2_253"/>
<path d="M50.7,209.1h-.6V110.6h.6v98.5Z" class="g1_253"/>
<path d="M50.1,363.5h.6V209.7h-.6V363.5Z" class="g1_253"/>
<path d="M50.7,518h-.6V364.2h.6V518Z" class="g1_253"/>
<path d="M397.3,110.6H50.1v-.7h.3v.4H351.1v-.4v.4h46.5v-.4v.4h115v-.4h.3v.7H397.3Z" class="g1_253"/>
<path d="M512.6,110.3h-115v-.4h115v.4m-115,0H351.1v-.4h46.5v.4m-46.5,0H50.4v-.4H351.1v.4Z" class="g2_253"/>
<path d="M50.7,110.6h-.6h.6Z" class="g1_253"/>
<path d="M351.1,518.7H50.1V518h301v.7Z" class="g1_253"/>
<path d="M50.7,518h-.6h.6Z" class="g1_253"/>
<path d="M50.7,769.3h-.6V518.7h.6V769.3Z" class="g1_253"/>
<path d="M50.7,518.7h-.6h.6Z" class="g1_253"/>
<path d="M512.9,518.7H351.1V518H512.9v.7Z" class="g1_253"/>
<path d="M512.9,518.7h-.7h.7Z" class="g1_253"/>
<path d="M512.9,770H50.1v-.7H512.9v.7Z" class="g1_253"/>
<path d="M512.9,769.3h-.7h.7Z" class="g1_253"/>
<path d="M50.7,769.3h-.6h.6Z" class="g1_253"/>
<path d="M351.5,209.1h-.7V110.6h.7v98.5Z" class="g1_253"/>
<path d="M351.5,110.6h-.7h.7Z" class="g1_253"/>
<path d="M397.6,209.1v0h-.3V110.6h.7v98.5h-.4Z" class="g1_253"/>
<path d="M397.6,110.6h-.3h.7h-.4Z" class="g1_253"/>
<path d="M512.9,209.1h-.7V110.6h.7v98.5Z" class="g1_253"/>
<path d="M512.2,110.6h.7h-.7Z" class="g1_253"/>
<path d="M397.6,209.7H50.1v-.6H397.6v.6Z" class="g1_253"/>
<path d="M50.7,209.1h-.6h.6Z" class="g1_253"/>
<path d="M351.5,209.1h-.7h.7Z" class="g1_253"/>
<path d="M397.6,209.1h-.3h.3Z" class="g1_253"/>
<path d="M350.8,363.5h.7V209.7h-.7V363.5Z" class="g1_253"/>
<path d="M512.9,209.7H397.6v-.6H512.9v.6Z" class="g1_253"/>
<path d="M397.6,209.1h.4h-.4Z" class="g1_253"/>
<path d="M512.9,209.1h-.7h.7Z" class="g1_253"/>
<path d="M397.3,363.5h.7V209.7h-.7V363.5Z" class="g1_253"/>
<path d="M512.2,363.5h.7V209.7h-.7V363.5Z" class="g1_253"/>
<path d="M397.3,364.2H50.1v-.7H397.6v.7h-.3Z" class="g1_253"/>
<path d="M50.7,364.2h-.6h.6Z" class="g1_253"/>
<path d="M351.1,518v0h-.3V364.2h.7V518h-.4Z" class="g1_253"/>
<path d="M351.1,518h-.3h.3Z" class="g1_253"/>
<path d="M351.1,518h.4h-.4Z" class="g1_253"/>
<path d="M351.5,364.2h-.7h.7Z" class="g1_253"/>
<path d="M512.9,364.2H397.6v-.7H512.9v.7Z" class="g1_253"/>
<path d="M398,518h-.7V364.2h.7V518Z" class="g1_253"/>
<path d="M398,518h-.7h.7Z" class="g1_253"/>
<path d="M397.3,364.2h.7h-.7Z" class="g1_253"/>
<path d="M512.9,518h-.7V364.2h.7V518Z" class="g1_253"/>
<path d="M512.9,518h-.7h.7Z" class="g1_253"/>
<path d="M512.9,364.2h-.7h.7Z" class="g1_253"/>
</svg>