<?xml version="1.0" encoding="UTF-8" standalone="no"?>
<!DOCTYPE svg PUBLIC "-//W3C//DTD SVG 1.1//EN"
"http://www.w3.org/Graphics/SVG/1.1/DTD/svg11.dtd">
<svg viewBox="0 0 541 866" version="1.1" xmlns="http://www.w3.org/2000/svg" xmlns:xlink="http://www.w3.org/1999/xlink">
<defs>
<clipPath id="c0_165"><path d="M144.2,245V83.9H418.8V245Z"/></clipPath>
<clipPath id="c1_165"><path d="M380.3,655V629.5h51V655Z"/></clipPath>
<clipPath id="c2_165"><path d="M380.3,680.5V655h51v25.5Z"/></clipPath>
<clipPath id="c3_165"><path d="M438.4,655V629.5h51V655Z"/></clipPath>
<clipPath id="c4_165"><path d="M438.4,680.5V655h51v25.5Z"/></clipPath>
<clipPath id="c5_165"><path d="M438.4,728.2V702.7h51v25.5Z"/></clipPath>
<clipPath id="c6_165"><path d="M438.4,753.7V728.2h51v25.5Z"/></clipPath>
</defs>
<image clip-path="url(#c0_165)" preserveAspectRatio="none" x="144" y="82" width="275" height="165" xlink:href="img/1.jpg"/>
<image clip-path="url(#c1_165)" preserveAspectRatio="none" x="380" y="629" width="52" height="26" xlink:href="img/2.jpg"/>
<image clip-path="url(#c2_165)" preserveAspectRatio="none" x="380" y="655" width="52" height="26" xlink:href="img/3.jpg"/>
<image clip-path="url(#c3_165)" preserveAspectRatio="none" x="438" y="629" width="52" height="26" xlink:href="img/4.jpg"/>
<image clip-path="url(#c4_165)" preserveAspectRatio="none" x="438" y="655" width="52" height="26" xlink:href="img/5.jpg"/>
<image clip-path="url(#c5_165)" preserveAspectRatio="none" x="438" y="703" width="52" height="25" xlink:href="img/6.jpg"/>
<image clip-path="url(#c6_165)" preserveAspectRatio="none" x="438" y="728" width="52" height="26" xlink:href="img/7.jpg"/>
</svg>