<?xml version="1.0" encoding="UTF-8" standalone="no"?>
<!DOCTYPE svg PUBLIC "-//W3C//DTD SVG 1.1//EN"
"http://www.w3.org/Graphics/SVG/1.1/DTD/svg11.dtd">
<svg viewBox="0 0 541 866" version="1.1" xmlns="http://www.w3.org/2000/svg" xmlns:xlink="http://www.w3.org/1999/xlink">
<defs>
<clipPath id="c0_204"><path d="M364.4,137.5V119.6H469.1v17.9Z"/></clipPath>
<clipPath id="c1_204"><path d="M364.4,187V169.1H469.1V187Z"/></clipPath>
<clipPath id="c2_204"><path d="M364.4,262.7V244.8H469.1v17.9Z"/></clipPath>
<clipPath id="c3_204"><path d="M364.4,325.5v-18H469.1v18Z"/></clipPath>
<clipPath id="c4_204"><path d="M364.2,365.5V347.2H468.9v18.3Z"/></clipPath>
<clipPath id="c5_204"><path d="M363,414V396.6H467.7V414Z"/></clipPath>
<clipPath id="c6_204"><path d="M363,503V485.2H467.7V503Z"/></clipPath>
<clipPath id="c7_204"><path d="M363,553V535.1H467.7V553Z"/></clipPath>
<clipPath id="c8_204"><path d="M363,656.7V638.3H467.7v18.4Z"/></clipPath>
<clipPath id="c9_204"><path d="M363,745.2V700.1h74.4v45.1Z"/></clipPath>
</defs>
<image clip-path="url(#c0_204)" preserveAspectRatio="none" x="364" y="120" width="105" height="19" xlink:href="img/1.jpg"/>
<image clip-path="url(#c1_204)" preserveAspectRatio="none" x="364" y="169" width="105" height="19" xlink:href="img/2.jpg"/>
<image clip-path="url(#c2_204)" preserveAspectRatio="none" x="364" y="245" width="105" height="19" xlink:href="img/3.jpg"/>
<image clip-path="url(#c3_204)" preserveAspectRatio="none" x="364" y="307" width="105" height="19" xlink:href="img/4.jpg"/>
<image clip-path="url(#c4_204)" preserveAspectRatio="none" x="364" y="347" width="105" height="19" xlink:href="img/5.jpg"/>
<image clip-path="url(#c5_204)" preserveAspectRatio="none" x="363" y="397" width="105" height="18" xlink:href="img/6.jpg"/>
<image clip-path="url(#c6_204)" preserveAspectRatio="none" x="363" y="485" width="105" height="19" xlink:href="img/7.jpg"/>
<image clip-path="url(#c7_204)" preserveAspectRatio="none" x="363" y="535" width="105" height="19" xlink:href="img/8.jpg"/>
<image clip-path="url(#c8_204)" preserveAspectRatio="none" x="363" y="638" width="105" height="19" xlink:href="img/9.jpg"/>
<image clip-path="url(#c9_204)" preserveAspectRatio="none" x="363" y="700" width="75" height="45" xlink:href="img/10.jpg"/>
</svg>