<?xml version="1.0" encoding="UTF-8" standalone="no"?>
<!DOCTYPE svg PUBLIC "-//W3C//DTD SVG 1.1//EN"
"http://www.w3.org/Graphics/SVG/1.1/DTD/svg11.dtd">
<svg viewBox="0 0 541 866" version="1.1" xmlns="http://www.w3.org/2000/svg" xmlns:xlink="http://www.w3.org/1999/xlink">
<defs>
<clipPath id="c0_196"><path d="M332.4,118.8V87.1h31.4v31.7Z"/></clipPath>
<clipPath id="c1_196"><path d="M363.8,118.8V87.1h31.4v31.7Z"/></clipPath>
<clipPath id="c2_196"><path d="M405,118.8V87.1h31.4v31.7Z"/></clipPath>
<clipPath id="c3_196"><path d="M436.3,118.8V87.1h31.4v31.7Z"/></clipPath>
<clipPath id="c4_196"><path d="M405,174.1V142.4h31.4v31.7Z"/></clipPath>
<clipPath id="c5_196"><path d="M436.3,174.1V142.4h31.4v31.7Z"/></clipPath>
<clipPath id="c6_196"><path d="M51.9,259.7V220.3H91v39.4Z"/></clipPath>
<clipPath id="c7_196"><path d="M90.9,259.7V220.3h39v39.4Z"/></clipPath>
<clipPath id="c8_196"><path d="M134.2,259.7V220.3h39v39.4Z"/></clipPath>
<clipPath id="c9_196"><path d="M173.1,259.7V220.3h39v39.4Z"/></clipPath>
<clipPath id="ca_196"><path d="M219,259.7V220.3h78v39.4Z"/></clipPath>
<clipPath id="cb_196"><path d="M79.9,321V281.6h39V321Z"/></clipPath>
<clipPath id="cc_196"><path d="M118.8,321V281.6h39V321Z"/></clipPath>
<clipPath id="cd_196"><path d="M388.7,259.7V220.3h39v39.4Z"/></clipPath>
<clipPath id="ce_196"><path d="M427.6,259.7V220.3h39.1v39.4Z"/></clipPath>
<clipPath id="cf_196"><path d="M303.9,259.7V220.3h39v39.4Z"/></clipPath>
<clipPath id="cg_196"><path d="M342.8,259.7V220.3h39v39.4Z"/></clipPath>
<clipPath id="ch_196"><path d="M173,321V281.6h39V321Z"/></clipPath>
<clipPath id="ci_196"><path d="M211.9,321V281.6H251V321Z"/></clipPath>
<clipPath id="cj_196"><path d="M265.7,321V281.6h39V321Z"/></clipPath>
<clipPath id="ck_196"><path d="M304.6,321V281.6h39V321Z"/></clipPath>
<clipPath id="cl_196"><path d="M358.4,320.9V281.6h39v39.3Z"/></clipPath>
<clipPath id="cm_196"><path d="M397.3,320.9V281.6h39v39.3Z"/></clipPath>
<clipPath id="cn_196"><path d="M240.6,607.9V563.5h33.6v44.4Z"/></clipPath>
<clipPath id="co_196"><path d="M274.2,607.9V563.5h33.6v44.4Z"/></clipPath>
<clipPath id="cp_196"><path d="M400.5,672.2v-44h67.2v44Z"/></clipPath>
<clipPath id="cq_196"><path d="M399.4,607.9V563.5h33.7v44.4Z"/></clipPath>
<clipPath id="cr_196"><path d="M433,607.9V563.5h33.7v44.4Z"/></clipPath>
<clipPath id="cs_196"><path d="M320.5,607.9V563.5h33.7v44.4Z"/></clipPath>
<clipPath id="ct_196"><path d="M354.1,607.9V563.5h33.7v44.4Z"/></clipPath>
<clipPath id="cu_196"><path d="M400.5,540.3V495.8h33.7v44.5Z"/></clipPath>
<clipPath id="cv_196"><path d="M434.1,540.3V495.8h33.6v44.5Z"/></clipPath>
<clipPath id="cw_196"><path d="M320.5,540.3V495.8h33.7v44.5Z"/></clipPath>
<clipPath id="cx_196"><path d="M354.1,540.3V495.8h33.7v44.5Z"/></clipPath>
<clipPath id="cy_196"><path d="M240.6,540.3V495.8h33.6v44.5Z"/></clipPath>
<clipPath id="cz_196"><path d="M274.2,540.3V495.8h33.6v44.5Z"/></clipPath>
<clipPath id="c10_196"><path d="M140.4,748.5V711.1h37.1v37.4Z"/></clipPath>
<clipPath id="c11_196"><path d="M177.4,748.5V711.1h37.1v37.4Z"/></clipPath>
<clipPath id="c12_196"><path d="M221.6,748.5V711.1h37.1v37.4Z"/></clipPath>
<clipPath id="c13_196"><path d="M258.6,748.5V711.1h37.1v37.4Z"/></clipPath>
<clipPath id="c14_196"><path d="M302.3,748.5V711.1h37.1v37.4Z"/></clipPath>
<clipPath id="c15_196"><path d="M339.3,748.5V711.1h37.1v37.4Z"/></clipPath>
</defs>
<image clip-path="url(#c0_196)" preserveAspectRatio="none" x="332" y="87" width="32" height="32" xlink:href="img/1.jpg"/>
<image clip-path="url(#c1_196)" preserveAspectRatio="none" x="364" y="87" width="32" height="32" xlink:href="img/2.jpg"/>
<image clip-path="url(#c2_196)" preserveAspectRatio="none" x="405" y="87" width="32" height="32" xlink:href="img/3.jpg"/>
<image clip-path="url(#c3_196)" preserveAspectRatio="none" x="436" y="87" width="32" height="32" xlink:href="img/4.jpg"/>
<image clip-path="url(#c4_196)" preserveAspectRatio="none" x="405" y="142" width="32" height="32" xlink:href="img/5.jpg"/>
<image clip-path="url(#c5_196)" preserveAspectRatio="none" x="436" y="142" width="32" height="32" xlink:href="img/6.jpg"/>
<image clip-path="url(#c6_196)" preserveAspectRatio="none" x="52" y="220" width="39" height="40" xlink:href="img/7.jpg"/>
<image clip-path="url(#c7_196)" preserveAspectRatio="none" x="91" y="220" width="39" height="40" xlink:href="img/8.jpg"/>
<image clip-path="url(#c8_196)" preserveAspectRatio="none" x="134" y="220" width="40" height="40" xlink:href="img/9.jpg"/>
<image clip-path="url(#c9_196)" preserveAspectRatio="none" x="173" y="220" width="40" height="40" xlink:href="img/10.jpg"/>
<image clip-path="url(#ca_196)" preserveAspectRatio="none" x="219" y="220" width="79" height="41" xlink:href="img/11.jpg"/>
<image clip-path="url(#cb_196)" preserveAspectRatio="none" x="80" y="281" width="39" height="40" xlink:href="img/12.jpg"/>
<image clip-path="url(#cc_196)" preserveAspectRatio="none" x="119" y="281" width="39" height="40" xlink:href="img/13.jpg"/>
<image clip-path="url(#cd_196)" preserveAspectRatio="none" x="389" y="220" width="39" height="40" xlink:href="img/14.jpg"/>
<image clip-path="url(#ce_196)" preserveAspectRatio="none" x="428" y="220" width="39" height="40" xlink:href="img/15.jpg"/>
<image clip-path="url(#cf_196)" preserveAspectRatio="none" x="304" y="220" width="39" height="40" xlink:href="img/16.jpg"/>
<image clip-path="url(#cg_196)" preserveAspectRatio="none" x="343" y="220" width="39" height="40" xlink:href="img/17.jpg"/>
<image clip-path="url(#ch_196)" preserveAspectRatio="none" x="173" y="281" width="39" height="40" xlink:href="img/18.jpg"/>
<image clip-path="url(#ci_196)" preserveAspectRatio="none" x="212" y="281" width="39" height="40" xlink:href="img/19.jpg"/>
<image clip-path="url(#cj_196)" preserveAspectRatio="none" x="266" y="281" width="39" height="40" xlink:href="img/20.jpg"/>
<image clip-path="url(#ck_196)" preserveAspectRatio="none" x="305" y="281" width="39" height="40" xlink:href="img/21.jpg"/>
<image clip-path="url(#cl_196)" preserveAspectRatio="none" x="358" y="281" width="40" height="40" xlink:href="img/22.jpg"/>
<image clip-path="url(#cm_196)" preserveAspectRatio="none" x="397" y="281" width="40" height="40" xlink:href="img/23.jpg"/>
<image clip-path="url(#cn_196)" preserveAspectRatio="none" x="240" y="563" width="35" height="45" xlink:href="img/24.jpg"/>
<image clip-path="url(#co_196)" preserveAspectRatio="none" x="274" y="563" width="34" height="45" xlink:href="img/25.jpg"/>
<image clip-path="url(#cp_196)" preserveAspectRatio="none" x="400" y="628" width="69" height="44" xlink:href="img/26.jpg"/>
<image clip-path="url(#cq_196)" preserveAspectRatio="none" x="399" y="563" width="34" height="45" xlink:href="img/27.jpg"/>
<image clip-path="url(#cr_196)" preserveAspectRatio="none" x="433" y="563" width="34" height="45" xlink:href="img/28.jpg"/>
<image clip-path="url(#cs_196)" preserveAspectRatio="none" x="320" y="563" width="34" height="45" xlink:href="img/29.jpg"/>
<image clip-path="url(#ct_196)" preserveAspectRatio="none" x="354" y="563" width="34" height="45" xlink:href="img/30.jpg"/>
<image clip-path="url(#cu_196)" preserveAspectRatio="none" x="400" y="496" width="34" height="44" xlink:href="img/31.jpg"/>
<image clip-path="url(#cv_196)" preserveAspectRatio="none" x="434" y="496" width="34" height="44" xlink:href="img/32.jpg"/>
<image clip-path="url(#cw_196)" preserveAspectRatio="none" x="320" y="496" width="34" height="44" xlink:href="img/33.jpg"/>
<image clip-path="url(#cx_196)" preserveAspectRatio="none" x="354" y="496" width="34" height="44" xlink:href="img/34.jpg"/>
<image clip-path="url(#cy_196)" preserveAspectRatio="none" x="240" y="496" width="35" height="44" xlink:href="img/35.jpg"/>
<image clip-path="url(#cz_196)" preserveAspectRatio="none" x="274" y="496" width="34" height="44" xlink:href="img/36.jpg"/>
<image clip-path="url(#c10_196)" preserveAspectRatio="none" x="140" y="711" width="38" height="38" xlink:href="img/37.jpg"/>
<image clip-path="url(#c11_196)" preserveAspectRatio="none" x="177" y="711" width="38" height="38" xlink:href="img/38.jpg"/>
<image clip-path="url(#c12_196)" preserveAspectRatio="none" x="221" y="711" width="38" height="38" xlink:href="img/39.jpg"/>
<image clip-path="url(#c13_196)" preserveAspectRatio="none" x="259" y="711" width="37" height="38" xlink:href="img/40.jpg"/>
<image clip-path="url(#c14_196)" preserveAspectRatio="none" x="302" y="711" width="38" height="38" xlink:href="img/41.jpg"/>
<image clip-path="url(#c15_196)" preserveAspectRatio="none" x="339" y="711" width="38" height="38" xlink:href="img/42.jpg"/>
</svg>