<?xml version="1.0" encoding="UTF-8" standalone="no"?>
<!DOCTYPE svg PUBLIC "-//W3C//DTD SVG 1.1//EN"
"http://www.w3.org/Graphics/SVG/1.1/DTD/svg11.dtd">
<svg viewBox="0 0 541 866" version="1.1" xmlns="http://www.w3.org/2000/svg" xmlns:xlink="http://www.w3.org/1999/xlink">
<defs>
<style type="text/css"><![CDATA[
.g0_248{
fill: #0066B3;
}
.g1_248{
fill: #00000C;
}
.g2_248{
fill: #231F20;
}
]]></style>
</defs>
<path d="M28.7,80.4H329.5v29.9H28.7V80.4m300.8,0H376v29.9H329.5V80.4m46.5,0H490.9v29.9H376V80.4Z" class="g0_248"/>
<path d="M329.8,109.9h-.3V80.7h.3v29.2m-.3,0h-.4V80.7h.4v29.2Z" class="g1_248"/>
<path d="M28.4,80.7V80H329.5v.7v-.3H28.7v.3h-.3Z" class="g2_248"/>
<path d="M329.1,80.7H28.7v-.3H329.5v.3h-.4m.4,0v-.3v.3Z" class="g1_248"/>
<path d="M329.5,80.7v0h-.4h.4Z" class="g1_248"/>
<path d="M28.7,109.9h-.3V80.7h.3v29.2Z" class="g2_248"/>
<path d="M28.7,109.9h.4V80.7h-.4v29.2Z" class="g1_248"/>
<path d="M28.7,80.7h-.3h.3Z" class="g2_248"/>
<path d="M28.7,80.7h.4h-.4Z" class="g1_248"/>
<path d="M491.3,80.7h-.4v-.3H376v.3v-.3H329.5V80H491.3v.7Z" class="g2_248"/>
<path d="M375.6,80.7H329.5v-.3H376v.3h-.4m.7,0H376v-.3H490.9v.3H376.3Z" class="g1_248"/>
<path d="M329.5,80.7h.3h-.3Z" class="g1_248"/>
<path d="M376.3,109.9H376V80.7h.3v29.2m-.3,0h-.4V80.7h.4v29.2Z" class="g1_248"/>
<path d="M376,80.7v0h.3h-.7h.4Z" class="g1_248"/>
<path d="M491.3,109.9h-.4V80.7h.4v29.2Z" class="g2_248"/>
<path d="M490.9,109.9h-.3V80.7h.3v29.2Z" class="g1_248"/>
<path d="M490.9,80.7v0h.4h-.4Z" class="g2_248"/>
<path d="M490.6,80.7h.3h-.3Z" class="g1_248"/>
<path d="M491.3,110.6v0H28.4v-.7h.3v.4H329.5v-.4v.4H376v-.4v.4H490.9v-.4h.4v.7Z" class="g2_248"/>
<path d="M490.9,110.3H376v-.4H490.9v.4m-114.9,0H329.5v-.4H376v.4m-46.5,0H28.7v-.4H329.5v.4Z" class="g1_248"/>
<path d="M29.1,181.4h-.7V110.6h.7v70.8Z" class="g2_248"/>
<path d="M29.1,110.6h-.7h.7Z" class="g2_248"/>
<path d="M491.3,181.4h-.7V110.6h.7v70.8Z" class="g2_248"/>
<path d="M491.3,110.6h-.7h.7Z" class="g2_248"/>
<path d="M28.4,225.1h.7v-43h-.7v43Z" class="g2_248"/>
<path d="M490.6,225.1h.7v-43h-.7v43Z" class="g2_248"/>
<path d="M29.1,296.6h-.7V225.8h.7v70.8Z" class="g2_248"/>
<path d="M491.3,296.6h-.7V225.8h.7v70.8Z" class="g2_248"/>
<path d="M29.1,354.2h-.7V297.3h.7v56.9Z" class="g2_248"/>
<path d="M491.3,354.2h-.7V297.3h.7v56.9Z" class="g2_248"/>
<path d="M28.4,397.9h.7v-43h-.7v43Z" class="g2_248"/>
<path d="M490.6,397.9h.7v-43h-.7v43Z" class="g2_248"/>
<path d="M29.1,455.5h-.7V398.6h.7v56.9Z" class="g2_248"/>
<path d="M491.3,455.5h-.7V398.6h.7v56.9Z" class="g2_248"/>
<path d="M28.4,554.6h.7V456.2h-.7v98.4Z" class="g2_248"/>
<path d="M490.6,554.6h.7V456.2h-.7v98.4Z" class="g2_248"/>
<path d="M29.1,653.7h-.7V555.3h.7v98.4Z" class="g2_248"/>
<path d="M491.3,653.7h-.7V555.3h.7v98.4Z" class="g2_248"/>
<path d="M28.4,739h.7V654.4h-.7V739Z" class="g2_248"/>
<path d="M490.6,739h.7V654.4h-.7V739Z" class="g2_248"/>
<path d="M329.8,181.4h-.7V110.6h.7v70.8Z" class="g2_248"/>
<path d="M329.8,110.6h-.7h.7Z" class="g2_248"/>
<path d="M376,181.4v0h-.4V110.6h.7v70.8H376Z" class="g2_248"/>
<path d="M376.3,110.6h-.7h.7Z" class="g2_248"/>
<path d="M376,182.1H28.4v-.7H376v.7Z" class="g2_248"/>
<path d="M29.1,181.4h-.7h.7Z" class="g2_248"/>
<path d="M329.8,181.4h-.7h.7Z" class="g2_248"/>
<path d="M376,181.4h-.4h.4Z" class="g2_248"/>
<path d="M329.1,225.1h.7v-43h-.7v43Z" class="g2_248"/>
<path d="M491.3,182.1H376v-.7H491.3v.7Z" class="g2_248"/>
<path d="M491.3,181.4h-.7h.7Z" class="g2_248"/>
<path d="M376,181.4h.3H376Z" class="g2_248"/>
<path d="M375.6,225.1h.7v-43h-.7v43Z" class="g2_248"/>
<path d="M375.6,225.8H28.4v-.7H376v.7h-.4Z" class="g2_248"/>
<path d="M29.1,225.8h-.7h.7Z" class="g2_248"/>
<path d="M329.8,296.6h-.7V225.8h.7v70.8Z" class="g2_248"/>
<path d="M329.8,225.8h-.7h.7Z" class="g2_248"/>
<path d="M491.3,225.8H376v-.7H491.3v.7Z" class="g2_248"/>
<path d="M491.3,225.8h-.7h.7Z" class="g2_248"/>
<path d="M376,296.6v0h-.4V225.8h.7v70.8H376Z" class="g2_248"/>
<path d="M375.6,225.8h.7h-.7Z" class="g2_248"/>
<path d="M376,297.3H28.4v-.7H376v.7Z" class="g2_248"/>
<path d="M29.1,296.6h-.7h.7Z" class="g2_248"/>
<path d="M329.8,296.6h-.7h.7Z" class="g2_248"/>
<path d="M376,296.6h-.4h.4Z" class="g2_248"/>
<path d="M329.8,354.2h-.7V297.3h.7v56.9Z" class="g2_248"/>
<path d="M491.3,297.3H376v-.7H491.3v.7Z" class="g2_248"/>
<path d="M491.3,296.6h-.7h.7Z" class="g2_248"/>
<path d="M376,296.6h.3H376Z" class="g2_248"/>
<path d="M376,354.2v0h-.4v-43h.7v43H376m.3,-53.6h-.7v-3.3h.7v3.3Z" class="g2_248"/>
<path d="M376,354.9H28.4v-.7H376v.7Z" class="g2_248"/>
<path d="M29.1,354.2h-.7h.7Z" class="g2_248"/>
<path d="M329.8,354.2h-.7h.7Z" class="g2_248"/>
<path d="M376,354.2h-.4h.4Z" class="g2_248"/>
<path d="M329.1,397.9h.7v-43h-.7v43Z" class="g2_248"/>
<path d="M491.3,354.9H376v-.7H491.3v.7Z" class="g2_248"/>
<path d="M491.3,354.2h-.7h.7Z" class="g2_248"/>
<path d="M376,354.2h.3H376Z" class="g2_248"/>
<path d="M375.6,397.9h.7v-43h-.7v43Z" class="g2_248"/>
<path d="M329.1,398.6H28.4v-.7H376v.7H329.1Z" class="g2_248"/>
<path d="M29.1,398.6h-.7h.7Z" class="g2_248"/>
<path d="M329.8,455.5h-.7V398.6h.7v56.9Z" class="g2_248"/>
<path d="M329.5,398.6h-.4h.7h-.3Z" class="g2_248"/>
<path d="M491.3,398.6H376v-.7H491.3v.7Z" class="g2_248"/>
<path d="M491.3,398.6h-.7h.7Z" class="g2_248"/>
<path d="M376,455.5v0h-.4V398.6h.7v56.9H376Z" class="g2_248"/>
<path d="M375.6,398.6h.7h-.7Z" class="g2_248"/>
<path d="M329.5,456.2H28.4v-.7H376v.7H329.5Z" class="g2_248"/>
<path d="M29.1,455.5h-.7h.7Z" class="g2_248"/>
<path d="M329.8,455.5h-.7h.7Z" class="g2_248"/>
<path d="M376,455.5h-.4h.4Z" class="g2_248"/>
<path d="M329.1,554.6h.7V456.2h-.7v98.4Z" class="g2_248"/>
<path d="M491.3,456.2H376v-.7H491.3v.7Z" class="g2_248"/>
<path d="M491.3,455.5h-.7h.7Z" class="g2_248"/>
<path d="M376,455.5h.3H376Z" class="g2_248"/>
<path d="M375.6,554.6h.7V456.2h-.7v98.4Z" class="g2_248"/>
<path d="M375.6,555.3H28.4v-.7H376v.7h-.4Z" class="g2_248"/>
<path d="M29.1,555.3h-.7h.7Z" class="g2_248"/>
<path d="M329.8,653.7h-.7V555.3h.7v98.4Z" class="g2_248"/>
<path d="M329.8,555.3h-.7h.7Z" class="g2_248"/>
<path d="M491.3,555.3H376v-.7H491.3v.7Z" class="g2_248"/>
<path d="M491.3,555.3h-.7h.7Z" class="g2_248"/>
<path d="M376,653.7v0h-.4V555.3h.7v98.4H376Z" class="g2_248"/>
<path d="M375.6,555.3h.7h-.7Z" class="g2_248"/>
<path d="M376,654.4H28.4v-.7H376v.7Z" class="g2_248"/>
<path d="M29.1,653.7h-.7h.7Z" class="g2_248"/>
<path d="M329.8,653.7h-.7h.7Z" class="g2_248"/>
<path d="M376,653.7h-.4h.4Z" class="g2_248"/>
<path d="M329.1,739h.7V654.4h-.7V739Z" class="g2_248"/>
<path d="M491.3,654.4H376v-.7H491.3v.7Z" class="g2_248"/>
<path d="M491.3,653.7h-.7h.7Z" class="g2_248"/>
<path d="M376,653.7h.3H376Z" class="g2_248"/>
<path d="M375.6,739h.7V654.4h-.7V739Z" class="g2_248"/>
<path d="M491.3,739.7H28.4V739H491.3v.7Z" class="g2_248"/>
<path d="M375.6,311.2h.7V300.6h-.7v10.6Z" class="g2_248"/>
<path d="M28.4,753h92.2v-.7H28.4v.7Z" class="g2_248"/>
</svg>