<?xml version="1.0" encoding="UTF-8" standalone="no"?>
<!DOCTYPE svg PUBLIC "-//W3C//DTD SVG 1.1//EN"
"http://www.w3.org/Graphics/SVG/1.1/DTD/svg11.dtd">
<svg viewBox="0 0 541 866" version="1.1" xmlns="http://www.w3.org/2000/svg" xmlns:xlink="http://www.w3.org/1999/xlink">
<defs>
<style type="text/css"><![CDATA[
.g0_269{
fill: #0066B3;
}
.g1_269{
fill: #00000C;
}
.g2_269{
fill: #231F20;
}
]]></style>
</defs>
<path d="M50.4,80.4H305.8v43.7H50.4V80.4m255.4,0h42.4v43.7H305.8V80.4m42.4,0H511v43.7H348.2V80.4Z" class="g0_269"/>
<path d="M306.2,123.8h-.4V80.7h.4v43.1m-.4,0h-.3V80.7h.3v43.1Z" class="g1_269"/>
<path d="M50.1,80.7V80H305.8v.7v-.3H50.4v.3h-.3Z" class="g2_269"/>
<path d="M305.5,80.7H50.4v-.3H305.8v.3h-.3m.3,0v-.3v.3Z" class="g1_269"/>
<path d="M305.8,80.7v0h-.3h.3Z" class="g1_269"/>
<path d="M50.4,123.8h-.3V80.7h.3v43.1Z" class="g2_269"/>
<path d="M50.7,123.8h-.3V80.7h.3v43.1Z" class="g1_269"/>
<path d="M50.4,80.7h-.3h.3Z" class="g2_269"/>
<path d="M50.4,80.7h.3h-.3Z" class="g1_269"/>
<path d="M511.4,80.7v0H511v-.3H348.2v.3v-.3H305.8V80H511.4v.7Z" class="g2_269"/>
<path d="M510.7,80.7H348.2v-.3H511v.3h-.3m-162.9,0h-42v-.3h42.4v.3h-.4Z" class="g1_269"/>
<path d="M305.8,80.7h.4h-.4Z" class="g1_269"/>
<path d="M348.2,123.8V80.7Z" class="g2_269"/>
<path d="M348.5,123.8h-.3V80.7h.3v43.1m-.3,0h-.4V80.7h.4v43.1Z" class="g1_269"/>
<path d="M348.2,80.7v0Z" class="g2_269"/>
<path d="M348.5,80.7h-.3h.3m-.3,0h-.4h.4Z" class="g1_269"/>
<path d="M511.4,123.8H511V80.7h.4v43.1Z" class="g2_269"/>
<path d="M511,123.8h-.3V80.7h.3v43.1Z" class="g1_269"/>
<path d="M511.4,80.7H511h.4Z" class="g2_269"/>
<path d="M510.7,80.7h.3h-.3Z" class="g1_269"/>
<path d="M511.4,124.5v0H50.1v-.7h.3v.3H305.8v-.3v.3h42.4v-.3v.3H511v-.3h.4v.7Z" class="g2_269"/>
<path d="M511,124.1H348.2v-.3H511v.3m-162.8,0H305.8v-.3h42.4v.3m-42.4,0H50.4v-.3H305.8v.3Z" class="g1_269"/>
<path d="M306.2,123.8h-.4h.4m-.4,0h-.3h.3Z" class="g1_269"/>
<path d="M50.4,123.8h-.3h.3Z" class="g2_269"/>
<path d="M50.4,123.8h.3h-.3Z" class="g1_269"/>
<path d="M348.2,123.8v0Z" class="g2_269"/>
<path d="M348.5,123.8h-.3h.3m-.3,0h-.4h.4Z" class="g1_269"/>
<path d="M511.4,123.8H511h.4Z" class="g2_269"/>
<path d="M511,123.8h-.3h.3Z" class="g1_269"/>
<path d="M347.8,336.5H50.1v-.7H511.4v.7H347.8Z" class="g2_269"/>
<path d="M50.7,222.9h-.6V124.5h.6v98.4Z" class="g2_269"/>
<path d="M50.7,124.5h-.6h.6Z" class="g2_269"/>
<path d="M511.4,222.9h-.7V124.5h.7v98.4Z" class="g2_269"/>
<path d="M511.4,124.5h-.7h.7Z" class="g2_269"/>
<path d="M50.1,335.8h.6V223.6h-.6V335.8Z" class="g2_269"/>
<path d="M510.7,335.8h.7V223.6h-.7V335.8Z" class="g2_269"/>
<path d="M50.7,448.8h-.6V336.5h.6V448.8Z" class="g2_269"/>
<path d="M50.7,336.5h-.6h.6Z" class="g2_269"/>
<path d="M511.4,448.8h-.7V336.5h.7V448.8Z" class="g2_269"/>
<path d="M510.7,336.5h.7h-.7Z" class="g2_269"/>
<path d="M50.1,520.2h.6V449.5h-.6v70.7Z" class="g2_269"/>
<path d="M510.7,520.2h.7V449.5h-.7v70.7Z" class="g2_269"/>
<path d="M511.4,653.1H50.1v-.7H511.4v.7Z" class="g2_269"/>
<path d="M305.5,520.9H50.1v-.7H305.8v.7h-.3Z" class="g2_269"/>
<path d="M50.7,593.2h-.6V520.9h.6v72.3Z" class="g2_269"/>
<path d="M50.7,520.9h-.6h.6Z" class="g2_269"/>
<path d="M511.4,520.9H305.8v-.7H511.4v.7Z" class="g2_269"/>
<path d="M511.4,593.2h-.7V520.9h.7v72.3Z" class="g2_269"/>
<path d="M511.4,520.9h-.7h.7Z" class="g2_269"/>
<path d="M50.7,652.4h-.6V593.9h.6v58.5Z" class="g2_269"/>
<path d="M50.7,652.4h-.6h.6Z" class="g2_269"/>
<path d="M511.4,652.4h-.7V593.9h.7v58.5Z" class="g2_269"/>
<path d="M511.4,652.4h-.7h.7Z" class="g2_269"/>
<path d="M306.2,222.9h-.7V124.5h.7v98.4Z" class="g2_269"/>
<path d="M306.2,124.5h-.7h.7Z" class="g2_269"/>
<path d="M348.2,222.9v0h-.4V124.5h.7v98.4h-.3Z" class="g2_269"/>
<path d="M348.5,124.5h-.7h.7Z" class="g2_269"/>
<path d="M348.2,223.6H50.1v-.7H348.2v.7Z" class="g2_269"/>
<path d="M50.7,222.9h-.6h.6Z" class="g2_269"/>
<path d="M306.2,222.9h-.7h.7Z" class="g2_269"/>
<path d="M348.2,222.9h-.4h.4Z" class="g2_269"/>
<path d="M305.5,335.8h.7V223.6h-.7V335.8Z" class="g2_269"/>
<path d="M511.4,223.6H348.2v-.7H511.4v.7Z" class="g2_269"/>
<path d="M511.4,222.9h-.7h.7Z" class="g2_269"/>
<path d="M348.2,222.9h.3h-.3Z" class="g2_269"/>
<path d="M347.8,335.8h.7V223.6h-.7V335.8Z" class="g2_269"/>
<path d="M306.2,448.8h-.7V336.5h.7V448.8Z" class="g2_269"/>
<path d="M306.2,336.5h-.7h.7Z" class="g2_269"/>
<path d="M348.2,448.8v0h-.4V336.5h.7V448.8h-.3Z" class="g2_269"/>
<path d="M348.2,336.5h-.4h.7h-.3Z" class="g2_269"/>
<path d="M348.2,449.5H50.1v-.7H348.2v.7Z" class="g2_269"/>
<path d="M50.7,448.8h-.6h.6Z" class="g2_269"/>
<path d="M306.2,448.8h-.7h.7Z" class="g2_269"/>
<path d="M348.2,448.8h-.4h.4Z" class="g2_269"/>
<path d="M305.5,520.2h.7V449.5h-.7v70.7Z" class="g2_269"/>
<path d="M511.4,449.5H348.2v-.7H511.4v.7Z" class="g2_269"/>
<path d="M511.4,448.8h-.7h.7Z" class="g2_269"/>
<path d="M348.2,448.8h.3h-.3Z" class="g2_269"/>
<path d="M347.8,520.2h.7V449.5h-.7v70.7Z" class="g2_269"/>
<path d="M306.2,593.2h-.7V520.9h.7v72.3Z" class="g2_269"/>
<path d="M305.5,520.9h.7h-.7Z" class="g2_269"/>
<path d="M348.2,593.2v0h-.4V520.9h.7v72.3h-.3Z" class="g2_269"/>
<path d="M348.5,520.9h-.7h.7Z" class="g2_269"/>
<path d="M348.2,593.9H50.1v-.7H348.2v.7Z" class="g2_269"/>
<path d="M50.7,593.2h-.6h.6Z" class="g2_269"/>
<path d="M306.2,593.2h-.7h.7Z" class="g2_269"/>
<path d="M348.2,593.2h-.4h.4Z" class="g2_269"/>
<path d="M306.2,652.4h-.7V593.9h.7v58.5Z" class="g2_269"/>
<path d="M306.2,652.4h-.7h.7Z" class="g2_269"/>
<path d="M511.4,593.9H348.2v-.7H511.4v.7Z" class="g2_269"/>
<path d="M511.4,593.2h-.7h.7Z" class="g2_269"/>
<path d="M348.2,593.2h.3h-.3Z" class="g2_269"/>
<path d="M348.5,652.4h-.7V593.9h.7v58.5Z" class="g2_269"/>
<path d="M348.5,652.4h-.7h.7Z" class="g2_269"/>
<path d="M50.1,757.5h92.1v-.7H50.1v.7Z" class="g2_269"/>
</svg>