<?xml version="1.0" encoding="UTF-8" standalone="no"?>
<!DOCTYPE svg PUBLIC "-//W3C//DTD SVG 1.1//EN"
"http://www.w3.org/Graphics/SVG/1.1/DTD/svg11.dtd">
<svg viewBox="0 0 541 866" version="1.1" xmlns="http://www.w3.org/2000/svg" xmlns:xlink="http://www.w3.org/1999/xlink">
<defs>
<clipPath id="c0_157"><path d="M438.4,672.1V625.3H464v46.8Z"/></clipPath>
<clipPath id="c1_157"><path d="M463.9,672.1V625.3h25.5v46.8Z"/></clipPath>
<clipPath id="c2_157"><path d="M438.4,280.7V233.9H464v46.8Z"/></clipPath>
<clipPath id="c3_157"><path d="M463.9,280.7V233.9h25.5v46.8Z"/></clipPath>
<clipPath id="c4_157"><path d="M438.4,366.1V319.3h25.5v46.8Z"/></clipPath>
<clipPath id="c5_157"><path d="M463.8,366.1V319.3h25.6v46.8Z"/></clipPath>
<clipPath id="c6_157"><path d="M438.4,490V443.2h25.5V490Z"/></clipPath>
<clipPath id="c7_157"><path d="M463.8,490V443.2h25.6V490Z"/></clipPath>
<clipPath id="c8_157"><path d="M438.4,567.4V520.5h25.5v46.9Z"/></clipPath>
<clipPath id="c9_157"><path d="M463.9,567.4V520.5h25.5v46.9Z"/></clipPath>
<clipPath id="ca_157"><path d="M438.3,188.5V141.6h25.6v46.9Z"/></clipPath>
<clipPath id="cb_157"><path d="M463.8,188.5V141.6h25.6v46.9Z"/></clipPath>
</defs>
<image clip-path="url(#c0_157)" preserveAspectRatio="none" x="438" y="625" width="27" height="47" xlink:href="img/1.jpg"/>
<image clip-path="url(#c1_157)" preserveAspectRatio="none" x="464" y="625" width="26" height="47" xlink:href="img/2.jpg"/>
<image clip-path="url(#c2_157)" preserveAspectRatio="none" x="438" y="234" width="27" height="47" xlink:href="img/3.jpg"/>
<image clip-path="url(#c3_157)" preserveAspectRatio="none" x="464" y="234" width="26" height="47" xlink:href="img/4.jpg"/>
<image clip-path="url(#c4_157)" preserveAspectRatio="none" x="438" y="319" width="27" height="47" xlink:href="img/5.jpg"/>
<image clip-path="url(#c5_157)" preserveAspectRatio="none" x="464" y="319" width="26" height="47" xlink:href="img/6.jpg"/>
<image clip-path="url(#c6_157)" preserveAspectRatio="none" x="438" y="443" width="27" height="47" xlink:href="img/7.jpg"/>
<image clip-path="url(#c7_157)" preserveAspectRatio="none" x="464" y="443" width="26" height="47" xlink:href="img/8.jpg"/>
<image clip-path="url(#c8_157)" preserveAspectRatio="none" x="438" y="520" width="27" height="48" xlink:href="img/9.jpg"/>
<image clip-path="url(#c9_157)" preserveAspectRatio="none" x="464" y="520" width="26" height="48" xlink:href="img/10.jpg"/>
<image clip-path="url(#ca_157)" preserveAspectRatio="none" x="438" y="141" width="27" height="48" xlink:href="img/11.jpg"/>
<image clip-path="url(#cb_157)" preserveAspectRatio="none" x="464" y="141" width="26" height="48" xlink:href="img/12.jpg"/>
</svg>