<?xml version="1.0" encoding="UTF-8" standalone="no"?>
<!DOCTYPE svg PUBLIC "-//W3C//DTD SVG 1.1//EN"
"http://www.w3.org/Graphics/SVG/1.1/DTD/svg11.dtd">
<svg viewBox="0 0 541 866" version="1.1" xmlns="http://www.w3.org/2000/svg" xmlns:xlink="http://www.w3.org/1999/xlink">
<defs>
<clipPath id="c0_190"><path d="M357.9,225.2v-51h51v51Z"/></clipPath>
<clipPath id="c1_190"><path d="M416.8,225.2v-51h50.9v51Z"/></clipPath>
<clipPath id="c2_190"><path d="M299.1,225.2v-51h51v51Z"/></clipPath>
<clipPath id="c3_190"><path d="M299.1,266.4V240.9h51v25.5Z"/></clipPath>
<clipPath id="c4_190"><path d="M299.1,291.9V266.3h51v25.6Z"/></clipPath>
<clipPath id="c5_190"><path d="M355.5,269.3V243.8h50.9v25.5Z"/></clipPath>
<clipPath id="c6_190"><path d="M355.5,294.8V269.2h50.9v25.6Z"/></clipPath>
<clipPath id="c7_190"><path d="M416.8,269.3V243.8h50.9v25.5Z"/></clipPath>
<clipPath id="c8_190"><path d="M416.8,294.8V269.2h50.9v25.6Z"/></clipPath>
<clipPath id="c9_190"><path d="M299.6,366.4V320.8h45.6v45.6Z"/></clipPath>
<clipPath id="ca_190"><path d="M360.9,366.4V320.8h45.6v45.6Z"/></clipPath>
<clipPath id="cb_190"><path d="M422.2,366.4V320.8h45.5v45.6Z"/></clipPath>
<clipPath id="cc_190"><path d="M199,448.4V409.5H322.8v38.9Z"/></clipPath>
<clipPath id="cd_190"><path d="M199,487.1V448.2H322.8v38.9Z"/></clipPath>
<clipPath id="ce_190"><path d="M343.9,448.4V409.5H467.7v38.9Z"/></clipPath>
<clipPath id="cf_190"><path d="M343.9,487.1V448.2H467.7v38.9Z"/></clipPath>
<clipPath id="cg_190"><path d="M205.9,544.3V495.4h110v48.9Z"/></clipPath>
<clipPath id="ch_190"><path d="M205.9,593.1V544.2h110v48.9Z"/></clipPath>
<clipPath id="ci_190"><path d="M51.9,556.5V519.8H175.8v36.7Z"/></clipPath>
<clipPath id="cj_190"><path d="M51.9,593.1V556.4H175.8v36.7Z"/></clipPath>
<clipPath id="ck_190"><path d="M51.9,477.3V410.5h82.7v66.8Z"/></clipPath>
<clipPath id="cl_190"><path d="M134.5,510.5v-100h41.3v100Z"/></clipPath>
<clipPath id="cm_190"><path d="M51.9,510.5V477.1h82.7v33.4Z"/></clipPath>
<clipPath id="cn_190"><path d="M349.3,526V492.4h44.3V526Z"/></clipPath>
<clipPath id="co_190"><path d="M393.5,526V492.4h44.3V526Z"/></clipPath>
<clipPath id="cp_190"><path d="M349.3,559.6V525.9h44.3v33.7Z"/></clipPath>
<clipPath id="cq_190"><path d="M393.5,559.6V525.9h44.3v33.7Z"/></clipPath>
<clipPath id="cr_190"><path d="M349.3,593.1V559.5h44.3v33.6Z"/></clipPath>
<clipPath id="cs_190"><path d="M393.5,593.1V559.5h44.3v33.6Z"/></clipPath>
<clipPath id="ct_190"><path d="M377.2,641.5V616.2h90.5v25.3Z"/></clipPath>
<clipPath id="cu_190"><path d="M376.3,748.9V705.2h45.8v43.7Z"/></clipPath>
<clipPath id="cv_190"><path d="M422,748.9V705.2h45.7v43.7Z"/></clipPath>
<clipPath id="cw_190"><path d="M377.2,674.5v-27h90.5v27Z"/></clipPath>
<clipPath id="cx_190"><path d="M377.2,701.2V674.4h90.5v26.8Z"/></clipPath>
</defs>
<image clip-path="url(#c0_190)" preserveAspectRatio="none" x="358" y="174" width="51" height="51" xlink:href="img/1.jpg"/>
<image clip-path="url(#c1_190)" preserveAspectRatio="none" x="417" y="174" width="51" height="51" xlink:href="img/2.jpg"/>
<image clip-path="url(#c2_190)" preserveAspectRatio="none" x="299" y="174" width="52" height="51" xlink:href="img/3.jpg"/>
<image clip-path="url(#c3_190)" preserveAspectRatio="none" x="299" y="241" width="52" height="25" xlink:href="img/4.jpg"/>
<image clip-path="url(#c4_190)" preserveAspectRatio="none" x="299" y="266" width="52" height="26" xlink:href="img/5.jpg"/>
<image clip-path="url(#c5_190)" preserveAspectRatio="none" x="355" y="244" width="52" height="25" xlink:href="img/6.jpg"/>
<image clip-path="url(#c6_190)" preserveAspectRatio="none" x="355" y="269" width="52" height="26" xlink:href="img/7.jpg"/>
<image clip-path="url(#c7_190)" preserveAspectRatio="none" x="417" y="244" width="51" height="25" xlink:href="img/8.jpg"/>
<image clip-path="url(#c8_190)" preserveAspectRatio="none" x="417" y="269" width="51" height="26" xlink:href="img/9.jpg"/>
<image clip-path="url(#c9_190)" preserveAspectRatio="none" x="299" y="321" width="47" height="46" xlink:href="img/10.jpg"/>
<image clip-path="url(#ca_190)" preserveAspectRatio="none" x="361" y="321" width="46" height="46" xlink:href="img/11.jpg"/>
<image clip-path="url(#cb_190)" preserveAspectRatio="none" x="422" y="321" width="46" height="46" xlink:href="img/12.jpg"/>
<image clip-path="url(#cc_190)" preserveAspectRatio="none" x="199" y="409" width="124" height="39" xlink:href="img/13.jpg"/>
<image clip-path="url(#cd_190)" preserveAspectRatio="none" x="199" y="448" width="124" height="39" xlink:href="img/14.jpg"/>
<image clip-path="url(#ce_190)" preserveAspectRatio="none" x="344" y="409" width="124" height="39" xlink:href="img/15.jpg"/>
<image clip-path="url(#cf_190)" preserveAspectRatio="none" x="344" y="448" width="124" height="39" xlink:href="img/16.jpg"/>
<image clip-path="url(#cg_190)" preserveAspectRatio="none" x="206" y="495" width="111" height="49" xlink:href="img/17.jpg"/>
<image clip-path="url(#ch_190)" preserveAspectRatio="none" x="206" y="544" width="111" height="49" xlink:href="img/18.jpg"/>
<image clip-path="url(#ci_190)" preserveAspectRatio="none" x="52" y="520" width="124" height="37" xlink:href="img/19.jpg"/>
<image clip-path="url(#cj_190)" preserveAspectRatio="none" x="52" y="556" width="124" height="37" xlink:href="img/20.jpg"/>
<image clip-path="url(#ck_190)" preserveAspectRatio="none" x="52" y="410" width="83" height="67" xlink:href="img/21.jpg"/>
<image clip-path="url(#cl_190)" preserveAspectRatio="none" x="134" y="410" width="42" height="101" xlink:href="img/22.jpg"/>
<image clip-path="url(#cm_190)" preserveAspectRatio="none" x="52" y="477" width="83" height="34" xlink:href="img/23.jpg"/>
<image clip-path="url(#cn_190)" preserveAspectRatio="none" x="349" y="492" width="45" height="34" xlink:href="img/24.jpg"/>
<image clip-path="url(#co_190)" preserveAspectRatio="none" x="393" y="492" width="46" height="34" xlink:href="img/25.jpg"/>
<image clip-path="url(#cp_190)" preserveAspectRatio="none" x="349" y="526" width="45" height="34" xlink:href="img/26.jpg"/>
<image clip-path="url(#cq_190)" preserveAspectRatio="none" x="393" y="526" width="46" height="34" xlink:href="img/27.jpg"/>
<image clip-path="url(#cr_190)" preserveAspectRatio="none" x="349" y="559" width="45" height="34" xlink:href="img/28.jpg"/>
<image clip-path="url(#cs_190)" preserveAspectRatio="none" x="393" y="559" width="46" height="34" xlink:href="img/29.jpg"/>
<image clip-path="url(#ct_190)" preserveAspectRatio="none" x="377" y="616" width="91" height="26" xlink:href="img/30.jpg"/>
<image clip-path="url(#cu_190)" preserveAspectRatio="none" x="376" y="705" width="46" height="44" xlink:href="img/31.jpg"/>
<image clip-path="url(#cv_190)" preserveAspectRatio="none" x="422" y="705" width="46" height="44" xlink:href="img/32.jpg"/>
<image clip-path="url(#cw_190)" preserveAspectRatio="none" x="377" y="647" width="91" height="28" xlink:href="img/33.jpg"/>
<image clip-path="url(#cx_190)" preserveAspectRatio="none" x="377" y="674" width="91" height="27" xlink:href="img/34.jpg"/>
</svg>