<?xml version="1.0" encoding="UTF-8" standalone="no"?>
<!DOCTYPE svg PUBLIC "-//W3C//DTD SVG 1.1//EN"
"http://www.w3.org/Graphics/SVG/1.1/DTD/svg11.dtd">
<svg viewBox="0 0 541 866" version="1.1" xmlns="http://www.w3.org/2000/svg" xmlns:xlink="http://www.w3.org/1999/xlink">
<defs>
<clipPath id="c0_179"><path d="M437.7,124.2V85.1h51.4v39.1Z"/></clipPath>
<clipPath id="c1_179"><path d="M437.7,163.2V124.1h51.4v39.1Z"/></clipPath>
<clipPath id="c2_179"><path d="M437.7,215.6V189.9H489v25.7Z"/></clipPath>
<clipPath id="c3_179"><path d="M437.7,241.2V215.5H489v25.7Z"/></clipPath>
<clipPath id="c4_179"><path d="M438.4,323.2V297.5h51.3v25.7Z"/></clipPath>
<clipPath id="c5_179"><path d="M438.4,348.8V323.1h51.3v25.7Z"/></clipPath>
<clipPath id="c6_179"><path d="M421.7,402.9V380.1h33.7v22.8Z"/></clipPath>
<clipPath id="c7_179"><path d="M455.3,402.9V380.1H489v22.8Z"/></clipPath>
<clipPath id="c8_179"><path d="M421.7,445.3V422.5h33.7v22.8Z"/></clipPath>
<clipPath id="c9_179"><path d="M455.3,445.3V422.5H489v22.8Z"/></clipPath>
<clipPath id="ca_179"><path d="M437.7,543.8V518.1H489v25.7Z"/></clipPath>
<clipPath id="cb_179"><path d="M437.7,569.4V543.7H489v25.7Z"/></clipPath>
<clipPath id="cc_179"><path d="M437.7,723V697.3H489V723Z"/></clipPath>
<clipPath id="cd_179"><path d="M437.7,748.6V722.9H489v25.7Z"/></clipPath>
</defs>
<image clip-path="url(#c0_179)" preserveAspectRatio="none" x="438" y="85" width="52" height="39" xlink:href="img/1.jpg"/>
<image clip-path="url(#c1_179)" preserveAspectRatio="none" x="438" y="124" width="52" height="39" xlink:href="img/2.jpg"/>
<image clip-path="url(#c2_179)" preserveAspectRatio="none" x="438" y="190" width="51" height="26" xlink:href="img/3.jpg"/>
<image clip-path="url(#c3_179)" preserveAspectRatio="none" x="438" y="215" width="51" height="26" xlink:href="img/4.jpg"/>
<image clip-path="url(#c4_179)" preserveAspectRatio="none" x="438" y="297" width="52" height="26" xlink:href="img/5.jpg"/>
<image clip-path="url(#c5_179)" preserveAspectRatio="none" x="438" y="323" width="52" height="26" xlink:href="img/6.jpg"/>
<image clip-path="url(#c6_179)" preserveAspectRatio="none" x="422" y="380" width="34" height="23" xlink:href="img/7.jpg"/>
<image clip-path="url(#c7_179)" preserveAspectRatio="none" x="455" y="380" width="34" height="23" xlink:href="img/8.jpg"/>
<image clip-path="url(#c8_179)" preserveAspectRatio="none" x="422" y="422" width="34" height="23" xlink:href="img/9.jpg"/>
<image clip-path="url(#c9_179)" preserveAspectRatio="none" x="455" y="422" width="34" height="23" xlink:href="img/10.jpg"/>
<image clip-path="url(#ca_179)" preserveAspectRatio="none" x="438" y="518" width="51" height="26" xlink:href="img/11.jpg"/>
<image clip-path="url(#cb_179)" preserveAspectRatio="none" x="438" y="544" width="51" height="26" xlink:href="img/12.jpg"/>
<image clip-path="url(#cc_179)" preserveAspectRatio="none" x="438" y="697" width="51" height="26" xlink:href="img/13.jpg"/>
<image clip-path="url(#cd_179)" preserveAspectRatio="none" x="438" y="723" width="51" height="26" xlink:href="img/14.jpg"/>
</svg>