<?xml version="1.0" encoding="UTF-8" standalone="no"?>
<!DOCTYPE svg PUBLIC "-//W3C//DTD SVG 1.1//EN"
"http://www.w3.org/Graphics/SVG/1.1/DTD/svg11.dtd">
<svg viewBox="0 0 541 866" version="1.1" xmlns="http://www.w3.org/2000/svg" xmlns:xlink="http://www.w3.org/1999/xlink">
<defs>
<style type="text/css"><![CDATA[
.g0_264{
fill: #0066B3;
}
.g1_264{
fill: #00000C;
}
.g2_264{
fill: #231F20;
}
]]></style>
</defs>
<path d="M28.7,80.4H284.2v43.7H28.7V80.4m255.5,0h42.3v43.7H284.2V80.4m42.3,0H489.4v43.7H326.5V80.4Z" class="g0_264"/>
<path d="M284.5,123.8h-.3V80.7h.3v43.1m-.3,0h-.4V80.7h.4v43.1Z" class="g1_264"/>
<path d="M28.4,80.7V80H284.2v.7v-.3H28.7v.3h-.3Z" class="g2_264"/>
<path d="M283.8,80.7H28.7v-.3H284.2v.3h-.4m.4,0v-.3v.3Z" class="g1_264"/>
<path d="M284.2,80.7v0h-.4h.4Z" class="g1_264"/>
<path d="M28.7,123.8h-.3V80.7h.3v43.1Z" class="g2_264"/>
<path d="M29.1,123.8h-.4V80.7h.4v43.1Z" class="g1_264"/>
<path d="M28.7,80.7h-.3h.3Z" class="g2_264"/>
<path d="M28.7,80.7h.4h-.4Z" class="g1_264"/>
<path d="M489.7,80.7v0h-.3v-.3H326.5v.3v-.3H284.2V80H489.7v.7Z" class="g2_264"/>
<path d="M489,80.7H326.5v-.3H489.4v.3H489m-162.8,0h-42v-.3h42.3v.3h-.3Z" class="g1_264"/>
<path d="M284.2,80.7h.3h-.3Z" class="g1_264"/>
<path d="M326.9,123.8h-.4V80.7h.4v43.1m-.4,0h-.3V80.7h.3v43.1Z" class="g1_264"/>
<path d="M326.9,80.7h-.4h.4m-.4,0h-.3h.3Z" class="g1_264"/>
<path d="M489.7,123.8h-.3V80.7h.3v43.1Z" class="g2_264"/>
<path d="M489.4,123.8H489V80.7h.4v43.1Z" class="g1_264"/>
<path d="M489.4,80.7h.3h-.3Z" class="g2_264"/>
<path d="M489,80.7h.4H489Z" class="g1_264"/>
<path d="M489.7,124.5v0H28.4v-.7h.3v.3H284.2v-.3v.3h42.3v-.3v.3H489.4v-.3h.3v.7Z" class="g2_264"/>
<path d="M489.4,124.1H326.5v-.3H489.4v.3m-162.9,0H284.2v-.3h42.3v.3m-42.3,0H28.7v-.3H284.2v.3Z" class="g1_264"/>
<path d="M284.5,123.8h-.3h.3m-.3,0h-.4h.4Z" class="g1_264"/>
<path d="M28.7,123.8h-.3h.3Z" class="g2_264"/>
<path d="M28.7,123.8h.4h-.4Z" class="g1_264"/>
<path d="M326.9,123.8h-.4h.4m-.4,0h-.3h.3Z" class="g1_264"/>
<path d="M489.4,123.8h.3h-.3Z" class="g2_264"/>
<path d="M489.4,123.8H489h.4Z" class="g1_264"/>
<path d="M29.1,167.5h-.7v-43h.7v43Z" class="g2_264"/>
<path d="M29.1,124.5h-.7h.7Z" class="g2_264"/>
<path d="M489.7,167.5H489v-43h.7v43Z" class="g2_264"/>
<path d="M489.7,124.5H489h.7Z" class="g2_264"/>
<path d="M28.4,225.1h.7V168.2h-.7v56.9Z" class="g2_264"/>
<path d="M489,225.1h.7V168.2H489v56.9Z" class="g2_264"/>
<path d="M29.1,324.2h-.7V225.8h.7v98.4Z" class="g2_264"/>
<path d="M489.7,324.2H489V225.8h.7v98.4Z" class="g2_264"/>
<path d="M29.1,381.8h-.7V324.9h.7v56.9Z" class="g2_264"/>
<path d="M489.7,381.8H489V324.9h.7v56.9Z" class="g2_264"/>
<path d="M28.4,453.3h.7V382.5h-.7v70.8Z" class="g2_264"/>
<path d="M489.7,453.3H489V382.5h.7v70.8Z" class="g2_264"/>
<path d="M29.1,538.5h-.7V454h.7v84.5Z" class="g2_264"/>
<path d="M489.7,538.5H489V454h.7v84.5Z" class="g2_264"/>
<path d="M28.4,639.2h.7v-100h-.7v100Z" class="g2_264"/>
<path d="M489,639.2h.7v-100H489v100Z" class="g2_264"/>
<path d="M29.1,684.5h-.7V639.9h.7v44.6Z" class="g2_264"/>
<path d="M489.7,684.5H489V639.9h.7v44.6Z" class="g2_264"/>
<path d="M284.5,167.5h-.7v-43h.7v43Z" class="g2_264"/>
<path d="M284.5,124.5h-.7h.7Z" class="g2_264"/>
<path d="M326.5,167.5v0h-.3v-43h.7v43h-.4Z" class="g2_264"/>
<path d="M326.9,124.5h-.7h.7Z" class="g2_264"/>
<path d="M284.2,168.2H28.4v-.7H326.5v.7H284.2Z" class="g2_264"/>
<path d="M29.1,167.5h-.7h.7Z" class="g2_264"/>
<path d="M284.5,167.5h-.7h.7Z" class="g2_264"/>
<path d="M326.5,167.5h-.3h.3Z" class="g2_264"/>
<path d="M283.8,225.1h.7V168.2h-.7v56.9Z" class="g2_264"/>
<path d="M489.7,168.2H326.5v-.7H489.7v.7Z" class="g2_264"/>
<path d="M489.7,167.5H489h.7Z" class="g2_264"/>
<path d="M326.5,167.5h.4h-.4Z" class="g2_264"/>
<path d="M326.2,225.1h.7V168.2h-.7v56.9Z" class="g2_264"/>
<path d="M326.2,225.8H28.4v-.7H326.5v.7h-.3Z" class="g2_264"/>
<path d="M29.1,225.8h-.7h.7Z" class="g2_264"/>
<path d="M284.5,324.2h-.7V225.8h.7v98.4Z" class="g2_264"/>
<path d="M284.5,225.8h-.7h.7Z" class="g2_264"/>
<path d="M489.7,225.8H326.5v-.7H489.7v.7Z" class="g2_264"/>
<path d="M489.7,225.8H489h.7Z" class="g2_264"/>
<path d="M326.5,324.2v0h-.3V225.8h.7v98.4h-.4Z" class="g2_264"/>
<path d="M326.2,225.8h.7h-.7Z" class="g2_264"/>
<path d="M284.2,324.9H28.4v-.7H326.5v.7H284.2Z" class="g2_264"/>
<path d="M29.1,324.2h-.7h.7Z" class="g2_264"/>
<path d="M284.5,324.2h-.7h.7Z" class="g2_264"/>
<path d="M326.5,324.2h-.3h.3Z" class="g2_264"/>
<path d="M284.5,381.8h-.7V324.9h.7v56.9Z" class="g2_264"/>
<path d="M489.7,324.9H326.5v-.7H489.7v.7Z" class="g2_264"/>
<path d="M489.7,324.2H489h.7Z" class="g2_264"/>
<path d="M326.5,324.2h.4h-.4Z" class="g2_264"/>
<path d="M326.5,381.8v0h-.3V324.9h.7v56.9h-.4Z" class="g2_264"/>
<path d="M283.8,382.5H28.4v-.7H326.5v.7H283.8Z" class="g2_264"/>
<path d="M29.1,381.8h-.7h.7Z" class="g2_264"/>
<path d="M29.1,382.5h-.7h.7Z" class="g2_264"/>
<path d="M284.5,381.8h-.7h.7Z" class="g2_264"/>
<path d="M326.5,381.8h-.3h.3Z" class="g2_264"/>
<path d="M284.5,453.3h-.7V382.5h.7v70.8Z" class="g2_264"/>
<path d="M284.2,382.5h-.4h.7h-.3Z" class="g2_264"/>
<path d="M489.7,382.5H326.5v-.7H489.7v.7Z" class="g2_264"/>
<path d="M489.7,381.8H489h.7Z" class="g2_264"/>
<path d="M489.7,382.5H489h.7Z" class="g2_264"/>
<path d="M326.5,381.8h.4h-.4Z" class="g2_264"/>
<path d="M326.9,453.3h-.7V382.5h.7v70.8Z" class="g2_264"/>
<path d="M326.2,382.5h.7h-.7Z" class="g2_264"/>
<path d="M283.8,454H28.4v-.7H326.5v.7H283.8Z" class="g2_264"/>
<path d="M29.1,454h-.7h.7Z" class="g2_264"/>
<path d="M284.5,538.5h-.7V454h.7v84.5Z" class="g2_264"/>
<path d="M284.2,454h-.4h.7h-.3Z" class="g2_264"/>
<path d="M489.7,454H326.5v-.7H489.7v.7Z" class="g2_264"/>
<path d="M489.7,454H489h.7Z" class="g2_264"/>
<path d="M326.5,538.5v0h-.3V454h.7v84.5h-.4Z" class="g2_264"/>
<path d="M326.2,454h.7h-.7Z" class="g2_264"/>
<path d="M326.5,539.2H28.4v-.7H326.5v.7Z" class="g2_264"/>
<path d="M29.1,538.5h-.7h.7Z" class="g2_264"/>
<path d="M284.5,538.5h-.7h.7Z" class="g2_264"/>
<path d="M326.5,538.5h-.3h.3Z" class="g2_264"/>
<path d="M283.8,639.2h.7v-100h-.7v100Z" class="g2_264"/>
<path d="M489.7,539.2H326.5v-.7H489.7v.7Z" class="g2_264"/>
<path d="M489.7,538.5H489h.7Z" class="g2_264"/>
<path d="M326.5,538.5h.4h-.4Z" class="g2_264"/>
<path d="M326.2,639.2h.7v-100h-.7v100Z" class="g2_264"/>
<path d="M326.2,639.9H28.4v-.7H326.5v.7h-.3Z" class="g2_264"/>
<path d="M29.1,639.9h-.7h.7Z" class="g2_264"/>
<path d="M284.5,684.5h-.7V639.9h.7v44.6Z" class="g2_264"/>
<path d="M284.5,639.9h-.7h.7Z" class="g2_264"/>
<path d="M489.7,639.9H326.5v-.7H489.7v.7Z" class="g2_264"/>
<path d="M489.7,639.9H489h.7Z" class="g2_264"/>
<path d="M326.9,684.5h-.7V639.9h.7v44.6Z" class="g2_264"/>
<path d="M326.2,639.9h.7h-.7Z" class="g2_264"/>
<path d="M489.7,685.2H28.4v-.7H489.7v.7Z" class="g2_264"/>
<path d="M29.1,684.5h-.7h.7Z" class="g2_264"/>
<path d="M489.7,684.5H489h.7Z" class="g2_264"/>
<path d="M284.5,684.5h-.7h.7Z" class="g2_264"/>
<path d="M326.9,684.5h-.7h.7Z" class="g2_264"/>
<path d="M28.4,757.5h92.2v-.7H28.4v.7Z" class="g2_264"/>
</svg>