<?xml version="1.0" encoding="UTF-8" standalone="no"?>
<!DOCTYPE svg PUBLIC "-//W3C//DTD SVG 1.1//EN"
"http://www.w3.org/Graphics/SVG/1.1/DTD/svg11.dtd">
<svg viewBox="0 0 541 866" version="1.1" xmlns="http://www.w3.org/2000/svg" xmlns:xlink="http://www.w3.org/1999/xlink">
<defs>
<clipPath id="c0_195"><path d="M425.6,582.3V550.1h32v32.2Z"/></clipPath>
<clipPath id="c1_195"><path d="M457.5,582.3V550.1h31.9v32.2Z"/></clipPath>
<clipPath id="c2_195"><path d="M423,748.1V714.5h33.2v33.6Z"/></clipPath>
<clipPath id="c3_195"><path d="M456.1,748.1V714.5h33.3v33.6Z"/></clipPath>
<clipPath id="c4_195"><path d="M349.3,748.1V714.5h33.3v33.6Z"/></clipPath>
<clipPath id="c5_195"><path d="M382.5,748.1V714.5h33.2v33.6Z"/></clipPath>
<clipPath id="c6_195"><path d="M454.7,650.8V616.4h34.7v34.4Z"/></clipPath>
<clipPath id="c7_195"><path d="M454.7,685V650.7h34.7V685Z"/></clipPath>
<clipPath id="c8_195"><path d="M411.6,649.8V615.7h34.3v34.1Z"/></clipPath>
<clipPath id="c9_195"><path d="M411.6,683.7v-34h34.3v34Z"/></clipPath>
<clipPath id="ca_195"><path d="M361.9,649.8V615.7h34.3v34.1Z"/></clipPath>
<clipPath id="cb_195"><path d="M361.9,683.7v-34h34.3v34Z"/></clipPath>
<clipPath id="cc_195"><path d="M425.6,528.1V495.8h32v32.3Z"/></clipPath>
<clipPath id="cd_195"><path d="M457.5,528.1V495.8h31.9v32.3Z"/></clipPath>
<clipPath id="ce_195"><path d="M354.1,528.1V495.8h32v32.3Z"/></clipPath>
<clipPath id="cf_195"><path d="M386,528.1V495.8h31.9v32.3Z"/></clipPath>
<clipPath id="cg_195"><path d="M421.9,386.4V351.7h34.3v34.7Z"/></clipPath>
<clipPath id="ch_195"><path d="M456.1,386.4V351.7h34.4v34.7Z"/></clipPath>
<clipPath id="ci_195"><path d="M438.4,446.6V420.9h51v25.7Z"/></clipPath>
<clipPath id="cj_195"><path d="M438.4,472.3V446.5h51v25.8Z"/></clipPath>
<clipPath id="ck_195"><path d="M373.7,221.4V182.6h51v38.8Z"/></clipPath>
<clipPath id="cl_195"><path d="M373.7,260.1V221.3h51v38.8Z"/></clipPath>
<clipPath id="cm_195"><path d="M438.4,260.9V183.4h51v77.5Z"/></clipPath>
<clipPath id="cn_195"><path d="M308.9,123.5V84.7h51v38.8Z"/></clipPath>
<clipPath id="co_195"><path d="M308.9,162.2V123.4h51v38.8Z"/></clipPath>
<clipPath id="cp_195"><path d="M373.7,122.8V83.9h51v38.9Z"/></clipPath>
<clipPath id="cq_195"><path d="M373.7,161.4V122.7h51v38.7Z"/></clipPath>
<clipPath id="cr_195"><path d="M438.4,162.2V84.7h51v77.5Z"/></clipPath>
</defs>
<image clip-path="url(#c0_195)" preserveAspectRatio="none" x="426" y="550" width="32" height="33" xlink:href="img/1.jpg"/>
<image clip-path="url(#c1_195)" preserveAspectRatio="none" x="457" y="550" width="33" height="33" xlink:href="img/2.jpg"/>
<image clip-path="url(#c2_195)" preserveAspectRatio="none" x="423" y="714" width="34" height="34" xlink:href="img/3.jpg"/>
<image clip-path="url(#c3_195)" preserveAspectRatio="none" x="456" y="714" width="34" height="34" xlink:href="img/4.jpg"/>
<image clip-path="url(#c4_195)" preserveAspectRatio="none" x="349" y="714" width="34" height="34" xlink:href="img/5.jpg"/>
<image clip-path="url(#c5_195)" preserveAspectRatio="none" x="382" y="714" width="35" height="34" xlink:href="img/6.jpg"/>
<image clip-path="url(#c6_195)" preserveAspectRatio="none" x="455" y="616" width="35" height="35" xlink:href="img/7.jpg"/>
<image clip-path="url(#c7_195)" preserveAspectRatio="none" x="455" y="651" width="35" height="34" xlink:href="img/8.jpg"/>
<image clip-path="url(#c8_195)" preserveAspectRatio="none" x="411" y="616" width="36" height="34" xlink:href="img/9.jpg"/>
<image clip-path="url(#c9_195)" preserveAspectRatio="none" x="411" y="650" width="36" height="34" xlink:href="img/10.jpg"/>
<image clip-path="url(#ca_195)" preserveAspectRatio="none" x="362" y="616" width="35" height="34" xlink:href="img/11.jpg"/>
<image clip-path="url(#cb_195)" preserveAspectRatio="none" x="362" y="650" width="35" height="34" xlink:href="img/12.jpg"/>
<image clip-path="url(#cc_195)" preserveAspectRatio="none" x="426" y="496" width="32" height="32" xlink:href="img/13.jpg"/>
<image clip-path="url(#cd_195)" preserveAspectRatio="none" x="457" y="496" width="33" height="32" xlink:href="img/14.jpg"/>
<image clip-path="url(#ce_195)" preserveAspectRatio="none" x="354" y="496" width="32" height="32" xlink:href="img/15.jpg"/>
<image clip-path="url(#cf_195)" preserveAspectRatio="none" x="386" y="496" width="32" height="32" xlink:href="img/16.jpg"/>
<image clip-path="url(#cg_195)" preserveAspectRatio="none" x="422" y="352" width="35" height="35" xlink:href="img/17.jpg"/>
<image clip-path="url(#ch_195)" preserveAspectRatio="none" x="456" y="352" width="35" height="35" xlink:href="img/18.jpg"/>
<image clip-path="url(#ci_195)" preserveAspectRatio="none" x="438" y="421" width="52" height="26" xlink:href="img/19.jpg"/>
<image clip-path="url(#cj_195)" preserveAspectRatio="none" x="438" y="446" width="52" height="26" xlink:href="img/20.jpg"/>
<image clip-path="url(#ck_195)" preserveAspectRatio="none" x="374" y="182" width="51" height="40" xlink:href="img/21.jpg"/>
<image clip-path="url(#cl_195)" preserveAspectRatio="none" x="374" y="221" width="51" height="39" xlink:href="img/22.jpg"/>
<image clip-path="url(#cm_195)" preserveAspectRatio="none" x="438" y="183" width="52" height="78" xlink:href="img/23.jpg"/>
<image clip-path="url(#cn_195)" preserveAspectRatio="none" x="309" y="85" width="51" height="39" xlink:href="img/24.jpg"/>
<image clip-path="url(#co_195)" preserveAspectRatio="none" x="309" y="123" width="51" height="39" xlink:href="img/25.jpg"/>
<image clip-path="url(#cp_195)" preserveAspectRatio="none" x="374" y="84" width="51" height="39" xlink:href="img/26.jpg"/>
<image clip-path="url(#cq_195)" preserveAspectRatio="none" x="374" y="123" width="51" height="39" xlink:href="img/27.jpg"/>
<image clip-path="url(#cr_195)" preserveAspectRatio="none" x="438" y="85" width="52" height="78" xlink:href="img/28.jpg"/>
</svg>