<?xml version="1.0" encoding="UTF-8" standalone="no"?>
<!DOCTYPE svg PUBLIC "-//W3C//DTD SVG 1.1//EN"
"http://www.w3.org/Graphics/SVG/1.1/DTD/svg11.dtd">
<svg viewBox="0 0 541 866" version="1.1" xmlns="http://www.w3.org/2000/svg" xmlns:xlink="http://www.w3.org/1999/xlink">
<defs>
<style type="text/css"><![CDATA[
.g0_260{
fill: #0066B3;
}
.g1_260{
fill: #00000C;
}
.g2_260{
fill: #231F20;
}
]]></style>
</defs>
<path d="M28.7,80.4H284.2v43.7H28.7V80.4m255.5,0h42.3v43.7H284.2V80.4m42.3,0H489.4v43.7H326.5V80.4Z" class="g0_260"/>
<path d="M284.5,123.8h-.3V80.7h.3v43.1m-.3,0h-.4V80.7h.4v43.1Z" class="g1_260"/>
<path d="M28.4,80.7V80H284.2v.7v-.3H28.7v.3h-.3Z" class="g2_260"/>
<path d="M283.8,80.7H28.7v-.3H284.2v.3h-.4m.4,0v-.3v.3Z" class="g1_260"/>
<path d="M284.2,80.7v0h-.4h.4Z" class="g1_260"/>
<path d="M28.7,123.8h-.3V80.7h.3v43.1Z" class="g2_260"/>
<path d="M29.1,123.8h-.4V80.7h.4v43.1Z" class="g1_260"/>
<path d="M28.7,80.7h-.3h.3Z" class="g2_260"/>
<path d="M28.7,80.7h.4h-.4Z" class="g1_260"/>
<path d="M489.7,80.7v0h-.3v-.3H326.5v.3v-.3H284.2V80H489.7v.7Z" class="g2_260"/>
<path d="M489,80.7H326.5v-.3H489.4v.3H489m-162.8,0h-42v-.3h42.3v.3h-.3Z" class="g1_260"/>
<path d="M284.2,80.7h.3h-.3Z" class="g1_260"/>
<path d="M326.9,123.8h-.4V80.7h.4v43.1m-.4,0h-.3V80.7h.3v43.1Z" class="g1_260"/>
<path d="M326.9,80.7h-.4h.4m-.4,0h-.3h.3Z" class="g1_260"/>
<path d="M489.7,123.8h-.3V80.7h.3v43.1Z" class="g2_260"/>
<path d="M489.4,123.8H489V80.7h.4v43.1Z" class="g1_260"/>
<path d="M489.4,80.7h.3h-.3Z" class="g2_260"/>
<path d="M489,80.7h.4H489Z" class="g1_260"/>
<path d="M489.7,124.5v0H28.4v-.7h.3v.3H284.2v-.3v.3h42.3v-.3v.3H489.4v-.3h.3v.7Z" class="g2_260"/>
<path d="M489.4,124.1H326.5v-.3H489.4v.3m-162.9,0H284.2v-.3h42.3v.3m-42.3,0H28.7v-.3H284.2v.3Z" class="g1_260"/>
<path d="M284.5,123.8h-.3h.3m-.3,0h-.4h.4Z" class="g1_260"/>
<path d="M28.7,123.8h-.3h.3Z" class="g2_260"/>
<path d="M28.7,123.8h.4h-.4Z" class="g1_260"/>
<path d="M326.9,123.8h-.4h.4m-.4,0h-.3h.3Z" class="g1_260"/>
<path d="M489.4,123.8h.3h-.3Z" class="g2_260"/>
<path d="M489.4,123.8H489h.4Z" class="g1_260"/>
<path d="M29.1,268.3h-.7V124.5h.7V268.3Z" class="g2_260"/>
<path d="M29.1,124.5h-.7h.7Z" class="g2_260"/>
<path d="M489.7,268.3H489V124.5h.7V268.3Z" class="g2_260"/>
<path d="M489.7,124.5H489h.7Z" class="g2_260"/>
<path d="M28.4,357.5h.7V269h-.7v88.5Z" class="g2_260"/>
<path d="M489.7,357.5H489V269h.7v88.5Z" class="g2_260"/>
<path d="M29.1,401.3h-.7V358.2h.7v43.1Z" class="g2_260"/>
<path d="M489.7,401.3H489V358.2h.7v43.1Z" class="g2_260"/>
<path d="M29.1,472.7h-.7V402h.7v70.7Z" class="g2_260"/>
<path d="M489.7,472.7H489V402h.7v70.7Z" class="g2_260"/>
<path d="M29.1,534.2h-.7V473.4h.7v60.8Z" class="g2_260"/>
<path d="M489.7,534.2H489V473.4h.7v60.8Z" class="g2_260"/>
<path d="M29.1,609.6h-.7V534.9h.7v74.7Z" class="g2_260"/>
<path d="M489.7,609.6H489V534.9h.7v74.7Z" class="g2_260"/>
<path d="M28.4,671.1h.7V610.3h-.7v60.8Z" class="g2_260"/>
<path d="M489,671.1h.7V610.3H489v60.8Z" class="g2_260"/>
<path d="M29.1,704.9h-.7V671.8h.7v33.1Z" class="g2_260"/>
<path d="M489.7,704.9H489V671.8h.7v33.1Z" class="g2_260"/>
<path d="M489.7,269v0c-153.8,0,-307.5,0,-461.3,0v-.7H489.7v.7Z" class="g2_260"/>
<path d="M29.1,269h-.7h.7Z" class="g2_260"/>
<path d="M489.7,269H489h.7Z" class="g2_260"/>
<path d="M489.7,473.4v0c-153.8,0,-307.5,0,-461.3,0v-.7H489.7v.7Z" class="g2_260"/>
<path d="M29.1,472.7h-.7h.7Z" class="g2_260"/>
<path d="M489.7,472.7H489h.7Z" class="g2_260"/>
<path d="M29.1,473.4h-.7h.7Z" class="g2_260"/>
<path d="M489.7,473.4H489h.7Z" class="g2_260"/>
<path d="M489.7,534.9H28.4v-.7H489.7v.7Z" class="g2_260"/>
<path d="M29.1,534.2h-.7h.7Z" class="g2_260"/>
<path d="M489.7,534.2H489h.7Z" class="g2_260"/>
<path d="M489.7,610.3H28.4v-.7H489.7v.7Z" class="g2_260"/>
<path d="M29.1,609.6h-.7h.7Z" class="g2_260"/>
<path d="M489.7,609.6H489h.7Z" class="g2_260"/>
<path d="M284.5,268.3h-.7V124.5h.7V268.3Z" class="g2_260"/>
<path d="M284.5,124.5h-.7h.7Z" class="g2_260"/>
<path d="M326.9,268.3h-.7V124.5h.7V268.3Z" class="g2_260"/>
<path d="M326.9,124.5h-.7h.7Z" class="g2_260"/>
<path d="M284.5,357.5h-.7V269h.7v88.5Z" class="g2_260"/>
<path d="M284.5,269h-.7h.7Z" class="g2_260"/>
<path d="M326.9,357.5h-.7V269h.7v88.5Z" class="g2_260"/>
<path d="M326.9,269h-.7h.7Z" class="g2_260"/>
<path d="M326.2,358.2H28.4v-.7H326.5v.7h-.3Z" class="g2_260"/>
<path d="M29.1,358.2h-.7h.7Z" class="g2_260"/>
<path d="M284.5,401.3h-.7V358.2h.7v43.1Z" class="g2_260"/>
<path d="M284.5,358.2h-.7h.7Z" class="g2_260"/>
<path d="M489.7,358.2H326.5v-.7H489.7v.7Z" class="g2_260"/>
<path d="M489.7,358.2H489h.7Z" class="g2_260"/>
<path d="M326.5,401.3v0h-.3V358.2h.7v43.1h-.4Z" class="g2_260"/>
<path d="M326.2,358.2h.7h-.7Z" class="g2_260"/>
<path d="M284.2,402H28.4v-.7H326.5v.7H284.2Z" class="g2_260"/>
<path d="M29.1,401.3h-.7h.7Z" class="g2_260"/>
<path d="M284.5,401.3h-.7h.7Z" class="g2_260"/>
<path d="M326.5,401.3h-.3h.3Z" class="g2_260"/>
<path d="M284.5,472.7h-.7V402h.7v70.7Z" class="g2_260"/>
<path d="M284.5,472.7h-.7h.7Z" class="g2_260"/>
<path d="M489.7,402H326.5v-.7H489.7v.7Z" class="g2_260"/>
<path d="M489.7,401.3H489h.7Z" class="g2_260"/>
<path d="M326.5,401.3h.4h-.4Z" class="g2_260"/>
<path d="M326.9,472.7h-.7V402h.7v70.7Z" class="g2_260"/>
<path d="M326.9,472.7h-.7h.7Z" class="g2_260"/>
<path d="M284.5,534.2h-.7V473.4h.7v60.8Z" class="g2_260"/>
<path d="M284.5,473.4h-.7h.7Z" class="g2_260"/>
<path d="M284.5,534.2h-.7h.7Z" class="g2_260"/>
<path d="M326.9,534.2h-.7V473.4h.7v60.8Z" class="g2_260"/>
<path d="M326.9,473.4h-.7h.7Z" class="g2_260"/>
<path d="M326.9,534.2h-.7h.7Z" class="g2_260"/>
<path d="M284.5,609.6h-.7V534.9h.7v74.7Z" class="g2_260"/>
<path d="M284.5,609.6h-.7h.7Z" class="g2_260"/>
<path d="M326.9,609.6h-.7V534.9h.7v74.7Z" class="g2_260"/>
<path d="M326.9,609.6h-.7h.7Z" class="g2_260"/>
<path d="M283.8,671.1h.7V610.3h-.7v60.8Z" class="g2_260"/>
<path d="M326.2,671.1h.7V610.3h-.7v60.8Z" class="g2_260"/>
<path d="M326.2,671.8H28.4v-.7H326.5v.7h-.3Z" class="g2_260"/>
<path d="M29.1,671.8h-.7h.7Z" class="g2_260"/>
<path d="M284.5,704.9h-.7V671.8h.7v33.1Z" class="g2_260"/>
<path d="M284.5,671.8h-.7h.7Z" class="g2_260"/>
<path d="M489.7,671.8H326.5v-.7H489.7v.7Z" class="g2_260"/>
<path d="M489.7,671.8H489h.7Z" class="g2_260"/>
<path d="M326.9,704.9h-.7V671.8h.7v33.1Z" class="g2_260"/>
<path d="M326.2,671.8h.7h-.7Z" class="g2_260"/>
<path d="M326.5,705.6H28.4v-.7H489.7v.7H326.5Z" class="g2_260"/>
<path d="M29.1,704.9h-.7h.7Z" class="g2_260"/>
<path d="M489.7,704.9H489h.7Z" class="g2_260"/>
<path d="M284.5,704.9h-.7h.7Z" class="g2_260"/>
<path d="M326.9,704.9h-.7h.7Z" class="g2_260"/>
</svg>