<?xml version="1.0" encoding="UTF-8" standalone="no"?>
<!DOCTYPE svg PUBLIC "-//W3C//DTD SVG 1.1//EN"
"http://www.w3.org/Graphics/SVG/1.1/DTD/svg11.dtd">
<svg viewBox="0 0 541 866" version="1.1" xmlns="http://www.w3.org/2000/svg" xmlns:xlink="http://www.w3.org/1999/xlink">
<defs>
<clipPath id="c0_170"><path d="M122.5,260.7V127.1H397.1V260.7Z"/></clipPath>
<clipPath id="c1_170"><path d="M416.8,109.5V83.9h50.9v25.6Z"/></clipPath>
<clipPath id="c2_170"><path d="M416.8,134.9V109.4h50.9v25.5Z"/></clipPath>
<clipPath id="c3_170"><path d="M416.8,377.8V352.3h50.9v25.5Z"/></clipPath>
<clipPath id="c4_170"><path d="M416.8,403.2V377.7h50.9v25.5Z"/></clipPath>
<clipPath id="c5_170"><path d="M416.8,445.7V420.2h50.9v25.5Z"/></clipPath>
<clipPath id="c6_170"><path d="M416.8,471.2V445.7h50.9v25.5Z"/></clipPath>
<clipPath id="c7_170"><path d="M416.8,517.6V492.1h50.9v25.5Z"/></clipPath>
<clipPath id="c8_170"><path d="M416.8,543.1V517.6h50.9v25.5Z"/></clipPath>
<clipPath id="c9_170"><path d="M416.8,588V562.5h50.9V588Z"/></clipPath>
<clipPath id="ca_170"><path d="M416.8,613.5V587.9h50.9v25.6Z"/></clipPath>
<clipPath id="cb_170"><path d="M416.8,732.2V706.7h50.9v25.5Z"/></clipPath>
<clipPath id="cc_170"><path d="M416.8,757.7V732.2h50.9v25.5Z"/></clipPath>
</defs>
<image clip-path="url(#c0_170)" preserveAspectRatio="none" x="122" y="126" width="276" height="136" xlink:href="img/1.jpg"/>
<image clip-path="url(#c1_170)" preserveAspectRatio="none" x="417" y="84" width="51" height="26" xlink:href="img/2.jpg"/>
<image clip-path="url(#c2_170)" preserveAspectRatio="none" x="417" y="109" width="51" height="26" xlink:href="img/3.jpg"/>
<image clip-path="url(#c3_170)" preserveAspectRatio="none" x="417" y="352" width="51" height="26" xlink:href="img/4.jpg"/>
<image clip-path="url(#c4_170)" preserveAspectRatio="none" x="417" y="378" width="51" height="25" xlink:href="img/5.jpg"/>
<image clip-path="url(#c5_170)" preserveAspectRatio="none" x="417" y="420" width="51" height="26" xlink:href="img/6.jpg"/>
<image clip-path="url(#c6_170)" preserveAspectRatio="none" x="417" y="446" width="51" height="25" xlink:href="img/7.jpg"/>
<image clip-path="url(#c7_170)" preserveAspectRatio="none" x="417" y="492" width="51" height="26" xlink:href="img/8.jpg"/>
<image clip-path="url(#c8_170)" preserveAspectRatio="none" x="417" y="517" width="51" height="26" xlink:href="img/9.jpg"/>
<image clip-path="url(#c9_170)" preserveAspectRatio="none" x="417" y="562" width="51" height="26" xlink:href="img/10.jpg"/>
<image clip-path="url(#ca_170)" preserveAspectRatio="none" x="417" y="588" width="51" height="26" xlink:href="img/11.jpg"/>
<image clip-path="url(#cb_170)" preserveAspectRatio="none" x="417" y="707" width="51" height="25" xlink:href="img/12.jpg"/>
<image clip-path="url(#cc_170)" preserveAspectRatio="none" x="417" y="732" width="51" height="26" xlink:href="img/13.jpg"/>
</svg>