<?xml version="1.0" encoding="UTF-8" standalone="no"?>
<!DOCTYPE svg PUBLIC "-//W3C//DTD SVG 1.1//EN"
"http://www.w3.org/Graphics/SVG/1.1/DTD/svg11.dtd">
<svg viewBox="0 0 541 866" version="1.1" xmlns="http://www.w3.org/2000/svg" xmlns:xlink="http://www.w3.org/1999/xlink">
<defs>
<clipPath id="c0_22"><path d="M329.2,558.6V533h51.1v25.6Z"/></clipPath>
<clipPath id="c1_22"><path d="M329.2,584.1V558.5h51.1v25.6Z"/></clipPath>
<clipPath id="c2_22"><path d="M392.5,558.6V533h51.1v25.6Z"/></clipPath>
<clipPath id="c3_22"><path d="M392.5,584.1V558.5h51.1v25.6Z"/></clipPath>
<clipPath id="c4_22"><path d="M76.1,558.6V533.1h51v25.5Z"/></clipPath>
<clipPath id="c5_22"><path d="M76.1,584.1V558.5h51v25.6Z"/></clipPath>
<clipPath id="c6_22"><path d="M139.5,558.6V533.1h51v25.5Z"/></clipPath>
<clipPath id="c7_22"><path d="M139.5,584.1V558.5h51v25.6Z"/></clipPath>
<clipPath id="c8_22"><path d="M267,558.8v-25h50v25Z"/></clipPath>
<clipPath id="c9_22"><path d="M267,583.8v-25h50v25Z"/></clipPath>
<clipPath id="ca_22"><path d="M202.7,558.8v-25h50v25Z"/></clipPath>
<clipPath id="cb_22"><path d="M202.7,583.8v-25h50v25Z"/></clipPath>
<style type="text/css"><![CDATA[
.g0_22{
fill: #231F20;
}
]]></style>
</defs>
<path d="M51.9,740.2h99.7v-.7H51.9v.7Z" class="g0_22"/>
<image clip-path="url(#c0_22)" preserveAspectRatio="none" x="329" y="533" width="52" height="26" xlink:href="img/1.jpg"/>
<image clip-path="url(#c1_22)" preserveAspectRatio="none" x="329" y="559" width="52" height="25" xlink:href="img/2.jpg"/>
<image clip-path="url(#c2_22)" preserveAspectRatio="none" x="392" y="533" width="52" height="26" xlink:href="img/3.jpg"/>
<image clip-path="url(#c3_22)" preserveAspectRatio="none" x="392" y="559" width="52" height="25" xlink:href="img/4.jpg"/>
<image clip-path="url(#c4_22)" preserveAspectRatio="none" x="76" y="533" width="52" height="26" xlink:href="img/5.jpg"/>
<image clip-path="url(#c5_22)" preserveAspectRatio="none" x="76" y="559" width="52" height="25" xlink:href="img/6.jpg"/>
<image clip-path="url(#c6_22)" preserveAspectRatio="none" x="139" y="533" width="52" height="26" xlink:href="img/7.jpg"/>
<image clip-path="url(#c7_22)" preserveAspectRatio="none" x="139" y="559" width="52" height="25" xlink:href="img/8.jpg"/>
<image clip-path="url(#c8_22)" preserveAspectRatio="none" x="267" y="534" width="50" height="25" xlink:href="img/9.jpg"/>
<image clip-path="url(#c9_22)" preserveAspectRatio="none" x="267" y="559" width="50" height="25" xlink:href="img/10.jpg"/>
<image clip-path="url(#ca_22)" preserveAspectRatio="none" x="203" y="534" width="50" height="25" xlink:href="img/11.jpg"/>
<image clip-path="url(#cb_22)" preserveAspectRatio="none" x="203" y="559" width="50" height="25" xlink:href="img/12.jpg"/>
</svg>