<?xml version="1.0" encoding="UTF-8" standalone="no"?>
<!DOCTYPE svg PUBLIC "-//W3C//DTD SVG 1.1//EN"
"http://www.w3.org/Graphics/SVG/1.1/DTD/svg11.dtd">
<svg viewBox="0 0 541 866" version="1.1" xmlns="http://www.w3.org/2000/svg" xmlns:xlink="http://www.w3.org/1999/xlink">
<defs>
<clipPath id="c0_286"><path d="M33.3,227.5V227H84.1v.5Z"/></clipPath>
<clipPath id="c1_286"><path d="M83.6,227v-9.1h1V227Z"/></clipPath>
<clipPath id="c2_286"><path d="M84.1,227.5V227H194v.5Z"/></clipPath>
<clipPath id="c3_286"><path d="M33.3,238.7v-.5H84.1v.5Z"/></clipPath>
<clipPath id="c4_286"><path d="M83.6,238.2v-9.1h1v9.1Z"/></clipPath>
<clipPath id="c5_286"><path d="M84.1,238.7v-.5H202.4v.5Z"/></clipPath>
<clipPath id="c6_286"><path d="M83.6,421v-9.1h1V421Z"/></clipPath>
<clipPath id="c7_286"><path d="M34.2,421.5V421H84.1v.5Z"/></clipPath>
<clipPath id="c8_286"><path d="M84.1,421.5V421H188v.5Z"/></clipPath>
<clipPath id="c9_286"><path d="M33.3,432.7v-.5H84.1v.5Z"/></clipPath>
<clipPath id="ca_286"><path d="M83.6,432.2v-9.1h1v9.1Z"/></clipPath>
<clipPath id="cb_286"><path d="M84.1,432.7v-.5H199.8v.5Z"/></clipPath>
<clipPath id="cc_286"><path d="M33.4,443.9v-.5H84.1v.5Z"/></clipPath>
<clipPath id="cd_286"><path d="M83.6,443.4v-9.1h1v9.1Z"/></clipPath>
<clipPath id="ce_286"><path d="M84.1,443.9v-.5H202.3v.5Z"/></clipPath>
<clipPath id="cf_286"><path d="M33.4,455v-.5H84.1v.5Z"/></clipPath>
<clipPath id="cg_286"><path d="M83.6,454.5v-8.9h1v8.9Z"/></clipPath>
<clipPath id="ch_286"><path d="M84.1,455v-.5H165v.5Z"/></clipPath>
<clipPath id="ci_286"><path d="M33.2,466.2v-.5H84.1v.5Z"/></clipPath>
<clipPath id="cj_286"><path d="M83.6,465.7v-9h1v9Z"/></clipPath>
<clipPath id="ck_286"><path d="M84.1,466.2v-.5H188.7v.5Z"/></clipPath>
<clipPath id="cl_286"><path d="M33.1,477.4v-.5h51v.5Z"/></clipPath>
<clipPath id="cm_286"><path d="M83.6,476.9v-8.7h1v8.7Z"/></clipPath>
<clipPath id="cn_286"><path d="M84.1,477.4v-.5h87.6v.5Z"/></clipPath>
<clipPath id="co_286"><path d="M33.4,488.6v-.5H84.1v.5Z"/></clipPath>
<clipPath id="cp_286"><path d="M83.6,488.1v-8.9h1v8.9Z"/></clipPath>
<clipPath id="cq_286"><path d="M84.1,488.6v-.5H190.3v.5Z"/></clipPath>
<clipPath id="cr_286"><path d="M33.4,499.8v-.5H84.1v.5Z"/></clipPath>
<clipPath id="cs_286"><path d="M83.6,499.3v-8.9h1v8.9Z"/></clipPath>
<clipPath id="ct_286"><path d="M84.1,499.8v-.5H184v.5Z"/></clipPath>
<clipPath id="cu_286"><path d="M33.3,510.9v-.4H84.1v.4Z"/></clipPath>
<clipPath id="cv_286"><path d="M83.6,510.5v-9h1v9Z"/></clipPath>
<clipPath id="cw_286"><path d="M84.1,510.9v-.4h79v.4Z"/></clipPath>
<clipPath id="cx_286"><path d="M33.4,522.1v-.4H84.1v.4Z"/></clipPath>
<clipPath id="cy_286"><path d="M83.6,521.7v-9h1v9Z"/></clipPath>
<clipPath id="cz_286"><path d="M84.1,522.1v-.4h91.5v.4Z"/></clipPath>
<clipPath id="c10_286"><path d="M33.4,533.3v-.4H84.1v.4Z"/></clipPath>
<clipPath id="c11_286"><path d="M83.6,532.9v-9h1v9Z"/></clipPath>
<clipPath id="c12_286"><path d="M84.1,533.3v-.4H195v.4Z"/></clipPath>
<clipPath id="c13_286"><path d="M33.4,544.5V544H84.1v.5Z"/></clipPath>
<clipPath id="c14_286"><path d="M83.6,544v-9h1v9Z"/></clipPath>
<clipPath id="c15_286"><path d="M84.1,544.5V544h93.3v.5Z"/></clipPath>
<clipPath id="c16_286"><path d="M268.4,170.5V170h51.1v.5Z"/></clipPath>
<clipPath id="c17_286"><path d="M318.9,170v-9.1H320V170Z"/></clipPath>
<clipPath id="c18_286"><path d="M319.5,170.5V170h98.3v.5Z"/></clipPath>
<clipPath id="c19_286"><path d="M268.4,193.2v-.5h51.1v.5Z"/></clipPath>
<clipPath id="c1a_286"><path d="M319.5,193.2v-.5h98.4v.5Z"/></clipPath>
<clipPath id="c1b_286"><path d="M318.9,340.7v-9H320v9Z"/></clipPath>
<clipPath id="c1c_286"><path d="M318.9,420.4v-9H320v9h-.5Z"/></clipPath>
<clipPath id="c1d_286"><path d="M319.5,420.9v-.5H428.9v.5Z"/></clipPath>
<clipPath id="c1e_286"><path d="M268.7,477.8v-.5h50.8v.5Z"/></clipPath>
<clipPath id="c1f_286"><path d="M318.9,477.3v-9H320v9Z"/></clipPath>
<clipPath id="c1g_286"><path d="M319.5,477.8v-.5H411v.5Z"/></clipPath>
<clipPath id="c1h_286"><path d="M268.6,500.6v-.5h50.9v.5Z"/></clipPath>
<clipPath id="c1i_286"><path d="M319.5,500.1v0h-.6v-9H320v9Z"/></clipPath>
<clipPath id="c1j_286"><path d="M268.6,557.1V557h50.9v.1Z"/></clipPath>
<clipPath id="c1k_286"><path d="M319.5,557v0h-.6v-8.9H320V557Z"/></clipPath>
<clipPath id="c1l_286"><path d="M268.8,591.7v-.5h50.7v.5Z"/></clipPath>
<clipPath id="c1m_286"><path d="M319.5,591.2v0h-.6v-9.1H320v9.1Z"/></clipPath>
<style type="text/css"><![CDATA[
.g0_286{
fill: #0066B3;
}
.g1_286{
fill: #231F20;
}
.g2_286{
fill: #00000C;
}
]]></style>
</defs>
<path d="M28.9,134.9H84.1v23.7H28.9V134.9m55.2,0H255.4v23.7H84.1V134.9Z" class="g0_286"/>
<path d="M29.4,158.6h-1V134.9h.5v23.7h.5Z" class="g1_286"/>
<path d="M29.4,158.6h-.5V134.9h.5v23.7Z" class="g2_286"/>
<path d="M84.1,159.6H29.4v-1H84.1v-1.1v2.1Z" class="g1_286"/>
<path d="M84.1,158.6v-1.1v1.1H29.4v-1.1H84.1v1.1Z" class="g2_286"/>
<path d="M29.4,158.6v0v-1.1v1.1Z" class="g2_286"/>
<path d="M84.1,157.5V134.9h.5v22.6h-.5m0,0h-.5V134.9h.5v22.6Z" class="g2_286"/>
<path d="M84.1,157.5v0h-.5h.5Z" class="g2_286"/>
<path d="M255.9,158.6h-1h.5V134.9h.5v23.7Z" class="g1_286"/>
<path d="M254.9,158.6h.5V134.9h-.5v23.7Z" class="g2_286"/>
<path d="M84.1,159.6H254.9v-1H84.1v1Z" class="g1_286"/>
<path d="M254.9,158.6H84.1v-1.1H254.9v1.1Z" class="g2_286"/>
<path d="M84.1,157.5h.5h-.5Z" class="g2_286"/>
<path d="M29.4,169.8h-1V158.6h1v11.2Z" class="g1_286"/>
<path d="M29.4,159.6v-1v1Z" class="g1_286"/>
<path d="M83.6,160.7h1v-1.1h-1v1.1Z" class="g1_286"/>
<path d="M254.9,169.8h1V158.6h-1v11.2Z" class="g1_286"/>
<path d="M28.4,181h1V170.8h-1V181Z" class="g1_286"/>
<path d="M28.4,192.1h1V182h-1v10.1Z" class="g1_286"/>
<path d="M29.4,215.8h-1V193.2h1v22.6Z" class="g1_286"/>
<path d="M29.4,227h-1V216.8h1V227Z" class="g1_286"/>
<path d="M29.4,238.2h-1V228h1v10.2Z" class="g1_286"/>
<path d="M28.4,261.8h1V239.2h-1v22.6Z" class="g1_286"/>
<path d="M28.4,273h1V262.8h-1V273Z" class="g1_286"/>
<path d="M28.4,296.6h1V274h-1v22.6Z" class="g1_286"/>
<path d="M28.4,307.8h1V297.7h-1v10.1Z" class="g1_286"/>
<path d="M28.4,319h1V308.9h-1V319Z" class="g1_286"/>
<path d="M28.4,330.2h1V320.1h-1v10.1Z" class="g1_286"/>
<path d="M28.4,341.4h1V331.2h-1v10.2Z" class="g1_286"/>
<path d="M28.4,352.6h1V342.4h-1v10.2Z" class="g1_286"/>
<path d="M28.4,376.2h1V353.6h-1v22.6Z" class="g1_286"/>
<path d="M28.4,387.4h1V377.3h-1v10.1Z" class="g1_286"/>
<path d="M28.4,398.6h1V388.4h-1v10.2Z" class="g1_286"/>
<path d="M28.4,409.8h1V399.6h-1v10.2Z" class="g1_286"/>
<path d="M29.4,421h-1V410.8h1V421Z" class="g1_286"/>
<path d="M84.1,170.8H28.4v-1h4.9v.5H84.1v.5Z" class="g1_286"/>
<path d="M84.1,182H28.4v-1h4.9v.5H84.1v.5Z" class="g1_286"/>
<path d="M84.1,193.2H28.4v-1.1h4.9v.6H84.1v.5Z" class="g1_286"/>
<path d="M84.1,216.8H28.4v-1H84.1v1Z" class="g1_286"/>
<path d="M28.4,215.8h1h-1Z" class="g1_286"/>
<path d="M84.1,228H28.4v-1h4.9v.5H84.1v.5Z" class="g1_286"/>
<path d="M28.4,227h1h-1Z" class="g1_286"/>
<path d="M84.1,239.2H28.4v-1h4.9v.5H84.1v.5Z" class="g1_286"/>
<path d="M28.4,238.2h1h-1Z" class="g1_286"/>
<path d="M83.6,262.8H28.4v-1H84.1v1h-.5Z" class="g1_286"/>
<path d="M29.4,262.8h-1h1Z" class="g1_286"/>
<path d="M83.6,274H28.4v-1h4.9v.5H84.1v.5h-.5Z" class="g1_286"/>
<path d="M29.4,274h-1h1Z" class="g1_286"/>
<path d="M83.6,297.7H28.4v-1.1H84.1v1.1h-.5Z" class="g1_286"/>
<path d="M29.4,297.7h-1h1Z" class="g1_286"/>
<path d="M83.6,308.9H28.4v-1.1h5.8v.5H84.1v.6h-.5Z" class="g1_286"/>
<path d="M29.4,308.9h-1h1Z" class="g1_286"/>
<path d="M83.6,320.1H28.4V319h5.8v.5H84.1v.6h-.5Z" class="g1_286"/>
<path d="M29.4,320.1h-1h1Z" class="g1_286"/>
<path d="M84.1,331.2H28.4v-1h5.8v.5H84.1v.5Z" class="g1_286"/>
<path d="M84.1,342.4H28.4v-1h5.8v.5H84.1v.5Z" class="g1_286"/>
<path d="M84.1,353.6H28.4v-1h5.8v.5H84.1v.5Z" class="g1_286"/>
<path d="M28.4,377.3H84.1v-1.1H28.4v1.1Z" class="g1_286"/>
<path d="M84.1,388.4H28.4v-1h5.8v.5H84.1v.5Z" class="g1_286"/>
<path d="M84.1,399.6H28.4v-1h5.8v.5H84.1v.5Z" class="g1_286"/>
<path d="M84.1,410.8H28.4v-1h5.8v.5H84.1v.5Z" class="g1_286"/>
<path d="M83.6,171.9h1v-1.1h-1v1.1Z" class="g1_286"/>
<path d="M83.6,183.1h1V182h-1v1.1Z" class="g1_286"/>
<path d="M84.1,215.8v0h-.5V193.2h1v22.6h-.5Z" class="g1_286"/>
<path d="M83.6,215.8h.5h-.5Z" class="g1_286"/>
<path d="M83.6,217.9h1v-1.1h-1v1.1Z" class="g1_286"/>
<path d="M83.6,229.1h1V228h-1v1.1Z" class="g1_286"/>
<path d="M83.6,261.8h1V239.2h-1v22.6Z" class="g1_286"/>
<path d="M84.6,263.9h-1v-1.1h1v1.1Z" class="g1_286"/>
<path d="M83.6,262.8h.5h-.5Z" class="g1_286"/>
<path d="M84.6,296.6h-1V274h1v22.6Z" class="g1_286"/>
<path d="M83.6,274h.5h-.5Z" class="g1_286"/>
<path d="M84.6,298.8h-1v-1.1h1v1.1Z" class="g1_286"/>
<path d="M83.6,297.7h.5h-.5Z" class="g1_286"/>
<path d="M84.6,310h-1v-1.1h1V310Z" class="g1_286"/>
<path d="M83.6,308.9h.5h-.5Z" class="g1_286"/>
<path d="M84.6,321.2h-1v-1.1h1v1.1Z" class="g1_286"/>
<path d="M83.6,320.1h.5h-.5Z" class="g1_286"/>
<path d="M83.6,332.3h1v-1.1h-1v1.1Z" class="g1_286"/>
<path d="M83.6,343.5h1v-1.1h-1v1.1Z" class="g1_286"/>
<path d="M83.6,376.2h1V353.6h-1v22.6Z" class="g1_286"/>
<path d="M83.6,378.4h1v-1.1h-1v1.1Z" class="g1_286"/>
<path d="M83.6,389.5h1v-1.1h-1v1.1Z" class="g1_286"/>
<path d="M83.6,400.7h1v-1.1h-1v1.1Z" class="g1_286"/>
<path d="M83.6,411.9h1v-1.1h-1v1.1Z" class="g1_286"/>
<path d="M255.9,170.8H84.1v-.5H184.2v-.5h71.7v1Z" class="g1_286"/>
<path d="M254.9,181h1V170.8h-1V181Z" class="g1_286"/>
<path d="M254.9,192.1h1V182h-1v10.1Z" class="g1_286"/>
<path d="M254.9,215.8h1V193.2h-1v22.6Z" class="g1_286"/>
<path d="M254.9,227h1V216.8h-1V227Z" class="g1_286"/>
<path d="M254.9,238.2h1V228h-1v10.2Z" class="g1_286"/>
<path d="M254.9,261.8h1V239.2h-1v22.6Z" class="g1_286"/>
<path d="M254.9,273h1V262.8h-1V273Z" class="g1_286"/>
<path d="M254.9,296.6h1V274h-1v22.6Z" class="g1_286"/>
<path d="M254.9,307.8h1V297.7h-1v10.1Z" class="g1_286"/>
<path d="M254.9,319h1V308.9h-1V319Z" class="g1_286"/>
<path d="M254.9,330.2h1V320.1h-1v10.1Z" class="g1_286"/>
<path d="M254.9,341.4h1V331.2h-1v10.2Z" class="g1_286"/>
<path d="M254.9,352.6h1V342.4h-1v10.2Z" class="g1_286"/>
<path d="M254.9,376.2h1V353.6h-1v22.6Z" class="g1_286"/>
<path d="M254.9,387.4h1V377.3h-1v10.1Z" class="g1_286"/>
<path d="M254.9,398.6h1V388.4h-1v10.2Z" class="g1_286"/>
<path d="M254.9,409.8h1V399.6h-1v10.2Z" class="g1_286"/>
<path d="M254.9,421h1V410.8h-1V421Z" class="g1_286"/>
<path d="M255.9,182H84.1v-.5H219.8V181h36.1v1Z" class="g1_286"/>
<path d="M255.9,193.2H84.1v-.5H188.6v-.6h67.3v1.1Z" class="g1_286"/>
<path d="M255.9,216.8H84.1v-1H88v.5h32.1v-.5H255.9v1Z" class="g1_286"/>
<path d="M84.1,215.8h.5h-.5Z" class="g1_286"/>
<path d="M254.9,215.8h1h-1Z" class="g1_286"/>
<path d="M255.9,228H84.1v-.5H194V227h61.9v1Z" class="g1_286"/>
<path d="M254.9,227h1h-1Z" class="g1_286"/>
<path d="M255.9,239.2H84.1v-.5H202.4v-.5h53.5v1Z" class="g1_286"/>
<path d="M254.9,238.2h1h-1Z" class="g1_286"/>
<path d="M255.9,262.8H84.1v-1h4.8v.5H146v-.5H255.9v1Z" class="g1_286"/>
<path d="M84.1,262.8h.5h-.5Z" class="g1_286"/>
<path d="M254.9,262.8h1h-1Z" class="g1_286"/>
<path d="M255.9,274H84.1v-.5H198V273h57.9v1Z" class="g1_286"/>
<path d="M84.1,274h.5h-.5Z" class="g1_286"/>
<path d="M254.9,274h1h-1Z" class="g1_286"/>
<path d="M255.9,297.7H84.1v-1.1h4.5v.5h51.6v-.5H255.9v1.1Z" class="g1_286"/>
<path d="M84.1,297.7h.5h-.5Z" class="g1_286"/>
<path d="M254.9,297.7h1h-1Z" class="g1_286"/>
<path d="M255.9,308.9H84.1v-.6H190v-.5h65.9v1.1Z" class="g1_286"/>
<path d="M84.1,308.9h.5h-.5Z" class="g1_286"/>
<path d="M254.9,308.9h1h-1Z" class="g1_286"/>
<path d="M255.9,320.1H84.1v-.6h90.3V319h81.5v1.1Z" class="g1_286"/>
<path d="M84.1,320.1h.5h-.5Z" class="g1_286"/>
<path d="M254.9,320.1h1h-1Z" class="g1_286"/>
<path d="M255.9,331.2H84.1v-.5H197.2v-.5h58.7v1Z" class="g1_286"/>
<path d="M255.9,342.4H84.1v-.5H199.3v-.5h56.6v1Z" class="g1_286"/>
<path d="M255.9,353.6H84.1v-.5H215.9v-.5h40v1Z" class="g1_286"/>
<path d="M84.1,377.3H255.9v-1.1H84.1v1.1Z" class="g1_286"/>
<path d="M255.9,388.4H84.1v-.5H198.7v-.5h57.2v1Z" class="g1_286"/>
<path d="M255.9,399.6H84.1v-.5h89.1v-.5h82.7v1Z" class="g1_286"/>
<path d="M255.9,410.8H84.1v-.5H206.7v-.5h49.2v1Z" class="g1_286"/>
<path d="M29.4,432.2h-1V422h1v10.2Z" class="g1_286"/>
<path d="M29.4,443.4h-1V433.2h1v10.2Z" class="g1_286"/>
<path d="M29.4,454.5h-1V444.4h1v10.1Z" class="g1_286"/>
<path d="M29.4,465.7h-1V455.6h1v10.1Z" class="g1_286"/>
<path d="M29.4,476.9h-1V466.8h1v10.1Z" class="g1_286"/>
<path d="M29.4,488.1h-1V478h1v10.1Z" class="g1_286"/>
<path d="M29.4,499.3h-1V489.1h1v10.2Z" class="g1_286"/>
<path d="M29.4,510.5h-1V500.3h1v10.2Z" class="g1_286"/>
<path d="M29.4,521.7h-1V511.5h1v10.2Z" class="g1_286"/>
<path d="M29.4,532.9h-1V522.7h1v10.2Z" class="g1_286"/>
<path d="M29.4,544h-1V533.9h1V544Z" class="g1_286"/>
<path d="M28.4,555.2h1V545.1h-1v10.1Z" class="g1_286"/>
<path d="M28.4,566.4h1V556.3h-1v10.1Z" class="g1_286"/>
<path d="M28.4,577.6h1V567.5h-1v10.1Z" class="g1_286"/>
<path d="M28.4,588.8h1V578.6h-1v10.2Z" class="g1_286"/>
<path d="M28.4,600h1V589.8h-1V600Z" class="g1_286"/>
<path d="M28.4,611.2h1V601h-1v10.2Z" class="g1_286"/>
<path d="M28.4,622.4h1V612.2h-1v10.2Z" class="g1_286"/>
<path d="M28.4,633.5h1V623.4h-1v10.1Z" class="g1_286"/>
<path d="M28.4,644.7h1V634.6h-1v10.1Z" class="g1_286"/>
<path d="M84.1,422H28.4v-1h5.8v.5H84.1v.5Z" class="g1_286"/>
<path d="M28.4,421h1h-1Z" class="g1_286"/>
<path d="M84.1,433.2H28.4v-1h4.9v.5H84.1v.5Z" class="g1_286"/>
<path d="M28.4,432.2h1h-1Z" class="g1_286"/>
<path d="M84.1,444.4H28.4v-1h5v.5H84.1v.5Z" class="g1_286"/>
<path d="M28.4,443.4h1h-1Z" class="g1_286"/>
<path d="M84.1,455.6H28.4v-1.1h5v.5H84.1v.6Z" class="g1_286"/>
<path d="M28.4,454.5h1h-1Z" class="g1_286"/>
<path d="M84.1,466.8H28.4v-1.1h4.8v.5H84.1v.6Z" class="g1_286"/>
<path d="M28.4,465.7h1h-1Z" class="g1_286"/>
<path d="M84.1,478H28.4v-1.1h4.7v.5h51v.6Z" class="g1_286"/>
<path d="M28.4,476.9h1h-1Z" class="g1_286"/>
<path d="M84.1,489.1H28.4v-1h5v.5H84.1v.5Z" class="g1_286"/>
<path d="M28.4,488.1h1h-1Z" class="g1_286"/>
<path d="M84.1,500.3H28.4v-1h5v.5H84.1v.5Z" class="g1_286"/>
<path d="M28.4,499.3h1h-1Z" class="g1_286"/>
<path d="M84.1,511.5H28.4v-1h4.9v.4H84.1v.6Z" class="g1_286"/>
<path d="M28.4,510.5h1h-1Z" class="g1_286"/>
<path d="M84.1,522.7H28.4v-1h5v.4H84.1v.6Z" class="g1_286"/>
<path d="M28.4,521.7h1h-1Z" class="g1_286"/>
<path d="M84.1,533.9H28.4v-1h5v.4H84.1v.6Z" class="g1_286"/>
<path d="M28.4,532.9h1h-1Z" class="g1_286"/>
<path d="M84.1,545.1H28.4V544h5v.5H84.1v.6Z" class="g1_286"/>
<path d="M28.4,544h1h-1Z" class="g1_286"/>
<path d="M83.6,556.3H28.4v-1.1h5v.5H84.1v.6h-.5Z" class="g1_286"/>
<path d="M29.4,556.3h-1h1Z" class="g1_286"/>
<path d="M83.6,567.5H28.4v-1.1h5v.5H84.1v.6h-.5Z" class="g1_286"/>
<path d="M29.4,567.5h-1h1Z" class="g1_286"/>
<path d="M83.6,578.6H28.4v-1h4.9v.5H84.1v.5h-.5Z" class="g1_286"/>
<path d="M29.4,578.6h-1h1Z" class="g1_286"/>
<path d="M83.6,589.8H28.4v-1h4.9v.5H84.1v.5h-.5Z" class="g1_286"/>
<path d="M29.4,589.8h-1h1Z" class="g1_286"/>
<path d="M83.6,601H28.4v-1h4.9v.4H84.1v.6h-.5Z" class="g1_286"/>
<path d="M29.4,601h-1h1Z" class="g1_286"/>
<path d="M83.6,612.2H28.4v-1h4.9v.4H84.1v.6h-.5Z" class="g1_286"/>
<path d="M29.4,612.2h-1h1Z" class="g1_286"/>
<path d="M83.6,623.4H28.4v-1h4.9v.4H84.1v.6h-.5Z" class="g1_286"/>
<path d="M29.4,623.4h-1h1Z" class="g1_286"/>
<path d="M83.6,634.6H28.4v-1.1H84.1v1.1h-.5Z" class="g1_286"/>
<path d="M29.4,634.6h-1h1Z" class="g1_286"/>
<path d="M83.6,423.1h1V422h-1v1.1Z" class="g1_286"/>
<path d="M83.6,434.3h1v-1.1h-1v1.1Z" class="g1_286"/>
<path d="M83.6,445.6h1v-1.2h-1v1.2Z" class="g1_286"/>
<path d="M83.6,456.7h1v-1.1h-1v1.1Z" class="g1_286"/>
<path d="M83.6,468.2h1v-1.4h-1v1.4Z" class="g1_286"/>
<path d="M83.6,479.2h1V478h-1v1.2Z" class="g1_286"/>
<path d="M83.6,490.4h1v-1.3h-1v1.3Z" class="g1_286"/>
<path d="M83.6,501.5h1v-1.2h-1v1.2Z" class="g1_286"/>
<path d="M83.6,512.7h1v-1.2h-1v1.2Z" class="g1_286"/>
<path d="M83.6,523.9h1v-1.2h-1v1.2Z" class="g1_286"/>
<path d="M83.6,535h1v-1.1h-1V535Z" class="g1_286"/>
<path d="M83.6,546.2h1v-1.1h-1v1.1Z" class="g1_286"/>
<path d="M84.6,557.4h-1v-1.1h1v1.1Z" class="g1_286"/>
<path d="M83.6,556.3h.5h-.5Z" class="g1_286"/>
<path d="M84.6,568.5h-1v-1h1v1Z" class="g1_286"/>
<path d="M83.6,567.5h.5h-.5Z" class="g1_286"/>
<path d="M84.6,579.7h-1v-1.1h1v1.1Z" class="g1_286"/>
<path d="M83.6,578.6h.5h-.5Z" class="g1_286"/>
<path d="M84.6,590.9h-1v-1.1h1v1.1Z" class="g1_286"/>
<path d="M83.6,589.8h.5h-.5Z" class="g1_286"/>
<path d="M84.6,602.1h-1V601h1v1.1Z" class="g1_286"/>
<path d="M83.6,601h.5h-.5Z" class="g1_286"/>
<path d="M84.6,613.3h-1v-1.1h1v1.1Z" class="g1_286"/>
<path d="M83.6,612.2h.5h-.5Z" class="g1_286"/>
<path d="M84.6,633.5h-1h1m0,-9h-1v-1.1h1v1.1Z" class="g1_286"/>
<path d="M83.6,623.4h.5h-.5Z" class="g1_286"/>
<path d="M84.6,635.7h-1v-1.1h1v1.1Z" class="g1_286"/>
<path d="M83.6,634.6h.5h-.5Z" class="g1_286"/>
<path d="M255.9,422H84.1v-.5H188V421h67.9v1Z" class="g1_286"/>
<path d="M254.9,421h1h-1Z" class="g1_286"/>
<path d="M254.9,432.2h1V422h-1v10.2Z" class="g1_286"/>
<path d="M254.9,443.4h1V433.2h-1v10.2Z" class="g1_286"/>
<path d="M254.9,454.5h1V444.4h-1v10.1Z" class="g1_286"/>
<path d="M254.9,465.7h1V455.6h-1v10.1Z" class="g1_286"/>
<path d="M254.9,476.9h1V466.8h-1v10.1Z" class="g1_286"/>
<path d="M254.9,488.1h1V478h-1v10.1Z" class="g1_286"/>
<path d="M254.9,499.3h1V489.1h-1v10.2Z" class="g1_286"/>
<path d="M254.9,510.5h1V500.3h-1v10.2Z" class="g1_286"/>
<path d="M254.9,521.7h1V511.5h-1v10.2Z" class="g1_286"/>
<path d="M254.9,532.9h1V522.7h-1v10.2Z" class="g1_286"/>
<path d="M254.9,544h1V533.9h-1V544Z" class="g1_286"/>
<path d="M254.9,555.2h1V545.1h-1v10.1Z" class="g1_286"/>
<path d="M254.9,566.4h1V556.3h-1v10.1Z" class="g1_286"/>
<path d="M254.9,577.6h1V567.5h-1v10.1Z" class="g1_286"/>
<path d="M254.9,588.8h1V578.6h-1v10.2Z" class="g1_286"/>
<path d="M254.9,600h1V589.8h-1V600Z" class="g1_286"/>
<path d="M254.9,611.2h1V601h-1v10.2Z" class="g1_286"/>
<path d="M254.9,622.4h1V612.2h-1v10.2Z" class="g1_286"/>
<path d="M254.9,633.5h1V623.4h-1v10.1Z" class="g1_286"/>
<path d="M254.9,644.7h1V634.6h-1v10.1Z" class="g1_286"/>
<path d="M255.9,433.2H84.1v-.5H199.8v-.5h56.1v1Z" class="g1_286"/>
<path d="M254.9,432.2h1h-1Z" class="g1_286"/>
<path d="M255.9,444.4H84.1v-.5H202.3v-.5h53.6v1Z" class="g1_286"/>
<path d="M254.9,443.4h1h-1Z" class="g1_286"/>
<path d="M255.9,455.6H84.1V455H165v-.5h90.9v1.1Z" class="g1_286"/>
<path d="M254.9,454.5h1h-1Z" class="g1_286"/>
<path d="M255.9,466.8H84.1v-.6H188.7v-.5h67.2v1.1Z" class="g1_286"/>
<path d="M254.9,465.7h1h-1Z" class="g1_286"/>
<path d="M255.9,478H84.1v-.6h87.6v-.5h84.2V478Z" class="g1_286"/>
<path d="M254.9,476.9h1h-1Z" class="g1_286"/>
<path d="M255.9,489.1H84.1v-.5H190.3v-.5h65.6v1Z" class="g1_286"/>
<path d="M254.9,488.1h1h-1Z" class="g1_286"/>
<path d="M255.9,500.3H84.1v-.5H184v-.5h71.9v1Z" class="g1_286"/>
<path d="M254.9,499.3h1h-1Z" class="g1_286"/>
<path d="M255.9,511.5H84.1v-.6h79v-.4h92.8v1Z" class="g1_286"/>
<path d="M254.9,510.5h1h-1Z" class="g1_286"/>
<path d="M255.9,522.7H84.1v-.6h91.5v-.4h80.3v1Z" class="g1_286"/>
<path d="M254.9,521.7h1h-1Z" class="g1_286"/>
<path d="M255.9,533.9H84.1v-.6H195v-.4h60.9v1Z" class="g1_286"/>
<path d="M254.9,532.9h1h-1Z" class="g1_286"/>
<path d="M255.9,545.1H84.1v-.6h93.3V544h78.5v1.1Z" class="g1_286"/>
<path d="M254.9,544h1h-1Z" class="g1_286"/>
<path d="M255.9,556.3H84.1v-.6h93.3v-.5h78.5v1.1Z" class="g1_286"/>
<path d="M84.1,556.3h.5h-.5Z" class="g1_286"/>
<path d="M254.9,556.3h1h-1Z" class="g1_286"/>
<path d="M255.9,567.5H84.1v-.6H202.9v-.5h53v1.1Z" class="g1_286"/>
<path d="M84.1,567.5h.5h-.5Z" class="g1_286"/>
<path d="M254.9,567.5h1h-1Z" class="g1_286"/>
<path d="M255.9,578.6H84.1v-.5H197.6v-.5h58.3v1Z" class="g1_286"/>
<path d="M84.1,578.6h.5h-.5Z" class="g1_286"/>
<path d="M254.9,578.6h1h-1Z" class="g1_286"/>
<path d="M255.9,589.8H84.1v-.5H199.7v-.5h56.2v1Z" class="g1_286"/>
<path d="M84.1,589.8h.5h-.5Z" class="g1_286"/>
<path d="M254.9,589.8h1h-1Z" class="g1_286"/>
<path d="M255.9,601H84.1v-.6h92.6V600h79.2v1Z" class="g1_286"/>
<path d="M84.1,601h.5h-.5Z" class="g1_286"/>
<path d="M254.9,601h1h-1Z" class="g1_286"/>
<path d="M255.9,612.2H84.1v-.6h119v-.4h52.8v1Z" class="g1_286"/>
<path d="M84.1,612.2h.5h-.5Z" class="g1_286"/>
<path d="M254.9,612.2h1h-1Z" class="g1_286"/>
<path d="M255.9,623.4H84.1v-.6H204.3v-.4h51.6v1Z" class="g1_286"/>
<path d="M84.1,623.4h.5h-.5Z" class="g1_286"/>
<path d="M254.9,623.4h1h-1Z" class="g1_286"/>
<path d="M255.9,634.6H84.1v-1.1H255.9v1.1Z" class="g1_286"/>
<path d="M84.1,634.6h.5h-.5Z" class="g1_286"/>
<path d="M254.9,634.6h1h-1Z" class="g1_286"/>
<path d="M28.4,655.9h1V645.8h-1v10.1Z" class="g1_286"/>
<path d="M28.4,667.1h1V657h-1v10.1Z" class="g1_286"/>
<path d="M28.4,678.3h1V668.1h-1v10.2Z" class="g1_286"/>
<path d="M83.6,645.8H28.4v-1.1h4.9v.5H84.1v.6h-.5Z" class="g1_286"/>
<path d="M29.4,645.8h-1h1Z" class="g1_286"/>
<path d="M83.6,657H28.4v-1.1H84.1V657h-.5Z" class="g1_286"/>
<path d="M29.4,657h-1h1Z" class="g1_286"/>
<path d="M84.1,668.1H28.4v-1h4.9v.5H84.1v.5Z" class="g1_286"/>
<path d="M84.1,679.3H28.4v-1h4.9v.5H84.1v.5Z" class="g1_286"/>
<path d="M84.6,655.9h-1v-1.2h1v1.2m0,-9h-1v-1.1h1v1.1Z" class="g1_286"/>
<path d="M83.6,645.8h.5h-.5Z" class="g1_286"/>
<path d="M84.6,658h-1v-1h1v1Z" class="g1_286"/>
<path d="M83.6,657h.5h-.5Z" class="g1_286"/>
<path d="M83.6,669.2h1v-1.1h-1v1.1Z" class="g1_286"/>
<path d="M255.9,645.8H84.1v-.6H196.6v-.5h59.3v1.1Z" class="g1_286"/>
<path d="M84.1,645.8h.5h-.5Z" class="g1_286"/>
<path d="M254.9,655.9h1V645.8h-1v10.1Z" class="g1_286"/>
<path d="M254.9,645.8h1h-1Z" class="g1_286"/>
<path d="M254.9,667.1h1V657h-1v10.1Z" class="g1_286"/>
<path d="M254.9,678.3h1V668.1h-1v10.2Z" class="g1_286"/>
<path d="M255.9,657H84.1v-1.1H255.9V657Z" class="g1_286"/>
<path d="M84.1,657h.5h-.5Z" class="g1_286"/>
<path d="M254.9,657h1h-1Z" class="g1_286"/>
<path d="M255.9,668.1H84.1v-.5h96.7v-.5h75.1v1Z" class="g1_286"/>
<path d="M255.9,679.3H84.1v-.5H216.9v-.5h39v1Z" class="g1_286"/>
<path d="M83.6,169.8h1v-9.1h-1v9.1Z" class="g1_286"/>
<path d="M33.3,170.3H84.1v-.5H33.3v.5Z" class="g1_286"/>
<path d="M84.1,170.3H184.2v-.5H84.1v.5Z" class="g1_286"/>
<path d="M33.3,181.5H84.1V181H33.3v.5Z" class="g1_286"/>
<path d="M83.6,181h1v-9.1h-1V181Z" class="g1_286"/>
<path d="M84.1,181.5H219.8V181H84.1v.5Z" class="g1_286"/>
<path d="M33.3,192.7H84.1v-.6H33.3v.6Z" class="g1_286"/>
<path d="M83.6,192.1h1v-9h-1v9Z" class="g1_286"/>
<path d="M84.1,192.7H188.6v-.6H84.1v.6Z" class="g1_286"/>
<path d="M88,216.3h32.1v-.5H88v.5Z" class="g1_286"/>
<path clip-path="url(#c0_286)" d="M33.3,227.5H84.1V227H33.3v.5Z" class="g1_286"/>
<path clip-path="url(#c1_286)" d="M83.6,227h1v-9.1h-1V227Z" class="g1_286"/>
<path d="M83.6,227h.5h-.5Z" class="g1_286"/>
<path clip-path="url(#c2_286)" d="M84.1,227.5H194V227H84.1v.5Z" class="g1_286"/>
<path d="M84.1,227h.5h-.5Z" class="g1_286"/>
<path clip-path="url(#c3_286)" d="M33.3,238.7H84.1v-.5H33.3v.5Z" class="g1_286"/>
<path clip-path="url(#c4_286)" d="M83.6,238.2h1v-9.1h-1v9.1Z" class="g1_286"/>
<path d="M83.6,238.2h.5h-.5Z" class="g1_286"/>
<path clip-path="url(#c5_286)" d="M84.1,238.7H202.4v-.5H84.1v.5Z" class="g1_286"/>
<path d="M84.1,238.2h.5h-.5Z" class="g1_286"/>
<path d="M88.9,262.3H146v-.5H88.9v.5Z" class="g1_286"/>
<path d="M33.3,273.5H84.1V273H33.3v.5Z" class="g1_286"/>
<path d="M83.6,273h1v-9.1h-1V273Z" class="g1_286"/>
<path d="M84.1,273.5H198V273H84.1v.5Z" class="g1_286"/>
<path d="M88.6,297.1h51.6v-.5H88.6v.5Z" class="g1_286"/>
<path d="M34.2,308.3H84.1v-.5H34.2v.5Z" class="g1_286"/>
<path d="M83.6,307.8h1v-9h-1v9Z" class="g1_286"/>
<path d="M84.1,308.3H190v-.5H84.1v.5Z" class="g1_286"/>
<path d="M34.2,319.5H84.1V319H34.2v.5Z" class="g1_286"/>
<path d="M83.6,319h1v-9h-1v9Z" class="g1_286"/>
<path d="M84.1,319.5h90.3V319H84.1v.5Z" class="g1_286"/>
<path d="M34.2,330.7H84.1v-.5H34.2v.5Z" class="g1_286"/>
<path d="M83.6,330.2h1v-9h-1v9Z" class="g1_286"/>
<path d="M84.1,330.7H197.2v-.5H84.1v.5Z" class="g1_286"/>
<path d="M34.2,341.9H84.1v-.5H34.2v.5Z" class="g1_286"/>
<path d="M83.6,341.4h1v-9.1h-1v9.1Z" class="g1_286"/>
<path d="M84.1,341.9H199.3v-.5H84.1v.5Z" class="g1_286"/>
<path d="M34.2,353.1H84.1v-.5H34.2v.5Z" class="g1_286"/>
<path d="M83.6,352.6h1v-9.1h-1v9.1Z" class="g1_286"/>
<path d="M84.1,353.1H215.9v-.5H84.1v.5Z" class="g1_286"/>
<path d="M34.2,387.9H84.1v-.5H34.2v.5Z" class="g1_286"/>
<path d="M83.6,387.4h1v-9h-1v9Z" class="g1_286"/>
<path d="M84.1,387.9H198.7v-.5H84.1v.5Z" class="g1_286"/>
<path d="M34.2,399.1H84.1v-.5H34.2v.5Z" class="g1_286"/>
<path d="M83.6,398.6h1v-9.1h-1v9.1Z" class="g1_286"/>
<path d="M84.1,399.1h89.1v-.5H84.1v.5Z" class="g1_286"/>
<path d="M34.2,410.3H84.1v-.5H34.2v.5Z" class="g1_286"/>
<path d="M83.6,409.8h1v-9.1h-1v9.1Z" class="g1_286"/>
<path d="M84.1,410.3H206.7v-.5H84.1v.5Z" class="g1_286"/>
<path clip-path="url(#c6_286)" d="M83.6,421h1v-9.1h-1V421Z" class="g1_286"/>
<path clip-path="url(#c7_286)" d="M34.2,421.5H84.1V421H34.2v.5Z" class="g1_286"/>
<path d="M83.6,421h.5h-.5Z" class="g1_286"/>
<path clip-path="url(#c8_286)" d="M84.1,421.5H188V421H84.1v.5Z" class="g1_286"/>
<path d="M84.1,421h.5h-.5Z" class="g1_286"/>
<path clip-path="url(#c9_286)" d="M33.3,432.7H84.1v-.5H33.3v.5Z" class="g1_286"/>
<path clip-path="url(#ca_286)" d="M83.6,432.2h1v-9.1h-1v9.1Z" class="g1_286"/>
<path d="M83.6,432.2h.5h-.5Z" class="g1_286"/>
<path clip-path="url(#cb_286)" d="M84.1,432.7H199.8v-.5H84.1v.5Z" class="g1_286"/>
<path d="M84.1,432.2h.5h-.5Z" class="g1_286"/>
<path clip-path="url(#cc_286)" d="M33.4,443.9H84.1v-.5H33.4v.5Z" class="g1_286"/>
<path clip-path="url(#cd_286)" d="M83.6,443.4h1v-9.1h-1v9.1Z" class="g1_286"/>
<path d="M83.6,443.4h.5h-.5Z" class="g1_286"/>
<path clip-path="url(#ce_286)" d="M84.1,443.9H202.3v-.5H84.1v.5Z" class="g1_286"/>
<path d="M84.1,443.4h.5h-.5Z" class="g1_286"/>
<path clip-path="url(#cf_286)" d="M33.4,455H84.1v-.5H33.4v.5Z" class="g1_286"/>
<path clip-path="url(#cg_286)" d="M83.6,454.5h1v-8.9h-1v8.9Z" class="g1_286"/>
<path d="M83.6,454.5h.5h-.5Z" class="g1_286"/>
<path clip-path="url(#ch_286)" d="M84.1,455H165v-.5H84.1v.5Z" class="g1_286"/>
<path d="M84.1,454.5h.5h-.5Z" class="g1_286"/>
<path clip-path="url(#ci_286)" d="M33.2,466.2H84.1v-.5H33.2v.5Z" class="g1_286"/>
<path clip-path="url(#cj_286)" d="M83.6,465.7h1v-9h-1v9Z" class="g1_286"/>
<path d="M83.6,465.7h.5h-.5Z" class="g1_286"/>
<path clip-path="url(#ck_286)" d="M84.1,466.2H188.7v-.5H84.1v.5Z" class="g1_286"/>
<path d="M84.1,465.7h.5h-.5Z" class="g1_286"/>
<path clip-path="url(#cl_286)" d="M33.1,477.4h51v-.5h-51v.5Z" class="g1_286"/>
<path clip-path="url(#cm_286)" d="M83.6,476.9h1v-8.7h-1v8.7Z" class="g1_286"/>
<path d="M83.6,476.9h.5h-.5Z" class="g1_286"/>
<path clip-path="url(#cn_286)" d="M84.1,477.4h87.6v-.5H84.1v.5Z" class="g1_286"/>
<path d="M84.1,476.9h.5h-.5Z" class="g1_286"/>
<path clip-path="url(#co_286)" d="M33.4,488.6H84.1v-.5H33.4v.5Z" class="g1_286"/>
<path clip-path="url(#cp_286)" d="M83.6,488.1h1v-8.9h-1v8.9Z" class="g1_286"/>
<path d="M83.6,488.1h.5h-.5Z" class="g1_286"/>
<path clip-path="url(#cq_286)" d="M84.1,488.6H190.3v-.5H84.1v.5Z" class="g1_286"/>
<path d="M84.1,488.1h.5h-.5Z" class="g1_286"/>
<path clip-path="url(#cr_286)" d="M33.4,499.8H84.1v-.5H33.4v.5Z" class="g1_286"/>
<path clip-path="url(#cs_286)" d="M83.6,499.3h1v-8.9h-1v8.9Z" class="g1_286"/>
<path d="M83.6,499.3h.5h-.5Z" class="g1_286"/>
<path clip-path="url(#ct_286)" d="M84.1,499.8H184v-.5H84.1v.5Z" class="g1_286"/>
<path d="M84.1,499.3h.5h-.5Z" class="g1_286"/>
<path clip-path="url(#cu_286)" d="M33.3,510.9H84.1v-.4H33.3v.4Z" class="g1_286"/>
<path clip-path="url(#cv_286)" d="M83.6,510.5h1v-9h-1v9Z" class="g1_286"/>
<path d="M83.6,510.5h.5h-.5Z" class="g1_286"/>
<path clip-path="url(#cw_286)" d="M84.1,510.9h79v-.4h-79v.4Z" class="g1_286"/>
<path d="M84.1,510.5h.5h-.5Z" class="g1_286"/>
<path clip-path="url(#cx_286)" d="M33.4,522.1H84.1v-.4H33.4v.4Z" class="g1_286"/>
<path clip-path="url(#cy_286)" d="M83.6,521.7h1v-9h-1v9Z" class="g1_286"/>
<path d="M83.6,521.7h.5h-.5Z" class="g1_286"/>
<path clip-path="url(#cz_286)" d="M84.1,522.1h91.5v-.4H84.1v.4Z" class="g1_286"/>
<path d="M84.1,521.7h.5h-.5Z" class="g1_286"/>
<path clip-path="url(#c10_286)" d="M33.4,533.3H84.1v-.4H33.4v.4Z" class="g1_286"/>
<path clip-path="url(#c11_286)" d="M83.6,532.9h1v-9h-1v9Z" class="g1_286"/>
<path d="M83.6,532.9h.5h-.5Z" class="g1_286"/>
<path clip-path="url(#c12_286)" d="M84.1,533.3H195v-.4H84.1v.4Z" class="g1_286"/>
<path d="M84.1,532.9h.5h-.5Z" class="g1_286"/>
<path clip-path="url(#c13_286)" d="M33.4,544.5H84.1V544H33.4v.5Z" class="g1_286"/>
<path clip-path="url(#c14_286)" d="M83.6,544h1v-9h-1v9Z" class="g1_286"/>
<path d="M83.6,544h.5h-.5Z" class="g1_286"/>
<path clip-path="url(#c15_286)" d="M84.1,544.5h93.3V544H84.1v.5Z" class="g1_286"/>
<path d="M84.1,544h.5h-.5Z" class="g1_286"/>
<path d="M33.4,555.7H84.1v-.5H33.4v.5Z" class="g1_286"/>
<path d="M83.6,555.2h1v-9h-1v9Z" class="g1_286"/>
<path d="M84.1,555.7h93.3v-.5H84.1v.5Z" class="g1_286"/>
<path d="M33.4,566.9H84.1v-.5H33.4v.5Z" class="g1_286"/>
<path d="M83.6,566.4h1v-9h-1v9Z" class="g1_286"/>
<path d="M84.1,566.9H202.9v-.5H84.1v.5Z" class="g1_286"/>
<path d="M33.3,578.1H84.1v-.5H33.3v.5Z" class="g1_286"/>
<path d="M83.6,577.6h1v-9.1h-1v9.1Z" class="g1_286"/>
<path d="M84.1,578.1H197.6v-.5H84.1v.5Z" class="g1_286"/>
<path d="M33.3,589.3H84.1v-.5H33.3v.5Z" class="g1_286"/>
<path d="M83.6,588.8h1v-9.1h-1v9.1Z" class="g1_286"/>
<path d="M84.1,589.3H199.7v-.5H84.1v.5Z" class="g1_286"/>
<path d="M33.3,600.4H84.1V600H33.3v.4Z" class="g1_286"/>
<path d="M83.6,600h1v-9.1h-1V600Z" class="g1_286"/>
<path d="M84.1,600.4h92.6V600H84.1v.4Z" class="g1_286"/>
<path d="M33.3,611.6H84.1v-.4H33.3v.4Z" class="g1_286"/>
<path d="M83.6,611.2h1v-9.1h-1v9.1Z" class="g1_286"/>
<path d="M84.1,611.6h119v-.4H84.1v.4Z" class="g1_286"/>
<path d="M33.3,622.8H84.1v-.4H33.3v.4Z" class="g1_286"/>
<path d="M83.6,622.4h1v-9.1h-1v9.1Z" class="g1_286"/>
<path d="M84.1,622.8H204.3v-.4H84.1v.4Z" class="g1_286"/>
<path d="M83.6,633.5h1v-9h-1v9Z" class="g1_286"/>
<path d="M83.6,644.7h1v-9h-1v9Z" class="g1_286"/>
<path d="M33.3,645.2H84.1v-.5H33.3v.5Z" class="g1_286"/>
<path d="M84.1,645.2H196.6v-.5H84.1v.5Z" class="g1_286"/>
<path d="M83.6,654.7h1v-7.8h-1v7.8Z" class="g1_286"/>
<path d="M33.3,667.6H84.1v-.5H33.3v.5Z" class="g1_286"/>
<path d="M83.6,667.1h1V658h-1v9.1Z" class="g1_286"/>
<path d="M84.1,667.6h96.7v-.5H84.1v.5Z" class="g1_286"/>
<path d="M33.3,678.8H84.1v-.5H33.3v.5Z" class="g1_286"/>
<path d="M83.6,678.3h1v-9.1h-1v9.1Z" class="g1_286"/>
<path d="M84.1,678.8H216.9v-.5H84.1v.5Z" class="g1_286"/>
<path d="M264.3,134.9h55.2v23.7H264.3V134.9m55.2,0H490.8v23.7H319.5V134.9Z" class="g0_286"/>
<path d="M264.8,158.6h-1V134.9h.5v23.7h.5Z" class="g1_286"/>
<path d="M264.8,158.6h-.5V134.9h.5v23.7Z" class="g2_286"/>
<path d="M319.5,159.6H264.8v-1h54.7v-1.1v2.1Z" class="g1_286"/>
<path d="M319.5,158.6v-1.1v1.1H264.8v-1.1h54.7v1.1Z" class="g2_286"/>
<path d="M264.8,158.6v-1.1v1.1Z" class="g2_286"/>
<path d="M319.5,157.5V134.9h.5v22.6h-.5m0,0h-.6V134.9h.6v22.6Z" class="g2_286"/>
<path d="M319.5,157.5v0h-.6h.6Z" class="g2_286"/>
<path d="M491.3,158.6h-.5V134.9h.5v23.7Z" class="g1_286"/>
<path d="M490.2,158.6V134.9h.6v23.7h-.6Z" class="g2_286"/>
<path d="M319.5,159.6H490.2v-1H319.5v1Z" class="g1_286"/>
<path d="M490.2,158.6H319.5v-1.1H490.2v1.1Z" class="g2_286"/>
<path d="M319.5,157.5h.5h-.5Z" class="g2_286"/>
<path d="M264.8,170h-1V158.6h1V170Z" class="g1_286"/>
<path d="M264.8,159.6v-1Z" class="g1_286"/>
<path d="M263.8,181.4h1V171h-1v10.4Z" class="g1_286"/>
<path d="M263.8,192.7h1V182.4h-1v10.3Z" class="g1_286"/>
<path d="M263.8,204.1h1V193.8h-1v10.3Z" class="g1_286"/>
<path d="M263.8,215.5h1V205.2h-1v10.3Z" class="g1_286"/>
<path d="M263.8,226.9h1V216.5h-1v10.4Z" class="g1_286"/>
<path d="M263.8,238.3h1V227.9h-1v10.4Z" class="g1_286"/>
<path d="M263.8,249.7h1V239.3h-1v10.4Z" class="g1_286"/>
<path d="M263.8,261h1V250.7h-1V261Z" class="g1_286"/>
<path d="M263.8,272.4h1V262.1h-1v10.3Z" class="g1_286"/>
<path d="M263.8,283.8h1V273.5h-1v10.3Z" class="g1_286"/>
<path d="M263.8,295.2h1V284.8h-1v10.4Z" class="g1_286"/>
<path d="M263.8,306.6h1V296.2h-1v10.4Z" class="g1_286"/>
<path d="M263.8,318h1V307.6h-1V318Z" class="g1_286"/>
<path d="M263.8,329.3h1V319h-1v10.3Z" class="g1_286"/>
<path d="M263.8,340.7h1V330.4h-1v10.3Z" class="g1_286"/>
<path d="M263.8,352.1h1V341.8h-1v10.3Z" class="g1_286"/>
<path d="M319.5,171H263.8v-1h4.6v.5h51.1v.5Z" class="g1_286"/>
<path d="M263.8,170h1h-1Z" class="g1_286"/>
<path d="M318.9,182.4H263.8v-1h4.6v.4h51.1v.6h-.6Z" class="g1_286"/>
<path d="M263.8,182.4h1h-1Z" class="g1_286"/>
<path d="M319.5,193.8H263.8v-1.1h4.6v.5h51.1v.6Z" class="g1_286"/>
<path d="M263.8,192.7h1h-1Z" class="g1_286"/>
<path d="M318.9,205.2H263.8v-1.1h4.6v.5h51.1v.6h-.6Z" class="g1_286"/>
<path d="M263.8,205.2h1h-1Z" class="g1_286"/>
<path d="M319.5,216.5H263.8v-1h4.6v.5h51.1v.5Z" class="g1_286"/>
<path d="M319.5,227.9H263.8v-1h4.6v.5h51.1v.5Z" class="g1_286"/>
<path d="M263.8,226.9h1h-1Z" class="g1_286"/>
<path d="M319.5,239.3H263.8v-1h4.6v.5h51.1v.5Z" class="g1_286"/>
<path d="M319.5,250.7H263.8v-1h55.7v1Z" class="g1_286"/>
<path d="M263.8,249.7h1h-1Z" class="g1_286"/>
<path d="M318.9,262.1H263.8V261h55.7v1.1h-.6Z" class="g1_286"/>
<path d="M263.8,262.1h1h-1Z" class="g1_286"/>
<path d="M319.5,273.5H263.8v-1.1h4.9v.1h50.8v1Z" class="g1_286"/>
<path d="M319.5,284.8H263.8v-1h4.9v.5h50.8v.5Z" class="g1_286"/>
<path d="M263.8,283.8h1h-1Z" class="g1_286"/>
<path d="M319.5,296.2H263.8v-1h4.9v.5h50.8v.5Z" class="g1_286"/>
<path d="M319.5,307.6H263.8v-1h4.9v.5h50.8v.5Z" class="g1_286"/>
<path d="M263.8,306.6h1h-1Z" class="g1_286"/>
<path d="M318.9,319H263.8v-1h4.9v.4h50.8v.6h-.6Z" class="g1_286"/>
<path d="M263.8,319h1h-1Z" class="g1_286"/>
<path d="M263.8,330.4h55.7v-1.1H263.8v1.1Z" class="g1_286"/>
<path d="M319.5,341.8H263.8v-1.1h4.9v.5h50.8v.6Z" class="g1_286"/>
<path d="M263.8,340.7h1h-1Z" class="g1_286"/>
<path d="M318.9,160.9H320v-1.3h-1.1v1.3Z" class="g1_286"/>
<path d="M318.9,172.3H320V171h-1.1v1.3Z" class="g1_286"/>
<path d="M320,183.7h-1.1v-1.3H320v1.3Z" class="g1_286"/>
<path d="M318.9,182.4h.6h-.6Z" class="g1_286"/>
<path d="M318.9,195.1H320v-1.3h-1.1v1.3Z" class="g1_286"/>
<path d="M320,206.5h-1.1v-1.3H320v1.3Z" class="g1_286"/>
<path d="M318.9,205.2h.6h-.6Z" class="g1_286"/>
<path d="M318.9,217.8H320v-1.3h-1.1v1.3Z" class="g1_286"/>
<path d="M318.9,229.2H320v-1.3h-1.1v1.3Z" class="g1_286"/>
<path d="M319.5,249.7h-.6v-.1H320v.1h-.5m.5,-9.1h-1.1v-1.3H320v1.3Z" class="g1_286"/>
<path d="M318.9,249.7h.6h-.6Z" class="g1_286"/>
<path d="M320,261h-1.1H320m0,-9h-1.1v-1.3H320V252Z" class="g1_286"/>
<path d="M320,263.4h-1.1v-1.3H320v1.3Z" class="g1_286"/>
<path d="M318.9,262.1h.6h-.6Z" class="g1_286"/>
<path d="M318.9,274.8H320v-1.3h-1.1v1.3Z" class="g1_286"/>
<path d="M318.9,286.1H320v-1.3h-1.1v1.3Z" class="g1_286"/>
<path d="M318.9,297.5H320v-1.3h-1.1v1.3Z" class="g1_286"/>
<path d="M318.9,308.9H320v-1.3h-1.1v1.3Z" class="g1_286"/>
<path d="M320,329.3h-1.1v-1.2H320v1.2m0,-9h-1.1V319H320v1.3Z" class="g1_286"/>
<path d="M318.9,319h.6h-.6Z" class="g1_286"/>
<path d="M318.9,331.7H320v-1.3h-1.1v1.3Z" class="g1_286"/>
<path d="M318.9,343.1H320v-1.3h-1.1v1.3Z" class="g1_286"/>
<path d="M491.3,170h-1.1V158.6h1.1V170Z" class="g1_286"/>
<path d="M491.3,158.6h-1.1h1.1Z" class="g1_286"/>
<path d="M490.2,158.6h.6h-.6Z" class="g2_286"/>
<path d="M490.2,181.4h1.1V171h-1.1v10.4Z" class="g1_286"/>
<path d="M491.3,192.7h-1.1V182.4h1.1v10.3Z" class="g1_286"/>
<path d="M490.2,204.1h1.1V193.8h-1.1v10.3Z" class="g1_286"/>
<path d="M491.3,215.5h-1.1V205.2h1.1v10.3Z" class="g1_286"/>
<path d="M491.3,226.9h-1.1V216.5h1.1v10.4Z" class="g1_286"/>
<path d="M490.2,238.3h1.1V227.9h-1.1v10.4Z" class="g1_286"/>
<path d="M491.3,249.7h-1.1V239.3h1.1v10.4Z" class="g1_286"/>
<path d="M490.2,261h1.1V250.7h-1.1V261Z" class="g1_286"/>
<path d="M491.3,272.4h-1.1V262.1h1.1v10.3Z" class="g1_286"/>
<path d="M491.3,283.8h-1.1V273.5h1.1v10.3Z" class="g1_286"/>
<path d="M490.2,295.2h1.1V284.8h-1.1v10.4Z" class="g1_286"/>
<path d="M491.3,306.6h-1.1V296.2h1.1v10.4Z" class="g1_286"/>
<path d="M490.2,318h1.1V307.6h-1.1V318Z" class="g1_286"/>
<path d="M491.3,329.3h-1.1V319h1.1v10.3Z" class="g1_286"/>
<path d="M491.3,340.7h-1.1V330.4h1.1v10.3Z" class="g1_286"/>
<path d="M490.2,352.1h1.1V341.8h-1.1v10.3Z" class="g1_286"/>
<path d="M491.3,171H319.5v-.5h98.3V170h73.5v1Z" class="g1_286"/>
<path d="M491.3,170h-1.1h1.1Z" class="g1_286"/>
<path d="M491.3,182.4v0H319.5v-.6H431.1v-.4h60.2v1Z" class="g1_286"/>
<path d="M319.5,182.4h.5h-.5Z" class="g1_286"/>
<path d="M491.3,182.4h-1.1h1.1Z" class="g1_286"/>
<path d="M491.3,193.8H319.5v-.6h98.4v-.5h73.4v1.1Z" class="g1_286"/>
<path d="M491.3,192.7h-1.1h1.1Z" class="g1_286"/>
<path d="M491.3,205.2v0H319.5v-.6H430.3v-.5h61v1.1Z" class="g1_286"/>
<path d="M319.5,205.2h.5h-.5Z" class="g1_286"/>
<path d="M491.3,205.2h-1.1h1.1Z" class="g1_286"/>
<path d="M491.3,216.5H319.5V216H421.4v-.5h69.9v1Z" class="g1_286"/>
<path d="M491.3,227.9H319.5v-.5h85.7v-.5h86.1v1Z" class="g1_286"/>
<path d="M491.3,226.9h-1.1h1.1Z" class="g1_286"/>
<path d="M491.3,239.3H319.5v-.5H441.3v-.5h50v1Z" class="g1_286"/>
<path d="M491.3,250.7H319.5v-1H491.3v1Z" class="g1_286"/>
<path d="M319.5,249.7h.5h-.5Z" class="g1_286"/>
<path d="M491.3,249.7h-1.1h1.1Z" class="g1_286"/>
<path d="M491.3,262.1v0H319.5V261H491.3v1.1Z" class="g1_286"/>
<path d="M319.5,262.1h.5h-.5Z" class="g1_286"/>
<path d="M491.3,262.1h-1.1h1.1Z" class="g1_286"/>
<path d="M491.3,273.5H319.5v-1H425.1v-.1h66.2v1.1Z" class="g1_286"/>
<path d="M491.3,284.8H319.5v-.5H427.2v-.5h64.1v1Z" class="g1_286"/>
<path d="M491.3,283.8h-1.1h1.1Z" class="g1_286"/>
<path d="M491.3,296.2H319.5v-.5H443.2v-.5h48.1v1Z" class="g1_286"/>
<path d="M491.3,307.6H319.5v-.5h116v-.5h55.8v1Z" class="g1_286"/>
<path d="M491.3,306.6h-1.1h1.1Z" class="g1_286"/>
<path d="M491.3,319v0H319.5v-.6H442.8V318h48.5v1Z" class="g1_286"/>
<path d="M319.5,319h.5h-.5Z" class="g1_286"/>
<path d="M491.3,319h-1.1h1.1Z" class="g1_286"/>
<path d="M319.5,330.4H491.3v-1.1H319.5v1.1Z" class="g1_286"/>
<path d="M491.3,341.8H319.5v-.6H435.2v-.5h56.1v1.1Z" class="g1_286"/>
<path d="M491.3,340.7h-1.1h1.1Z" class="g1_286"/>
<path d="M263.8,363.5h1V353.2h-1v10.3Z" class="g1_286"/>
<path d="M263.8,374.9h1V364.5h-1v10.4Z" class="g1_286"/>
<path d="M263.8,386.3h1V375.9h-1v10.4Z" class="g1_286"/>
<path d="M263.8,397.7h1V387.3h-1v10.4Z" class="g1_286"/>
<path d="M263.8,409h1V398.7h-1V409Z" class="g1_286"/>
<path d="M263.8,420.4h1V410.1h-1v10.3Z" class="g1_286"/>
<path d="M263.8,431.8h1V421.5h-1v10.3Z" class="g1_286"/>
<path d="M263.8,443.2h1V432.8h-1v10.4Z" class="g1_286"/>
<path d="M263.8,454.6h1V444.2h-1v10.4Z" class="g1_286"/>
<path d="M263.8,466h1V455.6h-1V466Z" class="g1_286"/>
<path d="M263.8,477.3h1V467h-1v10.3Z" class="g1_286"/>
<path d="M263.8,488.7h1V478.4h-1v10.3Z" class="g1_286"/>
<path d="M263.8,500.1h1V489.8h-1v10.3Z" class="g1_286"/>
<path d="M263.8,511.5h1V501.1h-1v10.4Z" class="g1_286"/>
<path d="M263.8,522.9h1V512.5h-1v10.4Z" class="g1_286"/>
<path d="M263.8,534.3h1V523.9h-1v10.4Z" class="g1_286"/>
<path d="M263.8,545.6h1V535.3h-1v10.3Z" class="g1_286"/>
<path d="M263.8,557h1V546.7h-1V557Z" class="g1_286"/>
<path d="M263.8,568.4h1V558.1h-1v10.3Z" class="g1_286"/>
<path d="M263.8,579.8h1V569.4h-1v10.4Z" class="g1_286"/>
<path d="M263.8,591.2h1V580.8h-1v10.4Z" class="g1_286"/>
<path d="M263.8,602.6h1V592.2h-1v10.4Z" class="g1_286"/>
<path d="M263.8,627.6h1v-24h-1v24Z" class="g1_286"/>
<path d="M263.8,640.1h1V628.6h-1v11.5Z" class="g1_286"/>
<path d="M263.8,665.2h1v-24h-1v24Z" class="g1_286"/>
<path d="M263.8,677.7h1V666.2h-1v11.5Z" class="g1_286"/>
<path d="M319.5,353.2H263.8v-1.1h4.9v.5h50.8v.6Z" class="g1_286"/>
<path d="M319.5,364.5H263.8v-1h55.7v1Z" class="g1_286"/>
<path d="M263.8,363.5h1h-1Z" class="g1_286"/>
<path d="M318.9,375.9H263.8v-1h55.7v1h-.6Z" class="g1_286"/>
<path d="M263.8,375.9h1h-1Z" class="g1_286"/>
<path d="M263.8,387.3h55.7v-1H263.8v1Z" class="g1_286"/>
<path d="M318.9,398.7H263.8v-1h55.7v1h-.6Z" class="g1_286"/>
<path d="M263.8,398.7h1h-1Z" class="g1_286"/>
<path d="M319.5,410.1H263.8V409h4.9v.5h50.8v.6Z" class="g1_286"/>
<path d="M319.5,421.5H263.8v-1.1h4.9v.5h50.8v.6Z" class="g1_286"/>
<path d="M263.8,420.4h1h-1Z" class="g1_286"/>
<path d="M318.9,432.8H263.8v-1h55.7v1h-.6Z" class="g1_286"/>
<path d="M263.8,432.8h1h-1Z" class="g1_286"/>
<path d="M319.5,444.2H263.8v-1h4.9v.5h50.8v.5Z" class="g1_286"/>
<path d="M318.9,455.6H263.8v-1h55.7v1h-.6Z" class="g1_286"/>
<path d="M263.8,455.6h1h-1Z" class="g1_286"/>
<path d="M263.8,467h55.7v-1H263.8v1Z" class="g1_286"/>
<path d="M319.5,478.4H263.8v-1.1h4.9v.5h50.8v.6Z" class="g1_286"/>
<path d="M263.8,477.3h1h-1Z" class="g1_286"/>
<path d="M263.8,489.8h55.7v-1.1H263.8v1.1Z" class="g1_286"/>
<path d="M319.5,501.1H263.8v-1h4.8v.5h50.9v.5Z" class="g1_286"/>
<path d="M263.8,500.1h1h-1Z" class="g1_286"/>
<path d="M318.9,512.5H263.8v-1h55.7v1h-.6Z" class="g1_286"/>
<path d="M263.8,512.5h1h-1Z" class="g1_286"/>
<path d="M263.8,523.9h55.7v-1H263.8v1Z" class="g1_286"/>
<path d="M319.5,535.3H263.8v-1h55.7v1Z" class="g1_286"/>
<path d="M263.8,534.3h1h-1Z" class="g1_286"/>
<path d="M319.5,546.7H263.8v-1.1h4.8v.5h50.9v.6Z" class="g1_286"/>
<path d="M319.5,558.1H263.8V557h4.8v.1h50.9v1Z" class="g1_286"/>
<path d="M263.8,557h1h-1Z" class="g1_286"/>
<path d="M318.9,569.4H263.8v-1h4.8v.5h50.9v.5h-.6Z" class="g1_286"/>
<path d="M263.8,569.4h1h-1Z" class="g1_286"/>
<path d="M319.5,580.8H263.8v-1h4.8v.5h50.9v.5Z" class="g1_286"/>
<path d="M319.5,592.2H263.8v-1h5v.5h50.7v.5Z" class="g1_286"/>
<path d="M263.8,591.2h1h-1Z" class="g1_286"/>
<path d="M319.5,603.6H263.8v-1h5v.5h50.7v.5Z" class="g1_286"/>
<path d="M318.9,628.6H263.8v-1h55.7v1h-.6Z" class="g1_286"/>
<path d="M263.8,628.6h1h-1Z" class="g1_286"/>
<path d="M319.5,641.2H263.8v-1.1h55.7v1.1Z" class="g1_286"/>
<path d="M263.8,640.1h1h-1Z" class="g1_286"/>
<path d="M319.5,666.2H263.8v-1h55.7v1Z" class="g1_286"/>
<path d="M263.8,665.2h1h-1Z" class="g1_286"/>
<path d="M319.5,363.5v0h-.6v-1.2H320v1.2h-.5m.5,-9.1h-1.1v-1.2H320v1.2Z" class="g1_286"/>
<path d="M318.9,363.5h.6h-.6Z" class="g1_286"/>
<path d="M320,374.9h-1.1v-1.2H320v1.2m0,-9.1h-1.1v-1.3H320v1.3Z" class="g1_286"/>
<path d="M320,386.3h-1.1V385H320v1.3m0,-9.1h-1.1v-1.3H320v1.3Z" class="g1_286"/>
<path d="M318.9,375.9h.6h-.6Z" class="g1_286"/>
<path d="M320,397.7h-1.1v-1.3H320v1.3m0,-9.1h-1.1v-1.3H320v1.3Z" class="g1_286"/>
<path d="M320,400h-1.1v-1.3H320V400Z" class="g1_286"/>
<path d="M318.9,398.7h.6h-.6Z" class="g1_286"/>
<path d="M318.9,411.4H320v-1.3h-1.1v1.3Z" class="g1_286"/>
<path d="M320,431.8h-1.1v-1.2H320v1.2m0,-9h-1.1v-1.3H320v1.3Z" class="g1_286"/>
<path d="M320,434.1h-1.1v-1.3H320v1.3Z" class="g1_286"/>
<path d="M318.9,432.8h.6h-.6Z" class="g1_286"/>
<path d="M320,454.6h-1.1v-1.3H320v1.3m0,-9.1h-1.1v-1.3H320v1.3Z" class="g1_286"/>
<path d="M320,466h-1.1v-1.3H320V466m0,-9.1h-1.1v-1.3H320v1.3Z" class="g1_286"/>
<path d="M318.9,455.6h.6h-.6Z" class="g1_286"/>
<path d="M318.9,468.3H320V467h-1.1v1.3Z" class="g1_286"/>
<path d="M320,488.7h-1.1v-1.2H320v1.2m0,-9h-1.1v-1.3H320v1.3Z" class="g1_286"/>
<path d="M318.9,491.1H320v-1.3h-1.1v1.3Z" class="g1_286"/>
<path d="M320,511.5h-1.1v-1.2H320v1.2m0,-9.1h-1.1v-1.3H320v1.3Z" class="g1_286"/>
<path d="M320,522.9h-1.1v-1.2H320v1.2m0,-9.1h-1.1v-1.3H320v1.3Z" class="g1_286"/>
<path d="M318.9,512.5h.6h-.6Z" class="g1_286"/>
<path d="M320,534.3h-1.1V533H320v1.3m0,-9.1h-1.1v-1.3H320v1.3Z" class="g1_286"/>
<path d="M318.9,534.3h.6h-.6Z" class="g1_286"/>
<path d="M320,536.6h-1.1v-1.3H320v1.3Z" class="g1_286"/>
<path d="M320,548.1h-1.1v-1.4H320v1.4Z" class="g1_286"/>
<path d="M320,559.4h-1.1v-1.3H320v1.3Z" class="g1_286"/>
<path d="M320,570.7h-1.1v-1.3h.6v.1h.5v1.2Z" class="g1_286"/>
<path d="M318.9,569.4h.6h-.6Z" class="g1_286"/>
<path d="M320,582.1h-1.1v-1.3H320v1.3Z" class="g1_286"/>
<path d="M320,593.6h-1.1v-1.4H320v1.4Z" class="g1_286"/>
<path d="M320,627.6h-1.1v-24H320v24Z" class="g1_286"/>
<path d="M320,640.1h-1.1H320m0,-9.5h-1.1v-2H320v2Z" class="g1_286"/>
<path d="M318.9,628.6h.6h-.6Z" class="g1_286"/>
<path d="M318.9,640.1h.6h-.6Z" class="g1_286"/>
<path d="M320,665.2h-1.1v-24H320v24Z" class="g1_286"/>
<path d="M319.5,665.2h-.6h.6Z" class="g1_286"/>
<path d="M320,677.7h-1.1v-1.8H320v1.8m0,-9.5h-1.1v-2H320v2Z" class="g1_286"/>
<path d="M491.3,353.2H319.5v-.6h99.4v-.5h72.4v1.1Z" class="g1_286"/>
<path d="M491.3,363.5h-1.1V353.2h1.1v10.3Z" class="g1_286"/>
<path d="M490.2,374.9h1.1V364.5h-1.1v10.4Z" class="g1_286"/>
<path d="M491.3,386.3h-1.1V375.9h1.1v10.4Z" class="g1_286"/>
<path d="M490.2,397.7h1.1V387.3h-1.1v10.4Z" class="g1_286"/>
<path d="M491.3,409h-1.1V398.7h1.1V409Z" class="g1_286"/>
<path d="M491.3,420.4h-1.1V410.1h1.1v10.3Z" class="g1_286"/>
<path d="M490.2,431.8h1.1V421.5h-1.1v10.3Z" class="g1_286"/>
<path d="M491.3,443.2h-1.1V432.8h1.1v10.4Z" class="g1_286"/>
<path d="M490.2,454.6h1.1V444.2h-1.1v10.4Z" class="g1_286"/>
<path d="M491.3,466h-1.1V455.6h1.1V466Z" class="g1_286"/>
<path d="M491.3,477.3h-1.1V467h1.1v10.3Z" class="g1_286"/>
<path d="M490.2,488.7h1.1V478.4h-1.1v10.3Z" class="g1_286"/>
<path d="M490.2,500.1h1.1V489.8h-1.1v10.3Z" class="g1_286"/>
<path d="M491.3,511.5h-1.1V501.1h1.1v10.4Z" class="g1_286"/>
<path d="M491.3,522.9h-1.1V512.5h1.1v10.4Z" class="g1_286"/>
<path d="M491.3,534.3h-1.1V523.9h1.1v10.4Z" class="g1_286"/>
<path d="M491.3,545.6h-1.1V535.3h1.1v10.3Z" class="g1_286"/>
<path d="M491.3,557h-1.1V546.7h1.1V557Z" class="g1_286"/>
<path d="M491.3,568.4h-1.1V558.1h1.1v10.3Z" class="g1_286"/>
<path d="M491.3,579.8h-1.1V569.5h1.1v10.3Z" class="g1_286"/>
<path d="M491.3,591.2h-1.1V580.8h1.1v10.4Z" class="g1_286"/>
<path d="M491.3,602.6h-1.1V592.2h1.1v10.4Z" class="g1_286"/>
<path d="M491.3,627.6h-1.1v-24h1.1v24Z" class="g1_286"/>
<path d="M491.3,640.1h-1.1V628.6h1.1v11.5Z" class="g1_286"/>
<path d="M491.3,665.2h-1.1v-24h1.1v24Z" class="g1_286"/>
<path d="M491.3,677.7h-1.1V666.2h1.1v11.5Z" class="g1_286"/>
<path d="M491.3,364.5H319.5v-1H491.3v1Z" class="g1_286"/>
<path d="M319.5,363.5h.5h-.5Z" class="g1_286"/>
<path d="M491.3,363.5h-1.1h1.1Z" class="g1_286"/>
<path d="M491.3,375.9H319.5v-1H491.3v1Z" class="g1_286"/>
<path d="M319.5,375.9h.5h-.5Z" class="g1_286"/>
<path d="M491.3,375.9h-1.1h1.1Z" class="g1_286"/>
<path d="M319.5,387.3H491.3v-1H319.5v1Z" class="g1_286"/>
<path d="M491.3,398.7H319.5v-1H491.3v1Z" class="g1_286"/>
<path d="M319.5,398.7h.5h-.5Z" class="g1_286"/>
<path d="M491.3,398.7h-1.1h1.1Z" class="g1_286"/>
<path d="M491.3,410.1H319.5v-.6H420V409h71.3v1.1Z" class="g1_286"/>
<path d="M491.3,421.5H319.5v-.6H428.9v-.5h62.4v1.1Z" class="g1_286"/>
<path d="M491.3,420.4h-1.1h1.1Z" class="g1_286"/>
<path d="M491.3,432.8H319.5v-1H491.3v1Z" class="g1_286"/>
<path d="M319.5,432.8h.5h-.5Z" class="g1_286"/>
<path d="M491.3,432.8h-1.1h1.1Z" class="g1_286"/>
<path d="M491.3,444.2H319.5v-.5H436.2v-.5h55.1v1Z" class="g1_286"/>
<path d="M491.3,455.6H319.5v-1H491.3v1Z" class="g1_286"/>
<path d="M319.5,455.6h.5h-.5Z" class="g1_286"/>
<path d="M491.3,455.6h-1.1h1.1Z" class="g1_286"/>
<path d="M319.5,467H491.3v-1H319.5v1Z" class="g1_286"/>
<path d="M491.3,478.4H319.5v-.6H411v-.5h80.3v1.1Z" class="g1_286"/>
<path d="M491.3,477.3h-1.1h1.1Z" class="g1_286"/>
<path d="M319.5,489.8H491.3v-1.1H319.5v1.1Z" class="g1_286"/>
<path d="M491.3,501.1H319.5v-.5h90.1v-.5h81.7v1Z" class="g1_286"/>
<path d="M319.5,501.1h.5h-.5Z" class="g1_286"/>
<path d="M491.3,501.1h-1.1h1.1Z" class="g1_286"/>
<path d="M491.3,512.5v0H319.5v-1H491.3v1Z" class="g1_286"/>
<path d="M319.5,512.5h.5h-.5Z" class="g1_286"/>
<path d="M491.3,512.5h-1.1h1.1Z" class="g1_286"/>
<path d="M491.3,523.9H319.5v-1H491.3v1Z" class="g1_286"/>
<path d="M319.5,523.9h.5h-.5Z" class="g1_286"/>
<path d="M491.3,523.9h-1.1h1.1Z" class="g1_286"/>
<path d="M491.3,535.3H319.5v-1H491.3v1Z" class="g1_286"/>
<path d="M319.5,535.3h.5h-.5Z" class="g1_286"/>
<path d="M491.3,535.3h-1.1h1.1Z" class="g1_286"/>
<path d="M491.3,546.7H319.5v-.6h110v-.5h61.8v1.1Z" class="g1_286"/>
<path d="M319.5,546.7h.5h-.5Z" class="g1_286"/>
<path d="M491.3,546.7h-1.1h1.1Z" class="g1_286"/>
<path d="M491.3,558.1H319.5v-1h51.1V557H491.3v1.1Z" class="g1_286"/>
<path d="M319.5,558.1h.5h-.5Z" class="g1_286"/>
<path d="M491.3,558.1h-1.1h1.1Z" class="g1_286"/>
<path d="M491.3,569.5v-.1h-1.1v.1H320v-.1h-.5v-.5H419v-.5h72.3v1.1Z" class="g1_286"/>
<path d="M319.5,569.5h.5v-.1h-.5v.1Z" class="g1_286"/>
<path d="M491.3,569.5h-1.1v-.1h1.1v.1Z" class="g1_286"/>
<path d="M491.3,580.8H319.5v-.5H479.1v-.5h12.2v1Z" class="g1_286"/>
<path d="M319.5,580.8h.5h-.5Z" class="g1_286"/>
<path d="M491.3,580.8h-1.1h1.1Z" class="g1_286"/>
<path d="M491.3,592.2H319.5v-.5h91.6v-.5h80.2v1Z" class="g1_286"/>
<path d="M319.5,592.2h.5h-.5Z" class="g1_286"/>
<path d="M491.3,592.2h-1.1h1.1Z" class="g1_286"/>
<path d="M491.3,603.6H319.5v-.5H465.2v-.5h26.1v1Z" class="g1_286"/>
<path d="M319.5,603.6h.5h-.5Z" class="g1_286"/>
<path d="M491.3,603.6h-1.1h1.1Z" class="g1_286"/>
<path d="M491.3,628.6v0H319.5v-1H491.3v1Z" class="g1_286"/>
<path d="M319.5,628.6h.5h-.5Z" class="g1_286"/>
<path d="M491.3,628.6h-1.1h1.1Z" class="g1_286"/>
<path d="M491.3,641.2H319.5v-1.1H491.3v1.1Z" class="g1_286"/>
<path d="M319.5,641.2h.5h-.5Z" class="g1_286"/>
<path d="M491.3,641.2h-1.1h1.1Z" class="g1_286"/>
<path d="M491.3,666.2H319.5v-1H491.3v1Z" class="g1_286"/>
<path d="M319.5,666.2h.5h-.5Z" class="g1_286"/>
<path d="M491.3,666.2h-1.1h1.1Z" class="g1_286"/>
<path d="M491.3,678.8H263.8v-1.1H491.3v1.1Z" class="g1_286"/>
<path clip-path="url(#c16_286)" d="M268.4,170.5h51.1V170H268.4v.5Z" class="g1_286"/>
<path clip-path="url(#c17_286)" d="M318.9,170H320v-9.1h-1.1V170Z" class="g1_286"/>
<path d="M318.9,170h.6h-.6Z" class="g1_286"/>
<path clip-path="url(#c18_286)" d="M319.5,170.5h98.3V170H319.5v.5Z" class="g1_286"/>
<path d="M319.5,170h.5h-.5Z" class="g1_286"/>
<path d="M268.4,181.8h51.1v-.4H268.4v.4Z" class="g1_286"/>
<path d="M318.9,181.4H320v-9.1h-1.1v9.1Z" class="g1_286"/>
<path d="M319.5,181.8H431.1v-.4H319.5v.4Z" class="g1_286"/>
<path clip-path="url(#c19_286)" d="M268.4,193.2h51.1v-.5H268.4v.5Z" class="g1_286"/>
<path d="M318.9,192.7H320v-9h-1.1v9Z" class="g1_286"/>
<path d="M318.9,192.7h.6h-.6Z" class="g1_286"/>
<path clip-path="url(#c1a_286)" d="M319.5,193.2h98.4v-.5H319.5v.5Z" class="g1_286"/>
<path d="M319.5,192.7h.5h-.5Z" class="g1_286"/>
<path d="M268.4,204.6h51.1v-.5H268.4v.5Z" class="g1_286"/>
<path d="M318.9,204.1H320v-9h-1.1v9Z" class="g1_286"/>
<path d="M319.5,204.6H430.3v-.5H319.5v.5Z" class="g1_286"/>
<path d="M268.4,216h51.1v-.5H268.4v.5Z" class="g1_286"/>
<path d="M318.9,215.5H320v-9h-1.1v9Z" class="g1_286"/>
<path d="M319.5,216H421.4v-.5H319.5v.5Z" class="g1_286"/>
<path d="M268.4,227.4h51.1v-.5H268.4v.5Z" class="g1_286"/>
<path d="M318.9,226.9H320v-9.1h-1.1v9.1Z" class="g1_286"/>
<path d="M318.9,226.9h.6h-.6Z" class="g1_286"/>
<path d="M319.5,227.4h85.7v-.5H319.5v.5Z" class="g1_286"/>
<path d="M319.5,226.9h.5h-.5Z" class="g1_286"/>
<path d="M268.4,238.8h51.1v-.5H268.4v.5Z" class="g1_286"/>
<path d="M318.9,238.3H320v-9.1h-1.1v9.1Z" class="g1_286"/>
<path d="M319.5,238.8H441.3v-.5H319.5v.5Z" class="g1_286"/>
<path d="M318.9,249.6H320v-9h-1.1v9Z" class="g1_286"/>
<path d="M318.9,261H320v-9h-1.1v9Z" class="g1_286"/>
<path d="M268.7,272.5h50.8v-.1H268.7v.1Z" class="g1_286"/>
<path d="M318.9,272.4H320v-9h-1.1v9Z" class="g1_286"/>
<path d="M319.5,272.5H425.1v-.1H319.5v.1Z" class="g1_286"/>
<path d="M268.7,284.3h50.8v-.5H268.7v.5Z" class="g1_286"/>
<path d="M318.9,283.8H320v-9h-1.1v9Z" class="g1_286"/>
<path d="M318.9,283.8h.6h-.6Z" class="g1_286"/>
<path d="M319.5,284.3H427.2v-.5H319.5v.5Z" class="g1_286"/>
<path d="M319.5,283.8h.5h-.5Z" class="g1_286"/>
<path d="M268.7,295.7h50.8v-.5H268.7v.5Z" class="g1_286"/>
<path d="M318.9,295.2H320v-9.1h-1.1v9.1Z" class="g1_286"/>
<path d="M319.5,295.7H443.2v-.5H319.5v.5Z" class="g1_286"/>
<path d="M268.7,307.1h50.8v-.5H268.7v.5Z" class="g1_286"/>
<path d="M318.9,306.6H320v-9.1h-1.1v9.1Z" class="g1_286"/>
<path d="M318.9,306.6h.6h-.6Z" class="g1_286"/>
<path d="M319.5,307.1h116v-.5h-116v.5Z" class="g1_286"/>
<path d="M319.5,306.6h.5h-.5Z" class="g1_286"/>
<path d="M268.7,318.4h50.8V318H268.7v.4Z" class="g1_286"/>
<path d="M318.9,318H320v-9.1h-1.1V318Z" class="g1_286"/>
<path d="M319.5,318.4H442.8V318H319.5v.4Z" class="g1_286"/>
<path d="M318.9,328.1H320v-7.8h-1.1v7.8Z" class="g1_286"/>
<path d="M268.7,341.2h50.8v-.5H268.7v.5Z" class="g1_286"/>
<path clip-path="url(#c1b_286)" d="M318.9,340.7H320v-9h-1.1v9Z" class="g1_286"/>
<path d="M318.9,340.7h.6h-.6Z" class="g1_286"/>
<path d="M319.5,341.2H435.2v-.5H319.5v.5Z" class="g1_286"/>
<path d="M319.5,340.7h.5h-.5Z" class="g1_286"/>
<path d="M318.9,352.1H320v-9h-1.1v9Z" class="g1_286"/>
<path d="M268.7,352.6h50.8v-.5H268.7v.5Z" class="g1_286"/>
<path d="M319.5,352.6h99.4v-.5H319.5v.5Z" class="g1_286"/>
<path d="M318.9,362.3H320v-7.9h-1.1v7.9Z" class="g1_286"/>
<path d="M318.9,373.7H320v-7.9h-1.1v7.9Z" class="g1_286"/>
<path d="M318.9,385H320v-7.8h-1.1V385Z" class="g1_286"/>
<path d="M318.9,396.4H320v-7.8h-1.1v7.8Z" class="g1_286"/>
<path d="M268.7,409.5h50.8V409H268.7v.5Z" class="g1_286"/>
<path d="M318.9,409H320v-9h-1.1v9Z" class="g1_286"/>
<path d="M319.5,409.5H420V409H319.5v.5Z" class="g1_286"/>
<path d="M268.7,420.9h50.8v-.5H268.7v.5Z" class="g1_286"/>
<path clip-path="url(#c1c_286)" d="M318.9,420.4H320v-9h-1.1v9Z" class="g1_286"/>
<path d="M318.9,420.4h.6h-.6Z" class="g1_286"/>
<path clip-path="url(#c1d_286)" d="M319.5,420.9H428.9v-.5H319.5v.5Z" class="g1_286"/>
<path d="M319.5,420.4h.5h-.5Z" class="g1_286"/>
<path d="M318.9,430.6H320v-7.8h-1.1v7.8Z" class="g1_286"/>
<path d="M268.7,443.7h50.8v-.5H268.7v.5Z" class="g1_286"/>
<path d="M318.9,443.2H320v-9.1h-1.1v9.1Z" class="g1_286"/>
<path d="M319.5,443.7H436.2v-.5H319.5v.5Z" class="g1_286"/>
<path d="M318.9,453.3H320v-7.8h-1.1v7.8Z" class="g1_286"/>
<path d="M318.9,464.7H320v-7.8h-1.1v7.8Z" class="g1_286"/>
<path clip-path="url(#c1e_286)" d="M268.7,477.8h50.8v-.5H268.7v.5Z" class="g1_286"/>
<path clip-path="url(#c1f_286)" d="M318.9,477.3H320v-9h-1.1v9Z" class="g1_286"/>
<path d="M318.9,477.3h.6h-.6Z" class="g1_286"/>
<path clip-path="url(#c1g_286)" d="M319.5,477.8H411v-.5H319.5v.5Z" class="g1_286"/>
<path d="M319.5,477.3h.5h-.5Z" class="g1_286"/>
<path d="M318.9,487.5H320v-7.8h-1.1v7.8Z" class="g1_286"/>
<path clip-path="url(#c1h_286)" d="M268.6,500.6h50.9v-.5H268.6v.5Z" class="g1_286"/>
<path clip-path="url(#c1i_286)" d="M318.9,500.1H320v-9h-1.1v9Z" class="g1_286"/>
<path d="M318.9,500.1h.6h-.6Z" class="g1_286"/>
<path d="M319.5,500.6h90.1v-.5H319.5v.5Z" class="g1_286"/>
<path d="M318.9,510.3H320v-7.9h-1.1v7.9Z" class="g1_286"/>
<path d="M318.9,521.7H320v-7.9h-1.1v7.9Z" class="g1_286"/>
<path d="M318.9,533H320v-7.8h-1.1V533Z" class="g1_286"/>
<path d="M268.6,546.1h50.9v-.5H268.6v.5Z" class="g1_286"/>
<path d="M318.9,545.6H320v-9h-1.1v9Z" class="g1_286"/>
<path d="M319.5,546.1h110v-.5h-110v.5Z" class="g1_286"/>
<path clip-path="url(#c1j_286)" d="M268.6,557.1h50.9V557H268.6v.1Z" class="g1_286"/>
<path clip-path="url(#c1k_286)" d="M318.9,557H320v-8.9h-1.1V557Z" class="g1_286"/>
<path d="M318.9,557h.6h-.6Z" class="g1_286"/>
<path d="M319.5,557.1h51.1V557H319.5v.1Z" class="g1_286"/>
<path d="M268.6,568.9h50.9v-.5H268.6v.5Z" class="g1_286"/>
<path d="M318.9,568.4H320v-9h-1.1v9Z" class="g1_286"/>
<path d="M319.5,568.9H419v-.5H319.5v.5Z" class="g1_286"/>
<path d="M268.6,580.3h50.9v-.5H268.6v.5Z" class="g1_286"/>
<path d="M318.9,579.8H320v-9.1h-1.1v9.1Z" class="g1_286"/>
<path d="M319.5,580.3H479.1v-.5H319.5v.5Z" class="g1_286"/>
<path clip-path="url(#c1l_286)" d="M268.8,591.7h50.7v-.5H268.8v.5Z" class="g1_286"/>
<path clip-path="url(#c1m_286)" d="M318.9,591.2H320v-9.1h-1.1v9.1Z" class="g1_286"/>
<path d="M318.9,591.2h.6h-.6Z" class="g1_286"/>
<path d="M319.5,591.7h91.6v-.5H319.5v.5Z" class="g1_286"/>
<path d="M268.8,603.1h50.7v-.5H268.8v.5Z" class="g1_286"/>
<path d="M318.9,602.6H320v-9h-1.1v9Z" class="g1_286"/>
<path d="M319.5,603.1H465.2v-.5H319.5v.5Z" class="g1_286"/>
<path d="M318.9,640.1H320v-9.5h-1.1v9.5Z" class="g1_286"/>
<path d="M318.9,675.9H320v-7.7h-1.1v7.7Z" class="g1_286"/>
</svg>