<?xml version="1.0" encoding="UTF-8" standalone="no"?>
<!DOCTYPE svg PUBLIC "-//W3C//DTD SVG 1.1//EN"
"http://www.w3.org/Graphics/SVG/1.1/DTD/svg11.dtd">
<svg viewBox="0 0 541 866" version="1.1" xmlns="http://www.w3.org/2000/svg" xmlns:xlink="http://www.w3.org/1999/xlink">
<defs>
<clipPath id="c0_177"><path d="M438.6,179.6v-25h49.9v25Z"/></clipPath>
<clipPath id="c1_177"><path d="M438.6,204.5v-25h49.9v25Z"/></clipPath>
<clipPath id="c2_177"><path d="M375.4,179.6v-25h50v25Z"/></clipPath>
<clipPath id="c3_177"><path d="M375.4,204.5v-25h50v25Z"/></clipPath>
<clipPath id="c4_177"><path d="M375.4,254.9V229.3h51.1v25.6Z"/></clipPath>
<clipPath id="c5_177"><path d="M375.4,280.4V254.8h51.1v25.6Z"/></clipPath>
<clipPath id="c6_177"><path d="M438.8,254.9V229.3h51.1v25.6Z"/></clipPath>
<clipPath id="c7_177"><path d="M438.8,280.4V254.8h51.1v25.6Z"/></clipPath>
<clipPath id="c8_177"><path d="M437.5,325.2V299.7h51v25.5Z"/></clipPath>
<clipPath id="c9_177"><path d="M437.5,350.7V325.2h51v25.5Z"/></clipPath>
<clipPath id="ca_177"><path d="M437.5,515.1V489.6h51v25.5Z"/></clipPath>
<clipPath id="cb_177"><path d="M437.5,540.6V515h51v25.6Z"/></clipPath>
<clipPath id="cc_177"><path d="M287.5,659.7V616.1h57.2v43.6Z"/></clipPath>
<clipPath id="cd_177"><path d="M287.5,703.1V659.6h57.2v43.5Z"/></clipPath>
<clipPath id="ce_177"><path d="M361.9,659.7V616.1h57.2v43.6Z"/></clipPath>
<clipPath id="cf_177"><path d="M361.9,703.1V659.6h57.2v43.5Z"/></clipPath>
<clipPath id="cg_177"><path d="M431.4,659.7V616.1h57.1v43.6Z"/></clipPath>
<clipPath id="ch_177"><path d="M431.4,703.1V659.6h57.1v43.5Z"/></clipPath>
<clipPath id="ci_177"><path d="M438.8,109.5V83.9h51v25.6Z"/></clipPath>
<clipPath id="cj_177"><path d="M438.8,134.9V109.4h51v25.5Z"/></clipPath>
</defs>
<image clip-path="url(#c0_177)" preserveAspectRatio="none" x="438" y="154" width="51" height="26" xlink:href="img/1.jpg"/>
<image clip-path="url(#c1_177)" preserveAspectRatio="none" x="438" y="179" width="51" height="26" xlink:href="img/2.jpg"/>
<image clip-path="url(#c2_177)" preserveAspectRatio="none" x="375" y="154" width="51" height="26" xlink:href="img/3.jpg"/>
<image clip-path="url(#c3_177)" preserveAspectRatio="none" x="375" y="179" width="51" height="26" xlink:href="img/4.jpg"/>
<image clip-path="url(#c4_177)" preserveAspectRatio="none" x="375" y="229" width="52" height="26" xlink:href="img/5.jpg"/>
<image clip-path="url(#c5_177)" preserveAspectRatio="none" x="375" y="255" width="52" height="26" xlink:href="img/6.jpg"/>
<image clip-path="url(#c6_177)" preserveAspectRatio="none" x="439" y="229" width="51" height="26" xlink:href="img/7.jpg"/>
<image clip-path="url(#c7_177)" preserveAspectRatio="none" x="439" y="255" width="51" height="26" xlink:href="img/8.jpg"/>
<image clip-path="url(#c8_177)" preserveAspectRatio="none" x="437" y="300" width="52" height="25" xlink:href="img/9.jpg"/>
<image clip-path="url(#c9_177)" preserveAspectRatio="none" x="437" y="325" width="52" height="26" xlink:href="img/10.jpg"/>
<image clip-path="url(#ca_177)" preserveAspectRatio="none" x="437" y="489" width="52" height="26" xlink:href="img/11.jpg"/>
<image clip-path="url(#cb_177)" preserveAspectRatio="none" x="437" y="515" width="52" height="26" xlink:href="img/12.jpg"/>
<image clip-path="url(#cc_177)" preserveAspectRatio="none" x="287" y="616" width="58" height="44" xlink:href="img/13.jpg"/>
<image clip-path="url(#cd_177)" preserveAspectRatio="none" x="287" y="660" width="58" height="43" xlink:href="img/14.jpg"/>
<image clip-path="url(#ce_177)" preserveAspectRatio="none" x="362" y="616" width="58" height="44" xlink:href="img/15.jpg"/>
<image clip-path="url(#cf_177)" preserveAspectRatio="none" x="362" y="660" width="58" height="43" xlink:href="img/16.jpg"/>
<image clip-path="url(#cg_177)" preserveAspectRatio="none" x="431" y="616" width="58" height="44" xlink:href="img/17.jpg"/>
<image clip-path="url(#ch_177)" preserveAspectRatio="none" x="431" y="660" width="58" height="43" xlink:href="img/18.jpg"/>
<image clip-path="url(#ci_177)" preserveAspectRatio="none" x="439" y="84" width="51" height="26" xlink:href="img/19.jpg"/>
<image clip-path="url(#cj_177)" preserveAspectRatio="none" x="439" y="109" width="51" height="26" xlink:href="img/20.jpg"/>
</svg>