<?xml version="1.0" encoding="UTF-8" standalone="no"?>
<!DOCTYPE svg PUBLIC "-//W3C//DTD SVG 1.1//EN"
"http://www.w3.org/Graphics/SVG/1.1/DTD/svg11.dtd">
<svg viewBox="0 0 541 866" version="1.1" xmlns="http://www.w3.org/2000/svg" xmlns:xlink="http://www.w3.org/1999/xlink">
<defs>
<clipPath id="c0_181"><path d="M439.1,106.9V81.4H490v25.5Z"/></clipPath>
<clipPath id="c1_181"><path d="M439.1,132.3V106.8H490v25.5Z"/></clipPath>
<clipPath id="c2_181"><path d="M376.2,106.9V81.4h50.9v25.5Z"/></clipPath>
<clipPath id="c3_181"><path d="M376.2,132.3V106.8h50.9v25.5Z"/></clipPath>
<clipPath id="c4_181"><path d="M437.7,192.2V166.7h50.9v25.5Z"/></clipPath>
<clipPath id="c5_181"><path d="M437.7,217.7V192.1h50.9v25.6Z"/></clipPath>
<clipPath id="c6_181"><path d="M377.8,389.5V364.4h50v25.1Z"/></clipPath>
<clipPath id="c7_181"><path d="M377.8,414.4v-25h50v25Z"/></clipPath>
<clipPath id="c8_181"><path d="M438.7,390.1v-25h49.9v25Z"/></clipPath>
<clipPath id="c9_181"><path d="M438.7,415V390h49.9v25Z"/></clipPath>
<clipPath id="ca_181"><path d="M438.3,469.5v-25h50v25Z"/></clipPath>
<clipPath id="cb_181"><path d="M438.3,494.5V469.4h50v25.1Z"/></clipPath>
<clipPath id="cc_181"><path d="M395.8,566.9V520.2h46.5v46.7Z"/></clipPath>
<clipPath id="cd_181"><path d="M442.2,566.9V520.2h46.4v46.7Z"/></clipPath>
<clipPath id="ce_181"><path d="M438.8,643.8V594h49.8v49.8Z"/></clipPath>
</defs>
<image clip-path="url(#c0_181)" preserveAspectRatio="none" x="439" y="81" width="52" height="26" xlink:href="img/1.jpg"/>
<image clip-path="url(#c1_181)" preserveAspectRatio="none" x="439" y="107" width="52" height="25" xlink:href="img/2.jpg"/>
<image clip-path="url(#c2_181)" preserveAspectRatio="none" x="376" y="81" width="52" height="26" xlink:href="img/3.jpg"/>
<image clip-path="url(#c3_181)" preserveAspectRatio="none" x="376" y="107" width="52" height="25" xlink:href="img/4.jpg"/>
<image clip-path="url(#c4_181)" preserveAspectRatio="none" x="438" y="167" width="51" height="25" xlink:href="img/5.jpg"/>
<image clip-path="url(#c5_181)" preserveAspectRatio="none" x="438" y="192" width="51" height="26" xlink:href="img/6.jpg"/>
<image clip-path="url(#c6_181)" preserveAspectRatio="none" x="378" y="364" width="50" height="26" xlink:href="img/7.jpg"/>
<image clip-path="url(#c7_181)" preserveAspectRatio="none" x="378" y="389" width="50" height="26" xlink:href="img/8.jpg"/>
<image clip-path="url(#c8_181)" preserveAspectRatio="none" x="439" y="365" width="50" height="25" xlink:href="img/9.jpg"/>
<image clip-path="url(#c9_181)" preserveAspectRatio="none" x="439" y="390" width="50" height="25" xlink:href="img/10.jpg"/>
<image clip-path="url(#ca_181)" preserveAspectRatio="none" x="438" y="444" width="51" height="26" xlink:href="img/11.jpg"/>
<image clip-path="url(#cb_181)" preserveAspectRatio="none" x="438" y="469" width="51" height="26" xlink:href="img/12.jpg"/>
<image clip-path="url(#cc_181)" preserveAspectRatio="none" x="396" y="520" width="47" height="47" xlink:href="img/13.jpg"/>
<image clip-path="url(#cd_181)" preserveAspectRatio="none" x="442" y="520" width="47" height="47" xlink:href="img/14.jpg"/>
<image clip-path="url(#ce_181)" preserveAspectRatio="none" x="439" y="594" width="50" height="50" xlink:href="img/15.jpg"/>
</svg>