<?xml version="1.0" encoding="UTF-8" standalone="no"?>
<!DOCTYPE svg PUBLIC "-//W3C//DTD SVG 1.1//EN"
"http://www.w3.org/Graphics/SVG/1.1/DTD/svg11.dtd">
<svg viewBox="0 0 541 866" version="1.1" xmlns="http://www.w3.org/2000/svg" xmlns:xlink="http://www.w3.org/1999/xlink">
<defs>
<clipPath id="c0_161"><path d="M144.2,232V83.9H418.8V232Z"/></clipPath>
<clipPath id="c1_161"><path d="M87.8,418V370.6h25.9V418Z"/></clipPath>
<clipPath id="c2_161"><path d="M113.6,418V370.6h25.9V418Z"/></clipPath>
<clipPath id="c3_161"><path d="M155.2,418V370.6H181V418Z"/></clipPath>
<clipPath id="c4_161"><path d="M181,418V370.6h25.8V418Z"/></clipPath>
<clipPath id="c5_161"><path d="M222.5,418V370.6h25.9V418Z"/></clipPath>
<clipPath id="c6_161"><path d="M248.3,418V370.6h25.8V418Z"/></clipPath>
<clipPath id="c7_161"><path d="M288.9,417V369.7h25.8V417Z"/></clipPath>
<clipPath id="c8_161"><path d="M314.7,417V369.7h25.8V417Z"/></clipPath>
<clipPath id="c9_161"><path d="M356.2,417V369.7h25.9V417Z"/></clipPath>
<clipPath id="ca_161"><path d="M382,417V369.7h25.8V417Z"/></clipPath>
<clipPath id="cb_161"><path d="M423.5,417V369.7h25.9V417Z"/></clipPath>
<clipPath id="cc_161"><path d="M449.3,417V369.7h25.9V417Z"/></clipPath>
<clipPath id="cd_161"><path d="M144.2,747.5V606.4H418.8V747.5Z"/></clipPath>
<clipPath id="ce_161"><path d="M438.4,295.5V248.7H464v46.8Z"/></clipPath>
<clipPath id="cf_161"><path d="M463.9,295.5V248.7h25.5v46.8Z"/></clipPath>
</defs>
<image clip-path="url(#c0_161)" preserveAspectRatio="none" x="143" y="82" width="278" height="152" xlink:href="img/1.jpg"/>
<image clip-path="url(#c1_161)" preserveAspectRatio="none" x="88" y="370" width="26" height="48" xlink:href="img/2.jpg"/>
<image clip-path="url(#c2_161)" preserveAspectRatio="none" x="114" y="370" width="26" height="48" xlink:href="img/3.jpg"/>
<image clip-path="url(#c3_161)" preserveAspectRatio="none" x="155" y="370" width="26" height="48" xlink:href="img/4.jpg"/>
<image clip-path="url(#c4_161)" preserveAspectRatio="none" x="181" y="370" width="26" height="48" xlink:href="img/5.jpg"/>
<image clip-path="url(#c5_161)" preserveAspectRatio="none" x="222" y="370" width="27" height="48" xlink:href="img/6.jpg"/>
<image clip-path="url(#c6_161)" preserveAspectRatio="none" x="248" y="370" width="27" height="48" xlink:href="img/7.jpg"/>
<image clip-path="url(#c7_161)" preserveAspectRatio="none" x="289" y="369" width="26" height="48" xlink:href="img/8.jpg"/>
<image clip-path="url(#c8_161)" preserveAspectRatio="none" x="315" y="369" width="26" height="48" xlink:href="img/9.jpg"/>
<image clip-path="url(#c9_161)" preserveAspectRatio="none" x="356" y="369" width="26" height="48" xlink:href="img/10.jpg"/>
<image clip-path="url(#ca_161)" preserveAspectRatio="none" x="382" y="369" width="26" height="48" xlink:href="img/11.jpg"/>
<image clip-path="url(#cb_161)" preserveAspectRatio="none" x="423" y="369" width="27" height="48" xlink:href="img/12.jpg"/>
<image clip-path="url(#cc_161)" preserveAspectRatio="none" x="449" y="369" width="27" height="48" xlink:href="img/13.jpg"/>
<image clip-path="url(#cd_161)" preserveAspectRatio="none" x="143" y="605" width="278" height="144" xlink:href="img/14.jpg"/>
<image clip-path="url(#ce_161)" preserveAspectRatio="none" x="438" y="249" width="27" height="47" xlink:href="img/15.jpg"/>
<image clip-path="url(#cf_161)" preserveAspectRatio="none" x="464" y="249" width="26" height="47" xlink:href="img/16.jpg"/>
</svg>