<?xml version="1.0" encoding="UTF-8" standalone="no"?>
<!DOCTYPE svg PUBLIC "-//W3C//DTD SVG 1.1//EN"
"http://www.w3.org/Graphics/SVG/1.1/DTD/svg11.dtd">
<svg viewBox="0 0 541 866" version="1.1" xmlns="http://www.w3.org/2000/svg" xmlns:xlink="http://www.w3.org/1999/xlink">
<defs>
<clipPath id="c0_194"><path d="M227.2,376.4V337.6h51v38.8Z"/></clipPath>
<clipPath id="c1_194"><path d="M227.2,415V376.3h51V415Z"/></clipPath>
<clipPath id="c2_194"><path d="M290.1,376.4V337.6h51v38.8Z"/></clipPath>
<clipPath id="c3_194"><path d="M290.1,415V376.3h51V415Z"/></clipPath>
<clipPath id="c4_194"><path d="M352.9,376.4V337.6h51v38.8Z"/></clipPath>
<clipPath id="c5_194"><path d="M352.9,415V376.3h51V415Z"/></clipPath>
<clipPath id="c6_194"><path d="M416.7,376.4V337.6h51v38.8Z"/></clipPath>
<clipPath id="c7_194"><path d="M416.7,415V376.3h51V415Z"/></clipPath>
<clipPath id="c8_194"><path d="M227.2,477.4V438.6h51v38.8Z"/></clipPath>
<clipPath id="c9_194"><path d="M227.2,516V477.3h51V516Z"/></clipPath>
<clipPath id="ca_194"><path d="M290.1,477.4V438.6h51v38.8Z"/></clipPath>
<clipPath id="cb_194"><path d="M290.1,516V477.3h51V516Z"/></clipPath>
<clipPath id="cc_194"><path d="M352.9,477.4V438.6h51v38.8Z"/></clipPath>
<clipPath id="cd_194"><path d="M352.9,516V477.3h51V516Z"/></clipPath>
<clipPath id="ce_194"><path d="M416.7,477.4V438.6h51v38.8Z"/></clipPath>
<clipPath id="cf_194"><path d="M416.7,516V477.3h51V516Z"/></clipPath>
<clipPath id="cg_194"><path d="M286.4,578V539.2h51.1V578Z"/></clipPath>
<clipPath id="ch_194"><path d="M286.4,616.6V577.9h51.1v38.7Z"/></clipPath>
<clipPath id="ci_194"><path d="M351.2,578.6V539.8h51v38.8Z"/></clipPath>
<clipPath id="cj_194"><path d="M351.2,617.3V578.5h51v38.8Z"/></clipPath>
<clipPath id="ck_194"><path d="M415.9,578.6V539.8h51v38.8Z"/></clipPath>
<clipPath id="cl_194"><path d="M415.9,617.3V578.5h51v38.8Z"/></clipPath>
<clipPath id="cm_194"><path d="M286.4,748.8V671.3h51.1v77.5Z"/></clipPath>
<clipPath id="cn_194"><path d="M351.2,710.1V671.3h51v38.8Z"/></clipPath>
<clipPath id="co_194"><path d="M351.2,748.8V710h51v38.8Z"/></clipPath>
<clipPath id="cp_194"><path d="M416.7,710.1V671.3h51v38.8Z"/></clipPath>
<clipPath id="cq_194"><path d="M416.7,748.8V710h51v38.8Z"/></clipPath>
<clipPath id="cr_194"><path d="M289.8,276.8V238h51v38.8Z"/></clipPath>
<clipPath id="cs_194"><path d="M289.8,315.5V276.7h51v38.8Z"/></clipPath>
<clipPath id="ct_194"><path d="M353.1,276.8V238h51v38.8Z"/></clipPath>
<clipPath id="cu_194"><path d="M353.1,315.5V276.7h51v38.8Z"/></clipPath>
<clipPath id="cv_194"><path d="M415.9,276.8V238h51v38.8Z"/></clipPath>
<clipPath id="cw_194"><path d="M415.9,315.5V276.7h51v38.8Z"/></clipPath>
</defs>
<image clip-path="url(#c0_194)" preserveAspectRatio="none" x="227" y="337" width="52" height="39" xlink:href="img/1.jpg"/>
<image clip-path="url(#c1_194)" preserveAspectRatio="none" x="227" y="376" width="52" height="39" xlink:href="img/2.jpg"/>
<image clip-path="url(#c2_194)" preserveAspectRatio="none" x="290" y="337" width="52" height="39" xlink:href="img/3.jpg"/>
<image clip-path="url(#c3_194)" preserveAspectRatio="none" x="290" y="376" width="52" height="39" xlink:href="img/4.jpg"/>
<image clip-path="url(#c4_194)" preserveAspectRatio="none" x="353" y="337" width="51" height="39" xlink:href="img/5.jpg"/>
<image clip-path="url(#c5_194)" preserveAspectRatio="none" x="353" y="376" width="51" height="39" xlink:href="img/6.jpg"/>
<image clip-path="url(#c6_194)" preserveAspectRatio="none" x="417" y="337" width="51" height="39" xlink:href="img/7.jpg"/>
<image clip-path="url(#c7_194)" preserveAspectRatio="none" x="417" y="376" width="51" height="39" xlink:href="img/8.jpg"/>
<image clip-path="url(#c8_194)" preserveAspectRatio="none" x="227" y="438" width="52" height="39" xlink:href="img/9.jpg"/>
<image clip-path="url(#c9_194)" preserveAspectRatio="none" x="227" y="477" width="52" height="39" xlink:href="img/10.jpg"/>
<image clip-path="url(#ca_194)" preserveAspectRatio="none" x="290" y="438" width="52" height="39" xlink:href="img/11.jpg"/>
<image clip-path="url(#cb_194)" preserveAspectRatio="none" x="290" y="477" width="52" height="39" xlink:href="img/12.jpg"/>
<image clip-path="url(#cc_194)" preserveAspectRatio="none" x="353" y="438" width="51" height="39" xlink:href="img/13.jpg"/>
<image clip-path="url(#cd_194)" preserveAspectRatio="none" x="353" y="477" width="51" height="39" xlink:href="img/14.jpg"/>
<image clip-path="url(#ce_194)" preserveAspectRatio="none" x="417" y="438" width="51" height="39" xlink:href="img/15.jpg"/>
<image clip-path="url(#cf_194)" preserveAspectRatio="none" x="417" y="477" width="51" height="39" xlink:href="img/16.jpg"/>
<image clip-path="url(#cg_194)" preserveAspectRatio="none" x="286" y="539" width="52" height="39" xlink:href="img/17.jpg"/>
<image clip-path="url(#ch_194)" preserveAspectRatio="none" x="286" y="578" width="52" height="39" xlink:href="img/18.jpg"/>
<image clip-path="url(#ci_194)" preserveAspectRatio="none" x="351" y="540" width="52" height="39" xlink:href="img/19.jpg"/>
<image clip-path="url(#cj_194)" preserveAspectRatio="none" x="351" y="578" width="52" height="39" xlink:href="img/20.jpg"/>
<image clip-path="url(#ck_194)" preserveAspectRatio="none" x="416" y="540" width="51" height="39" xlink:href="img/21.jpg"/>
<image clip-path="url(#cl_194)" preserveAspectRatio="none" x="416" y="578" width="51" height="39" xlink:href="img/22.jpg"/>
<image clip-path="url(#cm_194)" preserveAspectRatio="none" x="286" y="671" width="52" height="78" xlink:href="img/23.jpg"/>
<image clip-path="url(#cn_194)" preserveAspectRatio="none" x="351" y="671" width="52" height="39" xlink:href="img/24.jpg"/>
<image clip-path="url(#co_194)" preserveAspectRatio="none" x="351" y="710" width="52" height="39" xlink:href="img/25.jpg"/>
<image clip-path="url(#cp_194)" preserveAspectRatio="none" x="417" y="671" width="51" height="39" xlink:href="img/26.jpg"/>
<image clip-path="url(#cq_194)" preserveAspectRatio="none" x="417" y="710" width="51" height="39" xlink:href="img/27.jpg"/>
<image clip-path="url(#cr_194)" preserveAspectRatio="none" x="290" y="238" width="51" height="39" xlink:href="img/28.jpg"/>
<image clip-path="url(#cs_194)" preserveAspectRatio="none" x="290" y="277" width="51" height="39" xlink:href="img/29.jpg"/>
<image clip-path="url(#ct_194)" preserveAspectRatio="none" x="353" y="238" width="52" height="39" xlink:href="img/30.jpg"/>
<image clip-path="url(#cu_194)" preserveAspectRatio="none" x="353" y="277" width="52" height="39" xlink:href="img/31.jpg"/>
<image clip-path="url(#cv_194)" preserveAspectRatio="none" x="416" y="238" width="51" height="39" xlink:href="img/32.jpg"/>
<image clip-path="url(#cw_194)" preserveAspectRatio="none" x="416" y="277" width="51" height="39" xlink:href="img/33.jpg"/>
</svg>