<?xml version="1.0" encoding="UTF-8" standalone="no"?>
<!DOCTYPE svg PUBLIC "-//W3C//DTD SVG 1.1//EN"
"http://www.w3.org/Graphics/SVG/1.1/DTD/svg11.dtd">
<svg viewBox="0 0 541 866" version="1.1" xmlns="http://www.w3.org/2000/svg" xmlns:xlink="http://www.w3.org/1999/xlink">
<defs>
<style type="text/css"><![CDATA[
.g0_254{
fill: #0066B3;
}
.g1_254{
fill: #231F20;
}
.g2_254{
fill: #00000C;
}
]]></style>
</defs>
<path d="M28.7,80.4H329.5v29.9H28.7V80.4m300.8,0H376v29.9H329.5V80.4m46.5,0H490.9v29.9H376V80.4Z" class="g0_254"/>
<path d="M491.3,431.3h-.7v-41h.7v41Z" class="g1_254"/>
<path d="M329.8,109.9h-.3V80.7h.3v29.2m-.3,0h-.4V80.7h.4v29.2Z" class="g2_254"/>
<path d="M28.4,80.7V80H329.5v.7v-.3H28.7v.3h-.3Z" class="g1_254"/>
<path d="M329.1,80.7H28.7v-.3H329.5v.3h-.4m.4,0v-.3v.3Z" class="g2_254"/>
<path d="M329.5,80.7v0h-.4h.4Z" class="g2_254"/>
<path d="M28.7,109.9h-.3V80.7h.3v29.2Z" class="g1_254"/>
<path d="M28.7,109.9h.4V80.7h-.4v29.2Z" class="g2_254"/>
<path d="M28.7,80.7h-.3h.3Z" class="g1_254"/>
<path d="M28.7,80.7h.4h-.4Z" class="g2_254"/>
<path d="M491.3,80.7v0h-.4v-.3H376v.3v-.3H329.5V80H491.3v.7Z" class="g1_254"/>
<path d="M490.6,80.7H376v-.3H490.9v.3h-.3m-115,0H329.5v-.3H376v.3h-.4Z" class="g2_254"/>
<path d="M329.5,80.7h.3h-.3Z" class="g2_254"/>
<path d="M376.3,109.9H376V80.7h.3v29.2m-.3,0h-.4V80.7h.4v29.2Z" class="g2_254"/>
<path d="M376.3,80.7H376h.3m-.3,0h-.4h.4Z" class="g2_254"/>
<path d="M491.3,109.9h-.4V80.7h.4v29.2Z" class="g1_254"/>
<path d="M490.9,109.9h-.3V80.7h.3v29.2Z" class="g2_254"/>
<path d="M491.3,80.7h-.4h.4Z" class="g1_254"/>
<path d="M490.6,80.7h.3h-.3Z" class="g2_254"/>
<path d="M29.1,232.9h-.7V110.6h.7V232.9Z" class="g1_254"/>
<path d="M29.1,332.1h-.7V233.6h.7v98.5Z" class="g1_254"/>
<path d="M29.1,389.7h-.7v-57h.7v57Z" class="g1_254"/>
<path d="M29.1,554.3h-.7V432h.7V554.3Z" class="g1_254"/>
<path d="M29.1,598h-.7V555h.7v43Z" class="g1_254"/>
<path d="M28.4,641.8h.7V598.7h-.7v43.1Z" class="g1_254"/>
<path d="M29.1,751.2h-.7V642.5h.7V751.2Z" class="g1_254"/>
<path d="M375.6,110.6H28.4v-.7h.3v.4H329.5v-.4v.4H376v-.4v.4H490.9v-.4h.4v.7H375.6Z" class="g1_254"/>
<path d="M490.9,110.3H376v-.4H490.9v.4m-114.9,0H329.5v-.4H376v.4m-46.5,0H28.7v-.4H329.5v.4Z" class="g2_254"/>
<path d="M29.1,110.6h-.7h.7Z" class="g1_254"/>
<path d="M329.5,390.3H28.4v-.6H329.5v.6Z" class="g1_254"/>
<path d="M29.1,389.7h-.7h.7Z" class="g1_254"/>
<path d="M29.1,431.3h-.7v-41h.7v41Z" class="g1_254"/>
<path d="M29.1,390.3h-.7h.7Z" class="g1_254"/>
<path d="M491.3,390.3H329.5v-.6H491.3v.6Z" class="g1_254"/>
<path d="M491.3,390.3h-.7h.7Z" class="g1_254"/>
<path d="M491.3,432H28.4v-.7H491.3v.7Z" class="g1_254"/>
<path d="M491.3,431.3h-.7h.7Z" class="g1_254"/>
<path d="M29.1,431.3h-.7h.7Z" class="g1_254"/>
<path d="M329.8,232.9h-.7V110.6h.7V232.9Z" class="g1_254"/>
<path d="M329.8,110.6h-.7h.7Z" class="g1_254"/>
<path d="M376.3,232.9h-.7V110.6h.7V232.9Z" class="g1_254"/>
<path d="M376,110.6h-.4h.7H376Z" class="g1_254"/>
<path d="M491.3,232.9h-.7V110.6h.7V232.9Z" class="g1_254"/>
<path d="M490.6,110.6h.7h-.7Z" class="g1_254"/>
<path d="M375.6,233.6H28.4v-.7H376v.7h-.4Z" class="g1_254"/>
<path d="M29.1,233.6h-.7h.7Z" class="g1_254"/>
<path d="M329.8,332.1h-.7V233.6h.7v98.5Z" class="g1_254"/>
<path d="M329.8,233.6h-.7h.7Z" class="g1_254"/>
<path d="M491.3,233.6H376v-.7H491.3v.7Z" class="g1_254"/>
<path d="M376,332.1v0h-.4V233.6h.7v98.5H376Z" class="g1_254"/>
<path d="M375.6,233.6h.7h-.7Z" class="g1_254"/>
<path d="M491.3,332.1h-.7V233.6h.7v98.5Z" class="g1_254"/>
<path d="M491.3,233.6h-.7h.7Z" class="g1_254"/>
<path d="M376,332.7H28.4v-.6H376v.6Z" class="g1_254"/>
<path d="M29.1,332.1h-.7h.7Z" class="g1_254"/>
<path d="M329.8,332.1h-.7h.7Z" class="g1_254"/>
<path d="M376,332.1h-.4h.4Z" class="g1_254"/>
<path d="M329.5,389.7v0h-.4v-57h.7v57h-.3Z" class="g1_254"/>
<path d="M329.5,389.7h-.4h.4Z" class="g1_254"/>
<path d="M329.5,389.7h.3h-.3Z" class="g1_254"/>
<path d="M491.3,332.7H376v-.6H491.3v.6Z" class="g1_254"/>
<path d="M376,332.1h.3H376Z" class="g1_254"/>
<path d="M491.3,332.1h-.7h.7Z" class="g1_254"/>
<path d="M376.3,389.7h-.7v-57h.7v57Z" class="g1_254"/>
<path d="M376.3,389.7h-.7h.7Z" class="g1_254"/>
<path d="M491.3,389.7h-.7v-57h.7v57Z" class="g1_254"/>
<path d="M491.3,389.7h-.7h.7Z" class="g1_254"/>
<path d="M329.8,554.3h-.7V432h.7V554.3Z" class="g1_254"/>
<path d="M376,554.3v0h-.4V432h.7V554.3H376Z" class="g1_254"/>
<path d="M491.3,554.3h-.7V432h.7V554.3Z" class="g1_254"/>
<path d="M376,555H28.4v-.7H376v.7Z" class="g1_254"/>
<path d="M29.1,554.3h-.7h.7Z" class="g1_254"/>
<path d="M329.8,554.3h-.7h.7Z" class="g1_254"/>
<path d="M376,554.3h-.4h.4Z" class="g1_254"/>
<path d="M329.8,598h-.7V555h.7v43Z" class="g1_254"/>
<path d="M491.3,555H376v-.7H491.3v.7Z" class="g1_254"/>
<path d="M376,554.3h.3H376Z" class="g1_254"/>
<path d="M491.3,554.3h-.7h.7Z" class="g1_254"/>
<path d="M376,598v0h-.4V555h.7v43H376Z" class="g1_254"/>
<path d="M491.3,598h-.7V555h.7v43Z" class="g1_254"/>
<path d="M375.6,598.7H28.4V598H376v.7h-.4Z" class="g1_254"/>
<path d="M29.1,598h-.7h.7Z" class="g1_254"/>
<path d="M29.1,598.7h-.7h.7Z" class="g1_254"/>
<path d="M329.8,598h-.7h.7Z" class="g1_254"/>
<path d="M376,598h-.4h.4Z" class="g1_254"/>
<path d="M329.8,641.8h-.7V598.7h.7v43.1Z" class="g1_254"/>
<path d="M329.8,598.7h-.7h.7Z" class="g1_254"/>
<path d="M491.3,598.7H376V598H491.3v.7Z" class="g1_254"/>
<path d="M376,598h.3H376Z" class="g1_254"/>
<path d="M491.3,598h-.7h.7Z" class="g1_254"/>
<path d="M376.3,641.8h-.7V598.7h.7v43.1Z" class="g1_254"/>
<path d="M375.6,598.7h.7h-.7Z" class="g1_254"/>
<path d="M491.3,641.8h-.7V598.7h.7v43.1Z" class="g1_254"/>
<path d="M491.3,598.7h-.7h.7Z" class="g1_254"/>
<path d="M329.1,642.5H28.4v-.7H376v.7H329.1Z" class="g1_254"/>
<path d="M29.1,642.5h-.7h.7Z" class="g1_254"/>
<path d="M329.8,751.2h-.7V642.5h.7V751.2Z" class="g1_254"/>
<path d="M329.5,642.5h-.4h.7h-.3Z" class="g1_254"/>
<path d="M491.3,642.5H376v-.7H491.3v.7Z" class="g1_254"/>
<path d="M376.3,751.2h-.7V642.5h.7V751.2Z" class="g1_254"/>
<path d="M375.6,642.5h.7h-.7Z" class="g1_254"/>
<path d="M491.3,751.2h-.7V642.5h.7V751.2Z" class="g1_254"/>
<path d="M491.3,642.5h-.7h.7Z" class="g1_254"/>
<path d="M491.3,751.9H28.4v-.7H491.3v.7Z" class="g1_254"/>
<path d="M29.1,751.2h-.7h.7Z" class="g1_254"/>
<path d="M329.8,751.2h-.7h.7Z" class="g1_254"/>
<path d="M376.3,751.2h-.7h.7Z" class="g1_254"/>
<path d="M491.3,751.2h-.7h.7Z" class="g1_254"/>
<path d="M28.4,759.8h92.2v-.7H28.4v.7Z" class="g1_254"/>
</svg>