<?xml version="1.0" encoding="UTF-8" standalone="no"?>
<!DOCTYPE svg PUBLIC "-//W3C//DTD SVG 1.1//EN"
"http://www.w3.org/Graphics/SVG/1.1/DTD/svg11.dtd">
<svg viewBox="0 0 541 866" version="1.1" xmlns="http://www.w3.org/2000/svg" xmlns:xlink="http://www.w3.org/1999/xlink">
<defs>
<clipPath id="c0_100"><path d="M138.5,441.6V416.3H187v25.3Z"/></clipPath>
<clipPath id="c1_100"><path d="M267.2,388.7V363.4h25.3v25.3Z"/></clipPath>
<clipPath id="c2_100"><path d="M292.4,388.7V363.4h25.3v25.3Z"/></clipPath>
<clipPath id="c3_100"><path d="M202.5,388.7V363.4h25v25.3Z"/></clipPath>
<clipPath id="c4_100"><path d="M227.4,388.7V363.4h25.1v25.3Z"/></clipPath>
<clipPath id="c5_100"><path d="M205,441.7V416.4h48.3v25.3Z"/></clipPath>
<clipPath id="c6_100"><path d="M332.2,388.7V363.4h25.3v25.3Z"/></clipPath>
<clipPath id="c7_100"><path d="M357.4,388.7V363.4h25.3v25.3Z"/></clipPath>
<clipPath id="c8_100"><path d="M334.9,441.8V416.5h48.4v25.3Z"/></clipPath>
<clipPath id="c9_100"><path d="M398.4,388.7V363.4h48.5v25.3Z"/></clipPath>
<clipPath id="ca_100"><path d="M397.1,443V416.4h25.6V443Z"/></clipPath>
<clipPath id="cb_100"><path d="M422.6,443V416.4h25.5V443Z"/></clipPath>
<clipPath id="cc_100"><path d="M71.6,389V363.4h50.9V389Z"/></clipPath>
<clipPath id="cd_100"><path d="M71.6,414.4V388.9h50.9v25.5Z"/></clipPath>
<clipPath id="ce_100"><path d="M269.9,441.8V416.5h48.4v25.3Z"/></clipPath>
<clipPath id="cf_100"><path d="M137.7,388.7V363.4h25.1v25.3Z"/></clipPath>
<clipPath id="cg_100"><path d="M162.7,388.7V363.4h25.1v25.3Z"/></clipPath>
<clipPath id="ch_100"><path d="M122.5,748V554.4H397.1V748Z"/></clipPath>
<clipPath id="ci_100"><path d="M122.5,265.6V83.9H397.1V265.6Z"/></clipPath>
</defs>
<image clip-path="url(#c0_100)" preserveAspectRatio="none" x="138" y="416" width="50" height="26" xlink:href="img/1.jpg"/>
<image clip-path="url(#c1_100)" preserveAspectRatio="none" x="267" y="363" width="26" height="26" xlink:href="img/2.jpg"/>
<image clip-path="url(#c2_100)" preserveAspectRatio="none" x="292" y="363" width="26" height="26" xlink:href="img/3.jpg"/>
<image clip-path="url(#c3_100)" preserveAspectRatio="none" x="202" y="363" width="26" height="26" xlink:href="img/4.jpg"/>
<image clip-path="url(#c4_100)" preserveAspectRatio="none" x="227" y="363" width="26" height="26" xlink:href="img/5.jpg"/>
<image clip-path="url(#c5_100)" preserveAspectRatio="none" x="205" y="416" width="49" height="26" xlink:href="img/6.jpg"/>
<image clip-path="url(#c6_100)" preserveAspectRatio="none" x="332" y="363" width="26" height="26" xlink:href="img/7.jpg"/>
<image clip-path="url(#c7_100)" preserveAspectRatio="none" x="357" y="363" width="26" height="26" xlink:href="img/8.jpg"/>
<image clip-path="url(#c8_100)" preserveAspectRatio="none" x="335" y="416" width="49" height="26" xlink:href="img/9.jpg"/>
<image clip-path="url(#c9_100)" preserveAspectRatio="none" x="398" y="363" width="50" height="26" xlink:href="img/10.jpg"/>
<image clip-path="url(#ca_100)" preserveAspectRatio="none" x="397" y="416" width="26" height="27" xlink:href="img/11.jpg"/>
<image clip-path="url(#cb_100)" preserveAspectRatio="none" x="423" y="416" width="26" height="27" xlink:href="img/12.jpg"/>
<image clip-path="url(#cc_100)" preserveAspectRatio="none" x="71" y="363" width="52" height="26" xlink:href="img/13.jpg"/>
<image clip-path="url(#cd_100)" preserveAspectRatio="none" x="71" y="389" width="52" height="26" xlink:href="img/14.jpg"/>
<image clip-path="url(#ce_100)" preserveAspectRatio="none" x="270" y="416" width="49" height="26" xlink:href="img/15.jpg"/>
<image clip-path="url(#cf_100)" preserveAspectRatio="none" x="138" y="363" width="25" height="26" xlink:href="img/16.jpg"/>
<image clip-path="url(#cg_100)" preserveAspectRatio="none" x="163" y="363" width="25" height="26" xlink:href="img/17.jpg"/>
<image clip-path="url(#ch_100)" preserveAspectRatio="none" x="122" y="554" width="276" height="194" xlink:href="img/18.jpg"/>
<image clip-path="url(#ci_100)" preserveAspectRatio="none" x="122" y="84" width="276" height="182" xlink:href="img/19.jpg"/>
</svg>