<?xml version="1.0" encoding="UTF-8" standalone="no"?>
<!DOCTYPE svg PUBLIC "-//W3C//DTD SVG 1.1//EN"
"http://www.w3.org/Graphics/SVG/1.1/DTD/svg11.dtd">
<svg viewBox="0 0 541 866" version="1.1" xmlns="http://www.w3.org/2000/svg" xmlns:xlink="http://www.w3.org/1999/xlink">
<defs>
<clipPath id="c0_6"><path d="M416.8,440.1V414.6h50.9v25.5Z"/></clipPath>
<clipPath id="c1_6"><path d="M416.8,465.6V440h50.9v25.6Z"/></clipPath>
<clipPath id="c2_6"><path d="M353.6,567.4V490.3h51v77.1Z"/></clipPath>
<clipPath id="c3_6"><path d="M416.8,567.4V490.3h50.9v77.1Z"/></clipPath>
<style type="text/css"><![CDATA[
.g0_6{
fill: #FFFFFF;
}
]]></style>
</defs>
<image clip-path="url(#c0_6)" preserveAspectRatio="none" x="417" y="414" width="51" height="26" xlink:href="img/1.jpg"/>
<image clip-path="url(#c1_6)" preserveAspectRatio="none" x="417" y="440" width="51" height="26" xlink:href="img/2.jpg"/>
<path d="M416.8,479.4h50.9V465.6H416.8v13.8Z" class="g0_6"/>
<path d="M432.8,479.3h17.5v-6.8H432.8v6.8Z" class="g0_6"/>
<image clip-path="url(#c2_6)" preserveAspectRatio="none" x="354" y="490" width="51" height="77" xlink:href="img/3.jpg"/>
<path d="M353.6,581.7h51V567.8h-51v13.9Z" class="g0_6"/>
<path d="M367.4,581.7h22.1v-7.2H367.4v7.2Z" class="g0_6"/>
<image clip-path="url(#c3_6)" preserveAspectRatio="none" x="417" y="490" width="51" height="78" xlink:href="img/4.jpg"/>
<path d="M416.8,581.7h50.9V567.8H416.8v13.9Z" class="g0_6"/>
<path d="M430.6,581.7h22.1v-7.2H430.6v7.2Z" class="g0_6"/>
</svg>