<?xml version="1.0" encoding="UTF-8" standalone="no"?>
<!DOCTYPE svg PUBLIC "-//W3C//DTD SVG 1.1//EN"
"http://www.w3.org/Graphics/SVG/1.1/DTD/svg11.dtd">
<svg viewBox="0 0 541 866" version="1.1" xmlns="http://www.w3.org/2000/svg" xmlns:xlink="http://www.w3.org/1999/xlink">
<defs>
<clipPath id="c0_289"><path d="M370.1,318.2v-3.9H369V314h.1c.6,0,1.1,-.4,1.2,-.9h.5v5.1Z"/></clipPath>
<clipPath id="c1_289"><path d="M380.6,324.6c-.1,-.3,-.4,-.5,-.9,-.5h-.5v-.5h.2c.2,0,1.1,0,1.1,-.9c0,-.4,-.2,-.9,-1,-.9c-.2,0,-1,0,-1,1.2h-.6c0,-.5,.1,-1.7,1.6,-1.7c1.5,0,1.7,1,1.7,1.4c0,.5,-.4,.9,-.9,1.1c.4,.1,.8,.3,.9,.8Zm2.5,0c.2,-.1,.5,-.3,.7,-.4c.5,-.3,1.1,-.6,1.1,-1.4c0,-.6,-.4,-1,-1.1,-1c-.6,0,-1,.4,-1,1v.2h-.7v-.1c0,-.5,.2,-1.6,1.8,-1.6c1,0,1.6,.5,1.7,1.3v.4c-.1,.7,-.5,1.1,-1.4,1.6Z"/></clipPath>
<style type="text/css"><![CDATA[
.g0_289{
fill: #231F20;
}
.g1_289{
fill: none;
stroke: #231F20;
stroke-width: 0.34;
stroke-linecap: butt;
stroke-linejoin: miter;
stroke-miterlimit: 4;
}
]]></style>
</defs>
<path clip-path="url(#c0_289)" d="M369,318.2h1.8v-5.1H369v5.1Z" class="g0_289"/>
<path clip-path="url(#c1_289)" d="M377.9,324.6h7.7v-3.3h-7.7v3.3Z" class="g0_289"/>
<path d="M53.2,107.3l27.1,27l27,-27l-27,-27l-27.1,27Z" class="g1_289"/>
<path d="M73.4,113.4H71.8v-9.3H68.9v-.9h.4c1.5,0,2.8,-.8,3,-2.2h1.1v12.4Z" class="g0_289"/>
<path d="M85.1,113.4H76.7c0,-3,1.8,-4.1,4.2,-5.6c1,-.7,2.5,-1.5,2.5,-3.4c0,-1.5,-1,-2.3,-2.5,-2.3c-1.5,0,-2.5,.9,-2.5,2.4v.5H76.7v-.4c0,-1.1,.5,-3.9,4.3,-3.9c2.5,0,4.1,1.4,4.1,3.7c0,2.3,-1.1,3.1,-4,4.9c-1.6,1.1,-2.3,1.8,-2.6,2.7h6.6v1.4Z" class="g0_289"/>
<path d="M91.8,111.6H90.7v-3.9H86.8v-1.1h3.9v-3.9h1.1v3.9h3.9v1.1H91.8v3.9Z" class="g0_289"/>
</svg>