<?xml version="1.0" encoding="UTF-8" standalone="no"?>
<!DOCTYPE svg PUBLIC "-//W3C//DTD SVG 1.1//EN"
"http://www.w3.org/Graphics/SVG/1.1/DTD/svg11.dtd">
<svg viewBox="0 0 541 866" version="1.1" xmlns="http://www.w3.org/2000/svg" xmlns:xlink="http://www.w3.org/1999/xlink">
<defs>
<clipPath id="c0_197"><path d="M73.6,396.5V361.6h34.6v34.9Z"/></clipPath>
<clipPath id="c1_197"><path d="M108.1,396.5V361.6h34.5v34.9Z"/></clipPath>
<clipPath id="c2_197"><path d="M159,396.3V361.7h34.6v34.6Z"/></clipPath>
<clipPath id="c3_197"><path d="M193.5,396.3V361.7h34.6v34.6Z"/></clipPath>
<clipPath id="c4_197"><path d="M244.5,396.3V361.7H279v34.6Z"/></clipPath>
<clipPath id="c5_197"><path d="M278.9,396.3V361.7h34.6v34.6Z"/></clipPath>
<clipPath id="c6_197"><path d="M329.9,397V361h34.6v36Z"/></clipPath>
<clipPath id="c7_197"><path d="M364.4,397V361h34.5v36Z"/></clipPath>
<clipPath id="c8_197"><path d="M415.3,397V361h34.6v36Z"/></clipPath>
<clipPath id="c9_197"><path d="M449.8,397V361h34.6v36Z"/></clipPath>
<clipPath id="ca_197"><path d="M373,460.1v-36h34.5v36Z"/></clipPath>
<clipPath id="cb_197"><path d="M407.4,460.1v-36H442v36Z"/></clipPath>
<clipPath id="cc_197"><path d="M287.3,460.1v-36h34.6v36Z"/></clipPath>
<clipPath id="cd_197"><path d="M321.8,460.1v-36h34.5v36Z"/></clipPath>
<clipPath id="ce_197"><path d="M201.6,460.1v-36h34.6v36Z"/></clipPath>
<clipPath id="cf_197"><path d="M236.1,460.1v-36h34.6v36Z"/></clipPath>
<clipPath id="cg_197"><path d="M116,460.2V424h34.5v36.2Z"/></clipPath>
<clipPath id="ch_197"><path d="M150.4,460.2V424H185v36.2Z"/></clipPath>
<clipPath id="ci_197"><path d="M409.6,533.5V493.3h40v40.2Z"/></clipPath>
<clipPath id="cj_197"><path d="M449.5,533.5V493.3h39.9v40.2Z"/></clipPath>
<clipPath id="ck_197"><path d="M409.6,599.4V557.3h40v42.1Z"/></clipPath>
<clipPath id="cl_197"><path d="M449.5,599.4V557.3h39.9v42.1Z"/></clipPath>
<clipPath id="cm_197"><path d="M409.6,665.1V623h40v42.1Z"/></clipPath>
<clipPath id="cn_197"><path d="M449.5,665.1V623h39.9v42.1Z"/></clipPath>
<clipPath id="co_197"><path d="M409.6,732.5V690.4h79.8v42.1Z"/></clipPath>
<clipPath id="cp_197"><path d="M226.6,211.1V169.4h41.2v41.7Z"/></clipPath>
<clipPath id="cq_197"><path d="M267.7,211.1V169.4H309v41.7Z"/></clipPath>
<clipPath id="cr_197"><path d="M316.8,211.1V169.4H358v41.7Z"/></clipPath>
<clipPath id="cs_197"><path d="M357.9,211.1V169.4h41.3v41.7Z"/></clipPath>
<clipPath id="ct_197"><path d="M407,211.1V169.4h41.3v41.7Z"/></clipPath>
<clipPath id="cu_197"><path d="M448.2,211.1V169.4h41.2v41.7Z"/></clipPath>
<clipPath id="cv_197"><path d="M415.3,121.4V83.9h37.1v37.5Z"/></clipPath>
<clipPath id="cw_197"><path d="M452.3,121.4V83.9h37.1v37.5Z"/></clipPath>
</defs>
<image clip-path="url(#c0_197)" preserveAspectRatio="none" x="73" y="361" width="36" height="36" xlink:href="img/1.jpg"/>
<image clip-path="url(#c1_197)" preserveAspectRatio="none" x="108" y="361" width="35" height="36" xlink:href="img/2.jpg"/>
<image clip-path="url(#c2_197)" preserveAspectRatio="none" x="159" y="362" width="35" height="34" xlink:href="img/3.jpg"/>
<image clip-path="url(#c3_197)" preserveAspectRatio="none" x="193" y="362" width="36" height="34" xlink:href="img/4.jpg"/>
<image clip-path="url(#c4_197)" preserveAspectRatio="none" x="244" y="362" width="36" height="34" xlink:href="img/5.jpg"/>
<image clip-path="url(#c5_197)" preserveAspectRatio="none" x="279" y="362" width="35" height="34" xlink:href="img/6.jpg"/>
<image clip-path="url(#c6_197)" preserveAspectRatio="none" x="330" y="361" width="35" height="36" xlink:href="img/7.jpg"/>
<image clip-path="url(#c7_197)" preserveAspectRatio="none" x="364" y="361" width="35" height="36" xlink:href="img/8.jpg"/>
<image clip-path="url(#c8_197)" preserveAspectRatio="none" x="415" y="361" width="35" height="36" xlink:href="img/9.jpg"/>
<image clip-path="url(#c9_197)" preserveAspectRatio="none" x="450" y="361" width="35" height="36" xlink:href="img/10.jpg"/>
<image clip-path="url(#ca_197)" preserveAspectRatio="none" x="373" y="424" width="35" height="36" xlink:href="img/11.jpg"/>
<image clip-path="url(#cb_197)" preserveAspectRatio="none" x="407" y="424" width="36" height="36" xlink:href="img/12.jpg"/>
<image clip-path="url(#cc_197)" preserveAspectRatio="none" x="287" y="424" width="35" height="36" xlink:href="img/13.jpg"/>
<image clip-path="url(#cd_197)" preserveAspectRatio="none" x="322" y="424" width="35" height="36" xlink:href="img/14.jpg"/>
<image clip-path="url(#ce_197)" preserveAspectRatio="none" x="201" y="424" width="36" height="36" xlink:href="img/15.jpg"/>
<image clip-path="url(#cf_197)" preserveAspectRatio="none" x="236" y="424" width="35" height="36" xlink:href="img/16.jpg"/>
<image clip-path="url(#cg_197)" preserveAspectRatio="none" x="116" y="424" width="35" height="36" xlink:href="img/17.jpg"/>
<image clip-path="url(#ch_197)" preserveAspectRatio="none" x="150" y="424" width="36" height="36" xlink:href="img/18.jpg"/>
<image clip-path="url(#ci_197)" preserveAspectRatio="none" x="409" y="493" width="41" height="41" xlink:href="img/19.jpg"/>
<image clip-path="url(#cj_197)" preserveAspectRatio="none" x="449" y="493" width="41" height="41" xlink:href="img/20.jpg"/>
<image clip-path="url(#ck_197)" preserveAspectRatio="none" x="409" y="557" width="41" height="43" xlink:href="img/21.jpg"/>
<image clip-path="url(#cl_197)" preserveAspectRatio="none" x="449" y="557" width="41" height="43" xlink:href="img/22.jpg"/>
<image clip-path="url(#cm_197)" preserveAspectRatio="none" x="409" y="623" width="41" height="42" xlink:href="img/23.jpg"/>
<image clip-path="url(#cn_197)" preserveAspectRatio="none" x="449" y="623" width="41" height="42" xlink:href="img/24.jpg"/>
<image clip-path="url(#co_197)" preserveAspectRatio="none" x="410" y="690" width="80" height="43" xlink:href="img/25.jpg"/>
<image clip-path="url(#cp_197)" preserveAspectRatio="none" x="226" y="169" width="42" height="42" xlink:href="img/26.jpg"/>
<image clip-path="url(#cq_197)" preserveAspectRatio="none" x="268" y="169" width="42" height="42" xlink:href="img/27.jpg"/>
<image clip-path="url(#cr_197)" preserveAspectRatio="none" x="317" y="169" width="41" height="42" xlink:href="img/28.jpg"/>
<image clip-path="url(#cs_197)" preserveAspectRatio="none" x="358" y="169" width="42" height="42" xlink:href="img/29.jpg"/>
<image clip-path="url(#ct_197)" preserveAspectRatio="none" x="407" y="169" width="42" height="42" xlink:href="img/30.jpg"/>
<image clip-path="url(#cu_197)" preserveAspectRatio="none" x="448" y="169" width="42" height="42" xlink:href="img/31.jpg"/>
<image clip-path="url(#cv_197)" preserveAspectRatio="none" x="415" y="84" width="37" height="38" xlink:href="img/32.jpg"/>
<image clip-path="url(#cw_197)" preserveAspectRatio="none" x="452" y="84" width="38" height="38" xlink:href="img/33.jpg"/>
</svg>