<?xml version="1.0" encoding="UTF-8" standalone="no"?>
<!DOCTYPE svg PUBLIC "-//W3C//DTD SVG 1.1//EN"
"http://www.w3.org/Graphics/SVG/1.1/DTD/svg11.dtd">
<svg viewBox="0 0 541 866" version="1.1" xmlns="http://www.w3.org/2000/svg" xmlns:xlink="http://www.w3.org/1999/xlink">
<defs>
<clipPath id="c0_92"><path d="M187,144.8V111.4h43.7v33.4Z"/></clipPath>
<clipPath id="c1_92"><path d="M187,178.1V144.7h43.7v33.4Z"/></clipPath>
<clipPath id="c2_92"><path d="M254.1,131.4V112h29.8v19.4Z"/></clipPath>
<clipPath id="c3_92"><path d="M283.8,131.4V112h29.8v19.4Z"/></clipPath>
<clipPath id="c4_92"><path d="M254.1,165.3V145.6h29.8v19.7Z"/></clipPath>
<clipPath id="c5_92"><path d="M283.8,165.3V145.6h29.8v19.7Z"/></clipPath>
<clipPath id="c6_92"><path d="M327.9,131.3V111.2h30.9v20.1Z"/></clipPath>
<clipPath id="c7_92"><path d="M358.7,131.3V111.2h30.8v20.1Z"/></clipPath>
<clipPath id="c8_92"><path d="M327.1,166.1V145.5h31.7v20.6Z"/></clipPath>
<clipPath id="c9_92"><path d="M358.7,166.1V145.5h31.6v20.6Z"/></clipPath>
<clipPath id="ca_92"><path d="M410.1,144.8V111.4h43.7v33.4Z"/></clipPath>
<clipPath id="cb_92"><path d="M410.1,178.1V144.7h43.7v33.4Z"/></clipPath>
<clipPath id="cc_92"><path d="M178.5,254.2V193.5h60.7v60.7Z"/></clipPath>
<clipPath id="cd_92"><path d="M253.5,254.2V193.5h60.7v60.7Z"/></clipPath>
<clipPath id="ce_92"><path d="M328.4,254.2V193.5h60.7v60.7Z"/></clipPath>
<clipPath id="cf_92"><path d="M401.6,522.6V462h60.7v60.6Z"/></clipPath>
<clipPath id="cg_92"><path d="M178.5,317.9V257.2h60.7v60.7Z"/></clipPath>
<clipPath id="ch_92"><path d="M253.5,317.9V257.2h60.7v60.7Z"/></clipPath>
<clipPath id="ci_92"><path d="M328.4,317.9V257.2h60.7v60.7Z"/></clipPath>
<clipPath id="cj_92"><path d="M178.5,381.6V320.9h60.7v60.7Z"/></clipPath>
<clipPath id="ck_92"><path d="M253.5,381.6V320.9h60.7v60.7Z"/></clipPath>
<clipPath id="cl_92"><path d="M328.4,381.6V320.9h60.7v60.7Z"/></clipPath>
<clipPath id="cm_92"><path d="M178.5,445.3V384.6h60.7v60.7Z"/></clipPath>
<clipPath id="cn_92"><path d="M253.5,445.3V384.6h60.7v60.7Z"/></clipPath>
<clipPath id="co_92"><path d="M328.4,445.3V384.6h60.7v60.7Z"/></clipPath>
<clipPath id="cp_92"><path d="M178.5,509V448.4h60.7V509Z"/></clipPath>
<clipPath id="cq_92"><path d="M253.5,509V448.4h60.7V509Z"/></clipPath>
<clipPath id="cr_92"><path d="M328.4,509V448.4h60.7V509Z"/></clipPath>
<clipPath id="cs_92"><path d="M178.5,572.7V512.1h60.7v60.6Z"/></clipPath>
<clipPath id="ct_92"><path d="M253.5,572.7V512.1h60.7v60.6Z"/></clipPath>
<clipPath id="cu_92"><path d="M328.4,572.7V512.1h60.7v60.6Z"/></clipPath>
<clipPath id="cv_92"><path d="M178.5,636.5V575.8h60.7v60.7Z"/></clipPath>
<clipPath id="cw_92"><path d="M253.5,636.5V575.8h60.7v60.7Z"/></clipPath>
<clipPath id="cx_92"><path d="M328.4,636.5V575.8h60.7v60.7Z"/></clipPath>
<clipPath id="cy_92"><path d="M178.5,700.2V639.5h60.7v60.7Z"/></clipPath>
<clipPath id="cz_92"><path d="M253.5,700.2V639.5h60.7v60.7Z"/></clipPath>
<clipPath id="c10_92"><path d="M328.4,700.2V639.5h60.7v60.7Z"/></clipPath>
<clipPath id="c11_92"><path d="M178.5,763.9V703.2h60.7v60.7Z"/></clipPath>
<clipPath id="c12_92"><path d="M253.5,763.9V703.2h60.7v60.7Z"/></clipPath>
<clipPath id="c13_92"><path d="M328.4,763.9V703.2h60.7v60.7Z"/></clipPath>
<style type="text/css"><![CDATA[
.g0_92{
fill: #231F20;
}
]]></style>
</defs>
<path d="M52.1,110H171.4v-.6H52.1v.6Z" class="g0_92"/>
<path d="M52.1,191.7h.5V110h-.5v81.7Z" class="g0_92"/>
<path d="M171.4,110h75v-.6h-75v.6Z" class="g0_92"/>
<path d="M171.1,191.7h.6V110h-.6v81.7Z" class="g0_92"/>
<path d="M246.4,110h74.9v-.6H246.4v.6Z" class="g0_92"/>
<path d="M246.1,191.7h.5V110h-.5v81.7Z" class="g0_92"/>
<path d="M321.3,110h74.9v-.6H321.3v.6Z" class="g0_92"/>
<path d="M321.1,191.7h.5V110h-.5v81.7Z" class="g0_92"/>
<path d="M396.2,110h71.9v-.6H396.2v.6Z" class="g0_92"/>
<path d="M395.9,191.7h.5V110h-.5v81.7Z" class="g0_92"/>
<path d="M467.5,191.7h.6V110h-.6v81.7Z" class="g0_92"/>
<path d="M52.1,192.3H171.4v-.6H52.1v.6Z" class="g0_92"/>
<path d="M52.1,255.4h.5V192.3h-.5v63.1Z" class="g0_92"/>
<path d="M171.4,192.3h75v-.6h-75v.6Z" class="g0_92"/>
<path d="M171.1,255.4h.6V192.3h-.6v63.1Z" class="g0_92"/>
<path d="M246.4,192.3h74.9v-.6H246.4v.6Z" class="g0_92"/>
<path d="M246.1,255.4h.5V192.3h-.5v63.1Z" class="g0_92"/>
<path d="M321.3,192.3h74.9v-.6H321.3v.6Z" class="g0_92"/>
<path d="M321.1,255.4h.5V192.3h-.5v63.1Z" class="g0_92"/>
<path d="M396.2,192.3h71.9v-.6H396.2v.6Z" class="g0_92"/>
<path d="M395.9,255.4h.5V192.3h-.5v63.1Z" class="g0_92"/>
<path d="M467.5,255.7h.6V192.3h-.6v63.4Z" class="g0_92"/>
<path d="M52.1,256H171.4v-.6H52.1v.6Z" class="g0_92"/>
<path d="M52.1,319.2h.5V256h-.5v63.2Z" class="g0_92"/>
<path d="M171.4,256h75v-.6h-75v.6Z" class="g0_92"/>
<path d="M171.1,319.2h.6V256h-.6v63.2Z" class="g0_92"/>
<path d="M246.4,256h74.9v-.6H246.4v.6Z" class="g0_92"/>
<path d="M246.1,319.2h.5V256h-.5v63.2Z" class="g0_92"/>
<path d="M321.3,256h75.1v-.6H321.3v.6Z" class="g0_92"/>
<path d="M321.1,319.2h.5V256h-.5v63.2Z" class="g0_92"/>
<path d="M395.9,319.2h.5V256h-.5v63.2Z" class="g0_92"/>
<path d="M467.5,319.4h.6V255.7h-.6v63.7Z" class="g0_92"/>
<path d="M52.1,319.7H171.4v-.5H52.1v.5Z" class="g0_92"/>
<path d="M52.1,382.9h.5V319.7h-.5v63.2Z" class="g0_92"/>
<path d="M171.4,319.7h75v-.5h-75v.5Z" class="g0_92"/>
<path d="M171.1,382.9h.6V319.7h-.6v63.2Z" class="g0_92"/>
<path d="M246.4,319.7h74.9v-.5H246.4v.5Z" class="g0_92"/>
<path d="M246.1,382.9h.5V319.7h-.5v63.2Z" class="g0_92"/>
<path d="M321.3,319.7h75.1v-.5H321.3v.5Z" class="g0_92"/>
<path d="M321.1,382.9h.5V319.7h-.5v63.2Z" class="g0_92"/>
<path d="M395.9,382.9h.5V319.7h-.5v63.2Z" class="g0_92"/>
<path d="M467.5,383.1h.6V319.4h-.6v63.7Z" class="g0_92"/>
<path d="M52.1,383.4H171.4v-.5H52.1v.5Z" class="g0_92"/>
<path d="M52.1,446.6h.5V383.4h-.5v63.2Z" class="g0_92"/>
<path d="M171.4,383.4h75v-.5h-75v.5Z" class="g0_92"/>
<path d="M171.1,446.6h.6V383.4h-.6v63.2Z" class="g0_92"/>
<path d="M246.4,383.4h74.9v-.5H246.4v.5Z" class="g0_92"/>
<path d="M246.1,446.6h.5V383.4h-.5v63.2Z" class="g0_92"/>
<path d="M321.3,383.4h75.1v-.5H321.3v.5Z" class="g0_92"/>
<path d="M321.1,446.6h.5V383.4h-.5v63.2Z" class="g0_92"/>
<path d="M395.9,446.6h.5V383.4h-.5v63.2Z" class="g0_92"/>
<path d="M467.5,446.8h.6V383.1h-.6v63.7Z" class="g0_92"/>
<path d="M52.1,447.1H171.4v-.5H52.1v.5Z" class="g0_92"/>
<path d="M52.1,510.3h.5V447.1h-.5v63.2Z" class="g0_92"/>
<path d="M171.4,447.1h75v-.5h-75v.5Z" class="g0_92"/>
<path d="M171.1,510.3h.6V447.1h-.6v63.2Z" class="g0_92"/>
<path d="M246.4,447.1h74.9v-.5H246.4v.5Z" class="g0_92"/>
<path d="M246.1,510.3h.5V447.1h-.5v63.2Z" class="g0_92"/>
<path d="M321.3,447.1h75.1v-.5H321.3v.5Z" class="g0_92"/>
<path d="M321.1,510.3h.5V447.1h-.5v63.2Z" class="g0_92"/>
<path d="M395.9,510.3h.5V447.1h-.5v63.2Z" class="g0_92"/>
<path d="M467.5,510.6h.6V446.8h-.6v63.8Z" class="g0_92"/>
<path d="M52.1,510.8H171.4v-.5H52.1v.5Z" class="g0_92"/>
<path d="M52.1,574h.5V510.8h-.5V574Z" class="g0_92"/>
<path d="M171.4,510.8h75v-.5h-75v.5Z" class="g0_92"/>
<path d="M171.1,574h.6V510.8h-.6V574Z" class="g0_92"/>
<path d="M246.4,510.8h74.9v-.5H246.4v.5Z" class="g0_92"/>
<path d="M246.1,574h.5V510.8h-.5V574Z" class="g0_92"/>
<path d="M321.3,510.8h75.1v-.5H321.3v.5Z" class="g0_92"/>
<path d="M321.1,574h.5V510.8h-.5V574Z" class="g0_92"/>
<path d="M395.9,574h.5V510.8h-.5V574Z" class="g0_92"/>
<path d="M467.5,574.3h.6V510.6h-.6v63.7Z" class="g0_92"/>
<path d="M52.1,574.5H171.4V574H52.1v.5Z" class="g0_92"/>
<path d="M52.1,637.7h.5V574.5h-.5v63.2Z" class="g0_92"/>
<path d="M171.4,574.5h75V574h-75v.5Z" class="g0_92"/>
<path d="M171.1,637.7h.6V574.5h-.6v63.2Z" class="g0_92"/>
<path d="M246.4,574.5h74.9V574H246.4v.5Z" class="g0_92"/>
<path d="M246.1,637.7h.5V574.5h-.5v63.2Z" class="g0_92"/>
<path d="M321.3,574.5h75.1V574H321.3v.5Z" class="g0_92"/>
<path d="M321.1,637.7h.5V574.5h-.5v63.2Z" class="g0_92"/>
<path d="M395.9,637.7h.5V574.5h-.5v63.2Z" class="g0_92"/>
<path d="M467.5,638h.6V574.3h-.6V638Z" class="g0_92"/>
<path d="M52.1,638.2H171.4v-.5H52.1v.5Z" class="g0_92"/>
<path d="M52.1,701.4h.5V638.2h-.5v63.2Z" class="g0_92"/>
<path d="M171.4,638.2h75v-.5h-75v.5Z" class="g0_92"/>
<path d="M171.1,701.4h.6V638.2h-.6v63.2Z" class="g0_92"/>
<path d="M246.4,638.2h74.9v-.5H246.4v.5Z" class="g0_92"/>
<path d="M246.1,701.4h.5V638.2h-.5v63.2Z" class="g0_92"/>
<path d="M321.3,638.2h75.1v-.5H321.3v.5Z" class="g0_92"/>
<path d="M321.1,701.4h.5V638.2h-.5v63.2Z" class="g0_92"/>
<path d="M395.9,701.4h.5V638.2h-.5v63.2Z" class="g0_92"/>
<path d="M467.5,701.7h.6V638h-.6v63.7Z" class="g0_92"/>
<path d="M52.1,702H171.4v-.6H52.1v.6Z" class="g0_92"/>
<path d="M52.1,765.1h.5V702h-.5v63.1Z" class="g0_92"/>
<path d="M171.4,702h75v-.6h-75v.6Z" class="g0_92"/>
<path d="M171.1,765.1h.6V702h-.6v63.1Z" class="g0_92"/>
<path d="M246.4,702h74.9v-.6H246.4v.6Z" class="g0_92"/>
<path d="M246.1,765.1h.5V702h-.5v63.1Z" class="g0_92"/>
<path d="M321.3,702h75.1v-.6H321.3v.6Z" class="g0_92"/>
<path d="M321.1,765.1h.5V702h-.5v63.1Z" class="g0_92"/>
<path d="M395.9,765.1h.5V702h-.5v63.1Z" class="g0_92"/>
<path d="M467.5,765.1h.6V701.7h-.6v63.4Z" class="g0_92"/>
<path d="M468.1,765.7H52.1v-.6h416v.6Z" class="g0_92"/>
<image clip-path="url(#c0_92)" preserveAspectRatio="none" x="187" y="111" width="44" height="34" xlink:href="img/1.jpg"/>
<image clip-path="url(#c1_92)" preserveAspectRatio="none" x="187" y="145" width="44" height="33" xlink:href="img/2.jpg"/>
<image clip-path="url(#c2_92)" preserveAspectRatio="none" x="254" y="112" width="30" height="20" xlink:href="img/3.jpg"/>
<image clip-path="url(#c3_92)" preserveAspectRatio="none" x="284" y="112" width="30" height="20" xlink:href="img/4.jpg"/>
<image clip-path="url(#c4_92)" preserveAspectRatio="none" x="254" y="145" width="30" height="20" xlink:href="img/5.jpg"/>
<image clip-path="url(#c5_92)" preserveAspectRatio="none" x="284" y="145" width="30" height="20" xlink:href="img/6.jpg"/>
<image clip-path="url(#c6_92)" preserveAspectRatio="none" x="328" y="111" width="31" height="20" xlink:href="img/7.jpg"/>
<image clip-path="url(#c7_92)" preserveAspectRatio="none" x="359" y="111" width="31" height="20" xlink:href="img/8.jpg"/>
<image clip-path="url(#c8_92)" preserveAspectRatio="none" x="327" y="145" width="32" height="21" xlink:href="img/9.jpg"/>
<image clip-path="url(#c9_92)" preserveAspectRatio="none" x="359" y="145" width="32" height="21" xlink:href="img/10.jpg"/>
<image clip-path="url(#ca_92)" preserveAspectRatio="none" x="410" y="111" width="44" height="34" xlink:href="img/11.jpg"/>
<image clip-path="url(#cb_92)" preserveAspectRatio="none" x="410" y="145" width="44" height="33" xlink:href="img/12.jpg"/>
<image clip-path="url(#cc_92)" preserveAspectRatio="none" x="178" y="193" width="62" height="61" xlink:href="img/13.jpg"/>
<image clip-path="url(#cd_92)" preserveAspectRatio="none" x="253" y="193" width="62" height="61" xlink:href="img/14.jpg"/>
<image clip-path="url(#ce_92)" preserveAspectRatio="none" x="328" y="193" width="61" height="61" xlink:href="img/15.jpg"/>
<image clip-path="url(#cf_92)" preserveAspectRatio="none" x="402" y="462" width="61" height="61" xlink:href="img/16.jpg"/>
<image clip-path="url(#cg_92)" preserveAspectRatio="none" x="178" y="257" width="62" height="61" xlink:href="img/17.jpg"/>
<image clip-path="url(#ch_92)" preserveAspectRatio="none" x="253" y="257" width="62" height="61" xlink:href="img/18.jpg"/>
<image clip-path="url(#ci_92)" preserveAspectRatio="none" x="328" y="257" width="61" height="61" xlink:href="img/19.jpg"/>
<image clip-path="url(#cj_92)" preserveAspectRatio="none" x="178" y="321" width="62" height="61" xlink:href="img/20.jpg"/>
<image clip-path="url(#ck_92)" preserveAspectRatio="none" x="253" y="321" width="62" height="61" xlink:href="img/21.jpg"/>
<image clip-path="url(#cl_92)" preserveAspectRatio="none" x="328" y="321" width="61" height="61" xlink:href="img/22.jpg"/>
<image clip-path="url(#cm_92)" preserveAspectRatio="none" x="178" y="385" width="62" height="60" xlink:href="img/23.jpg"/>
<image clip-path="url(#cn_92)" preserveAspectRatio="none" x="253" y="385" width="62" height="60" xlink:href="img/24.jpg"/>
<image clip-path="url(#co_92)" preserveAspectRatio="none" x="328" y="385" width="61" height="60" xlink:href="img/25.jpg"/>
<image clip-path="url(#cp_92)" preserveAspectRatio="none" x="178" y="448" width="62" height="61" xlink:href="img/26.jpg"/>
<image clip-path="url(#cq_92)" preserveAspectRatio="none" x="253" y="448" width="62" height="61" xlink:href="img/27.jpg"/>
<image clip-path="url(#cr_92)" preserveAspectRatio="none" x="328" y="448" width="61" height="61" xlink:href="img/28.jpg"/>
<image clip-path="url(#cs_92)" preserveAspectRatio="none" x="178" y="512" width="62" height="61" xlink:href="img/29.jpg"/>
<image clip-path="url(#ct_92)" preserveAspectRatio="none" x="253" y="512" width="62" height="61" xlink:href="img/30.jpg"/>
<image clip-path="url(#cu_92)" preserveAspectRatio="none" x="328" y="512" width="61" height="61" xlink:href="img/31.jpg"/>
<image clip-path="url(#cv_92)" preserveAspectRatio="none" x="178" y="576" width="62" height="61" xlink:href="img/32.jpg"/>
<image clip-path="url(#cw_92)" preserveAspectRatio="none" x="253" y="576" width="62" height="61" xlink:href="img/33.jpg"/>
<image clip-path="url(#cx_92)" preserveAspectRatio="none" x="328" y="576" width="61" height="61" xlink:href="img/34.jpg"/>
<image clip-path="url(#cy_92)" preserveAspectRatio="none" x="178" y="639" width="62" height="61" xlink:href="img/35.jpg"/>
<image clip-path="url(#cz_92)" preserveAspectRatio="none" x="253" y="639" width="62" height="61" xlink:href="img/36.jpg"/>
<image clip-path="url(#c10_92)" preserveAspectRatio="none" x="328" y="639" width="61" height="61" xlink:href="img/37.jpg"/>
<image clip-path="url(#c11_92)" preserveAspectRatio="none" x="178" y="703" width="62" height="61" xlink:href="img/38.jpg"/>
<image clip-path="url(#c12_92)" preserveAspectRatio="none" x="253" y="703" width="62" height="61" xlink:href="img/39.jpg"/>
<image clip-path="url(#c13_92)" preserveAspectRatio="none" x="328" y="703" width="61" height="61" xlink:href="img/40.jpg"/>
</svg>