<?xml version="1.0" encoding="UTF-8" standalone="no"?>
<!DOCTYPE svg PUBLIC "-//W3C//DTD SVG 1.1//EN"
"http://www.w3.org/Graphics/SVG/1.1/DTD/svg11.dtd">
<svg viewBox="0 0 541 866" version="1.1" xmlns="http://www.w3.org/2000/svg" xmlns:xlink="http://www.w3.org/1999/xlink">
<defs>
<clipPath id="c0_127"><path d="M144.2,215.9V83.9H418.8v132Z"/></clipPath>
<clipPath id="c1_127"><path d="M144.2,376.8V249.3H418.8V376.8Z"/></clipPath>
<clipPath id="c2_127"><path d="M154.1,617.7V592.2h50.8v25.5Z"/></clipPath>
<clipPath id="c3_127"><path d="M154.1,643V617.6h50.8V643Z"/></clipPath>
<clipPath id="c4_127"><path d="M221.7,617.7V592.2h50.7v25.5Z"/></clipPath>
<clipPath id="c5_127"><path d="M221.7,643V617.6h50.7V643Z"/></clipPath>
<clipPath id="c6_127"><path d="M289.2,617.7V592.2h50.7v25.5Z"/></clipPath>
<clipPath id="c7_127"><path d="M289.2,643V617.6h50.7V643Z"/></clipPath>
<clipPath id="c8_127"><path d="M358.1,616.7V591.3h50.7v25.4Z"/></clipPath>
<clipPath id="c9_127"><path d="M358.1,642V616.6h50.7V642Z"/></clipPath>
</defs>
<image clip-path="url(#c0_127)" preserveAspectRatio="none" x="144" y="82" width="275" height="135" xlink:href="img/1.jpg"/>
<image clip-path="url(#c1_127)" preserveAspectRatio="none" x="144" y="249" width="276" height="129" xlink:href="img/2.jpg"/>
<image clip-path="url(#c2_127)" preserveAspectRatio="none" x="154" y="592" width="52" height="26" xlink:href="img/3.jpg"/>
<image clip-path="url(#c3_127)" preserveAspectRatio="none" x="154" y="618" width="52" height="25" xlink:href="img/4.jpg"/>
<image clip-path="url(#c4_127)" preserveAspectRatio="none" x="221" y="592" width="52" height="26" xlink:href="img/5.jpg"/>
<image clip-path="url(#c5_127)" preserveAspectRatio="none" x="221" y="618" width="52" height="25" xlink:href="img/6.jpg"/>
<image clip-path="url(#c6_127)" preserveAspectRatio="none" x="289" y="592" width="52" height="26" xlink:href="img/7.jpg"/>
<image clip-path="url(#c7_127)" preserveAspectRatio="none" x="289" y="618" width="52" height="25" xlink:href="img/8.jpg"/>
<image clip-path="url(#c8_127)" preserveAspectRatio="none" x="358" y="591" width="52" height="26" xlink:href="img/9.jpg"/>
<image clip-path="url(#c9_127)" preserveAspectRatio="none" x="358" y="617" width="52" height="25" xlink:href="img/10.jpg"/>
</svg>