<?xml version="1.0" encoding="UTF-8" standalone="no"?>
<!DOCTYPE svg PUBLIC "-//W3C//DTD SVG 1.1//EN"
"http://www.w3.org/Graphics/SVG/1.1/DTD/svg11.dtd">
<svg viewBox="0 0 541 866" version="1.1" xmlns="http://www.w3.org/2000/svg" xmlns:xlink="http://www.w3.org/1999/xlink">
<defs>
<clipPath id="c0_192"><path d="M167,571.3V541.6h87.5v29.7Z"/></clipPath>
<clipPath id="c1_192"><path d="M274.9,571.3V541.6h87.6v29.7Z"/></clipPath>
<clipPath id="c2_192"><path d="M382.9,571.3V541.6h87.5v29.7Z"/></clipPath>
<clipPath id="c3_192"><path d="M396.5,622.4v-24h71.2v24Z"/></clipPath>
<clipPath id="c4_192"><path d="M91.2,174.2V137.6H127v36.6Z"/></clipPath>
<clipPath id="c5_192"><path d="M279.9,173.4V137.6h70.2v35.8Z"/></clipPath>
<clipPath id="c6_192"><path d="M132.8,173.4V137.6h70.3v35.8Z"/></clipPath>
<clipPath id="c7_192"><path d="M206.3,173.4V137.6h70.3v35.8Z"/></clipPath>
<clipPath id="c8_192"><path d="M386.7,181.7V154.3h80.9v27.4Z"/></clipPath>
<clipPath id="c9_192"><path d="M386.7,149.4V121.9h81v27.5Z"/></clipPath>
<clipPath id="ca_192"><path d="M386.8,214.1V186.6h80.9v27.5Z"/></clipPath>
<clipPath id="cb_192"><path d="M382.4,685.5V650.9h82.4v34.6Z"/></clipPath>
<clipPath id="cc_192"><path d="M382.4,720.2V685.4h82.4v34.8Z"/></clipPath>
<clipPath id="cd_192"><path d="M382.4,754.8V720.1h82.4v34.7Z"/></clipPath>
<clipPath id="ce_192"><path d="M420.8,766.4v-1h.9v1Zm-3.2,-.5c.4,0,.6,-.2,.8,-.6c.2,-.3,.2,-.7,.2,-1.1c0,-.3,0,-.7,-.2,-1.1c-.2,-.3,-.4,-.4,-.8,-.4c-.5,0,-.8,.3,-.9,.5c-.1,.2,-.2,.6,-.2,1c0,.4,.1,.8,.2,1.1c.2,.3,.4,.6,.9,.6Zm7.2,.5v-5.1h-1.2v-.5h.3c.2,0,.4,0,.7,-.3c.2,-.2,.4,-.5,.4,-.9h.7v6.8Zm4,0c0,-.4,.1,-.7,.2,-1.2c.1,-.7,.2,-1.2,.4,-1.9c.2,-.6,.4,-1.1,.7,-1.7c.3,-.4,.5,-.8,.8,-1.2h-3.1v-.8h3.9v.7c-.2,.2,-.4,.6,-.6,1c-.4,.8,-.7,1.5,-.8,2c-.2,.7,-.4,1.3,-.5,2c0,.4,-.1,.8,-.1,1.1Zm-11.7,.2c-.4,-.1,-.9,-.4,-1.2,-1.3c-.1,-.3,-.2,-.7,-.2,-1.5v-1.3c0,-.9,.2,-1.8,.6,-2.4c.4,-.5,.7,-.7,1.4,-.7c.5,0,.9,.2,1.3,.6c.2,.3,.3,.7,.3,1.1h-.7c0,-.1,-.1,-.4,-.2,-.6c-.2,-.3,-.4,-.3,-.7,-.3c-.3,0,-.6,.1,-.8,.4c-.1,.2,-.3,.7,-.4,1.9c.2,-.2,.5,-.6,1.2,-.6c.5,0,.8,.1,1.2,.6c.5,.5,.5,1.2,.5,1.7c0,.5,0,1.2,-.4,1.8c-.3,.3,-.6,.5,-1,.6Z"/></clipPath>
<style type="text/css"><![CDATA[
.g0_192{
fill: #231F20;
}
]]></style>
</defs>
<path d="M51.9,690.4h99.7v-.7H51.9v.7Z" class="g0_192"/>
<image clip-path="url(#c0_192)" preserveAspectRatio="none" x="167" y="542" width="89" height="29" xlink:href="img/1.jpg"/>
<image clip-path="url(#c1_192)" preserveAspectRatio="none" x="275" y="542" width="88" height="29" xlink:href="img/2.jpg"/>
<image clip-path="url(#c2_192)" preserveAspectRatio="none" x="383" y="542" width="88" height="29" xlink:href="img/3.jpg"/>
<image clip-path="url(#c3_192)" preserveAspectRatio="none" x="396" y="598" width="73" height="25" xlink:href="img/4.jpg"/>
<image clip-path="url(#c4_192)" preserveAspectRatio="none" x="91" y="137" width="36" height="37" xlink:href="img/5.jpg"/>
<image clip-path="url(#c5_192)" preserveAspectRatio="none" x="280" y="137" width="71" height="37" xlink:href="img/6.jpg"/>
<image clip-path="url(#c6_192)" preserveAspectRatio="none" x="133" y="137" width="71" height="37" xlink:href="img/7.jpg"/>
<image clip-path="url(#c7_192)" preserveAspectRatio="none" x="206" y="137" width="71" height="37" xlink:href="img/8.jpg"/>
<image clip-path="url(#c8_192)" preserveAspectRatio="none" x="387" y="154" width="81" height="28" xlink:href="img/9.jpg"/>
<image clip-path="url(#c9_192)" preserveAspectRatio="none" x="387" y="122" width="82" height="28" xlink:href="img/10.jpg"/>
<image clip-path="url(#ca_192)" preserveAspectRatio="none" x="387" y="187" width="81" height="27" xlink:href="img/11.jpg"/>
<image clip-path="url(#cb_192)" preserveAspectRatio="none" x="382" y="651" width="83" height="35" xlink:href="img/12.jpg"/>
<image clip-path="url(#cc_192)" preserveAspectRatio="none" x="382" y="685" width="83" height="35" xlink:href="img/13.jpg"/>
<image clip-path="url(#cd_192)" preserveAspectRatio="none" x="382" y="720" width="83" height="35" xlink:href="img/14.jpg"/>
<path clip-path="url(#ce_192)" d="M415.7,766.6h16v-7.2h-16v7.2Z" class="g0_192"/>
</svg>