<?xml version="1.0" encoding="UTF-8" standalone="no"?>
<!DOCTYPE svg PUBLIC "-//W3C//DTD SVG 1.1//EN"
"http://www.w3.org/Graphics/SVG/1.1/DTD/svg11.dtd">
<svg viewBox="0 0 541 866" version="1.1" xmlns="http://www.w3.org/2000/svg" xmlns:xlink="http://www.w3.org/1999/xlink">
<defs>
<clipPath id="c0_153"><path d="M438.4,130.8V83.9h25.5v46.9Z"/></clipPath>
<clipPath id="c1_153"><path d="M463.9,130.8V83.9h25.5v46.9Z"/></clipPath>
<clipPath id="c2_153"><path d="M438.4,197.5V150.6h25.5v46.9Z"/></clipPath>
<clipPath id="c3_153"><path d="M463.9,197.5V150.6h25.5v46.9Z"/></clipPath>
<clipPath id="c4_153"><path d="M437.8,265.2V217.7h25.8v47.5Z"/></clipPath>
<clipPath id="c5_153"><path d="M463.5,265.2V217.7h25.9v47.5Z"/></clipPath>
<clipPath id="c6_153"><path d="M437.8,338.1V290.7h25.8v47.4Z"/></clipPath>
<clipPath id="c7_153"><path d="M463.5,338.1V290.7h25.9v47.4Z"/></clipPath>
<clipPath id="c8_153"><path d="M438.3,406V359.6h25.3V406Z"/></clipPath>
<clipPath id="c9_153"><path d="M463.5,406V359.6h25.4V406Z"/></clipPath>
<clipPath id="ca_153"><path d="M438.6,473V426.6h25.3V473Z"/></clipPath>
<clipPath id="cb_153"><path d="M463.9,473V426.6h25.3V473Z"/></clipPath>
<clipPath id="cc_153"><path d="M439.2,739.6V692.8h25.6v46.8Z"/></clipPath>
<clipPath id="cd_153"><path d="M464.7,739.6V692.8h25.5v46.8Z"/></clipPath>
<clipPath id="ce_153"><path d="M144.2,659.2V534.5H418.8V659.2Z"/></clipPath>
</defs>
<image clip-path="url(#c0_153)" preserveAspectRatio="none" x="438" y="84" width="27" height="47" xlink:href="img/1.jpg"/>
<image clip-path="url(#c1_153)" preserveAspectRatio="none" x="464" y="84" width="26" height="47" xlink:href="img/2.jpg"/>
<image clip-path="url(#c2_153)" preserveAspectRatio="none" x="438" y="150" width="27" height="48" xlink:href="img/3.jpg"/>
<image clip-path="url(#c3_153)" preserveAspectRatio="none" x="464" y="150" width="26" height="48" xlink:href="img/4.jpg"/>
<image clip-path="url(#c4_153)" preserveAspectRatio="none" x="438" y="218" width="26" height="47" xlink:href="img/5.jpg"/>
<image clip-path="url(#c5_153)" preserveAspectRatio="none" x="463" y="218" width="27" height="47" xlink:href="img/6.jpg"/>
<image clip-path="url(#c6_153)" preserveAspectRatio="none" x="438" y="291" width="26" height="47" xlink:href="img/7.jpg"/>
<image clip-path="url(#c7_153)" preserveAspectRatio="none" x="463" y="291" width="27" height="47" xlink:href="img/8.jpg"/>
<image clip-path="url(#c8_153)" preserveAspectRatio="none" x="438" y="359" width="26" height="47" xlink:href="img/9.jpg"/>
<image clip-path="url(#c9_153)" preserveAspectRatio="none" x="463" y="359" width="26" height="47" xlink:href="img/10.jpg"/>
<image clip-path="url(#ca_153)" preserveAspectRatio="none" x="439" y="426" width="25" height="47" xlink:href="img/11.jpg"/>
<image clip-path="url(#cb_153)" preserveAspectRatio="none" x="464" y="426" width="26" height="47" xlink:href="img/12.jpg"/>
<image clip-path="url(#cc_153)" preserveAspectRatio="none" x="439" y="693" width="26" height="47" xlink:href="img/13.jpg"/>
<image clip-path="url(#cd_153)" preserveAspectRatio="none" x="465" y="693" width="26" height="47" xlink:href="img/14.jpg"/>
<image clip-path="url(#ce_153)" preserveAspectRatio="none" x="144" y="533" width="276" height="126" xlink:href="img/15.jpg"/>
</svg>