<?xml version="1.0" encoding="UTF-8" standalone="no"?>
<!DOCTYPE svg PUBLIC "-//W3C//DTD SVG 1.1//EN"
"http://www.w3.org/Graphics/SVG/1.1/DTD/svg11.dtd">
<svg viewBox="0 0 541 866" version="1.1" xmlns="http://www.w3.org/2000/svg" xmlns:xlink="http://www.w3.org/1999/xlink">
<defs>
<clipPath id="c0_173"><path d="M96.8,432.2v-25h50v25Z"/></clipPath>
<clipPath id="c1_173"><path d="M96.8,457.2v-25h50v25Z"/></clipPath>
<clipPath id="c2_173"><path d="M160.9,456.4V408h48.4v48.4Z"/></clipPath>
<clipPath id="c3_173"><path d="M223.5,432.2v-25h50v25Z"/></clipPath>
<clipPath id="c4_173"><path d="M223.5,457.2v-25h50v25Z"/></clipPath>
<clipPath id="c5_173"><path d="M287.6,432.2v-25h50v25Z"/></clipPath>
<clipPath id="c6_173"><path d="M287.6,457.2v-25h50v25Z"/></clipPath>
<clipPath id="c7_173"><path d="M351.7,432.2v-25h50v25Z"/></clipPath>
<clipPath id="c8_173"><path d="M351.7,457.2v-25h50v25Z"/></clipPath>
<clipPath id="c9_173"><path d="M415.8,432.2v-25h50.1v25Z"/></clipPath>
<clipPath id="ca_173"><path d="M415.8,457.2v-25h50.1v25Z"/></clipPath>
<clipPath id="cb_173"><path d="M88.5,702.7V654.3h48.4v48.4Z"/></clipPath>
<clipPath id="cc_173"><path d="M156,702.7V654.3h48.4v48.4Z"/></clipPath>
<clipPath id="cd_173"><path d="M223.5,702.7V654.3h48.4v48.4Z"/></clipPath>
<clipPath id="ce_173"><path d="M291.1,702.7V654.3h48.4v48.4Z"/></clipPath>
<clipPath id="cf_173"><path d="M358.6,702.7V654.3H407v48.4Z"/></clipPath>
<clipPath id="cg_173"><path d="M426.1,702.7V654.3h48.4v48.4Z"/></clipPath>
<clipPath id="ch_173"><path d="M441.8,292.9V244.8h48.1v48.1Z"/></clipPath>
</defs>
<image clip-path="url(#c0_173)" preserveAspectRatio="none" x="97" y="407" width="50" height="25" xlink:href="img/1.jpg"/>
<image clip-path="url(#c1_173)" preserveAspectRatio="none" x="97" y="432" width="50" height="25" xlink:href="img/2.jpg"/>
<image clip-path="url(#c2_173)" preserveAspectRatio="none" x="161" y="408" width="49" height="49" xlink:href="img/3.jpg"/>
<image clip-path="url(#c3_173)" preserveAspectRatio="none" x="223" y="407" width="51" height="25" xlink:href="img/4.jpg"/>
<image clip-path="url(#c4_173)" preserveAspectRatio="none" x="223" y="432" width="51" height="25" xlink:href="img/5.jpg"/>
<image clip-path="url(#c5_173)" preserveAspectRatio="none" x="287" y="407" width="51" height="25" xlink:href="img/6.jpg"/>
<image clip-path="url(#c6_173)" preserveAspectRatio="none" x="287" y="432" width="51" height="25" xlink:href="img/7.jpg"/>
<image clip-path="url(#c7_173)" preserveAspectRatio="none" x="352" y="407" width="50" height="25" xlink:href="img/8.jpg"/>
<image clip-path="url(#c8_173)" preserveAspectRatio="none" x="352" y="432" width="50" height="25" xlink:href="img/9.jpg"/>
<image clip-path="url(#c9_173)" preserveAspectRatio="none" x="416" y="407" width="50" height="25" xlink:href="img/10.jpg"/>
<image clip-path="url(#ca_173)" preserveAspectRatio="none" x="416" y="432" width="50" height="25" xlink:href="img/11.jpg"/>
<image clip-path="url(#cb_173)" preserveAspectRatio="none" x="88" y="654" width="49" height="49" xlink:href="img/12.jpg"/>
<image clip-path="url(#cc_173)" preserveAspectRatio="none" x="156" y="654" width="49" height="49" xlink:href="img/13.jpg"/>
<image clip-path="url(#cd_173)" preserveAspectRatio="none" x="223" y="654" width="49" height="49" xlink:href="img/14.jpg"/>
<image clip-path="url(#ce_173)" preserveAspectRatio="none" x="291" y="654" width="49" height="49" xlink:href="img/15.jpg"/>
<image clip-path="url(#cf_173)" preserveAspectRatio="none" x="358" y="654" width="50" height="49" xlink:href="img/16.jpg"/>
<image clip-path="url(#cg_173)" preserveAspectRatio="none" x="426" y="654" width="49" height="49" xlink:href="img/17.jpg"/>
<image clip-path="url(#ch_173)" preserveAspectRatio="none" x="442" y="245" width="48" height="48" xlink:href="img/18.jpg"/>
</svg>