<?xml version="1.0" encoding="UTF-8" standalone="no"?>
<!DOCTYPE svg PUBLIC "-//W3C//DTD SVG 1.1//EN"
"http://www.w3.org/Graphics/SVG/1.1/DTD/svg11.dtd">
<svg viewBox="0 0 541 866" version="1.1" xmlns="http://www.w3.org/2000/svg" xmlns:xlink="http://www.w3.org/1999/xlink">
<defs>
<clipPath id="c0_176"><path d="M416.8,312.9V287.4h50.8v25.5Z"/></clipPath>
<clipPath id="c1_176"><path d="M416.8,338.2V312.8h50.8v25.4Z"/></clipPath>
<clipPath id="c2_176"><path d="M416.9,381.3V355.9h50.8v25.4Z"/></clipPath>
<clipPath id="c3_176"><path d="M416.9,406.7V381.2h50.8v25.5Z"/></clipPath>
<clipPath id="c4_176"><path d="M416.9,449.7V424.3h50.8v25.4Z"/></clipPath>
<clipPath id="c5_176"><path d="M416.9,475.1V449.6h50.8v25.5Z"/></clipPath>
<clipPath id="c6_176"><path d="M416.9,518.1V492.7h50.8v25.4Z"/></clipPath>
<clipPath id="c7_176"><path d="M416.9,543.5V518.1h50.8v25.4Z"/></clipPath>
<clipPath id="c8_176"><path d="M361.8,655.3V629.7h51v25.6Z"/></clipPath>
<clipPath id="c9_176"><path d="M361.8,680.7V655.2h51v25.5Z"/></clipPath>
<clipPath id="ca_176"><path d="M416.8,655.2V629.7h50.8v25.5Z"/></clipPath>
<clipPath id="cb_176"><path d="M416.8,680.5V655.1h50.8v25.4Z"/></clipPath>
<clipPath id="cc_176"><path d="M363.8,725.6V700.1h51v25.5Z"/></clipPath>
<clipPath id="cd_176"><path d="M363.8,751.1V725.6h51v25.5Z"/></clipPath>
<clipPath id="ce_176"><path d="M417.2,725.3V699.8h51v25.5Z"/></clipPath>
<clipPath id="cf_176"><path d="M417.2,750.8V725.2h51v25.6Z"/></clipPath>
</defs>
<image clip-path="url(#c0_176)" preserveAspectRatio="none" x="417" y="287" width="51" height="26" xlink:href="img/1.jpg"/>
<image clip-path="url(#c1_176)" preserveAspectRatio="none" x="417" y="313" width="51" height="25" xlink:href="img/2.jpg"/>
<image clip-path="url(#c2_176)" preserveAspectRatio="none" x="417" y="356" width="51" height="25" xlink:href="img/3.jpg"/>
<image clip-path="url(#c3_176)" preserveAspectRatio="none" x="417" y="381" width="51" height="26" xlink:href="img/4.jpg"/>
<image clip-path="url(#c4_176)" preserveAspectRatio="none" x="417" y="424" width="51" height="26" xlink:href="img/5.jpg"/>
<image clip-path="url(#c5_176)" preserveAspectRatio="none" x="417" y="450" width="51" height="25" xlink:href="img/6.jpg"/>
<image clip-path="url(#c6_176)" preserveAspectRatio="none" x="417" y="493" width="51" height="25" xlink:href="img/7.jpg"/>
<image clip-path="url(#c7_176)" preserveAspectRatio="none" x="417" y="518" width="51" height="26" xlink:href="img/8.jpg"/>
<image clip-path="url(#c8_176)" preserveAspectRatio="none" x="362" y="630" width="51" height="25" xlink:href="img/9.jpg"/>
<image clip-path="url(#c9_176)" preserveAspectRatio="none" x="362" y="655" width="51" height="26" xlink:href="img/10.jpg"/>
<image clip-path="url(#ca_176)" preserveAspectRatio="none" x="417" y="630" width="51" height="25" xlink:href="img/11.jpg"/>
<image clip-path="url(#cb_176)" preserveAspectRatio="none" x="417" y="655" width="51" height="26" xlink:href="img/12.jpg"/>
<image clip-path="url(#cc_176)" preserveAspectRatio="none" x="364" y="700" width="51" height="26" xlink:href="img/13.jpg"/>
<image clip-path="url(#cd_176)" preserveAspectRatio="none" x="364" y="726" width="51" height="25" xlink:href="img/14.jpg"/>
<image clip-path="url(#ce_176)" preserveAspectRatio="none" x="417" y="700" width="52" height="25" xlink:href="img/15.jpg"/>
<image clip-path="url(#cf_176)" preserveAspectRatio="none" x="417" y="725" width="52" height="26" xlink:href="img/16.jpg"/>
</svg>