<?xml version="1.0" encoding="UTF-8" standalone="no"?>
<!DOCTYPE svg PUBLIC "-//W3C//DTD SVG 1.1//EN"
"http://www.w3.org/Graphics/SVG/1.1/DTD/svg11.dtd">
<svg viewBox="0 0 541 866" version="1.1" xmlns="http://www.w3.org/2000/svg" xmlns:xlink="http://www.w3.org/1999/xlink">
<defs>
<clipPath id="c0_175"><path d="M90.6,340.9V314.7h52.2v26.2Z"/></clipPath>
<clipPath id="c1_175"><path d="M90.6,367V340.8h52.2V367Z"/></clipPath>
<clipPath id="c2_175"><path d="M159.3,340.9V314.7h52.3v26.2Z"/></clipPath>
<clipPath id="c3_175"><path d="M159.3,367V340.8h52.3V367Z"/></clipPath>
<clipPath id="c4_175"><path d="M228.1,340.9V314.7h52.3v26.2Z"/></clipPath>
<clipPath id="c5_175"><path d="M228.1,367V340.8h52.3V367Z"/></clipPath>
<clipPath id="c6_175"><path d="M298.3,340.9V314.7h52.3v26.2Z"/></clipPath>
<clipPath id="c7_175"><path d="M298.3,367V340.8h52.3V367Z"/></clipPath>
<clipPath id="c8_175"><path d="M367.1,340.9V314.7h52.3v26.2Z"/></clipPath>
<clipPath id="c9_175"><path d="M367.1,367V340.8h52.3V367Z"/></clipPath>
<clipPath id="ca_175"><path d="M435.9,340.9V314.7h52.2v26.2Z"/></clipPath>
<clipPath id="cb_175"><path d="M435.9,367V340.8h52.2V367Z"/></clipPath>
<clipPath id="cc_175"><path d="M144.2,510.1v-118H418.8v118Z"/></clipPath>
<clipPath id="cd_175"><path d="M144.2,671.8V538.7H327.5V671.8Z"/></clipPath>
<clipPath id="ce_175"><path d="M327.2,671.8V538.7h91.6V671.8Z"/></clipPath>
</defs>
<image clip-path="url(#c0_175)" preserveAspectRatio="none" x="90" y="315" width="53" height="26" xlink:href="img/1.jpg"/>
<image clip-path="url(#c1_175)" preserveAspectRatio="none" x="90" y="341" width="53" height="26" xlink:href="img/2.jpg"/>
<image clip-path="url(#c2_175)" preserveAspectRatio="none" x="159" y="315" width="53" height="26" xlink:href="img/3.jpg"/>
<image clip-path="url(#c3_175)" preserveAspectRatio="none" x="159" y="341" width="53" height="26" xlink:href="img/4.jpg"/>
<image clip-path="url(#c4_175)" preserveAspectRatio="none" x="228" y="315" width="53" height="26" xlink:href="img/5.jpg"/>
<image clip-path="url(#c5_175)" preserveAspectRatio="none" x="228" y="341" width="53" height="26" xlink:href="img/6.jpg"/>
<image clip-path="url(#c6_175)" preserveAspectRatio="none" x="298" y="315" width="53" height="26" xlink:href="img/7.jpg"/>
<image clip-path="url(#c7_175)" preserveAspectRatio="none" x="298" y="341" width="53" height="26" xlink:href="img/8.jpg"/>
<image clip-path="url(#c8_175)" preserveAspectRatio="none" x="367" y="315" width="53" height="26" xlink:href="img/9.jpg"/>
<image clip-path="url(#c9_175)" preserveAspectRatio="none" x="367" y="341" width="53" height="26" xlink:href="img/10.jpg"/>
<image clip-path="url(#ca_175)" preserveAspectRatio="none" x="436" y="315" width="52" height="26" xlink:href="img/11.jpg"/>
<image clip-path="url(#cb_175)" preserveAspectRatio="none" x="436" y="341" width="52" height="26" xlink:href="img/12.jpg"/>
<image clip-path="url(#cc_175)" preserveAspectRatio="none" x="144" y="391" width="275" height="121" xlink:href="img/13.jpg"/>
<image clip-path="url(#cd_175)" preserveAspectRatio="none" x="144" y="538" width="184" height="134" xlink:href="img/14.jpg"/>
<image clip-path="url(#ce_175)" preserveAspectRatio="none" x="327" y="538" width="93" height="134" xlink:href="img/15.jpg"/>
</svg>