<?xml version="1.0" encoding="UTF-8" standalone="no"?>
<!DOCTYPE svg PUBLIC "-//W3C//DTD SVG 1.1//EN"
"http://www.w3.org/Graphics/SVG/1.1/DTD/svg11.dtd">
<svg viewBox="0 0 541 866" version="1.1" xmlns="http://www.w3.org/2000/svg" xmlns:xlink="http://www.w3.org/1999/xlink">
<defs>
<clipPath id="c0_101"><path d="M437.3,413.4V373.8h52.1v39.6Z"/></clipPath>
<clipPath id="c1_101"><path d="M437.3,452.9V413.3h52.1v39.6Z"/></clipPath>
<clipPath id="c2_101"><path d="M374.5,413.4V373.8h52.1v39.6Z"/></clipPath>
<clipPath id="c3_101"><path d="M374.5,452.9V413.3h52.1v39.6Z"/></clipPath>
<clipPath id="c4_101"><path d="M311.7,413.4V373.8h52.2v39.6Z"/></clipPath>
<clipPath id="c5_101"><path d="M311.7,452.9V413.3h52.2v39.6Z"/></clipPath>
<clipPath id="c6_101"><path d="M144.2,747.1V597H418.8V747.1Z"/></clipPath>
</defs>
<image clip-path="url(#c0_101)" preserveAspectRatio="none" x="437" y="374" width="53" height="40" xlink:href="img/1.jpg"/>
<image clip-path="url(#c1_101)" preserveAspectRatio="none" x="437" y="413" width="53" height="40" xlink:href="img/2.jpg"/>
<image clip-path="url(#c2_101)" preserveAspectRatio="none" x="374" y="374" width="53" height="40" xlink:href="img/3.jpg"/>
<image clip-path="url(#c3_101)" preserveAspectRatio="none" x="374" y="413" width="53" height="40" xlink:href="img/4.jpg"/>
<image clip-path="url(#c4_101)" preserveAspectRatio="none" x="312" y="374" width="52" height="40" xlink:href="img/5.jpg"/>
<image clip-path="url(#c5_101)" preserveAspectRatio="none" x="312" y="413" width="52" height="40" xlink:href="img/6.jpg"/>
<image clip-path="url(#c6_101)" preserveAspectRatio="none" x="144" y="597" width="276" height="150" xlink:href="img/7.jpg"/>
</svg>