<?xml version="1.0" encoding="UTF-8" standalone="no"?>
<!DOCTYPE svg PUBLIC "-//W3C//DTD SVG 1.1//EN"
"http://www.w3.org/Graphics/SVG/1.1/DTD/svg11.dtd">
<svg viewBox="0 0 541 866" version="1.1" xmlns="http://www.w3.org/2000/svg" xmlns:xlink="http://www.w3.org/1999/xlink">
<defs>
<clipPath id="c0_151"><path d="M438.4,131.3V84.6h25.5v46.7Z"/></clipPath>
<clipPath id="c1_151"><path d="M463.9,131.3V84.6h25.5v46.7Z"/></clipPath>
<clipPath id="c2_151"><path d="M438.4,201.6V154.9h25.5v46.7Z"/></clipPath>
<clipPath id="c3_151"><path d="M463.9,201.6V154.9h25.5v46.7Z"/></clipPath>
<clipPath id="c4_151"><path d="M438.4,258.7V224.5H464v34.2Z"/></clipPath>
<clipPath id="c5_151"><path d="M463.9,258.7V224.5h25.5v34.2Z"/></clipPath>
<clipPath id="c6_151"><path d="M438.4,313V285.4h51V313Z"/></clipPath>
<clipPath id="c7_151"><path d="M438.4,340.5V312.9h51v27.6Z"/></clipPath>
<clipPath id="c8_151"><path d="M175,563.3V515.8h23v47.5Z"/></clipPath>
<clipPath id="c9_151"><path d="M213.5,563.3V515.8h23v47.5Z"/></clipPath>
<clipPath id="ca_151"><path d="M252,563.3V515.8h23v47.5Z"/></clipPath>
<clipPath id="cb_151"><path d="M288,564.1V516.6h23v47.5Z"/></clipPath>
<clipPath id="cc_151"><path d="M326.5,564.1V516.6h23v47.5Z"/></clipPath>
<clipPath id="cd_151"><path d="M365,564.1V516.6h23v47.5Z"/></clipPath>
<clipPath id="ce_151"><path d="M438.4,721.9V675.1h25.5v46.8Z"/></clipPath>
<clipPath id="cf_151"><path d="M463.9,721.9V675.1h25.5v46.8Z"/></clipPath>
</defs>
<image clip-path="url(#c0_151)" preserveAspectRatio="none" x="438" y="84" width="27" height="47" xlink:href="img/1.jpg"/>
<image clip-path="url(#c1_151)" preserveAspectRatio="none" x="464" y="84" width="26" height="47" xlink:href="img/2.jpg"/>
<image clip-path="url(#c2_151)" preserveAspectRatio="none" x="438" y="155" width="27" height="47" xlink:href="img/3.jpg"/>
<image clip-path="url(#c3_151)" preserveAspectRatio="none" x="464" y="155" width="26" height="47" xlink:href="img/4.jpg"/>
<image clip-path="url(#c4_151)" preserveAspectRatio="none" x="438" y="224" width="27" height="35" xlink:href="img/5.jpg"/>
<image clip-path="url(#c5_151)" preserveAspectRatio="none" x="464" y="224" width="26" height="35" xlink:href="img/6.jpg"/>
<image clip-path="url(#c6_151)" preserveAspectRatio="none" x="438" y="285" width="52" height="28" xlink:href="img/7.jpg"/>
<image clip-path="url(#c7_151)" preserveAspectRatio="none" x="438" y="313" width="52" height="28" xlink:href="img/8.jpg"/>
<image clip-path="url(#c8_151)" preserveAspectRatio="none" x="175" y="516" width="24" height="47" xlink:href="img/9.jpg"/>
<image clip-path="url(#c9_151)" preserveAspectRatio="none" x="213" y="516" width="24" height="47" xlink:href="img/10.jpg"/>
<image clip-path="url(#ca_151)" preserveAspectRatio="none" x="252" y="516" width="24" height="47" xlink:href="img/11.jpg"/>
<image clip-path="url(#cb_151)" preserveAspectRatio="none" x="288" y="516" width="24" height="48" xlink:href="img/12.jpg"/>
<image clip-path="url(#cc_151)" preserveAspectRatio="none" x="326" y="516" width="24" height="48" xlink:href="img/13.jpg"/>
<image clip-path="url(#cd_151)" preserveAspectRatio="none" x="365" y="516" width="23" height="48" xlink:href="img/14.jpg"/>
<image clip-path="url(#ce_151)" preserveAspectRatio="none" x="438" y="675" width="27" height="47" xlink:href="img/15.jpg"/>
<image clip-path="url(#cf_151)" preserveAspectRatio="none" x="464" y="675" width="26" height="47" xlink:href="img/16.jpg"/>
</svg>