<?xml version="1.0" encoding="UTF-8" standalone="no"?>
<!DOCTYPE svg PUBLIC "-//W3C//DTD SVG 1.1//EN"
"http://www.w3.org/Graphics/SVG/1.1/DTD/svg11.dtd">
<svg viewBox="0 0 541 866" version="1.1" xmlns="http://www.w3.org/2000/svg" xmlns:xlink="http://www.w3.org/1999/xlink">
<defs>
<style type="text/css"><![CDATA[
.g0_265{
fill: #0066B3;
}
.g1_265{
fill: #00000C;
}
.g2_265{
fill: #231F20;
}
]]></style>
</defs>
<path d="M50.4,80.4H305.8v43.7H50.4V80.4m255.4,0h42.4v43.7H305.8V80.4m42.4,0H511v43.7H348.2V80.4Z" class="g0_265"/>
<path d="M306.2,123.8h-.4V80.7h.4v43.1m-.4,0h-.3V80.7h.3v43.1Z" class="g1_265"/>
<path d="M50.1,80.7V80H305.8v.7v-.3H50.4v.3h-.3Z" class="g2_265"/>
<path d="M305.5,80.7H50.4v-.3H305.8v.3h-.3m.3,0v-.3v.3Z" class="g1_265"/>
<path d="M305.8,80.7v0h-.3h.3Z" class="g1_265"/>
<path d="M50.4,123.8h-.3V80.7h.3v43.1Z" class="g2_265"/>
<path d="M50.7,123.8h-.3V80.7h.3v43.1Z" class="g1_265"/>
<path d="M50.4,80.7h-.3h.3Z" class="g2_265"/>
<path d="M50.4,80.7h.3h-.3Z" class="g1_265"/>
<path d="M511.4,80.7v0H511v-.3H348.2v.3v-.3H305.8V80H511.4v.7Z" class="g2_265"/>
<path d="M510.7,80.7H348.2v-.3H511v.3h-.3m-162.9,0h-42v-.3h42.4v.3h-.4Z" class="g1_265"/>
<path d="M305.8,80.7h.4h-.4Z" class="g1_265"/>
<path d="M348.2,123.8V80.7Z" class="g2_265"/>
<path d="M348.5,123.8h-.3V80.7h.3v43.1m-.3,0h-.4V80.7h.4v43.1Z" class="g1_265"/>
<path d="M348.2,80.7v0Z" class="g2_265"/>
<path d="M348.5,80.7h-.3h.3m-.3,0h-.4h.4Z" class="g1_265"/>
<path d="M511.4,123.8H511V80.7h.4v43.1Z" class="g2_265"/>
<path d="M511,123.8h-.3V80.7h.3v43.1Z" class="g1_265"/>
<path d="M511.4,80.7H511h.4Z" class="g2_265"/>
<path d="M510.7,80.7h.3h-.3Z" class="g1_265"/>
<path d="M511.4,124.5v0H50.1v-.7h.3v.3H305.8v-.3v.3h42.4v-.3v.3H511v-.3h.4v.7Z" class="g2_265"/>
<path d="M511,124.1H348.2v-.3H511v.3m-162.8,0H305.8v-.3h42.4v.3m-42.4,0H50.4v-.3H305.8v.3Z" class="g1_265"/>
<path d="M306.2,123.8h-.4h.4m-.4,0h-.3h.3Z" class="g1_265"/>
<path d="M50.4,123.8h-.3h.3Z" class="g2_265"/>
<path d="M50.4,123.8h.3h-.3Z" class="g1_265"/>
<path d="M348.2,123.8v0Z" class="g2_265"/>
<path d="M348.5,123.8h-.3h.3m-.3,0h-.4h.4Z" class="g1_265"/>
<path d="M511.4,123.8H511h.4Z" class="g2_265"/>
<path d="M511,123.8h-.3h.3Z" class="g1_265"/>
<path d="M50.7,196.8h-.6V124.5h.6v72.3Z" class="g2_265"/>
<path d="M50.7,124.5h-.6h.6Z" class="g2_265"/>
<path d="M511.4,196.8h-.7V124.5h.7v72.3Z" class="g2_265"/>
<path d="M511.4,124.5h-.7h.7Z" class="g2_265"/>
<path d="M347.8,270.5h-42v-.7h42.4v.7h-.4Z" class="g2_265"/>
<path d="M306.2,315.1h-.7V270.5h.7v44.6Z" class="g2_265"/>
<path d="M305.8,270.5h.4h-.4Z" class="g2_265"/>
<path d="M511.4,270.5H348.2v-.7H511.4v.7Z" class="g2_265"/>
<path d="M306.2,388.1h-.7V315.8h.7v72.3Z" class="g2_265"/>
<path d="M305.5,447.3h.7V388.8h-.7v58.5Z" class="g2_265"/>
<path d="M306.2,478.8h-.7V448h.7v30.8Z" class="g2_265"/>
<path d="M306.2,524.1h-.7V479.5h.7v44.6Z" class="g2_265"/>
<path d="M305.5,609.4h.7V524.8h-.7v84.6Z" class="g2_265"/>
<path d="M306.2,667h-.7V610.1h.7V667Z" class="g2_265"/>
<path d="M306.2,724.6h-.7v-57h.7v57Z" class="g2_265"/>
<path d="M305.8,197.5H50.1v-.7H305.8v.7Z" class="g2_265"/>
<path d="M50.7,196.8h-.6h.6Z" class="g2_265"/>
<path d="M50.1,269.8h.6V197.5h-.6v72.3Z" class="g2_265"/>
<path d="M511.4,197.5H305.8v-.7H511.4v.7Z" class="g2_265"/>
<path d="M511.4,196.8h-.7h.7Z" class="g2_265"/>
<path d="M510.7,269.8h.7V197.5h-.7v72.3Z" class="g2_265"/>
<path d="M50.1,315.1h.6V270.5h-.6v44.6Z" class="g2_265"/>
<path d="M511.4,315.1h-.7V270.5h.7v44.6Z" class="g2_265"/>
<path d="M511.4,270.5h-.7h.7Z" class="g2_265"/>
<path d="M50.7,388.1h-.6V315.8h.6v72.3Z" class="g2_265"/>
<path d="M511.4,388.1h-.7V315.8h.7v72.3Z" class="g2_265"/>
<path d="M50.1,447.3h.6V388.8h-.6v58.5Z" class="g2_265"/>
<path d="M510.7,447.3h.7V388.8h-.7v58.5Z" class="g2_265"/>
<path d="M50.1,478.8h.6V448h-.6v30.8Z" class="g2_265"/>
<path d="M511.4,478.8h-.7V448h.7v30.8Z" class="g2_265"/>
<path d="M50.7,524.1h-.6V479.5h.6v44.6Z" class="g2_265"/>
<path d="M511.4,524.1h-.7V479.5h.7v44.6Z" class="g2_265"/>
<path d="M50.1,609.4h.6V524.8h-.6v84.6Z" class="g2_265"/>
<path d="M510.7,609.4h.7V524.8h-.7v84.6Z" class="g2_265"/>
<path d="M50.7,667h-.6V610.1h.6V667Z" class="g2_265"/>
<path d="M511.4,667h-.7V610.1h.7V667Z" class="g2_265"/>
<path d="M50.7,724.6h-.6v-57h.6v57Z" class="g2_265"/>
<path d="M511.4,724.6h-.7v-57h.7v57Z" class="g2_265"/>
<path d="M305.8,196.8v0h-.3V124.5h.7v72.3h-.4Z" class="g2_265"/>
<path d="M306.2,124.5h-.7h.7Z" class="g2_265"/>
<path d="M305.8,196.8h-.3h.3Z" class="g2_265"/>
<path d="M305.8,196.8h.4h-.4Z" class="g2_265"/>
<path d="M348.5,196.8h-.7V124.5h.7v72.3Z" class="g2_265"/>
<path d="M348.5,124.5h-.7h.7Z" class="g2_265"/>
<path d="M348.5,196.8h-.7h.7Z" class="g2_265"/>
<path d="M305.5,269.8h.7V197.5h-.7v72.3Z" class="g2_265"/>
<path d="M347.8,269.8h.7V197.5h-.7v72.3Z" class="g2_265"/>
<path d="M305.5,270.5H50.1v-.7H305.8v.7h-.3Z" class="g2_265"/>
<path d="M305.5,270.5h.3h-.3Z" class="g2_265"/>
<path d="M50.7,270.5h-.6h.6Z" class="g2_265"/>
<path d="M348.5,315.1h-.7V270.5h.7v44.6Z" class="g2_265"/>
<path d="M347.8,270.5h.7h-.7Z" class="g2_265"/>
<path d="M511.4,315.8v0c-153.8,0,-307.6,0,-461.3,0v-.7H511.4v.7Z" class="g2_265"/>
<path d="M306.2,315.8h-.7h.7Z" class="g2_265"/>
<path d="M50.7,315.8h-.6h.6Z" class="g2_265"/>
<path d="M511.4,315.8h-.7h.7Z" class="g2_265"/>
<path d="M348.5,388.1h-.7V315.8h.7v72.3Z" class="g2_265"/>
<path d="M348.5,315.8h-.7h.7Z" class="g2_265"/>
<path d="M511.4,388.8H50.1v-.7H511.4v.7Z" class="g2_265"/>
<path d="M306.2,388.1h-.7h.7Z" class="g2_265"/>
<path d="M50.7,388.1h-.6h.6Z" class="g2_265"/>
<path d="M511.4,388.1h-.7h.7Z" class="g2_265"/>
<path d="M348.5,388.1h-.7h.7Z" class="g2_265"/>
<path d="M347.8,447.3h.7V388.8h-.7v58.5Z" class="g2_265"/>
<path d="M511.4,448v0c-153.8,0,-307.6,0,-461.3,0v-.7H511.4v.7Z" class="g2_265"/>
<path d="M306.2,448h-.7h.7Z" class="g2_265"/>
<path d="M50.7,448h-.6h.6Z" class="g2_265"/>
<path d="M511.4,448h-.7h.7Z" class="g2_265"/>
<path d="M348.5,478.8h-.7V448h.7v30.8Z" class="g2_265"/>
<path d="M348.5,448h-.7h.7Z" class="g2_265"/>
<path d="M511.4,479.5v0c-153.8,0,-307.6,0,-461.3,0v-.7H511.4v.7Z" class="g2_265"/>
<path d="M306.2,479.5h-.7h.7Z" class="g2_265"/>
<path d="M50.7,479.5h-.6h.6Z" class="g2_265"/>
<path d="M511.4,479.5h-.7h.7Z" class="g2_265"/>
<path d="M348.5,524.1h-.7V479.5h.7v44.6Z" class="g2_265"/>
<path d="M348.5,479.5h-.7h.7Z" class="g2_265"/>
<path d="M511.4,524.8H50.1v-.7H511.4v.7Z" class="g2_265"/>
<path d="M306.2,524.1h-.7h.7Z" class="g2_265"/>
<path d="M50.7,524.1h-.6h.6Z" class="g2_265"/>
<path d="M511.4,524.1h-.7h.7Z" class="g2_265"/>
<path d="M348.5,524.1h-.7h.7Z" class="g2_265"/>
<path d="M347.8,609.4h.7V524.8h-.7v84.6Z" class="g2_265"/>
<path d="M511.4,610.1v0c-153.8,0,-307.6,0,-461.3,0v-.7H511.4v.7Z" class="g2_265"/>
<path d="M306.2,610.1h-.7h.7Z" class="g2_265"/>
<path d="M50.7,610.1h-.6h.6Z" class="g2_265"/>
<path d="M511.4,610.1h-.7h.7Z" class="g2_265"/>
<path d="M348.5,667h-.7V610.1h.7V667Z" class="g2_265"/>
<path d="M348.5,610.1h-.7h.7Z" class="g2_265"/>
<path d="M511.4,667.6H50.1V667H511.4v.6Z" class="g2_265"/>
<path d="M306.2,667h-.7h.7Z" class="g2_265"/>
<path d="M50.7,667h-.6h.6Z" class="g2_265"/>
<path d="M511.4,667h-.7h.7Z" class="g2_265"/>
<path d="M348.5,667h-.7h.7Z" class="g2_265"/>
<path d="M348.5,724.6h-.7v-57h.7v57Z" class="g2_265"/>
<path d="M511.4,725.2H50.1v-.6H511.4v.6Z" class="g2_265"/>
<path d="M306.2,724.6h-.7h.7Z" class="g2_265"/>
<path d="M50.7,724.6h-.6h.6Z" class="g2_265"/>
<path d="M511.4,724.6h-.7h.7Z" class="g2_265"/>
<path d="M348.5,724.6h-.7h.7Z" class="g2_265"/>
</svg>