<?xml version="1.0" encoding="UTF-8" standalone="no"?>
<!DOCTYPE svg PUBLIC "-//W3C//DTD SVG 1.1//EN"
"http://www.w3.org/Graphics/SVG/1.1/DTD/svg11.dtd">
<svg viewBox="0 0 541 866" version="1.1" xmlns="http://www.w3.org/2000/svg" xmlns:xlink="http://www.w3.org/1999/xlink">
<defs>
<clipPath id="c0_155"><path d="M437.5,752V705.2h25.6V752Z"/></clipPath>
<clipPath id="c1_155"><path d="M463,752V705.2h25.5V752Z"/></clipPath>
<clipPath id="c2_155"><path d="M437.5,286.4V239.6h25.6v46.8Z"/></clipPath>
<clipPath id="c3_155"><path d="M463,286.4V239.6h25.5v46.8Z"/></clipPath>
<clipPath id="c4_155"><path d="M437.5,534.1V486h26.3v48.1Z"/></clipPath>
<clipPath id="c5_155"><path d="M463.7,534.1V486H490v48.1Z"/></clipPath>
<clipPath id="c6_155"><path d="M437.5,604.7V556.5h26.3v48.2Z"/></clipPath>
<clipPath id="c7_155"><path d="M463.7,604.7V556.5H490v48.2Z"/></clipPath>
<clipPath id="c8_155"><path d="M437.5,675.2V627.1h26.3v48.1Z"/></clipPath>
<clipPath id="c9_155"><path d="M463.7,675.2V627.1H490v48.1Z"/></clipPath>
<clipPath id="ca_155"><path d="M144.2,507.6V379.2H418.8V507.6Z"/></clipPath>
<clipPath id="cb_155"><path d="M144.2,211.4V83.9H418.8V211.4Z"/></clipPath>
</defs>
<image clip-path="url(#c0_155)" preserveAspectRatio="none" x="437" y="705" width="27" height="47" xlink:href="img/1.jpg"/>
<image clip-path="url(#c1_155)" preserveAspectRatio="none" x="463" y="705" width="26" height="47" xlink:href="img/2.jpg"/>
<image clip-path="url(#c2_155)" preserveAspectRatio="none" x="437" y="239" width="27" height="48" xlink:href="img/3.jpg"/>
<image clip-path="url(#c3_155)" preserveAspectRatio="none" x="463" y="239" width="26" height="48" xlink:href="img/4.jpg"/>
<image clip-path="url(#c4_155)" preserveAspectRatio="none" x="437" y="486" width="27" height="48" xlink:href="img/5.jpg"/>
<image clip-path="url(#c5_155)" preserveAspectRatio="none" x="464" y="486" width="27" height="48" xlink:href="img/6.jpg"/>
<image clip-path="url(#c6_155)" preserveAspectRatio="none" x="437" y="556" width="27" height="49" xlink:href="img/7.jpg"/>
<image clip-path="url(#c7_155)" preserveAspectRatio="none" x="464" y="556" width="27" height="49" xlink:href="img/8.jpg"/>
<image clip-path="url(#c8_155)" preserveAspectRatio="none" x="437" y="627" width="27" height="48" xlink:href="img/9.jpg"/>
<image clip-path="url(#c9_155)" preserveAspectRatio="none" x="464" y="627" width="27" height="48" xlink:href="img/10.jpg"/>
<image clip-path="url(#ca_155)" preserveAspectRatio="none" x="144" y="379" width="275" height="129" xlink:href="img/11.jpg"/>
<image clip-path="url(#cb_155)" preserveAspectRatio="none" x="144" y="84" width="275" height="127" xlink:href="img/12.jpg"/>
</svg>