<?xml version="1.0" encoding="UTF-8" standalone="no"?>
<!DOCTYPE svg PUBLIC "-//W3C//DTD SVG 1.1//EN"
"http://www.w3.org/Graphics/SVG/1.1/DTD/svg11.dtd">
<svg viewBox="0 0 541 866" version="1.1" xmlns="http://www.w3.org/2000/svg" xmlns:xlink="http://www.w3.org/1999/xlink">
<defs>
<clipPath id="c0_62"><path d="M354,102.9v-19H467.7v19Z"/></clipPath>
<clipPath id="c1_62"><path d="M365.5,465.4V396.9H467.7v68.5Z"/></clipPath>
<style type="text/css"><![CDATA[
.g0_62{
fill: #25408E;
}
.g1_62{
fill: #FEE7DC;
}
.g2_62{
fill: #E3F2E7;
}
.g3_62{
fill: #231F20;
}
.g4_62{
}
.g5_62{
fill: #221815;
}
.g6_62{
fill: #191C1B;
}
.g7_62{
fill: none;
stroke: #FFFFFF;
stroke-width: 0.433;
stroke-linecap: butt;
stroke-linejoin: miter;
}
]]></style>
</defs>
<image clip-path="url(#c0_62)" preserveAspectRatio="none" x="354" y="84" width="114" height="20" xlink:href="img/1.jpg"/>
<path d="M52.2,521h39v29.6h-39V521m39,0h44.3v29.6H91.2V521m44.3,0h44.3v29.6H135.5V521m44.3,0h65v29.6h-65V521Z" class="g0_62"/>
<path d="M91.2,550.6H244.8v26.3H91.2V550.6m88.6,52.9h65v26.6h-65V603.5M91.2,630.1h44.3v26.5H91.2V630.1m44.3,26.5h44.3v26.6H135.5V656.6M91.2,683.2h44.3v26.6H91.2V683.2m44.3,26.6H244.8v26.6H135.5V709.8M91.2,736.4h88.6v26.4H91.2V736.4Z" class="g1_62"/>
<path d="M91.2,576.9H244.8v26.6H91.2V576.9m0,26.6h88.6v26.6H91.2V603.5m44.3,26.6H244.8v26.5H135.5V630.1M91.2,656.6h44.3v26.6H91.2V656.6m44.3,26.6h44.3v26.6H135.5V683.2M91.2,709.8h44.3v26.6H91.2V709.8m88.6,26.6h65v26.4h-65V736.4Z" class="g2_62"/>
<path d="M179.8,683.2h65V656.6h-65v26.6Z" class="g2_62"/>
<path d="M179.8,709.8h65V683.2h-65v26.6Z" class="g1_62"/>
<path d="M245.3,550.6h-.9h.4V521.2h.5v29.4Z" class="g3_62"/>
<path d="M244.8,550.6h-.4V521.2h.4v29.4Z" class="g4_62"/>
<path d="M245.3,576.9h-.5V550.6h.5v26.3Z" class="g3_62"/>
<path d="M244.8,576.9h-.4V550.6h.4v26.3Z" class="g5_62"/>
<path d="M244.4,576.9h.4h-.4Z" class="g6_62"/>
<path d="M244.8,603.5h.5V576.9h-.5v26.6Z" class="g3_62"/>
<path d="M244.8,603.5h-.4V576.9h.4v26.6Z" class="g6_62"/>
<path d="M245.3,630.1h-.9h.4V603.5h.5v26.6Z" class="g3_62"/>
<path d="M244.8,630.1h-.4V603.5h.4v26.6Z" class="g5_62"/>
<path d="M244.8,656.4h.5V630.1h-.5v26.3Z" class="g3_62"/>
<path d="M244.8,656.4h-.4V630.1h.4v26.3Z" class="g6_62"/>
<path d="M245.3,736.4h-.9h.4V709.8h.5v26.6Z" class="g3_62"/>
<path d="M244.8,736.4h-.4V709.8h.4v26.6Z" class="g5_62"/>
<path d="M244.8,762.6h.5V736.4h-.5v26.2Z" class="g3_62"/>
<path d="M244.8,762.6h-.4V736.4h.4v26.2Z" class="g6_62"/>
<path d="M91.2,521.2V521h-39v.2h-.3v-.4H91.2v.4Z" class="g3_62"/>
<path d="M91.2,521.2V521v.2h-39V521h39v.2Z" class="g4_62"/>
<path d="M51.9,550.4h.3V521.2h-.3v29.2Z" class="g3_62"/>
<path d="M52.2,550.4h.2V521.2h-.2v29.2Z" class="g4_62"/>
<path d="M245.3,521.2h-.5V521h-65v.2V521H91.2v-.2H245.3v.4Z" class="g3_62"/>
<path d="M244.8,521.2h-65V521h65v.2m-65,0H91.2V521h88.6v.2Z" class="g4_62"/>
<path d="M245.3,521.2h-.5h.5Z" class="g3_62"/>
<path d="M91.2,550.9H51.9v-.5h.3v.2h39v-.2v.5Z" class="g3_62"/>
<path d="M91.2,550.6v-.2v.2h-39v-.2h39v.2Z" class="g4_62"/>
<path d="M51.9,576.7h.5V550.9h-.5v25.8Z" class="g3_62"/>
<path d="M135.5,550.6H91.2v-.2h44.3v.2Z" class="g4_62"/>
<path d="M91.2,550.9h44.3v-.3H91.2v.3Z" class="g5_62"/>
<path d="M91,576.7h.2V550.9H91v25.8Z" class="g3_62"/>
<path d="M91.2,576.7h.2V550.9h-.2v25.8Z" class="g5_62"/>
<path d="M244.4,550.6H179.8v-.2h64.6v.2m-64.6,0H135.5v-.2h44.3v.2Z" class="g4_62"/>
<path d="M244.4,550.9H135.5v-.3H244.4v.3Z" class="g5_62"/>
<path d="M244.4,550.6v0v-.2v.2Z" class="g4_62"/>
<path d="M244.4,550.9v-.3v.3Z" class="g5_62"/>
<path d="M91.2,577.1H51.9v-.4H91.2v.4Z" class="g3_62"/>
<path d="M91.2,576.9v-.2v.2Z" class="g5_62"/>
<path d="M91.2,577.1v0v-.2v.2Z" class="g6_62"/>
<path d="M51.9,603.3h.5V577.1h-.5v26.2Z" class="g3_62"/>
<path d="M135.5,576.9H91.2v-.2h44.3v.2Z" class="g5_62"/>
<path d="M91.2,577.1h44.3v-.2H91.2v.2Z" class="g6_62"/>
<path d="M91,603.3h.2V577.1H91v26.2Z" class="g3_62"/>
<path d="M91.2,603.3h.2V577.1h-.2v26.2Z" class="g6_62"/>
<path d="M244.4,576.9H135.5v-.2H244.4v.2Z" class="g5_62"/>
<path d="M244.4,577.1H135.5v-.2H244.4v.2Z" class="g6_62"/>
<path d="M244.4,576.9v0v-.2v.2Z" class="g5_62"/>
<path d="M244.4,576.9v0Z" class="g6_62"/>
<path d="M244.4,577.1v0v-.2v.2Z" class="g6_62"/>
<path d="M91.2,603.7H51.9v-.4H91.2v.4Z" class="g3_62"/>
<path d="M91.2,603.7v0v-.2v.2m0,-.2v-.2v.2Z" class="g6_62"/>
<path d="M51.9,629.8h.5V603.7h-.5v26.1Z" class="g3_62"/>
<path d="M135.5,603.7H91.2v-.2h44.3v.2m0,-.2H91.2v-.2h44.3v.2Z" class="g6_62"/>
<path d="M91,629.8h.2V603.7H91v26.1Z" class="g3_62"/>
<path d="M91.2,629.8h.2V603.7h-.2v26.1Z" class="g6_62"/>
<path d="M244.4,603.7H179.8v-.2h64.6v.2Z" class="g5_62"/>
<path d="M179.8,603.7H135.5v-.2h44.3v.2m64.6,-.2H135.5v-.2H244.4v.2Z" class="g6_62"/>
<path d="M244.4,603.5v0v-.2v.2Z" class="g6_62"/>
<path d="M244.4,603.7v0v-.2v.2Z" class="g5_62"/>
<path d="M179.8,629.8h.2v-8.6h-.2v8.6Z" class="g5_62"/>
<path d="M179.6,629.8h.2v-8.6h-.2v8.6Z" class="g6_62"/>
<path d="M179.8,613.7h.2v-10h-.2v10Z" class="g5_62"/>
<path d="M179.6,613.7h.2v-10h-.2v10Z" class="g6_62"/>
<path d="M91.2,630.3H51.9v-.5H91.2v.5Z" class="g3_62"/>
<path d="M91.2,630.3v0v-.2v.2Z" class="g5_62"/>
<path d="M91.2,630.1v0v-.3v.3Z" class="g6_62"/>
<path d="M51.9,656.4h.5V630.3h-.5v26.1Z" class="g3_62"/>
<path d="M135.5,630.3H91.2v-.2h44.3v.2Z" class="g5_62"/>
<path d="M135.5,630.3v0v-.2v.2m0,-.2H91.2v-.3h44.3v.3Z" class="g6_62"/>
<path d="M91,656.4h.2V630.3H91v26.1Z" class="g3_62"/>
<path d="M91.2,656.4h.2V630.3h-.2v26.1Z" class="g5_62"/>
<path d="M179.8,630.1v0v-.3v.3Z" class="g5_62"/>
<path d="M179.8,630.3H135.5v-.2h44.3v.2m0,-.2H135.5v-.3h44.3v.3Z" class="g6_62"/>
<path d="M135.3,656.4h.2v-8.6h-.2v8.6Z" class="g5_62"/>
<path d="M135.5,656.4h.2v-8.6h-.2v8.6Z" class="g6_62"/>
<path d="M135.3,640.3h.2v-10h-.2v10Z" class="g5_62"/>
<path d="M135.5,640.3h.2v-10h-.2v10Z" class="g6_62"/>
<path d="M179.8,630.1h64.6v-.3H179.8v.3Z" class="g5_62"/>
<path d="M244.4,630.3H179.8v-.2h64.6v.2Z" class="g6_62"/>
<path d="M244.4,630.1v0v-.3v.3Z" class="g5_62"/>
<path d="M244.4,630.3v0v-.2v.2Z" class="g6_62"/>
<path d="M91.2,656.9H51.9v-.5H91.2v.5Z" class="g3_62"/>
<path d="M91.2,656.6v0v-.2v.2Z" class="g5_62"/>
<path d="M91.2,656.9v0v-.3v.3Z" class="g6_62"/>
<path d="M51.9,683h.5V656.9h-.5V683Z" class="g3_62"/>
<path d="M135.5,656.9v0v-.3v.3m0,-.3H91.2v-.2h44.3v.2Z" class="g5_62"/>
<path d="M135.5,656.9H91.2v-.3h44.3v.3m0,-.3v0v-.2v.2Z" class="g6_62"/>
<path d="M91,683h.2V656.9H91V683Z" class="g3_62"/>
<path d="M91.2,683h.2V656.9h-.2V683Z" class="g6_62"/>
<path d="M135.5,656.9h44.3v-.3H135.5v.3Z" class="g5_62"/>
<path d="M179.8,656.6H135.5v-.2h44.3v.2Z" class="g6_62"/>
<path d="M135.5,683h.2v-8.7h-.2V683Z" class="g5_62"/>
<path d="M135.3,683h.2v-8.7h-.2V683Z" class="g6_62"/>
<path d="M135.5,666.9h.2v-10h-.2v10Z" class="g5_62"/>
<path d="M135.3,666.9h.2v-10h-.2v10Z" class="g6_62"/>
<path d="M245,683h-.2V656.9h.2V683Z" class="g3_62"/>
<path d="M244.6,683h.2V656.9h-.2V683Z" class="g6_62"/>
<path d="M91.2,683.4H51.9V683H91.2v.4Z" class="g3_62"/>
<path d="M91.2,683.4v0v-.2v.2Z" class="g5_62"/>
<path d="M91.2,683.2v0V683v.2Z" class="g6_62"/>
<path d="M51.9,709.6h.5V683.4h-.5v26.2Z" class="g3_62"/>
<path d="M135.5,683.4H91.2v-.2h44.3v.2m0,-.2v0V683v.2Z" class="g5_62"/>
<path d="M135.5,683.4v0v-.2v.2m0,-.2H91.2V683h44.3v.2Z" class="g6_62"/>
<path d="M91,709.6h.2V683.4H91v26.2Z" class="g3_62"/>
<path d="M91.2,709.6h.2V683.4h-.2v26.2Z" class="g5_62"/>
<path d="M179.8,683.2H135.5V683h44.3v.2Z" class="g5_62"/>
<path d="M135.5,683.4h44.3v-.2H135.5v.2Z" class="g6_62"/>
<path d="M135.3,709.6h.2v-8.7h-.2v8.7Z" class="g5_62"/>
<path d="M135.5,709.6h.2v-8.7h-.2v8.7Z" class="g6_62"/>
<path d="M135.3,693.4h.2v-10h-.2v10Z" class="g5_62"/>
<path d="M135.5,693.4h.2v-10h-.2v10Z" class="g6_62"/>
<path d="M91.2,710H51.9v-.4H91.2v.4Z" class="g3_62"/>
<path d="M91.2,709.8v0v-.2v.2Z" class="g5_62"/>
<path d="M91.2,710v0v-.2v.2Z" class="g6_62"/>
<path d="M51.9,736.2h.5V710h-.5v26.2Z" class="g3_62"/>
<path d="M135.5,710v0v-.2v.2m0,-.2H91.2v-.2h44.3v.2Z" class="g5_62"/>
<path d="M135.5,710H91.2v-.2h44.3v.2m0,-.2v0v-.2v.2Z" class="g6_62"/>
<path d="M91,736.2h.2V710H91v26.2Z" class="g3_62"/>
<path d="M91.2,736.2h.2V710h-.2v26.2Z" class="g6_62"/>
<path d="M179.8,710H135.5v-.2h44.3v.2Z" class="g5_62"/>
<path d="M179.8,709.8H135.5v-.2h44.3v.2Z" class="g6_62"/>
<path d="M179.8,709.8v0v-.2v.2Z" class="g5_62"/>
<path d="M135.5,736.2h.2v-8.7h-.2v8.7Z" class="g5_62"/>
<path d="M135.3,736.2h.2v-8.7h-.2v8.7Z" class="g6_62"/>
<path d="M135.5,720h.2V710h-.2v10Z" class="g5_62"/>
<path d="M135.3,720h.2V710h-.2v10Z" class="g6_62"/>
<path d="M179.8,710h64.6v-.2H179.8v.2Z" class="g5_62"/>
<path d="M244.4,709.8H179.8v-.2h64.6v.2Z" class="g5_62"/>
<path d="M244.4,710v0v-.2v.2Z" class="g5_62"/>
<path d="M91.2,736.6H51.9v-.4H91.2v.4Z" class="g3_62"/>
<path d="M91.2,736.6v0v-.2v.2Z" class="g5_62"/>
<path d="M91.2,736.4v0v-.2v.2Z" class="g6_62"/>
<path d="M51.9,762.6h.5v-26h-.5v26Z" class="g3_62"/>
<path d="M135.5,736.6H91.2v-.2h44.3v.2m0,-.2v0v-.2v.2Z" class="g5_62"/>
<path d="M91.2,736.4h44.3v-.2H91.2v.2Z" class="g6_62"/>
<path d="M91,762.6h.2v-26H91v26Z" class="g3_62"/>
<path d="M91.2,762.6h.2v-26h-.2v26Z" class="g5_62"/>
<path d="M179.8,736.6H135.5v-.2h44.3v.2m64.6,-.2H135.5v-.2H244.4v.2Z" class="g5_62"/>
<path d="M244.4,736.6H179.8v-.2h64.6v.2Z" class="g6_62"/>
<path d="M244.4,736.4v0v-.2v.2Z" class="g5_62"/>
<path d="M244.4,736.6v0v-.2v.2Z" class="g6_62"/>
<path d="M179.6,762.6h.2V754h-.2v8.6Z" class="g5_62"/>
<path d="M179.8,762.6h.2V754h-.2v8.6Z" class="g6_62"/>
<path d="M179.6,746.5h.2v-9.9h-.2v9.9Z" class="g5_62"/>
<path d="M179.8,746.5h.2v-9.9h-.2v9.9Z" class="g6_62"/>
<path d="M245.3,763H51.9v-.4H91.2v.2h88.6v-.2v.2h65v-.2h.5v.4Z" class="g3_62"/>
<path d="M179.8,762.8H91.2v-.2h88.6v.2Z" class="g5_62"/>
<path d="M244.8,762.8h-65v-.2h65v.2Z" class="g6_62"/>
<path d="M91.2,550.4V521.2m44.3,29.2V521.2m44.3,29.2V521.2" class="g7_62"/>
<path d="M179.6,683h.2v-8.7h-.2V683Z" class="g5_62"/>
<path d="M180,683h-.2v-8.7h.2V683Z" class="g6_62"/>
<path d="M179.6,666.9h.2v-10h-.2v10Z" class="g5_62"/>
<path d="M179.8,666.9h.2v-10h-.2v10Z" class="g6_62"/>
<path d="M245,656.9h-.2v-.3h-65h65v-.2h.2v.5Z" class="g3_62"/>
<path d="M179.8,656.6h65v-.2h-65v.2Z" class="g6_62"/>
<path d="M244.8,656.9h-65v-.3h65v.3Z" class="g6_62"/>
<path d="M179.8,656.9v-.5v.5Z" class="g6_62"/>
<path d="M179.6,709.6h.2v-8.7h-.2v8.7Z" class="g6_62"/>
<path d="M180,709.6h-.2v-8.7h.2v8.7Z" class="g5_62"/>
<path d="M179.6,693.4h.2v-10h-.2v10Z" class="g6_62"/>
<path d="M179.8,693.4h.2v-10h-.2v10Z" class="g5_62"/>
<path d="M245,683.4h-.2v-.2h-65h65V683h.2v.4Z" class="g3_62"/>
<path d="M179.8,683.2h65V683h-65v.2Z" class="g6_62"/>
<path d="M244.8,683.4h-65v-.2h65v.2Z" class="g5_62"/>
<path d="M179.8,683.2V683v.2Z" class="g6_62"/>
<path d="M179.8,683.4v-.2v.2Z" class="g5_62"/>
<path d="M245.3,709.8h-.5V683.4h.5v26.4Z" class="g3_62"/>
<path d="M244.8,709.8h-.4V683.4h.4v26.4Z" class="g5_62"/>
<path d="M244.4,709.8v-.2v.2Z" class="g5_62"/>
<path d="M58.9,562.9c-2.8,0,-5,-2.2,-5,-4.9c0,-2.7,2.2,-4.9,5,-4.9c2.7,0,4.9,2.2,4.9,4.9c0,2.7,-2.2,4.9,-4.9,4.9m0,-9.1c-2.4,0,-4.3,1.9,-4.3,4.2c0,2.4,1.9,4.3,4.3,4.3c2.3,0,4.2,-1.9,4.2,-4.3c0,-2.3,-1.9,-4.2,-4.2,-4.2Z" class="g3_62"/>
<path d="M71.3,562.9c-2.7,0,-4.9,-2.2,-4.9,-4.9c0,-2.7,2.2,-4.9,4.9,-4.9c2.7,0,4.9,2.2,4.9,4.9c0,2.7,-2.2,4.9,-4.9,4.9m0,-9.1c-2.3,0,-4.2,1.9,-4.2,4.2c0,2.4,1.9,4.3,4.2,4.3c2.4,0,4.3,-1.9,4.3,-4.3c0,-2.3,-1.9,-4.2,-4.3,-4.2Z" class="g3_62"/>
<path d="M71.3,574.4c-2.5,0,-4.6,-2,-4.6,-4.6c0,-2.5,2.1,-4.5,4.6,-4.5c2.6,0,4.6,2,4.6,4.5c0,2.6,-2,4.6,-4.6,4.6Z" class="g3_62"/>
<path d="M83.8,562.9c-2.7,0,-4.9,-2.2,-4.9,-4.9c0,-2.7,2.2,-4.9,4.9,-4.9c2.7,0,4.9,2.2,4.9,4.9c0,2.7,-2.2,4.9,-4.9,4.9m0,-9.1c-2.3,0,-4.2,1.9,-4.2,4.2c0,2.4,1.9,4.3,4.2,4.3c2.3,0,4.2,-1.9,4.2,-4.3c0,-2.3,-1.9,-4.2,-4.2,-4.2Z" class="g3_62"/>
<path d="M149.7,568.2h36.6v-7.5H149.7v7.5Z" class="g1_62"/>
<path d="M58.9,589.2c-2.8,0,-5,-2.2,-5,-4.9c0,-2.8,2.2,-5,5,-5c2.7,0,4.9,2.2,4.9,5c0,2.7,-2.2,4.9,-4.9,4.9m0,-9.2c-2.4,0,-4.3,1.9,-4.3,4.3c0,2.3,1.9,4.2,4.3,4.2c2.3,0,4.2,-1.9,4.2,-4.2c0,-2.4,-1.9,-4.3,-4.2,-4.3Z" class="g3_62"/>
<path d="M71.3,589.2c-2.7,0,-4.9,-2.2,-4.9,-4.9c0,-2.8,2.2,-5,4.9,-5c2.7,0,4.9,2.2,4.9,5c0,2.7,-2.2,4.9,-4.9,4.9m0,-9.2c-2.3,0,-4.2,1.9,-4.2,4.3c0,2.3,1.9,4.2,4.2,4.2c2.4,0,4.3,-1.9,4.3,-4.2c0,-2.4,-1.9,-4.3,-4.3,-4.3Z" class="g3_62"/>
<path d="M71.3,601c-2.7,0,-4.9,-2.2,-4.9,-4.9c0,-2.7,2.2,-4.9,4.9,-4.9c2.7,0,4.9,2.2,4.9,4.9c0,2.7,-2.2,4.9,-4.9,4.9m0,-9.1c-2.3,0,-4.2,1.8,-4.2,4.2c0,2.3,1.9,4.2,4.2,4.2c2.4,0,4.3,-1.9,4.3,-4.2c0,-2.4,-1.9,-4.2,-4.3,-4.2Z" class="g3_62"/>
<path d="M83.8,589.2c-2.7,0,-4.9,-2.2,-4.9,-4.9c0,-2.8,2.2,-5,4.9,-5c2.7,0,4.9,2.2,4.9,5c0,2.7,-2.2,4.9,-4.9,4.9m0,-9.2c-2.3,0,-4.2,1.9,-4.2,4.3c0,2.3,1.9,4.2,4.2,4.2c2.3,0,4.2,-1.9,4.2,-4.2C88,581.9,86.1,580,83.8,580Z" class="g3_62"/>
<path d="M150.4,594.6h35.5v-7.3H150.4v7.3Z" class="g2_62"/>
<path d="M59.2,615.8c-2.7,0,-4.9,-2.2,-4.9,-5c0,-2.7,2.2,-4.9,4.9,-4.9c2.7,0,4.9,2.2,4.9,4.9c0,2.8,-2.2,5,-4.9,5m0,-9.2c-2.3,0,-4.2,1.9,-4.2,4.2c0,2.4,1.9,4.3,4.2,4.3c2.3,0,4.2,-1.9,4.2,-4.3c0,-2.3,-1.9,-4.2,-4.2,-4.2Z" class="g3_62"/>
<path d="M71.7,615.8c-2.7,0,-5,-2.2,-5,-5c0,-2.7,2.3,-4.9,5,-4.9c2.7,0,4.9,2.2,4.9,4.9c0,2.8,-2.2,5,-4.9,5m0,-9.2c-2.4,0,-4.3,1.9,-4.3,4.2c0,2.4,1.9,4.3,4.3,4.3c2.3,0,4.2,-1.9,4.2,-4.3c0,-2.3,-1.9,-4.2,-4.2,-4.2Z" class="g3_62"/>
<path d="M71.7,627.6c-2.7,0,-5,-2.2,-5,-4.9c0,-2.8,2.3,-5,5,-5c2.7,0,4.9,2.2,4.9,5c0,2.7,-2.2,4.9,-4.9,4.9m0,-9.2c-2.4,0,-4.3,1.9,-4.3,4.3c0,2.3,1.9,4.2,4.3,4.2c2.3,0,4.2,-1.9,4.2,-4.2c0,-2.4,-1.9,-4.3,-4.2,-4.3Z" class="g3_62"/>
<path d="M84.1,615.4c-2.5,0,-4.5,-2,-4.5,-4.6c0,-2.5,2,-4.5,4.5,-4.5c2.6,0,4.6,2,4.6,4.5c0,2.6,-2,4.6,-4.6,4.6Z" class="g3_62"/>
<path d="M180,621.2h50.6v-7.5H180v7.5Z" class="g1_62"/>
<path d="M117.9,621.2h61.7v-7.5H117.9v7.5Z" class="g2_62"/>
<path d="M179.8,621.2h.2v-7.5h-.2v7.5Z" class="g5_62"/>
<path d="M179.6,621.2h.2v-7.5h-.2v7.5Z" class="g6_62"/>
<path d="M58.9,642c-2.6,0,-4.6,-2,-4.6,-4.6c0,-2.5,2,-4.5,4.6,-4.5c2.5,0,4.5,2,4.5,4.5c0,2.6,-2,4.6,-4.5,4.6Z" class="g3_62"/>
<path d="M71.3,642.4c-2.7,0,-4.9,-2.2,-4.9,-5c0,-2.7,2.2,-4.9,4.9,-4.9c2.7,0,4.9,2.2,4.9,4.9c0,2.8,-2.2,5,-4.9,5m0,-9.2c-2.3,0,-4.2,1.9,-4.2,4.2c0,2.4,1.9,4.3,4.2,4.3c2.4,0,4.3,-1.9,4.3,-4.3c0,-2.3,-1.9,-4.2,-4.3,-4.2Z" class="g3_62"/>
<path d="M71.3,654.2c-2.7,0,-4.9,-2.2,-4.9,-4.9c0,-2.8,2.2,-5,4.9,-5c2.7,0,4.9,2.2,4.9,5c0,2.7,-2.2,4.9,-4.9,4.9m0,-9.2c-2.3,0,-4.2,1.9,-4.2,4.3c0,2.3,1.9,4.2,4.2,4.2c2.4,0,4.3,-1.9,4.3,-4.2c0,-2.4,-1.9,-4.3,-4.3,-4.3Z" class="g3_62"/>
<path d="M83.8,642.4c-2.7,0,-4.9,-2.2,-4.9,-5c0,-2.7,2.2,-4.9,4.9,-4.9c2.7,0,4.9,2.2,4.9,4.9c0,2.8,-2.2,5,-4.9,5m0,-9.2c-2.3,0,-4.2,1.9,-4.2,4.2c0,2.4,1.9,4.3,4.2,4.3c2.3,0,4.2,-1.9,4.2,-4.3c0,-2.3,-1.9,-4.2,-4.2,-4.2Z" class="g3_62"/>
<path d="M135.7,647.8H208v-7.5H135.7v7.5Z" class="g2_62"/>
<path d="M95.1,647.8h40.2v-7.5H95.1v7.5Z" class="g1_62"/>
<path d="M135.3,647.8h.2v-7.5h-.2v7.5Z" class="g5_62"/>
<path d="M135.5,647.8h.2v-7.5h-.2v7.5Z" class="g6_62"/>
<path d="M58.9,668.9c-2.8,0,-5,-2.2,-5,-4.9c0,-2.7,2.2,-4.9,5,-4.9c2.7,0,4.9,2.2,4.9,4.9c0,2.7,-2.2,4.9,-4.9,4.9m0,-9.1c-2.4,0,-4.3,1.9,-4.3,4.2c0,2.4,1.9,4.2,4.3,4.2c2.3,0,4.2,-1.8,4.2,-4.2c0,-2.3,-1.9,-4.2,-4.2,-4.2Z" class="g3_62"/>
<path d="M71.3,668.6c-2.5,0,-4.6,-2.1,-4.6,-4.6c0,-2.5,2.1,-4.6,4.6,-4.6c2.6,0,4.6,2.1,4.6,4.6c0,2.5,-2,4.6,-4.6,4.6Z" class="g3_62"/>
<path d="M71.3,680.8c-2.7,0,-4.9,-2.2,-4.9,-5c0,-2.7,2.2,-4.9,4.9,-4.9c2.7,0,4.9,2.2,4.9,4.9c0,2.8,-2.2,5,-4.9,5m0,-9.2c-2.3,0,-4.2,1.9,-4.2,4.2c0,2.4,1.9,4.3,4.2,4.3c2.4,0,4.3,-1.9,4.3,-4.3c0,-2.3,-1.9,-4.2,-4.3,-4.2Z" class="g3_62"/>
<path d="M83.8,668.9c-2.7,0,-4.9,-2.2,-4.9,-4.9c0,-2.7,2.2,-4.9,4.9,-4.9c2.7,0,4.9,2.2,4.9,4.9c0,2.7,-2.2,4.9,-4.9,4.9m0,-9.1c-2.3,0,-4.2,1.9,-4.2,4.2c0,2.4,1.9,4.2,4.2,4.2c2.3,0,4.2,-1.8,4.2,-4.2c0,-2.3,-1.9,-4.2,-4.2,-4.2Z" class="g3_62"/>
<path d="M180,674.3h50.2v-7.4H180v7.4Z" class="g2_62"/>
<path d="M135.7,674.3h43.9v-7.4H135.7v7.4Z" class="g1_62"/>
<path d="M95.7,674.3h39.6v-7.4H95.7v7.4Z" class="g2_62"/>
<path d="M135.5,674.3h.2v-7.4h-.2v7.4Z" class="g5_62"/>
<path d="M135.3,674.3h.2v-7.4h-.2v7.4Z" class="g6_62"/>
<path d="M179.6,674.3h.2v-7.4h-.2v7.4Z" class="g5_62"/>
<path d="M179.8,674.3h.2v-7.4h-.2v7.4Z" class="g6_62"/>
<path d="M59.2,695.2c-2.5,0,-4.6,-2.1,-4.6,-4.6c0,-2.5,2.1,-4.6,4.6,-4.6c2.5,0,4.6,2.1,4.6,4.6c0,2.5,-2.1,4.6,-4.6,4.6Z" class="g3_62"/>
<path d="M71.7,695.5c-2.7,0,-5,-2.2,-5,-4.9c0,-2.7,2.3,-4.9,5,-4.9c2.7,0,4.9,2.2,4.9,4.9c0,2.7,-2.2,4.9,-4.9,4.9m0,-9.1c-2.4,0,-4.3,1.9,-4.3,4.2c0,2.3,1.9,4.2,4.3,4.2c2.3,0,4.2,-1.9,4.2,-4.2c0,-2.3,-1.9,-4.2,-4.2,-4.2Z" class="g3_62"/>
<path d="M71.7,707.3c-2.7,0,-5,-2.2,-5,-4.9c0,-2.7,2.3,-4.9,5,-4.9c2.7,0,4.9,2.2,4.9,4.9c0,2.7,-2.2,4.9,-4.9,4.9m0,-9.1c-2.4,0,-4.3,1.9,-4.3,4.2c0,2.4,1.9,4.2,4.3,4.2c2.3,0,4.2,-1.8,4.2,-4.2c0,-2.3,-1.9,-4.2,-4.2,-4.2Z" class="g3_62"/>
<path d="M84.1,695.2c-2.5,0,-4.5,-2.1,-4.5,-4.6c0,-2.5,2,-4.6,4.5,-4.6c2.6,0,4.6,2.1,4.6,4.6c0,2.5,-2,4.6,-4.6,4.6Z" class="g3_62"/>
<path d="M180,700.9h50.6v-7.5H180v7.5Z" class="g1_62"/>
<path d="M135.7,700.9h43.9v-7.5H135.7v7.5Z" class="g2_62"/>
<path d="M95.1,700.9h40.2v-7.5H95.1v7.5Z" class="g1_62"/>
<path d="M135.3,700.9h.2v-7.5h-.2v7.5Z" class="g5_62"/>
<path d="M135.5,700.9h.2v-7.5h-.2v7.5Z" class="g6_62"/>
<path d="M179.6,700.9h.2v-7.5h-.2v7.5Z" class="g6_62"/>
<path d="M179.8,700.9h.2v-7.5h-.2v7.5Z" class="g5_62"/>
<path d="M59.2,722.1c-2.7,0,-4.9,-2.2,-4.9,-4.9c0,-2.7,2.2,-4.9,4.9,-4.9c2.7,0,4.9,2.2,4.9,4.9c0,2.7,-2.2,4.9,-4.9,4.9m0,-9.1c-2.3,0,-4.2,1.8,-4.2,4.2c0,2.3,1.9,4.2,4.2,4.2c2.3,0,4.2,-1.9,4.2,-4.2c0,-2.4,-1.9,-4.2,-4.2,-4.2Z" class="g3_62"/>
<path d="M71.7,721.8c-2.6,0,-4.6,-2.1,-4.6,-4.6c0,-2.5,2,-4.6,4.6,-4.6c2.5,0,4.5,2.1,4.5,4.6c0,2.5,-2,4.6,-4.5,4.6Z" class="g3_62"/>
<path d="M71.7,733.9c-2.7,0,-5,-2.2,-5,-4.9c0,-2.7,2.3,-4.9,5,-4.9c2.7,0,4.9,2.2,4.9,4.9c0,2.7,-2.2,4.9,-4.9,4.9m0,-9.1c-2.4,0,-4.3,1.9,-4.3,4.2c0,2.3,1.9,4.2,4.3,4.2c2.3,0,4.2,-1.9,4.2,-4.2c0,-2.3,-1.9,-4.2,-4.2,-4.2Z" class="g3_62"/>
<path d="M84.1,721.8c-2.5,0,-4.5,-2.1,-4.5,-4.6c0,-2.5,2,-4.6,4.5,-4.6c2.6,0,4.6,2.1,4.6,4.6c0,2.5,-2,4.6,-4.6,4.6Z" class="g3_62"/>
<path d="M135.7,727.5h72.8V720H135.7v7.5Z" class="g1_62"/>
<path d="M95.7,727.5h39.6V720H95.7v7.5Z" class="g2_62"/>
<path d="M135.5,727.5h.2V720h-.2v7.5Z" class="g5_62"/>
<path d="M135.3,727.5h.2V720h-.2v7.5Z" class="g6_62"/>
<path d="M58.9,748.3c-2.6,0,-4.6,-2,-4.6,-4.5c0,-2.6,2,-4.6,4.6,-4.6c2.5,0,4.5,2,4.5,4.6c0,2.5,-2,4.5,-4.5,4.5Z" class="g3_62"/>
<path d="M71.3,748.3c-2.5,0,-4.6,-2,-4.6,-4.5c0,-2.6,2.1,-4.6,4.6,-4.6c2.6,0,4.6,2,4.6,4.6c0,2.5,-2,4.5,-4.6,4.5Z" class="g3_62"/>
<path d="M71.3,760.3c-2.6,0,-4.7,-2.1,-4.7,-4.7c0,-2.6,2.1,-4.8,4.7,-4.8c2.6,0,4.8,2.2,4.8,4.8c0,2.6,-2.2,4.7,-4.8,4.7m0,-9.1c-2.4,0,-4.4,2,-4.4,4.4c0,2.4,2,4.4,4.4,4.4c2.5,0,4.4,-2,4.4,-4.4c0,-2.4,-1.9,-4.4,-4.4,-4.4Z" class="g3_62"/>
<path d="M83.8,748.7c-2.7,0,-4.9,-2.2,-4.9,-4.9c0,-2.7,2.2,-5,4.9,-5c2.7,0,4.9,2.3,4.9,5c0,2.7,-2.2,4.9,-4.9,4.9m0,-9.2c-2.3,0,-4.2,1.9,-4.2,4.3c0,2.3,1.9,4.2,4.2,4.2c2.3,0,4.2,-1.9,4.2,-4.2c0,-2.4,-1.9,-4.3,-4.2,-4.3Z" class="g3_62"/>
<path d="M180,754h50.2v-7.5H180V754Z" class="g2_62"/>
<path d="M117.2,754h62.4v-7.5H117.2V754Z" class="g1_62"/>
<path d="M179.6,754h.2v-7.5h-.2V754Z" class="g5_62"/>
<path d="M179.8,754h.2v-7.5h-.2V754Z" class="g6_62"/>
<image clip-path="url(#c1_62)" preserveAspectRatio="none" x="365" y="397" width="103" height="68" xlink:href="img/2.jpg"/>
</svg>