<?xml version="1.0" encoding="UTF-8" standalone="no"?>
<!DOCTYPE svg PUBLIC "-//W3C//DTD SVG 1.1//EN"
"http://www.w3.org/Graphics/SVG/1.1/DTD/svg11.dtd">
<svg viewBox="0 0 541 866" version="1.1" xmlns="http://www.w3.org/2000/svg" xmlns:xlink="http://www.w3.org/1999/xlink">
<defs>
<clipPath id="c0_199"><path d="M413.1,254.8V214.6h38.2v40.2Z"/></clipPath>
<clipPath id="c1_199"><path d="M451.2,254.8V214.6h38.2v40.2Z"/></clipPath>
<clipPath id="c2_199"><path d="M322.7,254.8V214.6h38.1v40.2Z"/></clipPath>
<clipPath id="c3_199"><path d="M360.7,254.8V214.6h38.2v40.2Z"/></clipPath>
<clipPath id="c4_199"><path d="M331.5,426.1V392.7h31.8v33.4Z"/></clipPath>
<clipPath id="c5_199"><path d="M363.2,426.1V392.7H395v33.4Z"/></clipPath>
<clipPath id="c6_199"><path d="M249.7,426.1V392.7h31.8v33.4Z"/></clipPath>
<clipPath id="c7_199"><path d="M281.4,426.1V392.7h31.9v33.4Z"/></clipPath>
<clipPath id="c8_199"><path d="M168,426.1V392.7h31.8v33.4Z"/></clipPath>
<clipPath id="c9_199"><path d="M199.7,426.1V392.7h31.7v33.4Z"/></clipPath>
<clipPath id="ca_199"><path d="M375.6,487.6V460.7h13.8v26.9Z"/></clipPath>
<clipPath id="cb_199"><path d="M375.6,514.3V487.5h13.8v26.8Z"/></clipPath>
<clipPath id="cc_199"><path d="M419.9,488.2V461.4h13.7v26.8Z"/></clipPath>
<clipPath id="cd_199"><path d="M419.9,515V488.2h13.7V515Z"/></clipPath>
<clipPath id="ce_199"><path d="M468.5,488.2V461.4h13.3v26.8Z"/></clipPath>
<clipPath id="cf_199"><path d="M468.5,515V488.2h13.3V515Z"/></clipPath>
<clipPath id="cg_199"><path d="M416.5,597.1V558.6H453v38.5Z"/></clipPath>
<clipPath id="ch_199"><path d="M452.9,597.1V558.6h36.5v38.5Z"/></clipPath>
<clipPath id="ci_199"><path d="M416.5,650.8V616.3h72.9v34.5Z"/></clipPath>
<clipPath id="cj_199"><path d="M413.1,124.8V83.9h38.8v40.9Z"/></clipPath>
<clipPath id="ck_199"><path d="M451.8,124.8V83.9h38.8v40.9Z"/></clipPath>
<clipPath id="cl_199"><path d="M413.1,190.5V149.7h38.8v40.8Z"/></clipPath>
<clipPath id="cm_199"><path d="M451.8,190.5V149.7h38.8v40.8Z"/></clipPath>
</defs>
<image clip-path="url(#c0_199)" preserveAspectRatio="none" x="413" y="214" width="38" height="41" xlink:href="img/1.jpg"/>
<image clip-path="url(#c1_199)" preserveAspectRatio="none" x="451" y="214" width="39" height="41" xlink:href="img/2.jpg"/>
<image clip-path="url(#c2_199)" preserveAspectRatio="none" x="322" y="214" width="39" height="41" xlink:href="img/3.jpg"/>
<image clip-path="url(#c3_199)" preserveAspectRatio="none" x="361" y="214" width="38" height="41" xlink:href="img/4.jpg"/>
<image clip-path="url(#c4_199)" preserveAspectRatio="none" x="331" y="392" width="33" height="34" xlink:href="img/5.jpg"/>
<image clip-path="url(#c5_199)" preserveAspectRatio="none" x="363" y="392" width="33" height="34" xlink:href="img/6.jpg"/>
<image clip-path="url(#c6_199)" preserveAspectRatio="none" x="250" y="392" width="32" height="34" xlink:href="img/7.jpg"/>
<image clip-path="url(#c7_199)" preserveAspectRatio="none" x="281" y="392" width="33" height="34" xlink:href="img/8.jpg"/>
<image clip-path="url(#c8_199)" preserveAspectRatio="none" x="168" y="392" width="32" height="34" xlink:href="img/9.jpg"/>
<image clip-path="url(#c9_199)" preserveAspectRatio="none" x="200" y="392" width="32" height="34" xlink:href="img/10.jpg"/>
<image clip-path="url(#ca_199)" preserveAspectRatio="none" x="376" y="461" width="14" height="27" xlink:href="img/11.jpg"/>
<image clip-path="url(#cb_199)" preserveAspectRatio="none" x="376" y="487" width="14" height="27" xlink:href="img/12.jpg"/>
<image clip-path="url(#cc_199)" preserveAspectRatio="none" x="420" y="461" width="14" height="27" xlink:href="img/13.jpg"/>
<image clip-path="url(#cd_199)" preserveAspectRatio="none" x="420" y="488" width="14" height="27" xlink:href="img/14.jpg"/>
<image clip-path="url(#ce_199)" preserveAspectRatio="none" x="468" y="461" width="14" height="27" xlink:href="img/15.jpg"/>
<image clip-path="url(#cf_199)" preserveAspectRatio="none" x="468" y="488" width="14" height="27" xlink:href="img/16.jpg"/>
<image clip-path="url(#cg_199)" preserveAspectRatio="none" x="416" y="558" width="38" height="39" xlink:href="img/17.jpg"/>
<image clip-path="url(#ch_199)" preserveAspectRatio="none" x="453" y="558" width="37" height="39" xlink:href="img/18.jpg"/>
<image clip-path="url(#ci_199)" preserveAspectRatio="none" x="416" y="616" width="74" height="35" xlink:href="img/19.jpg"/>
<image clip-path="url(#cj_199)" preserveAspectRatio="none" x="413" y="84" width="40" height="41" xlink:href="img/20.jpg"/>
<image clip-path="url(#ck_199)" preserveAspectRatio="none" x="452" y="84" width="39" height="41" xlink:href="img/21.jpg"/>
<image clip-path="url(#cl_199)" preserveAspectRatio="none" x="413" y="150" width="40" height="41" xlink:href="img/22.jpg"/>
<image clip-path="url(#cm_199)" preserveAspectRatio="none" x="452" y="150" width="39" height="41" xlink:href="img/23.jpg"/>
</svg>