<?xml version="1.0" encoding="UTF-8" standalone="no"?>
<!DOCTYPE svg PUBLIC "-//W3C//DTD SVG 1.1//EN"
"http://www.w3.org/Graphics/SVG/1.1/DTD/svg11.dtd">
<svg viewBox="0 0 541 866" version="1.1" xmlns="http://www.w3.org/2000/svg" xmlns:xlink="http://www.w3.org/1999/xlink">
<defs>
<clipPath id="c0_184"><path d="M375.6,310.3V263.4h46.2v46.9Z"/></clipPath>
<clipPath id="c1_184"><path d="M421.7,310.3V263.4h46.2v46.9Z"/></clipPath>
<clipPath id="c2_184"><path d="M90.8,236.8V83.9H428.5V236.8Z"/></clipPath>
<clipPath id="c3_184"><path d="M285.6,485.9V448.4h49.2v37.5Z"/></clipPath>
<clipPath id="c4_184"><path d="M285.6,523.2V485.8h49.2v37.4Z"/></clipPath>
<clipPath id="c5_184"><path d="M351,487.1V449.7h49.2v37.4Z"/></clipPath>
<clipPath id="c6_184"><path d="M351,524.4V487h49.2v37.4Z"/></clipPath>
<clipPath id="c7_184"><path d="M416.3,487.1V449.7h49.2v37.4Z"/></clipPath>
<clipPath id="c8_184"><path d="M416.3,524.4V487h49.2v37.4Z"/></clipPath>
<clipPath id="c9_184"><path d="M351.9,640.4V614.3H404v26.1Z"/></clipPath>
<clipPath id="ca_184"><path d="M351.9,666.4V640.3H404v26.1Z"/></clipPath>
<clipPath id="cb_184"><path d="M415.6,640.4V614.3h52.1v26.1Z"/></clipPath>
<clipPath id="cc_184"><path d="M415.6,666.4V640.3h52.1v26.1Z"/></clipPath>
</defs>
<image clip-path="url(#c0_184)" preserveAspectRatio="none" x="375" y="263" width="47" height="47" xlink:href="img/1.jpg"/>
<image clip-path="url(#c1_184)" preserveAspectRatio="none" x="422" y="263" width="46" height="47" xlink:href="img/2.jpg"/>
<image clip-path="url(#c2_184)" preserveAspectRatio="none" x="89" y="84" width="341" height="155" xlink:href="img/3.jpg"/>
<image clip-path="url(#c3_184)" preserveAspectRatio="none" x="285" y="448" width="50" height="38" xlink:href="img/4.jpg"/>
<image clip-path="url(#c4_184)" preserveAspectRatio="none" x="285" y="486" width="50" height="37" xlink:href="img/5.jpg"/>
<image clip-path="url(#c5_184)" preserveAspectRatio="none" x="351" y="450" width="50" height="37" xlink:href="img/6.jpg"/>
<image clip-path="url(#c6_184)" preserveAspectRatio="none" x="351" y="487" width="50" height="38" xlink:href="img/7.jpg"/>
<image clip-path="url(#c7_184)" preserveAspectRatio="none" x="416" y="450" width="50" height="37" xlink:href="img/8.jpg"/>
<image clip-path="url(#c8_184)" preserveAspectRatio="none" x="416" y="487" width="50" height="38" xlink:href="img/9.jpg"/>
<image clip-path="url(#c9_184)" preserveAspectRatio="none" x="352" y="614" width="52" height="26" xlink:href="img/10.jpg"/>
<image clip-path="url(#ca_184)" preserveAspectRatio="none" x="352" y="640" width="52" height="27" xlink:href="img/11.jpg"/>
<image clip-path="url(#cb_184)" preserveAspectRatio="none" x="416" y="614" width="52" height="26" xlink:href="img/12.jpg"/>
<image clip-path="url(#cc_184)" preserveAspectRatio="none" x="416" y="640" width="52" height="27" xlink:href="img/13.jpg"/>
</svg>