<?xml version="1.0" encoding="UTF-8" standalone="no"?>
<!DOCTYPE svg PUBLIC "-//W3C//DTD SVG 1.1//EN"
"http://www.w3.org/Graphics/SVG/1.1/DTD/svg11.dtd">
<svg viewBox="0 0 541 866" version="1.1" xmlns="http://www.w3.org/2000/svg" xmlns:xlink="http://www.w3.org/1999/xlink">
<defs>
<clipPath id="c0_15"><path d="M142.1,300.2V271.1h44.7v29.1Z"/></clipPath>
<clipPath id="c1_15"><path d="M186.7,300.2V271.1h44.7v29.1Z"/></clipPath>
<clipPath id="c2_15"><path d="M142.1,363.1V334h44.7v29.1Z"/></clipPath>
<clipPath id="c3_15"><path d="M186.7,363.1V334h44.7v29.1Z"/></clipPath>
<clipPath id="c4_15"><path d="M252.9,363.1V334h44.7v29.1Z"/></clipPath>
<clipPath id="c5_15"><path d="M297.5,363.1V334h44.7v29.1Z"/></clipPath>
<clipPath id="c6_15"><path d="M363.6,363.1V334h44.7v29.1Z"/></clipPath>
<clipPath id="c7_15"><path d="M408.2,363.1V334h44.7v29.1Z"/></clipPath>
<clipPath id="c8_15"><path d="M252.9,300.2V271.1h44.7v29.1Z"/></clipPath>
<clipPath id="c9_15"><path d="M297.5,300.2V271.1h44.7v29.1Z"/></clipPath>
<clipPath id="ca_15"><path d="M363.6,300.2V271.1h44.7v29.1Z"/></clipPath>
<clipPath id="cb_15"><path d="M408.2,300.2V271.1h44.7v29.1Z"/></clipPath>
<clipPath id="cc_15"><path d="M144.2,652V507.6H418.8V652Z"/></clipPath>
</defs>
<image clip-path="url(#c0_15)" preserveAspectRatio="none" x="142" y="271" width="45" height="29" xlink:href="img/1.jpg"/>
<image clip-path="url(#c1_15)" preserveAspectRatio="none" x="187" y="271" width="45" height="29" xlink:href="img/2.jpg"/>
<image clip-path="url(#c2_15)" preserveAspectRatio="none" x="142" y="334" width="45" height="29" xlink:href="img/3.jpg"/>
<image clip-path="url(#c3_15)" preserveAspectRatio="none" x="187" y="334" width="45" height="29" xlink:href="img/4.jpg"/>
<image clip-path="url(#c4_15)" preserveAspectRatio="none" x="253" y="334" width="45" height="29" xlink:href="img/5.jpg"/>
<image clip-path="url(#c5_15)" preserveAspectRatio="none" x="297" y="334" width="45" height="29" xlink:href="img/6.jpg"/>
<image clip-path="url(#c6_15)" preserveAspectRatio="none" x="363" y="334" width="45" height="29" xlink:href="img/7.jpg"/>
<image clip-path="url(#c7_15)" preserveAspectRatio="none" x="408" y="334" width="45" height="29" xlink:href="img/8.jpg"/>
<image clip-path="url(#c8_15)" preserveAspectRatio="none" x="253" y="271" width="45" height="29" xlink:href="img/9.jpg"/>
<image clip-path="url(#c9_15)" preserveAspectRatio="none" x="297" y="271" width="45" height="29" xlink:href="img/10.jpg"/>
<image clip-path="url(#ca_15)" preserveAspectRatio="none" x="363" y="271" width="45" height="29" xlink:href="img/11.jpg"/>
<image clip-path="url(#cb_15)" preserveAspectRatio="none" x="408" y="271" width="45" height="29" xlink:href="img/12.jpg"/>
<image clip-path="url(#cc_15)" preserveAspectRatio="none" x="144" y="508" width="275" height="144" xlink:href="img/13.jpg"/>
</svg>