<?xml version="1.0" encoding="UTF-8" standalone="no"?>
<!DOCTYPE svg PUBLIC "-//W3C//DTD SVG 1.1//EN"
"http://www.w3.org/Graphics/SVG/1.1/DTD/svg11.dtd">
<svg viewBox="0 0 541 866" version="1.1" xmlns="http://www.w3.org/2000/svg" xmlns:xlink="http://www.w3.org/1999/xlink">
<defs>
<clipPath id="c0_171"><path d="M438.4,279.1V253.6h51v25.5Z"/></clipPath>
<clipPath id="c1_171"><path d="M438.4,304.6V279.1h51v25.5Z"/></clipPath>
<clipPath id="c2_171"><path d="M438.4,471.3V445.8h51v25.5Z"/></clipPath>
<clipPath id="c3_171"><path d="M438.4,496.8V471.2h51v25.6Z"/></clipPath>
<clipPath id="c4_171"><path d="M379.6,646.8V621.3h51v25.5Z"/></clipPath>
<clipPath id="c5_171"><path d="M379.6,672.3V646.8h51v25.5Z"/></clipPath>
<clipPath id="c6_171"><path d="M438.4,646.8V621.3h51v25.5Z"/></clipPath>
<clipPath id="c7_171"><path d="M438.4,672.3V646.8h51v25.5Z"/></clipPath>
<clipPath id="c8_171"><path d="M379.6,751.1v-51h51v51Z"/></clipPath>
<clipPath id="c9_171"><path d="M438.4,727V701.5h51V727Z"/></clipPath>
<clipPath id="ca_171"><path d="M438.4,752.5V726.9h51v25.6Z"/></clipPath>
</defs>
<image clip-path="url(#c0_171)" preserveAspectRatio="none" x="438" y="253" width="52" height="26" xlink:href="img/1.jpg"/>
<image clip-path="url(#c1_171)" preserveAspectRatio="none" x="438" y="279" width="52" height="26" xlink:href="img/2.jpg"/>
<image clip-path="url(#c2_171)" preserveAspectRatio="none" x="438" y="446" width="52" height="25" xlink:href="img/3.jpg"/>
<image clip-path="url(#c3_171)" preserveAspectRatio="none" x="438" y="471" width="52" height="26" xlink:href="img/4.jpg"/>
<image clip-path="url(#c4_171)" preserveAspectRatio="none" x="379" y="621" width="52" height="26" xlink:href="img/5.jpg"/>
<image clip-path="url(#c5_171)" preserveAspectRatio="none" x="379" y="647" width="52" height="25" xlink:href="img/6.jpg"/>
<image clip-path="url(#c6_171)" preserveAspectRatio="none" x="438" y="621" width="52" height="26" xlink:href="img/7.jpg"/>
<image clip-path="url(#c7_171)" preserveAspectRatio="none" x="438" y="647" width="52" height="25" xlink:href="img/8.jpg"/>
<image clip-path="url(#c8_171)" preserveAspectRatio="none" x="379" y="700" width="52" height="51" xlink:href="img/9.jpg"/>
<image clip-path="url(#c9_171)" preserveAspectRatio="none" x="438" y="701" width="52" height="26" xlink:href="img/10.jpg"/>
<image clip-path="url(#ca_171)" preserveAspectRatio="none" x="438" y="727" width="52" height="26" xlink:href="img/11.jpg"/>
</svg>