<?xml version="1.0" encoding="UTF-8" standalone="no"?>
<!DOCTYPE svg PUBLIC "-//W3C//DTD SVG 1.1//EN"
"http://www.w3.org/Graphics/SVG/1.1/DTD/svg11.dtd">
<svg viewBox="0 0 541 866" version="1.1" xmlns="http://www.w3.org/2000/svg" xmlns:xlink="http://www.w3.org/1999/xlink">
<defs>
<style type="text/css"><![CDATA[
.g0_250{
fill: #0066B3;
}
.g1_250{
fill: #231F20;
}
.g2_250{
fill: #00000C;
}
]]></style>
</defs>
<path d="M28.7,80.4H329.5v29.9H28.7V80.4m300.8,0H376v29.9H329.5V80.4m46.5,0H490.9v29.9H376V80.4Z" class="g0_250"/>
<path d="M491.3,193.6h-.7v-83h.7v83Z" class="g1_250"/>
<path d="M329.8,109.9h-.3V80.7h.3v29.2m-.3,0h-.4V80.7h.4v29.2Z" class="g2_250"/>
<path d="M28.4,80.7V80H329.5v.7v-.3H28.7v.3h-.3Z" class="g1_250"/>
<path d="M329.1,80.7H28.7v-.3H329.5v.3h-.4m.4,0v-.3v.3Z" class="g2_250"/>
<path d="M329.5,80.7v0h-.4h.4Z" class="g2_250"/>
<path d="M28.7,109.9h-.3V80.7h.3v29.2Z" class="g1_250"/>
<path d="M28.7,109.9h.4V80.7h-.4v29.2Z" class="g2_250"/>
<path d="M28.7,80.7h-.3h.3Z" class="g1_250"/>
<path d="M28.7,80.7h.4h-.4Z" class="g2_250"/>
<path d="M491.3,80.7v0h-.4v-.3H376v.3v-.3H329.5V80H491.3v.7Z" class="g1_250"/>
<path d="M490.6,80.7H376v-.3H490.9v.3h-.3m-115,0H329.5v-.3H376v.3h-.4Z" class="g2_250"/>
<path d="M329.5,80.7h.3h-.3Z" class="g2_250"/>
<path d="M376.3,109.9H376V80.7h.3v29.2m-.3,0h-.4V80.7h.4v29.2Z" class="g2_250"/>
<path d="M376.3,80.7H376h.3m-.3,0h-.4h.4Z" class="g2_250"/>
<path d="M491.3,109.9h-.4V80.7h.4v29.2Z" class="g1_250"/>
<path d="M490.9,109.9h-.3V80.7h.3v29.2Z" class="g2_250"/>
<path d="M491.3,80.7h-.4h.4Z" class="g1_250"/>
<path d="M490.6,80.7h.3h-.3Z" class="g2_250"/>
<path d="M491.3,557.5v0c-154.3,0,-308.6,0,-462.9,0v-.7H491.3v.7Z" class="g1_250"/>
<path d="M491.3,110.6v0H28.4v-.7h.3v.4H329.5v-.4v.4H376v-.4v.4H490.9v-.4h.4v.7Z" class="g1_250"/>
<path d="M490.9,110.3H376v-.4H490.9v.4m-114.9,0H329.5v-.4H376v.4m-46.5,0H28.7v-.4H329.5v.4Z" class="g2_250"/>
<path d="M491.3,110.6h-.7h.7Z" class="g1_250"/>
<path d="M491.3,194.3H28.4v-.7H491.3v.7Z" class="g1_250"/>
<path d="M491.3,193.6h-.7h.7Z" class="g1_250"/>
<path d="M29.1,193.6h-.7v-83h.7v83Z" class="g1_250"/>
<path d="M29.1,110.6h-.7h.7Z" class="g1_250"/>
<path d="M29.1,193.6h-.7h.7Z" class="g1_250"/>
<path d="M28.4,249.7h.7V194.3h-.7v55.4Z" class="g1_250"/>
<path d="M490.6,249.7h.7V194.3h-.7v55.4Z" class="g1_250"/>
<path d="M29.1,319.5h-.7V250.4h.7v69.1Z" class="g1_250"/>
<path d="M491.3,319.5h-.7V250.4h.7v69.1Z" class="g1_250"/>
<path d="M28.4,403.2h.7v-83h-.7v83Z" class="g1_250"/>
<path d="M490.6,403.2h.7v-83h-.7v83Z" class="g1_250"/>
<path d="M29.1,500.8h-.7V403.9h.7v96.9Z" class="g1_250"/>
<path d="M491.3,500.8h-.7V403.9h.7v96.9Z" class="g1_250"/>
<path d="M28.4,556.8h.7V501.5h-.7v55.3Z" class="g1_250"/>
<path d="M490.6,556.8h.7V501.5h-.7v55.3Z" class="g1_250"/>
<path d="M29.1,626.7h-.7V557.5h.7v69.2Z" class="g1_250"/>
<path d="M29.1,557.5h-.7h.7Z" class="g1_250"/>
<path d="M491.3,626.7h-.7V557.5h.7v69.2Z" class="g1_250"/>
<path d="M491.3,557.5h-.7h.7Z" class="g1_250"/>
<path d="M329.5,627.4H28.4v-.7H329.5v.7Z" class="g1_250"/>
<path d="M29.1,626.7h-.7h.7Z" class="g1_250"/>
<path d="M28.4,765.7h.7V627.4h-.7V765.7Z" class="g1_250"/>
<path d="M28.4,766.4H329.5v-.7H28.4v.7Z" class="g1_250"/>
<path d="M376,627.4H329.5v-.7H376v.7Z" class="g1_250"/>
<path d="M329.1,765.7h.7V627.4h-.7V765.7Z" class="g1_250"/>
<path d="M329.5,766.4H376v-.7H329.5v.7Z" class="g1_250"/>
<path d="M491.3,627.4H376v-.7H491.3v.7Z" class="g1_250"/>
<path d="M491.3,626.7h-.7h.7Z" class="g1_250"/>
<path d="M375.6,765.7h.7V627.4h-.7V765.7Z" class="g1_250"/>
<path d="M490.6,765.7h.7V627.4h-.7V765.7Z" class="g1_250"/>
<path d="M376,766.4H491.3v-.7H376v.7Z" class="g1_250"/>
<path d="M329.1,249.7h.7V194.3h-.7v55.4Z" class="g1_250"/>
<path d="M375.6,249.7h.7V194.3h-.7v55.4Z" class="g1_250"/>
<path d="M375.6,250.4H28.4v-.7H376v.7h-.4Z" class="g1_250"/>
<path d="M29.1,250.4h-.7h.7Z" class="g1_250"/>
<path d="M329.8,319.5h-.7V250.4h.7v69.1Z" class="g1_250"/>
<path d="M329.8,250.4h-.7h.7Z" class="g1_250"/>
<path d="M491.3,250.4H376v-.7H491.3v.7Z" class="g1_250"/>
<path d="M491.3,250.4h-.7h.7Z" class="g1_250"/>
<path d="M376,319.5v0h-.4V250.4h.7v69.1H376Z" class="g1_250"/>
<path d="M375.6,250.4h.7h-.7Z" class="g1_250"/>
<path d="M376,320.2H28.4v-.7H376v.7Z" class="g1_250"/>
<path d="M29.1,319.5h-.7h.7Z" class="g1_250"/>
<path d="M329.8,319.5h-.7h.7Z" class="g1_250"/>
<path d="M376,319.5h-.4h.4Z" class="g1_250"/>
<path d="M329.1,403.2h.7v-83h-.7v83Z" class="g1_250"/>
<path d="M491.3,320.2H376v-.7H491.3v.7Z" class="g1_250"/>
<path d="M491.3,319.5h-.7h.7Z" class="g1_250"/>
<path d="M376,319.5h.3H376Z" class="g1_250"/>
<path d="M375.6,403.2h.7v-83h-.7v83Z" class="g1_250"/>
<path d="M375.6,403.9H28.4v-.7H376v.7h-.4Z" class="g1_250"/>
<path d="M29.1,403.9h-.7h.7Z" class="g1_250"/>
<path d="M329.8,500.8h-.7V403.9h.7v96.9Z" class="g1_250"/>
<path d="M329.8,403.9h-.7h.7Z" class="g1_250"/>
<path d="M491.3,403.9H376v-.7H491.3v.7Z" class="g1_250"/>
<path d="M491.3,403.9h-.7h.7Z" class="g1_250"/>
<path d="M376,500.8v0h-.4V403.9h.7v96.9H376Z" class="g1_250"/>
<path d="M375.6,403.9h.7h-.7Z" class="g1_250"/>
<path d="M376,501.5H28.4v-.7H376v.7Z" class="g1_250"/>
<path d="M29.1,500.8h-.7h.7Z" class="g1_250"/>
<path d="M329.8,500.8h-.7h.7Z" class="g1_250"/>
<path d="M376,500.8h-.4h.4Z" class="g1_250"/>
<path d="M329.1,556.8h.7V501.5h-.7v55.3Z" class="g1_250"/>
<path d="M491.3,501.5H376v-.7H491.3v.7Z" class="g1_250"/>
<path d="M491.3,500.8h-.7h.7Z" class="g1_250"/>
<path d="M376,500.8h.3H376Z" class="g1_250"/>
<path d="M375.6,556.8h.7V501.5h-.7v55.3Z" class="g1_250"/>
<path d="M329.5,626.7v0h-.4V557.5h.7v69.2h-.3Z" class="g1_250"/>
<path d="M329.8,557.5h-.7h.7Z" class="g1_250"/>
<path d="M329.5,626.7h-.4h.4Z" class="g1_250"/>
<path d="M329.5,626.7h.3h-.3Z" class="g1_250"/>
<path d="M376,626.7v0h-.4V557.5h.7v69.2H376Z" class="g1_250"/>
<path d="M376.3,557.5h-.7h.7Z" class="g1_250"/>
<path d="M376,626.7h-.4h.4Z" class="g1_250"/>
<path d="M376,626.7h.3H376Z" class="g1_250"/>
</svg>