<?xml version="1.0" encoding="UTF-8" standalone="no"?>
<!DOCTYPE svg PUBLIC "-//W3C//DTD SVG 1.1//EN"
"http://www.w3.org/Graphics/SVG/1.1/DTD/svg11.dtd">
<svg viewBox="0 0 541 866" version="1.1" xmlns="http://www.w3.org/2000/svg" xmlns:xlink="http://www.w3.org/1999/xlink">
<defs>
<style type="text/css"><![CDATA[
.g0_272{
fill: #0066B3;
}
.g1_272{
fill: #00000C;
}
.g2_272{
fill: #231F20;
}
]]></style>
</defs>
<path d="M28.7,80.4H284.2v43.7H28.7V80.4m255.5,0h42.3v43.7H284.2V80.4m42.3,0H489.4v43.7H326.5V80.4Z" class="g0_272"/>
<path d="M284.5,123.8h-.3V80.7h.3v43.1m-.3,0h-.4V80.7h.4v43.1Z" class="g1_272"/>
<path d="M28.4,80.7V80H284.2v.7v-.3H28.7v.3h-.3Z" class="g2_272"/>
<path d="M283.8,80.7H28.7v-.3H284.2v.3h-.4m.4,0v-.3v.3Z" class="g1_272"/>
<path d="M284.2,80.7v0h-.4h.4Z" class="g1_272"/>
<path d="M28.7,123.8h-.3V80.7h.3v43.1Z" class="g2_272"/>
<path d="M29.1,123.8h-.4V80.7h.4v43.1Z" class="g1_272"/>
<path d="M28.7,80.7h-.3h.3Z" class="g2_272"/>
<path d="M28.7,80.7h.4h-.4Z" class="g1_272"/>
<path d="M489.7,80.7v0h-.3v-.3H326.5v.3v-.3H284.2V80H489.7v.7Z" class="g2_272"/>
<path d="M489,80.7H326.5v-.3H489.4v.3H489m-162.8,0h-42v-.3h42.3v.3h-.3Z" class="g1_272"/>
<path d="M284.2,80.7h.3h-.3Z" class="g1_272"/>
<path d="M326.9,123.8h-.4V80.7h.4v43.1m-.4,0h-.3V80.7h.3v43.1Z" class="g1_272"/>
<path d="M326.9,80.7h-.4h.4m-.4,0h-.3h.3Z" class="g1_272"/>
<path d="M489.7,123.8h-.3V80.7h.3v43.1Z" class="g2_272"/>
<path d="M489.4,123.8H489V80.7h.4v43.1Z" class="g1_272"/>
<path d="M489.4,80.7h.3h-.3Z" class="g2_272"/>
<path d="M489,80.7h.4H489Z" class="g1_272"/>
<path d="M489.7,124.5v0H28.4v-.7h.3v.3H284.2v-.3v.3h42.3v-.3v.3H489.4v-.3h.3v.7Z" class="g2_272"/>
<path d="M489.4,124.1H326.5v-.3H489.4v.3m-162.9,0H284.2v-.3h42.3v.3m-42.3,0H28.7v-.3H284.2v.3Z" class="g1_272"/>
<path d="M284.5,123.8h-.3h.3m-.3,0h-.4h.4Z" class="g1_272"/>
<path d="M28.7,123.8h-.3h.3Z" class="g2_272"/>
<path d="M28.7,123.8h.4h-.4Z" class="g1_272"/>
<path d="M326.9,123.8h-.4h.4m-.4,0h-.3h.3Z" class="g1_272"/>
<path d="M489.4,123.8h.3h-.3Z" class="g2_272"/>
<path d="M489.4,123.8H489h.4Z" class="g1_272"/>
<path d="M29.1,181.4h-.7V124.5h.7v56.9Z" class="g2_272"/>
<path d="M29.1,124.5h-.7h.7Z" class="g2_272"/>
<path d="M489.7,181.4H489V124.5h.7v56.9Z" class="g2_272"/>
<path d="M489,124.5h.7H489Z" class="g2_272"/>
<path d="M28.4,335.8h.7V182.1h-.7V335.8Z" class="g2_272"/>
<path d="M489,335.8h.7V182.1H489V335.8Z" class="g2_272"/>
<path d="M29.1,448.8h-.7V336.5h.7V448.8Z" class="g2_272"/>
<path d="M489.7,448.8H489V336.5h.7V448.8Z" class="g2_272"/>
<path d="M28.4,506.4h.7V449.5h-.7v56.9Z" class="g2_272"/>
<path d="M489,506.4h.7V449.5H489v56.9Z" class="g2_272"/>
<path d="M29.1,577.8h-.7V507.1h.7v70.7Z" class="g2_272"/>
<path d="M489.7,577.8H489V507.1h.7v70.7Z" class="g2_272"/>
<path d="M28.4,690.8h.7V578.5h-.7V690.8Z" class="g2_272"/>
<path d="M489,690.8h.7V578.5H489V690.8Z" class="g2_272"/>
<path d="M284.5,181.4h-.7V124.5h.7v56.9Z" class="g2_272"/>
<path d="M284.5,124.5h-.7h.7Z" class="g2_272"/>
<path d="M326.5,181.4v0h-.3V124.5h.7v56.9h-.4Z" class="g2_272"/>
<path d="M326.9,124.5h-.7h.7Z" class="g2_272"/>
<path d="M326.5,182.1H28.4v-.7H326.5v.7Z" class="g2_272"/>
<path d="M29.1,181.4h-.7h.7Z" class="g2_272"/>
<path d="M284.5,181.4h-.7h.7Z" class="g2_272"/>
<path d="M326.5,181.4h-.3h.3Z" class="g2_272"/>
<path d="M283.8,335.8h.7V182.1h-.7V335.8Z" class="g2_272"/>
<path d="M489.7,182.1H326.5v-.7H489.7v.7Z" class="g2_272"/>
<path d="M489.7,181.4H489h.7Z" class="g2_272"/>
<path d="M326.5,181.4h.4h-.4Z" class="g2_272"/>
<path d="M326.2,335.8h.7V182.1h-.7V335.8Z" class="g2_272"/>
<path d="M283.8,336.5H28.4v-.7H326.5v.7H283.8Z" class="g2_272"/>
<path d="M29.1,336.5h-.7h.7Z" class="g2_272"/>
<path d="M284.5,448.8h-.7V336.5h.7V448.8Z" class="g2_272"/>
<path d="M284.2,336.5h-.4h.7h-.3Z" class="g2_272"/>
<path d="M489.7,336.5H326.5v-.7H489.7v.7Z" class="g2_272"/>
<path d="M489,336.5h.7H489Z" class="g2_272"/>
<path d="M326.5,336.5v-.7v.7Z" class="g2_272"/>
<path d="M326.5,448.8v0h-.3V336.5h.7V448.8h-.4Z" class="g2_272"/>
<path d="M326.2,336.5h.3h-.3Z" class="g2_272"/>
<path d="M326.9,336.5h-.4h.4Z" class="g2_272"/>
<path d="M326.5,336.5v0Z" class="g2_272"/>
<path d="M284.2,449.5H28.4v-.7H326.5v.7H284.2Z" class="g2_272"/>
<path d="M29.1,448.8h-.7h.7Z" class="g2_272"/>
<path d="M284.5,448.8h-.7h.7Z" class="g2_272"/>
<path d="M326.5,448.8h-.3h.3Z" class="g2_272"/>
<path d="M283.8,506.4h.7V449.5h-.7v56.9Z" class="g2_272"/>
<path d="M489.7,449.5H326.5v-.7H489.7v.7Z" class="g2_272"/>
<path d="M489.7,448.8H489h.7Z" class="g2_272"/>
<path d="M326.5,448.8h.4h-.4Z" class="g2_272"/>
<path d="M326.9,506.4h-.7V463.5h.7v42.9m0,-53.6h-.7v-3.3h.7v3.3Z" class="g2_272"/>
<path d="M326.2,507.1H28.4v-.7H326.5v.7h-.3Z" class="g2_272"/>
<path d="M29.1,507.1h-.7h.7Z" class="g2_272"/>
<path d="M284.2,577.8v0h-.4V507.1h.7v70.7h-.3Z" class="g2_272"/>
<path d="M284.5,507.1h-.7h.7Z" class="g2_272"/>
<path d="M489.7,507.1H326.5v-.7H489.7v.7Z" class="g2_272"/>
<path d="M489,507.1h.7H489Z" class="g2_272"/>
<path d="M326.5,577.8v0h-.3V521.1h.7v56.7h-.4m.4,-67.4h-.7v-3.3h.7v3.3Z" class="g2_272"/>
<path d="M326.2,507.1h.7h-.7Z" class="g2_272"/>
<path d="M284.2,578.5H28.4v-.7H284.2v.7Z" class="g2_272"/>
<path d="M29.1,577.8h-.7h.7Z" class="g2_272"/>
<path d="M284.2,577.8h-.4h.4Z" class="g2_272"/>
<path d="M28.4,691.5H284.2v-.7H28.4v.7Z" class="g2_272"/>
<path d="M326.5,578.5H284.2v-.7h42.3v.7Z" class="g2_272"/>
<path d="M284.2,577.8h.3h-.3Z" class="g2_272"/>
<path d="M326.5,577.8h-.3h.3Z" class="g2_272"/>
<path d="M283.8,690.8h.7V578.5h-.7V690.8Z" class="g2_272"/>
<path d="M284.2,691.5h42.3v-.7H284.2v.7Z" class="g2_272"/>
<path d="M489.7,578.5H326.5v-.7H489.7v.7Z" class="g2_272"/>
<path d="M489.7,577.8H489h.7Z" class="g2_272"/>
<path d="M326.5,577.8h.4h-.4Z" class="g2_272"/>
<path d="M326.9,690.8h-.7V592.5h.7v98.3m0,-108.9h-.7v-3.4h.7v3.4Z" class="g2_272"/>
<path d="M326.5,691.5H489.7v-.7H326.5v.7Z" class="g2_272"/>
<path d="M326.2,463.5h.7V452.8h-.7v10.7Z" class="g2_272"/>
<path d="M326.2,521.1h.7V510.4h-.7v10.7Z" class="g2_272"/>
<path d="M326.2,592.5h.7V581.9h-.7v10.6Z" class="g2_272"/>
<path d="M28.4,757.5h92.2v-.7H28.4v.7Z" class="g2_272"/>
</svg>