<?xml version="1.0" encoding="UTF-8" standalone="no"?>
<!DOCTYPE svg PUBLIC "-//W3C//DTD SVG 1.1//EN"
"http://www.w3.org/Graphics/SVG/1.1/DTD/svg11.dtd">
<svg viewBox="0 0 541 866" version="1.1" xmlns="http://www.w3.org/2000/svg" xmlns:xlink="http://www.w3.org/1999/xlink">
<defs>
<clipPath id="c0_191"><path d="M437.7,191V165.5h51V191Z"/></clipPath>
<clipPath id="c1_191"><path d="M437.7,216.5V191h51v25.5Z"/></clipPath>
<clipPath id="c2_191"><path d="M230.5,340V319.9H348.2V340Z"/></clipPath>
<clipPath id="c3_191"><path d="M230.5,377.5V347.1H348.2v30.4Z"/></clipPath>
<clipPath id="c4_191"><path d="M97.1,349.6V319.9h78.5v29.7Z"/></clipPath>
<clipPath id="c5_191"><path d="M175.5,379.1V319.9h39.3v59.2Z"/></clipPath>
<clipPath id="c6_191"><path d="M97.1,379.1V349.5h78.5v29.6Z"/></clipPath>
<clipPath id="c7_191"><path d="M371,375.1V349.5H488.7v25.6Z"/></clipPath>
<clipPath id="c8_191"><path d="M371,341.5V319.9H488.7v21.6Z"/></clipPath>
<clipPath id="c9_191"><path d="M97.1,426.5v-35H214.8v35Z"/></clipPath>
<clipPath id="ca_191"><path d="M97.1,461.3V426.4H214.8v34.9Z"/></clipPath>
<clipPath id="cb_191"><path d="M230.5,409.9V387.3H348.2v22.6Z"/></clipPath>
<clipPath id="cc_191"><path d="M230.5,458.2V415.1H348.2v43.1Z"/></clipPath>
<clipPath id="cd_191"><path d="M379.9,519.4V488H488.4v31.4Z"/></clipPath>
<clipPath id="ce_191"><path d="M73.6,592.6v-36h99.8v36Z"/></clipPath>
<clipPath id="cf_191"><path d="M177.9,592.6v-36H317v36Z"/></clipPath>
<clipPath id="cg_191"><path d="M330.2,592.6v-36H489.4v36Z"/></clipPath>
<clipPath id="ch_191"><path d="M73.6,712.1V659.8h83.1v52.3Z"/></clipPath>
<clipPath id="ci_191"><path d="M156.6,712.1V659.8h41.5v52.3Z"/></clipPath>
<clipPath id="cj_191"><path d="M209.9,712.1V659.8h67.6v52.3Z"/></clipPath>
<clipPath id="ck_191"><path d="M277.4,712.1V659.8h33.8v52.3Z"/></clipPath>
<clipPath id="cl_191"><path d="M322.9,712.1V659.8H488.4v52.3Z"/></clipPath>
<clipPath id="cm_191"><path d="M377.8,752V718h25.6v34Z"/></clipPath>
<clipPath id="cn_191"><path d="M403.3,752V718h25.5v34Z"/></clipPath>
<clipPath id="co_191"><path d="M437.4,752V718h51v34Z"/></clipPath>
</defs>
<image clip-path="url(#c0_191)" preserveAspectRatio="none" x="438" y="165" width="51" height="26" xlink:href="img/1.jpg"/>
<image clip-path="url(#c1_191)" preserveAspectRatio="none" x="438" y="191" width="51" height="26" xlink:href="img/2.jpg"/>
<image clip-path="url(#c2_191)" preserveAspectRatio="none" x="230" y="320" width="119" height="20" xlink:href="img/3.jpg"/>
<image clip-path="url(#c3_191)" preserveAspectRatio="none" x="230" y="347" width="119" height="31" xlink:href="img/4.jpg"/>
<image clip-path="url(#c4_191)" preserveAspectRatio="none" x="97" y="320" width="79" height="30" xlink:href="img/5.jpg"/>
<image clip-path="url(#c5_191)" preserveAspectRatio="none" x="175" y="320" width="40" height="59" xlink:href="img/6.jpg"/>
<image clip-path="url(#c6_191)" preserveAspectRatio="none" x="97" y="349" width="79" height="30" xlink:href="img/7.jpg"/>
<image clip-path="url(#c7_191)" preserveAspectRatio="none" x="371" y="349" width="118" height="26" xlink:href="img/8.jpg"/>
<image clip-path="url(#c8_191)" preserveAspectRatio="none" x="371" y="320" width="118" height="22" xlink:href="img/9.jpg"/>
<image clip-path="url(#c9_191)" preserveAspectRatio="none" x="97" y="391" width="118" height="36" xlink:href="img/10.jpg"/>
<image clip-path="url(#ca_191)" preserveAspectRatio="none" x="97" y="426" width="118" height="36" xlink:href="img/11.jpg"/>
<image clip-path="url(#cb_191)" preserveAspectRatio="none" x="230" y="387" width="119" height="23" xlink:href="img/12.jpg"/>
<image clip-path="url(#cc_191)" preserveAspectRatio="none" x="230" y="415" width="119" height="43" xlink:href="img/13.jpg"/>
<image clip-path="url(#cd_191)" preserveAspectRatio="none" x="380" y="488" width="109" height="32" xlink:href="img/14.jpg"/>
<image clip-path="url(#ce_191)" preserveAspectRatio="none" x="74" y="556" width="100" height="37" xlink:href="img/15.jpg"/>
<image clip-path="url(#cf_191)" preserveAspectRatio="none" x="178" y="556" width="140" height="37" xlink:href="img/16.jpg"/>
<image clip-path="url(#cg_191)" preserveAspectRatio="none" x="330" y="556" width="160" height="37" xlink:href="img/17.jpg"/>
<image clip-path="url(#ch_191)" preserveAspectRatio="none" x="73" y="660" width="85" height="52" xlink:href="img/18.jpg"/>
<image clip-path="url(#ci_191)" preserveAspectRatio="none" x="157" y="660" width="42" height="52" xlink:href="img/19.jpg"/>
<image clip-path="url(#cj_191)" preserveAspectRatio="none" x="210" y="660" width="68" height="52" xlink:href="img/20.jpg"/>
<image clip-path="url(#ck_191)" preserveAspectRatio="none" x="277" y="660" width="35" height="52" xlink:href="img/21.jpg"/>
<image clip-path="url(#cl_191)" preserveAspectRatio="none" x="323" y="660" width="166" height="52" xlink:href="img/22.jpg"/>
<image clip-path="url(#cm_191)" preserveAspectRatio="none" x="378" y="718" width="26" height="34" xlink:href="img/23.jpg"/>
<image clip-path="url(#cn_191)" preserveAspectRatio="none" x="403" y="718" width="27" height="34" xlink:href="img/24.jpg"/>
<image clip-path="url(#co_191)" preserveAspectRatio="none" x="437" y="718" width="52" height="34" xlink:href="img/25.jpg"/>
</svg>