<?xml version="1.0" encoding="UTF-8" standalone="no"?>
<!DOCTYPE svg PUBLIC "-//W3C//DTD SVG 1.1//EN"
"http://www.w3.org/Graphics/SVG/1.1/DTD/svg11.dtd">
<svg viewBox="0 0 541 866" version="1.1" xmlns="http://www.w3.org/2000/svg" xmlns:xlink="http://www.w3.org/1999/xlink">
<defs>
<clipPath id="c0_82"><path d="M122.5,232.4V83.9H397.1V232.4Z"/></clipPath>
<clipPath id="c1_82"><path d="M66.4,558.7V507.6H167v51.1Z"/></clipPath>
<clipPath id="c2_82"><path d="M184.9,533.2V507.6H236v25.6Z"/></clipPath>
<clipPath id="c3_82"><path d="M184.9,558.7V533.1H236v25.6Z"/></clipPath>
<clipPath id="c4_82"><path d="M239.4,533.2V507.6h51.1v25.6Z"/></clipPath>
<clipPath id="c5_82"><path d="M239.4,558.7V533.1h51.1v25.6Z"/></clipPath>
<clipPath id="c6_82"><path d="M294,533.2V507.6h51.1v25.6Z"/></clipPath>
<clipPath id="c7_82"><path d="M294,558.7V533.1h51.1v25.6Z"/></clipPath>
<clipPath id="c8_82"><path d="M348.5,533.2V507.6h51.1v25.6Z"/></clipPath>
<clipPath id="c9_82"><path d="M348.5,558.7V533.1h51.1v25.6Z"/></clipPath>
<clipPath id="ca_82"><path d="M403,533.2V507.6h51.1v25.6Z"/></clipPath>
<clipPath id="cb_82"><path d="M403,558.7V533.1h51.1v25.6Z"/></clipPath>
<clipPath id="cc_82"><path d="M65.6,631.2V580.1H166.2v51.1Z"/></clipPath>
<clipPath id="cd_82"><path d="M170,631.2V580.1H270.6v51.1Z"/></clipPath>
<clipPath id="ce_82"><path d="M274.3,631.2V580.1h67.5v51.1Z"/></clipPath>
<clipPath id="cf_82"><path d="M353.5,631.3V580.2H454.1v51.1Z"/></clipPath>
</defs>
<image clip-path="url(#c0_82)" preserveAspectRatio="none" x="122" y="84" width="276" height="149" xlink:href="img/1.jpg"/>
<image clip-path="url(#c1_82)" preserveAspectRatio="none" x="66" y="508" width="102" height="51" xlink:href="img/2.jpg"/>
<image clip-path="url(#c2_82)" preserveAspectRatio="none" x="185" y="507" width="51" height="26" xlink:href="img/3.jpg"/>
<image clip-path="url(#c3_82)" preserveAspectRatio="none" x="185" y="533" width="51" height="26" xlink:href="img/4.jpg"/>
<image clip-path="url(#c4_82)" preserveAspectRatio="none" x="239" y="507" width="52" height="26" xlink:href="img/5.jpg"/>
<image clip-path="url(#c5_82)" preserveAspectRatio="none" x="239" y="533" width="52" height="26" xlink:href="img/6.jpg"/>
<image clip-path="url(#c6_82)" preserveAspectRatio="none" x="294" y="507" width="52" height="26" xlink:href="img/7.jpg"/>
<image clip-path="url(#c7_82)" preserveAspectRatio="none" x="294" y="533" width="52" height="26" xlink:href="img/8.jpg"/>
<image clip-path="url(#c8_82)" preserveAspectRatio="none" x="348" y="507" width="52" height="26" xlink:href="img/9.jpg"/>
<image clip-path="url(#c9_82)" preserveAspectRatio="none" x="348" y="533" width="52" height="26" xlink:href="img/10.jpg"/>
<image clip-path="url(#ca_82)" preserveAspectRatio="none" x="403" y="507" width="51" height="26" xlink:href="img/11.jpg"/>
<image clip-path="url(#cb_82)" preserveAspectRatio="none" x="403" y="533" width="51" height="26" xlink:href="img/12.jpg"/>
<image clip-path="url(#cc_82)" preserveAspectRatio="none" x="66" y="580" width="101" height="51" xlink:href="img/13.jpg"/>
<image clip-path="url(#cd_82)" preserveAspectRatio="none" x="170" y="580" width="101" height="51" xlink:href="img/14.jpg"/>
<image clip-path="url(#ce_82)" preserveAspectRatio="none" x="274" y="580" width="68" height="51" xlink:href="img/15.jpg"/>
<image clip-path="url(#cf_82)" preserveAspectRatio="none" x="353" y="580" width="102" height="51" xlink:href="img/16.jpg"/>
</svg>