<?xml version="1.0" encoding="UTF-8" standalone="no"?>
<!DOCTYPE svg PUBLIC "-//W3C//DTD SVG 1.1//EN"
"http://www.w3.org/Graphics/SVG/1.1/DTD/svg11.dtd">
<svg viewBox="0 0 541 866" version="1.1" xmlns="http://www.w3.org/2000/svg" xmlns:xlink="http://www.w3.org/1999/xlink">
<defs>
<clipPath id="c0_180"><path d="M416.8,110.8V85.1H468v25.7Z"/></clipPath>
<clipPath id="c1_180"><path d="M416.8,136.4V110.7H468v25.7Z"/></clipPath>
<clipPath id="c2_180"><path d="M416.8,197.3V171.6H468v25.7Z"/></clipPath>
<clipPath id="c3_180"><path d="M416.8,222.9V197.2H468v25.7Z"/></clipPath>
<clipPath id="c4_180"><path d="M416.5,397.3V371.8h51v25.5Z"/></clipPath>
<clipPath id="c5_180"><path d="M416.5,422.7V397.2h51v25.5Z"/></clipPath>
<clipPath id="c6_180"><path d="M416.7,482.8V457.3h51v25.5Z"/></clipPath>
<clipPath id="c7_180"><path d="M416.7,508.3V482.7h51v25.6Z"/></clipPath>
<clipPath id="c8_180"><path d="M417.1,571.9V546.2h51.3v25.7Z"/></clipPath>
<clipPath id="c9_180"><path d="M417.1,597.5V571.8h51.3v25.7Z"/></clipPath>
<clipPath id="ca_180"><path d="M417,725.7V700.1h51v25.6Z"/></clipPath>
<clipPath id="cb_180"><path d="M417,751.1V725.6h51v25.5Z"/></clipPath>
<clipPath id="cc_180"><path d="M416.8,648.9V623.3h50.9v25.6Z"/></clipPath>
<clipPath id="cd_180"><path d="M416.8,674.3V648.8h50.9v25.5Z"/></clipPath>
</defs>
<image clip-path="url(#c0_180)" preserveAspectRatio="none" x="417" y="85" width="51" height="26" xlink:href="img/1.jpg"/>
<image clip-path="url(#c1_180)" preserveAspectRatio="none" x="417" y="111" width="51" height="26" xlink:href="img/2.jpg"/>
<image clip-path="url(#c2_180)" preserveAspectRatio="none" x="417" y="171" width="51" height="26" xlink:href="img/3.jpg"/>
<image clip-path="url(#c3_180)" preserveAspectRatio="none" x="417" y="197" width="51" height="26" xlink:href="img/4.jpg"/>
<image clip-path="url(#c4_180)" preserveAspectRatio="none" x="416" y="372" width="52" height="25" xlink:href="img/5.jpg"/>
<image clip-path="url(#c5_180)" preserveAspectRatio="none" x="416" y="397" width="52" height="26" xlink:href="img/6.jpg"/>
<image clip-path="url(#c6_180)" preserveAspectRatio="none" x="417" y="457" width="51" height="26" xlink:href="img/7.jpg"/>
<image clip-path="url(#c7_180)" preserveAspectRatio="none" x="417" y="483" width="51" height="25" xlink:href="img/8.jpg"/>
<image clip-path="url(#c8_180)" preserveAspectRatio="none" x="417" y="546" width="52" height="26" xlink:href="img/9.jpg"/>
<image clip-path="url(#c9_180)" preserveAspectRatio="none" x="417" y="572" width="52" height="26" xlink:href="img/10.jpg"/>
<image clip-path="url(#ca_180)" preserveAspectRatio="none" x="417" y="700" width="52" height="26" xlink:href="img/11.jpg"/>
<image clip-path="url(#cb_180)" preserveAspectRatio="none" x="417" y="726" width="52" height="25" xlink:href="img/12.jpg"/>
<image clip-path="url(#cc_180)" preserveAspectRatio="none" x="417" y="623" width="51" height="26" xlink:href="img/13.jpg"/>
<image clip-path="url(#cd_180)" preserveAspectRatio="none" x="417" y="649" width="51" height="25" xlink:href="img/14.jpg"/>
</svg>