<?xml version="1.0" encoding="UTF-8" standalone="no"?>
<!DOCTYPE svg PUBLIC "-//W3C//DTD SVG 1.1//EN"
"http://www.w3.org/Graphics/SVG/1.1/DTD/svg11.dtd">
<svg viewBox="0 0 541 866" version="1.1" xmlns="http://www.w3.org/2000/svg" xmlns:xlink="http://www.w3.org/1999/xlink">
<defs>
<clipPath id="c0_50"><path d="M122.5,236.4V83.9H397.1V236.4Z"/></clipPath>
<clipPath id="c1_50"><path d="M101,404.4V379h49.8v25.4Z"/></clipPath>
<clipPath id="c2_50"><path d="M101,429.6V404.3h49.8v25.3Z"/></clipPath>
<clipPath id="c3_50"><path d="M101,479.4V454h50.6v25.4Z"/></clipPath>
<clipPath id="c4_50"><path d="M101,504.6V479.3h50.6v25.3Z"/></clipPath>
<clipPath id="c5_50"><path d="M166.7,479.4V454h50.6v25.4Z"/></clipPath>
<clipPath id="c6_50"><path d="M166.7,504.6V479.3h50.6v25.3Z"/></clipPath>
<clipPath id="c7_50"><path d="M234.5,479.4V454h50.6v25.4Z"/></clipPath>
<clipPath id="c8_50"><path d="M234.5,504.6V479.3h50.6v25.3Z"/></clipPath>
<clipPath id="c9_50"><path d="M302.3,479.4V454h50.6v25.4Z"/></clipPath>
<clipPath id="ca_50"><path d="M302.3,504.6V479.3h50.6v25.3Z"/></clipPath>
<clipPath id="cb_50"><path d="M367.7,479.4V453.8h51v25.6Z"/></clipPath>
<clipPath id="cc_50"><path d="M367.7,504.8V479.3h51v25.5Z"/></clipPath>
<clipPath id="cd_50"><path d="M168.2,427.7V380.9h25.6v46.8Z"/></clipPath>
<clipPath id="ce_50"><path d="M193.7,427.7V380.9h25.5v46.8Z"/></clipPath>
<clipPath id="cf_50"><path d="M236.6,404.3V379h49.9v25.3Z"/></clipPath>
<clipPath id="cg_50"><path d="M236.6,429.6V404.3h49.9v25.3Z"/></clipPath>
<clipPath id="ch_50"><path d="M300.3,404.4V379h50.6v25.4Z"/></clipPath>
<clipPath id="ci_50"><path d="M300.3,429.6V404.3h50.6v25.3Z"/></clipPath>
<clipPath id="cj_50"><path d="M368.1,404.3V379h50.6v25.3Z"/></clipPath>
<clipPath id="ck_50"><path d="M368.1,429.6V404.3h50.6v25.3Z"/></clipPath>
</defs>
<image clip-path="url(#c0_50)" preserveAspectRatio="none" x="122" y="84" width="276" height="152" xlink:href="img/1.jpg"/>
<image clip-path="url(#c1_50)" preserveAspectRatio="none" x="101" y="379" width="50" height="25" xlink:href="img/2.jpg"/>
<image clip-path="url(#c2_50)" preserveAspectRatio="none" x="101" y="404" width="50" height="26" xlink:href="img/3.jpg"/>
<image clip-path="url(#c3_50)" preserveAspectRatio="none" x="101" y="454" width="51" height="25" xlink:href="img/4.jpg"/>
<image clip-path="url(#c4_50)" preserveAspectRatio="none" x="101" y="479" width="51" height="26" xlink:href="img/5.jpg"/>
<image clip-path="url(#c5_50)" preserveAspectRatio="none" x="167" y="454" width="51" height="25" xlink:href="img/6.jpg"/>
<image clip-path="url(#c6_50)" preserveAspectRatio="none" x="167" y="479" width="51" height="26" xlink:href="img/7.jpg"/>
<image clip-path="url(#c7_50)" preserveAspectRatio="none" x="234" y="454" width="51" height="25" xlink:href="img/8.jpg"/>
<image clip-path="url(#c8_50)" preserveAspectRatio="none" x="234" y="479" width="51" height="26" xlink:href="img/9.jpg"/>
<image clip-path="url(#c9_50)" preserveAspectRatio="none" x="302" y="454" width="51" height="25" xlink:href="img/10.jpg"/>
<image clip-path="url(#ca_50)" preserveAspectRatio="none" x="302" y="479" width="51" height="26" xlink:href="img/11.jpg"/>
<image clip-path="url(#cb_50)" preserveAspectRatio="none" x="368" y="454" width="51" height="25" xlink:href="img/12.jpg"/>
<image clip-path="url(#cc_50)" preserveAspectRatio="none" x="368" y="479" width="51" height="26" xlink:href="img/13.jpg"/>
<image clip-path="url(#cd_50)" preserveAspectRatio="none" x="168" y="381" width="27" height="47" xlink:href="img/14.jpg"/>
<image clip-path="url(#ce_50)" preserveAspectRatio="none" x="194" y="381" width="26" height="47" xlink:href="img/15.jpg"/>
<image clip-path="url(#cf_50)" preserveAspectRatio="none" x="236" y="379" width="51" height="25" xlink:href="img/16.jpg"/>
<image clip-path="url(#cg_50)" preserveAspectRatio="none" x="236" y="404" width="51" height="26" xlink:href="img/17.jpg"/>
<image clip-path="url(#ch_50)" preserveAspectRatio="none" x="300" y="379" width="52" height="25" xlink:href="img/18.jpg"/>
<image clip-path="url(#ci_50)" preserveAspectRatio="none" x="300" y="404" width="52" height="26" xlink:href="img/19.jpg"/>
<image clip-path="url(#cj_50)" preserveAspectRatio="none" x="368" y="379" width="51" height="25" xlink:href="img/20.jpg"/>
<image clip-path="url(#ck_50)" preserveAspectRatio="none" x="368" y="404" width="51" height="26" xlink:href="img/21.jpg"/>
</svg>