<?xml version="1.0" encoding="UTF-8" standalone="no"?>
<!DOCTYPE svg PUBLIC "-//W3C//DTD SVG 1.1//EN"
"http://www.w3.org/Graphics/SVG/1.1/DTD/svg11.dtd">
<svg viewBox="0 0 541 866" version="1.1" xmlns="http://www.w3.org/2000/svg" xmlns:xlink="http://www.w3.org/1999/xlink">
<defs>
<clipPath id="c0_186"><path d="M175.8,252.4V225.8h40.8v26.6Z"/></clipPath>
<clipPath id="c1_186"><path d="M216.6,252.4V225.8h40.8v26.6Z"/></clipPath>
<clipPath id="c2_186"><path d="M262.3,252.4V225.8h40.8v26.6Z"/></clipPath>
<clipPath id="c3_186"><path d="M303.1,252.4V225.8h40.8v26.6Z"/></clipPath>
<clipPath id="c4_186"><path d="M378.5,387.6V358.5h44.6v29.1Z"/></clipPath>
<clipPath id="c5_186"><path d="M423.1,387.6V358.5h44.6v29.1Z"/></clipPath>
<clipPath id="c6_186"><path d="M378.5,552.5V523.8h44v28.7Z"/></clipPath>
<clipPath id="c7_186"><path d="M422.5,552.5V523.8h44v28.7Z"/></clipPath>
<clipPath id="c8_186"><path d="M353.9,615.6V576.8h51v38.8Z"/></clipPath>
<clipPath id="c9_186"><path d="M353.9,654.3V615.5h51v38.8Z"/></clipPath>
<clipPath id="ca_186"><path d="M416.1,654.3V576.8h51v77.5Z"/></clipPath>
<clipPath id="cb_186"><path d="M416,712.3V673.5h51v38.8Z"/></clipPath>
<clipPath id="cc_186"><path d="M416,750.9V712.2h51v38.7Z"/></clipPath>
</defs>
<image clip-path="url(#c0_186)" preserveAspectRatio="none" x="176" y="226" width="41" height="27" xlink:href="img/1.jpg"/>
<image clip-path="url(#c1_186)" preserveAspectRatio="none" x="217" y="226" width="41" height="27" xlink:href="img/2.jpg"/>
<image clip-path="url(#c2_186)" preserveAspectRatio="none" x="262" y="226" width="42" height="27" xlink:href="img/3.jpg"/>
<image clip-path="url(#c3_186)" preserveAspectRatio="none" x="303" y="226" width="42" height="27" xlink:href="img/4.jpg"/>
<image clip-path="url(#c4_186)" preserveAspectRatio="none" x="378" y="358" width="45" height="30" xlink:href="img/5.jpg"/>
<image clip-path="url(#c5_186)" preserveAspectRatio="none" x="423" y="358" width="45" height="30" xlink:href="img/6.jpg"/>
<image clip-path="url(#c6_186)" preserveAspectRatio="none" x="378" y="524" width="45" height="29" xlink:href="img/7.jpg"/>
<image clip-path="url(#c7_186)" preserveAspectRatio="none" x="422" y="524" width="45" height="29" xlink:href="img/8.jpg"/>
<image clip-path="url(#c8_186)" preserveAspectRatio="none" x="354" y="577" width="51" height="39" xlink:href="img/9.jpg"/>
<image clip-path="url(#c9_186)" preserveAspectRatio="none" x="354" y="616" width="51" height="38" xlink:href="img/10.jpg"/>
<image clip-path="url(#ca_186)" preserveAspectRatio="none" x="416" y="577" width="52" height="77" xlink:href="img/11.jpg"/>
<image clip-path="url(#cb_186)" preserveAspectRatio="none" x="416" y="673" width="52" height="39" xlink:href="img/12.jpg"/>
<image clip-path="url(#cc_186)" preserveAspectRatio="none" x="416" y="712" width="52" height="39" xlink:href="img/13.jpg"/>
</svg>