<?xml version="1.0" encoding="UTF-8" standalone="no"?>
<!DOCTYPE svg PUBLIC "-//W3C//DTD SVG 1.1//EN"
"http://www.w3.org/Graphics/SVG/1.1/DTD/svg11.dtd">
<svg viewBox="0 0 541 866" version="1.1" xmlns="http://www.w3.org/2000/svg" xmlns:xlink="http://www.w3.org/1999/xlink">
<defs>
<style type="text/css"><![CDATA[
.g0_2{
fill: #231F20;
}
]]></style>
</defs>
<path d="M254.2,702.6h5.4V658.7h-5.4v43.9Z" class="g0_2"/>
<path d="M262.6,679.6l.7,-.4c.6,-.4,1.1,-.7,1.5,-1.1c1,-.7,1.9,-1.4,2.8,-2.1c.4,-.4,.9,-.8,1.3,-1.1c.5,-.4,.9,-.8,1.3,-1.1c.4,-.4,.9,-.8,1.3,-1.2c.4,-.4,.8,-.7,1.2,-1.1l.6,-.6l.5,-.6c.2,-.2,.4,-.4,.6,-.6c.2,-.2,.4,-.4,.5,-.6l.6,-.6l.5,-.6c.1,-.2,.3,-.4,.4,-.6l.3,-.3l.2,-.3c.1,-.2,.3,-.4,.4,-.7l.5,-.6c.2,-.4,.5,-.8,.7,-1.3l.1,-.3l.2,-.3c.1,-.3,.2,-.5,.3,-.7c0,-.2,.1,-.4,.2,-.7l.1,-.6l.1,-.5l-.6,.3c-.8,.3,-1.5,.5,-2.4,.5h-.2c-.2,0,-.3,0,-.4,0c-.2,0,-.3,0,-.5,0H275l-.4,-.1c-.1,0,-.3,0,-.4,0c-.3,0,-.6,-.1,-.9,-.1l-.4,-.1c-.1,0,-.2,-.1,-.4,-.1v.1l.3,.2l.3,.2l.4,.2c.1,0,.3,.1,.4,.2c.1,0,.3,.1,.4,.1c.2,0,.3,.1,.5,.1c.1,0,.3,.1,.5,.1c.1,0,.3,0,.5,.1c.1,0,.3,0,.5,0h.5c.2,0,.4,0,.5,-.1h.3c0,.2,-.2,.4,-.2,.7l-.2,.3l-.1,.3c-.2,.4,-.5,.8,-.7,1.2l-.4,.6c-.2,.2,-.3,.4,-.5,.6l-.2,.3l-.2,.3c-.2,.2,-.3,.4,-.5,.6l-.4,.6l-.5,.6c-.2,.2,-.4,.4,-.5,.6c-.2,.2,-.4,.4,-.6,.6l-1.1,1.2c-.3,.4,-.7,.8,-1.1,1.1c-.4,.4,-.8,.8,-1.1,1.2c-.4,.4,-.8,.7,-1.3,1.1c-.4,.4,-.8,.8,-1.2,1.1c-.9,.8,-1.7,1.5,-2.6,2.2l-.7,.6c-.2,.2,-.4,.3,-.6,.5c-.5,.4,-.9,.8,-1.2,1.2c.3,-.1,.6,-.3,.9,-.5Z" class="g0_2"/>
<path d="M268.1,677.8c.6,-.3,1.1,-.6,1.7,-.9c.5,-.4,1.1,-.7,1.6,-1c.6,-.3,1.1,-.6,1.6,-1c.6,-.3,1.1,-.6,1.6,-1c.5,-.3,1,-.7,1.5,-1c.5,-.4,1,-.7,1.5,-1.1c.2,-.2,.4,-.3,.7,-.5c.2,-.2,.4,-.4,.7,-.6l.6,-.5c.3,-.2,.5,-.4,.7,-.6c.2,-.2,.4,-.4,.6,-.6c.2,-.2,.4,-.3,.6,-.5l.6,-.6l.6,-.6c.1,-.2,.3,-.4,.5,-.6l.1,-.2l.2,.2c.3,.2,.5,.3,.7,.4c.2,0,.3,.1,.4,.1c.2,.1,.3,.1,.5,.1c.1,.1,.3,.1,.5,.1c.1,0,.3,.1,.4,.1c.2,0,.4,0,.6,0c-.3,.3,-.6,.7,-1,1c-.7,.7,-1.5,1.4,-2.4,2c-.3,.2,-.5,.3,-.7,.5c-.3,.2,-.5,.3,-.7,.5c-.5,.3,-1,.6,-1.5,.9c-1,.6,-2.1,1.1,-3.2,1.7c-2.2,1.1,-4.5,2.1,-6.9,3.1c-1.2,.5,-2.4,1,-3.7,1.4l-.1,.1c.6,-.3,1.1,-.6,1.7,-.9Zm-4.9,2.3c.3,-.1,.5,-.2,.8,-.2l1,-.3c.6,-.1,1.3,-.3,1.9,-.6c1.3,-.4,2.6,-.8,3.8,-1.3c2.5,-.9,4.9,-1.9,7.2,-3c.6,-.3,1.2,-.6,1.7,-.8c.6,-.3,1.1,-.6,1.7,-.9c.5,-.3,1,-.6,1.5,-.9c.5,-.4,1,-.7,1.5,-1c.9,-.7,1.8,-1.4,2.6,-2.1c.8,-.8,1.4,-1.6,1.9,-2.4l.2,-.5l-.7,.3H288l-.4,.1l-.3,.1h-1.5l-.3,-.1c-.3,0,-.5,0,-.7,-.1c-.3,0,-.5,-.1,-.7,-.2c-.2,0,-.4,-.1,-.5,-.1V666c.2,-.2,.4,-.4,.5,-.6l.2,-.3l.2,-.4c.1,-.2,.2,-.4,.3,-.6l.2,-.7l.2,-.4l-.6,.2c-1.4,.3,-2.6,.4,-4,.2h-.3c-.2,-.1,-.4,-.1,-.6,-.2l.2,.2c.7,.5,1.7,.8,2.6,.8h.1l-.1,.2c-.3,.3,-.5,.7,-.8,1.1l-.2,.3l-.3,.3c-.1,.2,-.3,.4,-.5,.6l-.5,.5l-.5,.6c-.2,.2,-.4,.4,-.6,.6c-.2,.2,-.4,.3,-.6,.5c-.2,.2,-.4,.4,-.6,.6c-.2,.2,-.4,.3,-.6,.5c-.2,.2,-.4,.4,-.6,.6c-.2,.1,-.4,.3,-.7,.5c-.4,.4,-.8,.7,-1.3,1.1c-.4,.3,-.9,.7,-1.4,1c-.4,.4,-.9,.7,-1.4,1.1c-.5,.3,-1,.7,-1.5,1c-.5,.3,-1,.7,-1.5,1c-.5,.3,-1.1,.7,-1.6,1l-1.6,1c-.5,.3,-1,.6,-1.6,.9c-.2,.2,-.5,.4,-.8,.5c-.2,.2,-.5,.4,-.8,.5l.1,.1c.2,-.1,.4,-.2,.6,-.2Z" class="g0_2"/>
<path d="M266.2,658.7h5.3c0,0,4.3,10.8,-11.2,21.4c9.8,-13.1,5.9,-21.4,5.9,-21.4Z" class="g0_2"/>
<path d="M262.6,681.7l.8,.5c.5,.3,1,.6,1.5,1c.9,.7,1.8,1.4,2.7,2.1c.5,.4,.9,.8,1.4,1.1c.4,.4,.8,.8,1.3,1.2c.4,.3,.8,.7,1.2,1.1c.4,.4,.8,.7,1.2,1.1l.6,.6l.6,.6c.2,.2,.4,.4,.5,.6c.2,.2,.4,.4,.6,.6l.5,.6l.5,.6c.2,.2,.3,.4,.5,.6l.2,.3l.2,.3c.2,.2,.4,.5,.5,.7l.4,.6c.3,.4,.5,.8,.7,1.3l.2,.3l.1,.3c.1,.3,.2,.5,.3,.7c.1,.2,.2,.4,.2,.7l.2,.6l.1,.5L279,700c-.8,-.3,-1.6,-.5,-2.5,-.5h-.2c-.1,0,-.3,0,-.4,0c-.1,0,-.3,0,-.4,0h-.4l-.5,.1c-.1,0,-.2,0,-.4,0c-.3,0,-.5,.1,-.8,.1c-.1,.1,-.3,.1,-.4,.1c-.2,0,-.3,.1,-.5,.1v-.1l.3,-.2l.4,-.2l.3,-.2c.2,0,.3,-.1,.4,-.1c.2,-.1,.3,-.1,.5,-.2c.1,0,.3,-.1,.4,-.1c.2,0,.3,-.1,.5,-.1c.2,0,.3,0,.5,0c.2,-.1,.4,-.1,.5,-.1h.6c.1,0,.3,.1,.5,.1h.3c-.1,-.2,-.2,-.4,-.3,-.6l-.1,-.4l-.2,-.3c-.2,-.4,-.4,-.8,-.7,-1.2l-.4,-.6c-.1,-.2,-.3,-.4,-.4,-.6l-.2,-.3l-.3,-.3c-.1,-.2,-.3,-.4,-.4,-.6l-.5,-.6l-.5,-.6c-.1,-.2,-.3,-.4,-.5,-.6c-.2,-.2,-.3,-.4,-.5,-.6l-1.1,-1.2c-.4,-.4,-.7,-.7,-1.1,-1.1c-.4,-.4,-.8,-.8,-1.2,-1.2c-.4,-.3,-.8,-.7,-1.2,-1.1c-.4,-.4,-.8,-.7,-1.3,-1.1c-.8,-.8,-1.7,-1.5,-2.6,-2.2l-.6,-.6c-.3,-.1,-.5,-.3,-.7,-.5c-.4,-.4,-.8,-.8,-1.2,-1.2h.1c.3,.1,.5,.3,.8,.5Z" class="g0_2"/>
<path d="M266.4,682.6l.2,.1c1.2,.4,2.4,.9,3.6,1.4c2.4,1,4.8,2,6.9,3.1c1.1,.6,2.2,1.1,3.2,1.7c.5,.3,1,.6,1.5,.9c.2,.2,.5,.4,.7,.5c.2,.2,.5,.3,.7,.5c.9,.6,1.8,1.3,2.5,2c.3,.3,.6,.7,.9,1c-.2,0,-.3,0,-.5,0c-.2,0,-.3,.1,-.5,.1c-.2,0,-.3,0,-.5,.1c-.1,0,-.3,0,-.4,.1c-.1,0,-.3,.1,-.4,.1c-.3,.1,-.5,.3,-.7,.4l-.3,.2l-.1,-.1c-.2,-.2,-.3,-.5,-.5,-.7l-.5,-.6l-.6,-.5c-.2,-.2,-.4,-.4,-.6,-.6c-.2,-.2,-.4,-.4,-.7,-.6c-.2,-.2,-.4,-.4,-.6,-.6l-.7,-.5c-.2,-.2,-.4,-.4,-.7,-.6c-.2,-.2,-.4,-.3,-.7,-.5c-.5,-.4,-1,-.7,-1.4,-1.1c-.5,-.3,-1,-.7,-1.6,-1c-.5,-.3,-1,-.7,-1.5,-1c-.6,-.3,-1.1,-.7,-1.6,-1c-.6,-.3,-1.1,-.6,-1.7,-.9c-.5,-.4,-1.1,-.7,-1.7,-1c-.5,-.3,-1.1,-.6,-1.7,-.9ZM262.6,681v.1c.2,.1,.5,.3,.8,.5c.2,.1,.5,.3,.8,.5c.5,.3,1,.6,1.6,.9l1.5,1c.6,.3,1.1,.7,1.6,1c.5,.3,1,.7,1.5,1c.5,.3,1,.7,1.5,1c.5,.4,1,.7,1.5,1.1c.4,.3,.9,.7,1.4,1c.4,.4,.9,.7,1.3,1.1c.2,.2,.4,.4,.6,.5c.2,.2,.5,.4,.7,.6c.2,.2,.4,.4,.6,.5c.2,.2,.4,.4,.6,.6c.2,.2,.4,.4,.6,.5c.2,.2,.4,.4,.5,.6l.6,.6l.5,.5c.2,.2,.3,.4,.5,.6l.2,.3l.2,.3c.3,.4,.5,.8,.8,1.1l.2,.2h-.2c-.8,.1,-1.8,.3,-2.6,.8l-.2,.2c.2,-.1,.4,-.1,.6,-.1l.4,-.1c1.3,-.2,2.6,-.1,3.9,.2l.6,.2l-.1,-.4l-.3,-.7c-.1,-.2,-.2,-.4,-.3,-.6l-.2,-.4l-.2,-.3c-.1,-.2,-.3,-.4,-.4,-.6l-.1,-.1c.2,0,.3,-.1,.5,-.1c.2,-.1,.5,-.1,.7,-.2c.2,-.1,.5,-.1,.7,-.1l.4,-.1c.8,0,1.6,0,2.4,.3l.8,.2l-.3,-.5c-.5,-.8,-1.1,-1.6,-1.9,-2.3c-.7,-.8,-1.6,-1.5,-2.6,-2.2c-.4,-.3,-.9,-.6,-1.4,-.9c-.5,-.4,-1.1,-.7,-1.6,-1c-.5,-.3,-1.1,-.6,-1.6,-.8c-.6,-.3,-1.1,-.6,-1.7,-.9c-2.3,-1.1,-4.7,-2.1,-7.2,-3c-1.3,-.5,-2.5,-.9,-3.8,-1.3c-.7,-.2,-1.3,-.4,-2,-.6l-1,-.3c-.3,0,-.5,-.1,-.8,-.1c-.2,-.1,-.4,-.2,-.6,-.3Z" class="g0_2"/>
<path d="M266.2,702.6h5.3c0,0,4.3,-10.8,-11.1,-21.4c9.7,13.1,5.8,21.4,5.8,21.4Z" class="g0_2"/>
</svg>